<svg width="2080" height="1128" viewBox="0 0 2080 1128" fill="none" xmlns="http://www.w3.org/2000/svg">
<g clip-path="url(#clip0_2220_23815)" filter="url(#filter0_d_2220_23815)">
<rect width="2000" height="1048" transform="translate(40 32)" fill="black"/>
<g opacity="0.4" clip-path="url(#clip1_2220_23815)">
<path fill-rule="evenodd" clip-rule="evenodd" d="M318.26 1273.63C342.728 1297.92 407.315 1288.15 437.327 1286.4C496.676 1282.95 555.144 1276.11 613.722 1269.98C672.299 1263.85 730.893 1257.56 790.535 1255.49C829.255 1254.15 873.841 1251.66 914.112 1264.76C999.922 1292.69 900.226 1375.49 877.834 1400.37C820.88 1463.68 750.459 1531.2 723.709 1617.18C707.741 1668.51 723.974 1711.57 774.414 1747.56C790.797 1759.28 813.863 1768.56 821.713 1788.09C830.099 1808.95 824.188 1831.74 817.938 1849.31C795.117 1913.36 747.565 1965.68 704.195 2014.23C657.482 2066.63 606.629 2115.82 557.642 2165.25C536.87 2186.2 524.228 2217.14 511.794 2244.45C495.492 2280.24 480.701 2316.93 465.453 2353.34C431.854 2433.4 397.763 2516.43 343.538 2582.46C309.581 2623.81 263.43 2659.96 202.028 2657.06C171.198 2655.6 139.513 2639.29 109.704 2626.46C73.6722 2610.99 37.7988 2594.85 1.5078 2580.45C-115.382 2534.05 -245.486 2504.6 -331.178 2582.27C-344.139 2594.03 -354.306 2608.13 -366.235 2620.8C-373.84 2628.86 -383.121 2633.52 -396.034 2626.43C-428.44 2608.66 -445.034 2546.05 -455.504 2516.72C-478.417 2452.49 -496.737 2387.59 -517.611 2323.07C-531.41 2280.4 -545.008 2216.83 -579.051 2182.26C-609.385 2151.46 -664.788 2162.68 -697.977 2165.76C-729.066 2168.65 -779.58 2179.71 -810.119 2152.9C-824.926 2139.9 -828.937 2120.86 -830.035 2104.08C-831.925 2074.69 -827.118 2047.82 -832.592 2017.61C-841.582 1968.05 -864.914 1910.83 -907.113 1874.14C-936.356 1848.72 -967.031 1843.59 -1000.39 1842.74C-1014.42 1842.37 -1025.05 1842.83 -1037.09 1831.51C-1056.22 1813.54 -1069.9 1787.97 -1082.19 1765.87C-1126.19 1686.79 -1160.78 1602.37 -1188.63 1519.1C-1202.55 1477.49 -1215.27 1434.84 -1220.59 1392.8C-1224.12 1365.22 -1226.41 1330.49 -1208.05 1312.17C-1186.81 1290.93 -1154.98 1277.81 -1127.35 1264.17C-1075.72 1238.68 -1022.51 1215.71 -969.072 1193.27C-845.465 1141.4 -719.777 1093.26 -592.01 1048.86C-501.964 1017.63 -410.589 985.153 -314.482 967.24C-295.686 963.799 -276.24 962.257 -256.406 962.634C-235.399 962.852 -217.751 954.702 -201.132 945.163C-97.9833 885.959 -25.9186 780.157 45.0183 688.065C63.0285 664.695 81.0244 641.311 99.8961 618.686C116.119 599.236 132.845 573.254 157.134 562.871C204.977 542.395 225.55 622.692 233.476 655.867C261.385 772.674 265.255 891.241 274.599 1006.89C279.089 1061.93 283.309 1117.08 290.859 1172.43C294.764 1201.22 296.81 1252.35 318.26 1273.63Z" stroke="#9DDF30" stroke-width="3.76655"/>
<path fill-rule="evenodd" clip-rule="evenodd" d="M307.054 1293.06C346.471 1305.23 389.438 1300.39 427.221 1298.49C481.602 1295.76 535.446 1290.71 589.551 1286.79C640.712 1283.1 692.201 1279.61 744.553 1281.16C776.476 1282.11 815.564 1282.33 847.208 1299.3C915.809 1336.07 822.201 1413.69 802.444 1436.2C753.31 1492.16 694.519 1552.51 673.647 1628.86C660.616 1676.54 676.873 1717.74 723.229 1751.15C739.266 1762.71 755.079 1770.46 763.702 1789.29C773.686 1811.08 770.014 1834.56 764.558 1854C747.474 1914.9 706.04 1965.64 667.647 2011.78C627.984 2059.44 585.311 2107.75 540.125 2147.09C522.06 2162.82 509.224 2188.89 497.573 2210.68C479.656 2244.23 463.201 2278.72 445.981 2312.71C410.996 2381.8 374.034 2451.62 321.767 2507.62C284.034 2548.06 235.965 2581.49 175.163 2585.72C113.525 2589.99 54.4388 2560.14 -6.10543 2536.15C-110.745 2494.63 -242.224 2448.4 -330.68 2505.98C-344.097 2514.7 -353.465 2526.62 -365.101 2537.1C-371.08 2542.5 -378.478 2548.05 -388.205 2544.09C-413.456 2533.81 -425.417 2480.82 -432.118 2460.31C-450.642 2403.62 -464.953 2346.41 -481.836 2289.54C-495.238 2244.38 -507.647 2191.72 -536.214 2150.87C-570.882 2101.29 -649.551 2120.02 -696.335 2107.49C-777.454 2085.75 -750.506 2000.2 -747.295 1947.95C-743.6 1887.95 -768.671 1810.3 -840.775 1795.3C-868.35 1789.56 -891.714 1793.07 -918.327 1776.21C-959.947 1749.85 -993.023 1705.24 -1020.44 1665.45C-1061.62 1605.61 -1096.84 1540.89 -1122.43 1475.18C-1140.74 1428.13 -1168.16 1353.04 -1129.4 1321.97C-1103.33 1301.03 -1070.07 1286.51 -1038.9 1271.91C-992.239 1250.05 -944.273 1230.35 -895.941 1211.37C-784.464 1167.48 -670.377 1127.92 -554.076 1093.58C-474.711 1070.17 -217.041 1041.14 -202.177 1034.43C-157.866 1014.42 -123.438 975.712 -92.164 940.672C-50.5585 894.064 -13.1534 843.699 24.6928 793.844C42.7239 770.129 60.2275 745.676 79.8118 723.293C93.7523 707.363 112.514 686.895 136.191 684.407C182.395 679.542 201.24 755.284 209.484 787.058C234.783 884.44 242.31 983.153 253.875 1080.22C259.563 1127.86 264.888 1175.78 274.65 1223.63C278.601 1242.94 282.703 1285.55 307.054 1293.06Z" stroke="#9DDF30" stroke-width="3.76655"/>
<path fill-rule="evenodd" clip-rule="evenodd" d="M301.427 1325.14C390.248 1339.54 479.989 1326.58 567.417 1325.36C611.304 1324.76 655.921 1324.6 700.886 1331.2C724.271 1334.62 753.685 1339.11 774.293 1355.87C829.418 1400.72 745.494 1471.12 724.296 1496.12C683.324 1544.45 635.672 1597.69 620.669 1663.71C611.512 1704.05 624.917 1741.84 663.182 1770.85C680.159 1783.73 696.031 1793.21 705.443 1813.11C714.976 1833.27 714.382 1854.82 711.026 1873.88C701.399 1928.68 668.587 1975.94 637.697 2017.59C601.416 2066.4 560.996 2111.72 516.761 2153.17C478.038 2189.49 454.208 2240.34 426.477 2285.88C389.734 2346.21 350.618 2405.92 299.398 2454.03C258.937 2492.01 209.689 2521.83 150.337 2529.54C89.9671 2537.32 30.1208 2518.44 -30.8226 2494.44C-122.951 2458.15 -243.788 2406.9 -329.427 2443.77C-341.889 2449.12 -350.583 2457.04 -360.389 2465.61C-365.151 2469.77 -371.005 2475.44 -378.898 2471.98C-397.898 2463.63 -404.721 2417.43 -408.466 2402.69C-420.425 2355.66 -429.579 2308.48 -440.71 2261.4C-451.101 2217.45 -461.139 2170.86 -482.557 2128.59C-516.68 2061.3 -599.364 2084.68 -646.202 2034.87C-675.275 2003.94 -673.245 1958.88 -669.483 1925.35C-664.829 1884.1 -643.808 1839.01 -665.716 1794.12C-682.033 1760.69 -709.941 1759.64 -739.16 1751.11C-788.669 1736.65 -833.218 1694.49 -868.417 1655.64C-915.987 1603.15 -957.147 1542.78 -986.777 1480.44C-1000.21 1452.18 -1012.82 1421.42 -1015.64 1391.86C-1018.3 1364.17 -1010.33 1348.43 -990.494 1334.8C-929.745 1293.1 -851.477 1267.92 -778.645 1242.51C-687.131 1210.59 -593.37 1182.61 -497.311 1160.57C-431.806 1145.54 -363.929 1131.07 -293.717 1130.59C-275.415 1130.47 -256.103 1130.92 -237.377 1136.17C-223.273 1140.09 -213.67 1145.37 -199.942 1141.94C-159.258 1131.74 -127.862 1092.37 -102.191 1063.53C-61.1321 1017.43 -24.4767 967.339 12.7885 917.977C34.5098 889.149 70.9434 830.355 117.942 836.989C158.519 842.723 176.979 903.227 186.639 934.363C211.061 1013.11 221.394 1093.33 235.594 1172.36C242.101 1208.58 248.189 1245.55 259.672 1281.58C262.592 1290.77 265.594 1303.81 272.088 1312.03C279.55 1321.43 290.498 1323.34 301.427 1325.14Z" stroke="#9DDF30" stroke-width="3.76655"/>
<path fill-rule="evenodd" clip-rule="evenodd" d="M286.211 1316.32C366.228 1327.58 445.14 1323.65 524.756 1329.44C560.453 1332.04 597.253 1335.41 633.221 1346.16C652.566 1351.94 675.58 1360.55 689.322 1378.03C728.766 1428.21 661.254 1487.63 638.239 1515.89C603.995 1557.85 564.11 1605.5 554.585 1663.35C548.343 1701.24 563.441 1732.89 597.705 1758.92C634.463 1786.83 648.046 1820.19 643.58 1860.73C637.961 1911.55 611.556 1956.37 585.339 1995.68C553.715 2043 517.222 2086.44 476.306 2125.5C436.51 2163.47 406.789 2209.1 373.331 2252.9C328.965 2310.96 279.484 2367.2 214.804 2403.8C158.488 2435.66 91.7208 2448.54 20.2005 2436.73C-54.4693 2424.42 -124.696 2385.07 -198.127 2362.27C-243.928 2348.06 -305.646 2330.38 -346.821 2348.23C-360.554 2354.18 -373.241 2377.36 -384.52 2350.36C-390.974 2334.92 -392.168 2316.91 -394.473 2301.32C-398.199 2276.13 -401.172 2250.97 -404.519 2225.8C-411.657 2172.14 -417.792 2116.18 -436.355 2062.74C-459.71 1995.45 -527.247 1993.23 -569.223 1943.29C-591.816 1916.42 -597.464 1882.59 -598.063 1852.18C-598.463 1832.49 -596.608 1813.24 -593.95 1794.35C-591.176 1774.62 -584.319 1754.84 -585.467 1734.07C-587.08 1704.49 -611.616 1692.09 -634.404 1674.55C-674.457 1643.73 -711.468 1608.74 -744.599 1570.39C-785.213 1523.39 -822.785 1470.84 -846.821 1415.26C-856.184 1393.62 -864.841 1369.42 -863.689 1347.48C-862.537 1325.55 -849.886 1314.32 -833.528 1304.22C-785.046 1274.23 -724.376 1256.59 -666.765 1239.77C-594.654 1218.71 -520.456 1201.57 -444.388 1190.42C-391.879 1182.72 -337.471 1176.72 -281.907 1181.92C-265.74 1183.43 -249.304 1185.93 -233.099 1190.86C-221.982 1194.24 -210.554 1201.52 -199.5 1201.37C-164.953 1200.83 -134.817 1160.54 -115.235 1138.98C-76.1523 1095.96 -45.1135 1046.18 -6.38879 1002.91C14.7432 979.284 46.6589 941.109 86.3437 947.928C123.655 954.332 144.085 1002.76 155.909 1033.05C179.168 1092.62 191.676 1153.9 208.312 1214.25C215.167 1239.08 221.892 1265.5 234.158 1289.41C245.101 1310.7 265.7 1313.43 286.211 1316.32Z" stroke="#9DDF30" stroke-width="3.76655"/>
<path fill-rule="evenodd" clip-rule="evenodd" d="M277.013 1324.03C344.537 1336.82 413.176 1339.48 481.552 1352.73C521.587 1360.49 589.552 1372.89 610.77 1419.06C634.107 1469.78 587.399 1518.5 562.801 1549.07C533.524 1585.45 499.824 1628.85 494.849 1680.06C493.272 1696.25 495.377 1713.5 504.911 1729.45C515.113 1746.52 530.801 1754.7 544.941 1767.86C574.604 1795.47 583.586 1832.47 580.836 1866.8C576.958 1915.33 554.749 1958.65 531.16 1996.95C504.398 2040.31 472.847 2080.05 436.957 2115.59C402.683 2149.58 369.835 2184.27 336.734 2219.5C293.472 2265.61 245.866 2308.62 188.04 2337.49C131.067 2365.91 65.492 2377.97 -4.35673 2369.11C-72.5084 2360.45 -139.52 2333.58 -204.914 2303.34C-242.027 2286.18 -299.434 2262.47 -336.933 2272.55C-353.614 2277.03 -363.577 2287.83 -368.195 2260.72C-374.008 2226.57 -370.947 2191.45 -371.627 2157.95C-372.619 2109.62 -373.5 2060.22 -382.953 2011.03C-388.988 1979.62 -401.503 1955.8 -426.618 1932.43C-445.76 1914.64 -467.098 1899.43 -484.087 1879.34C-523.97 1832.2 -525.726 1774.28 -528.684 1721.67C-530.583 1687.82 -529.627 1659.61 -546.826 1625.97C-567.147 1586.2 -595.752 1549.43 -620.448 1511.74C-647.566 1470.34 -674.955 1426.47 -689.546 1380.71C-702.539 1339.98 -697.717 1311.07 -665.233 1293.06C-614.575 1264.96 -547.976 1253.93 -487.313 1244.68C-425.579 1235.25 -361.204 1229.68 -295.772 1236.14C-260.441 1239.63 -226.784 1251.56 -191.793 1258.28C-147.83 1266.68 -117.517 1216.53 -95.8258 1190.41C-59.8182 1147.04 37.529 994.635 115.173 1095.32C147.581 1137.35 162.989 1190.64 181.98 1237.34C189.869 1256.71 197.917 1281.37 212.237 1298.29C227.833 1316.72 256.697 1320.17 277.013 1324.03Z" stroke="#9DDF30" stroke-width="3.76655"/>
<path fill-rule="evenodd" clip-rule="evenodd" d="M259.153 1335.07C316.457 1350.55 375.866 1359.9 433.115 1381.26C470.211 1395.08 515.653 1417.66 527.57 1459.61C541.015 1506.95 510.727 1551.41 487.139 1582.74C462.833 1615.02 432.412 1652.15 432.333 1698.32C432.317 1713.02 436.151 1728.98 446.876 1741.96C457.157 1754.42 471.601 1762.72 482.158 1775.31C505.872 1803.59 514.375 1837.93 513.257 1870.11C509.956 1965.33 446.861 2048.86 388.63 2109.49C359.479 2139.84 325.73 2167.32 293.544 2195.01C251.78 2230.95 206.617 2263.61 154.492 2285.59C43.6772 2332.33 -80.1749 2314.08 -205.463 2262.55C-244.897 2246.33 -283.889 2225.1 -324.441 2220.93C-345.366 2218.75 -351.61 2208.41 -352.556 2188.3C-354.026 2156.85 -348.323 2125.99 -345.425 2095.62C-341.3 2052.42 -336.961 2008.43 -339.438 1964.1C-341.146 1933.55 -346.45 1907.77 -367.532 1880.47C-382.561 1861.01 -400.653 1843.95 -416.674 1825.26C-447.103 1789.76 -471.131 1748.35 -483.093 1705.62C-492.544 1671.73 -497.692 1637.48 -501.434 1603.66C-506.337 1559.65 -514.645 1518.27 -528.819 1474.4C-547.552 1416.3 -590.758 1317.78 -525.639 1290.17C-453.807 1259.72 -353.296 1264.37 -269.541 1282.51C-241.418 1288.59 -211.395 1300.53 -183.922 1298.28C-142.823 1294.89 -120.913 1271.66 -94.5314 1245.12C-55.0245 1205.4 20.6794 1108.7 94.0387 1180.2C123.101 1208.53 140.059 1245.83 162.788 1278.31C188.207 1314.71 220.069 1324.55 259.153 1335.07Z" stroke="#9DDF30" stroke-width="3.76655"/>
<path fill-rule="evenodd" clip-rule="evenodd" d="M240.33 1347.4C308.445 1374.14 432.768 1405.7 450.231 1493.72C459.468 1540.23 436.981 1583.66 415.573 1617.56C398.37 1644.86 373.431 1673.59 378.021 1711.8C381.4 1739.9 409.788 1757.31 424.753 1781.75C443.298 1812.05 449.794 1845.52 448.24 1877.11C443.901 1965.4 392.385 2042.68 339.412 2101.14C284.389 2161.84 207.346 2212.31 127.337 2241.2C27.5672 2277.22 -83.658 2267.72 -195.668 2226.85C-216.342 2219.3 -236.785 2210.79 -257.367 2202.81C-271.18 2197.46 -286.725 2194.47 -300.139 2187.73C-322.497 2176.49 -329.685 2156.21 -330.141 2134.76C-330.812 2103.9 -323.489 2074.14 -318.112 2045.1C-310.77 2005.37 -302.612 1965.42 -299.718 1924.53C-297.79 1897.04 -296.162 1867.87 -313.075 1840.43C-324.607 1821.71 -339.883 1804.94 -355.677 1789.41C-389.546 1756.1 -415.264 1727.49 -433.181 1683.88C-462.546 1612.23 -475.452 1534.31 -478.897 1462.18C-481.6 1405.58 -485.021 1316.86 -425.925 1297.42C-372.939 1279.94 -309.834 1301.83 -252.265 1312.97C-224.276 1318.39 -196.344 1320.96 -169.567 1317.95C-135.809 1314.14 -111.844 1302.75 -87.1419 1282.95C-45.5644 1249.62 11.9795 1194.22 78.3795 1237.47C102.886 1253.42 121.402 1276.82 144.139 1295.07C174.167 1319.24 205.969 1333.91 240.33 1347.4Z" stroke="#9DDF30" stroke-width="3.76655"/>
<path fill-rule="evenodd" clip-rule="evenodd" d="M217.065 1367.15C283.693 1404.32 368.449 1450.38 378.998 1532.08C384.11 1571.66 372.361 1608.39 358.236 1641.18C348.124 1664.67 323.415 1693.32 333.681 1724.19C341.251 1746.89 361.084 1768.82 370.456 1791.88C383.346 1823.58 387.462 1856.19 385.123 1887.28C379.038 1968.28 336.798 2039.47 289.222 2095.33C185.835 2216.71 -0.139184 2259.43 -178.119 2201.72C-231.177 2184.52 -291.71 2170.28 -298.621 2105.42C-306.135 2034.63 -276.818 1968.63 -266.878 1903.05C-263.072 1878 -257.455 1846.85 -268.637 1819.57C-275.355 1803.17 -289.526 1788.33 -302.031 1775.39C-333.86 1742.39 -360.802 1711.04 -380.366 1670.12C-410.609 1606.89 -427.427 1537.47 -432.943 1472.35C-437.749 1415.56 -436.876 1342.3 -376.926 1326.76C-330.922 1314.88 -276.351 1332.73 -227.168 1336.94C-172.412 1341.65 -121.428 1330.73 -77.651 1306.53C-35.0907 1282.97 7.57802 1253.11 65.3548 1276.04C85.1736 1283.9 109.341 1295.58 126.902 1308.66C155.779 1330.31 185.933 1349.87 217.065 1367.15Z" stroke="#9DDF30" stroke-width="3.76655"/>
<path fill-rule="evenodd" clip-rule="evenodd" d="M834.154 624.421C890.384 679.174 972.217 712.684 1016.83 781.159C1053.47 837.396 1008.01 890.601 999.461 941.233C992.66 981.464 1008.92 1024.42 1024.62 1065.55C1038.7 1102.48 1054.7 1139.01 1067.75 1176.14C1076.18 1200.15 1094.65 1245.37 1078.32 1262.85C1062.7 1279.58 1023.05 1269.6 998.981 1264.32C967.607 1257.45 936.359 1247.93 905.034 1240.4C852.214 1227.68 803.902 1227.48 753.4 1232.07C695.932 1237.3 638.839 1243.93 582.121 1251.98C540.308 1257.85 498.467 1264.02 455.803 1267.19C429.038 1269.17 374.063 1277.65 351.075 1254.95C340.106 1244.12 336.496 1223.59 333.488 1209.17C328.393 1184.77 325.911 1160.29 323.754 1136.06C319.735 1090.93 317.703 1046.04 315.154 1001.1C311.848 942.768 307.814 886.178 297.013 827.008C285.805 765.79 272.287 704.496 259.768 643.225C251.283 601.722 239.705 557.161 248.18 518.012C258.834 469.015 303.531 464.749 333.927 434.821C360.08 409.08 431.559 484.386 455.263 501.496C479.228 518.843 505.748 530.779 529.28 548.659C558.65 570.981 585.139 597.377 612.129 622.634C645.134 653.534 675.972 683.535 716.133 667.744C738.978 658.745 757.657 642.977 778.284 630.644C791.651 622.659 816.39 607.122 834.154 624.421Z" stroke="#9DDF30" stroke-width="3.76655"/>
<path fill-rule="evenodd" clip-rule="evenodd" d="M831.277 647.049C880.513 690.845 956.117 734.314 988.939 797.524C1016.99 851.538 981.712 897.455 975.929 946.347C971.14 986.693 990.187 1025.83 1007.49 1065.69C1021.36 1097.67 1035.73 1129.59 1047.66 1162.06C1056.44 1185.99 1072.49 1225.16 1060.14 1244.29C1049.03 1261.49 1009.47 1252.28 989.129 1247.83C959.434 1241.31 929.859 1231.56 900.37 1222.55C848.566 1206.72 799.737 1194.73 748.567 1196.22C697.174 1197.72 649.589 1208 600.933 1217.83C562.867 1225.52 524.477 1232.64 485.206 1236.84C455.959 1239.98 415.969 1246.54 385.279 1230.67C360.996 1218.11 360.173 1157.81 358.156 1138.25C354.029 1098.01 352.339 1058.06 350.811 1018.2C348.959 969.618 351.017 923.455 342.885 874.055C328.361 785.72 295.165 690.826 304.429 605.115C310.015 553.419 335.994 515.65 371.299 487.242C385.279 475.993 410.047 494.704 424.316 505.794C448.024 524.214 469.783 545.309 492.965 564.425C514.667 582.319 537.705 596.901 560.526 612.908C583.643 629.13 604.764 648.317 627.108 665.583C640.976 676.306 656.839 689.059 673.602 692.066C690.952 695.183 706.981 687.73 720.5 680.726C745.83 667.513 796.529 616.145 831.277 647.049Z" stroke="#9DDF30" stroke-width="3.76655"/>
<path fill-rule="evenodd" clip-rule="evenodd" d="M834.331 682.938C881.602 721.061 941.186 767.838 961.891 825.811C978.825 873.207 953.28 912.63 951.036 956.79C949.167 993.517 969.597 1028.53 985.777 1063.86C999.046 1092.85 1012.37 1121.98 1022.94 1151.61C1030.97 1174.08 1042.33 1204.07 1033.31 1223.73C1025.59 1240.54 991.368 1234.04 974.433 1230.7C945.583 1225.01 916.791 1215.09 888.318 1205.37C841.733 1189.46 794.241 1170.19 746.995 1166.6C701.12 1163.14 661.366 1173.78 619.329 1183.07C587.128 1190.19 554.565 1196.7 521.085 1200.27C495.385 1203.01 464.159 1207.04 437.65 1195.35C414.77 1185.29 411.73 1149.34 408.332 1129.5C402.733 1096.75 400.209 1064.09 397.404 1031.57C394.385 996.481 394.567 961.143 390.56 926.103C382.104 852.388 362.684 780.83 371.423 709.137C377.078 662.702 393.604 609.132 427.723 581.674C452.265 561.933 510.622 623.204 531.861 640.189C566.606 667.942 606.192 694.022 645.704 712.079C679.582 727.533 709.079 713.248 734.749 698.644C750.837 689.502 765.932 678.156 783.503 671.324C803.848 663.421 814.516 666.957 834.331 682.938Z" stroke="#9DDF30" stroke-width="3.76655"/>
<path fill-rule="evenodd" clip-rule="evenodd" d="M839.032 718.265C877.854 751.641 919.93 794.941 933.516 843.808C945.408 886.62 925.083 921.347 927.053 962.47C928.584 994.559 949.992 1027.97 964.006 1058.42C981.145 1095.64 1017.28 1159.91 1002.17 1195.47C988.114 1228.55 902.726 1192.45 876.08 1182.87C833.905 1167.7 791.168 1147.56 748.311 1137.47C711.411 1128.78 679.91 1135.08 646.309 1141.6C603.437 1149.88 544.097 1168.21 496.716 1148.18C461.407 1133.26 457.216 1062.77 451.134 1034.05C444.795 1004.04 432.164 973.572 426.845 943.818C418.452 896.866 427.412 843.346 436.203 800.55C444.74 758.934 458.998 708.064 488.535 680.707C507.944 662.723 546.745 694.41 567.95 707.637C598.139 726.396 627.669 740.729 660.638 741.052C694.198 741.383 721.766 729.785 749.339 716.187C763.467 709.182 778.299 699.906 794.947 697.647C813.219 695.03 824.107 705.44 839.032 718.265Z" stroke="#9DDF30" stroke-width="3.76655"/>
<path fill-rule="evenodd" clip-rule="evenodd" d="M841.18 757.732C872.215 789.07 899.63 828.168 906.364 869.546C911.974 904.011 896.09 933.292 902.763 967.587C908.04 994.744 925.238 1023.08 936.746 1049.24C950.867 1081.27 978.517 1134.25 964.252 1164.54C950.309 1194.07 886.674 1168.9 860.768 1159.66C822.797 1146.1 785.605 1128.67 747.595 1115.3C717.787 1104.79 692.995 1103.6 664.291 1106.32C630.587 1109.5 587.949 1118.33 552.85 1102.94C527.467 1091.76 515.452 1045.36 505.591 1023.01C498.96 1008.01 491.805 993.19 482.185 979.363C474.695 968.594 466.409 959.983 463.319 947.395C455.558 915.719 479.2 886.931 490.488 862.644C505.485 830.395 520.747 795.528 543.597 768.935C557.622 752.571 582.465 761.906 603.159 765.254C627.618 769.218 652.348 764.93 675.743 762.982C706.643 760.434 733.66 751.052 761.517 741.254C774.085 736.837 788.057 730.86 802.739 732.382C818.009 733.91 829.976 746.424 841.18 757.732Z" stroke="#9DDF30" stroke-width="3.76655"/>
<path fill-rule="evenodd" clip-rule="evenodd" d="M840.097 795.842C863.288 825.037 878.965 859.427 881.678 893.747C883.779 920.077 875.694 944.17 883.051 970.973C889.913 995.954 901.704 1020.37 911.244 1044.88C921.322 1070.79 939.638 1112.64 926.27 1135.8C911.859 1160.76 866.352 1145.58 841.139 1137.16C809.278 1126.51 778.354 1111.71 746.884 1099.21C723.353 1089.97 699.252 1084.09 675.385 1081.79C650.283 1079.3 621.737 1081.41 597.046 1068.16C575.187 1056.42 564.319 1026.63 548.951 1007.92C532.534 987.93 510.284 971.94 504.557 946.406C492.746 893.748 549.981 848.469 578.594 818.477C606.796 788.853 649.767 785.332 691.928 780.7C719.772 777.634 746.358 772.031 773.745 767.73C801.676 763.355 819.688 770.149 840.097 795.842Z" stroke="#9DDF30" stroke-width="3.76655"/>
<path fill-rule="evenodd" clip-rule="evenodd" d="M836.877 829.04C865.943 875.865 858.38 923.764 867.231 972.265C874.487 1011.96 910.94 1072.74 890.054 1106.49C866.338 1144.8 783.354 1098.95 747.715 1084.88C708.184 1069.28 664.452 1068.16 626.409 1047.85C606.435 1037.19 596.143 1018.89 583.315 1001.11C569.223 981.576 554.08 962.346 549.935 939.43C541.781 894.328 578.046 858.433 603.298 831.716C629.436 804.056 671.478 798.508 711.121 795.288C753.137 791.844 807.058 781.033 836.877 829.04Z" stroke="#9DDF30" stroke-width="3.76655"/>
<path fill-rule="evenodd" clip-rule="evenodd" d="M832.296 854.202C849.327 891.242 850.281 934.245 853.97 972.053C857.028 1003.59 876.531 1053.73 857.303 1077.92C834.714 1106.37 782.066 1084.65 749.227 1071.89C716.942 1059.37 679.049 1049.95 648.989 1030.83C617.669 1010.93 598.368 961.236 594.735 928.62C590.686 892.247 609.662 858.336 633.158 836.452C657.735 813.516 696.237 808.421 731.555 807.754C769.311 807.039 812.547 811.183 832.296 854.202Z" stroke="#9DDF30" stroke-width="3.76655"/>
<path fill-rule="evenodd" clip-rule="evenodd" d="M823.585 873.09C836.514 905.133 838.97 940.72 840.663 972.961C841.974 997.848 846.854 1037.51 830.394 1055.07C812.288 1074.38 777.736 1071.54 751.136 1059.81C724.902 1048.24 693.48 1032.27 671.646 1012.63C624.107 969.858 622.047 870.752 662.6 838.432C701.049 807.789 797.837 809.233 823.585 873.09Z" stroke="#9DDF30" stroke-width="3.76655"/>
<path fill-rule="evenodd" clip-rule="evenodd" d="M813.303 888.333C829.417 930.815 839.16 1004.61 810.504 1035.25C777.607 1070.41 722.585 1032.47 693.337 994.356C663.466 955.472 652.942 866.477 690.95 841.916C728.045 817.943 794.182 837.963 813.303 888.333Z" stroke="#9DDF30" stroke-width="3.76655"/>
<path fill-rule="evenodd" clip-rule="evenodd" d="M804.563 906.544C817.931 942.237 824.751 996.697 800.835 1022.47C772.33 1053.17 733.647 1013.37 715.936 982.23C697.558 949.892 684.988 875.838 717.746 856.757C749.626 838.229 791.75 872.336 804.563 906.544Z" stroke="#9DDF30" stroke-width="3.76655"/>
<path fill-rule="evenodd" clip-rule="evenodd" d="M795.656 921.101C805.791 945.972 809.473 986.535 792.651 1004.77C772.074 1027.05 745.115 991.762 735.629 971.203C724.334 946.747 715.332 893.63 738.876 880.153C762.055 866.884 787.313 900.6 795.656 921.101Z" stroke="#9DDF30" stroke-width="3.76655"/>
<path fill-rule="evenodd" clip-rule="evenodd" d="M-1212.4 928.991C-1200.09 846.446 -1175.47 763.843 -1154.37 683.82C-1123.54 566.883 -1090.46 450.015 -1044.89 340.31C-1020.46 281.497 -991.308 202.779 -933.178 171.585C-911.927 160.178 -882.147 160.175 -857.832 155.208C-824.304 148.359 -791.139 140.553 -757.981 132.81C-691.486 117.258 -625.118 101.322 -557.694 88.1084C-525.224 81.7494 -489.942 79.355 -458.592 70.2807C-440.267 64.9826 -429.18 47.801 -416.971 34.7682C-388.695 4.5741 -361.295 -26.4621 -333.626 -57.2282C-299.778 -94.8554 -265.969 -132.685 -229.445 -167.717C-212.967 -183.513 -176.94 -226.53 -151.094 -218.451C-137.18 -214.096 -131.972 -186.359 -129.573 -173.516C-125.153 -149.921 -123.551 -126.278 -121.931 -102.91C-118.184 -48.8657 -117.375 5.36044 -107.453 59.9912C-102.346 88.0697 -97.1221 123.39 -66.9723 138.544C-36.5254 153.855 -3.6049 160.556 27.1947 175.358C62.643 192.388 93.7662 215.873 125.938 239.347C149.72 256.692 175.438 267.413 201.446 279.322C230.189 292.487 259.389 305.55 286.895 322.24C305.066 333.262 337.095 353.753 333.832 375.499C329.206 406.407 285.25 429.082 261.126 445.464C227.795 468.111 193.204 489.092 159.43 511.146C134.904 527.148 109.896 542.809 88.797 562.914C54.7832 595.322 24.2387 631.421 -6.29968 667.131C-62.8467 733.253 -117.249 800.64 -178.79 862.181C-232.707 916.098 -433.428 964.571 -475.997 980.333C-560.969 1011.79 -646.097 1046.19 -736.786 1065.67C-761.327 1070.94 -797.106 1081.03 -824.787 1069.03C-841.849 1061.65 -846.692 1052.36 -865.98 1055.89C-892.293 1060.71 -916.457 1076.43 -938.497 1088.86C-973.99 1108.86 -1008.51 1130.27 -1043.4 1151.14C-1113.93 1193.39 -1185.93 1233.39 -1257.47 1274.15C-1279.1 1286.48 -1300.67 1305.98 -1325.05 1313.97C-1340.75 1319.14 -1346.29 1311.43 -1346.21 1295.36C-1346.09 1267.16 -1334.03 1239.51 -1325.3 1214.78C-1312.52 1178.54 -1298.06 1143.16 -1283.45 1107.92C-1268.84 1072.68 -1253.77 1037.63 -1239.17 1002.35C-1229.5 979.074 -1216.25 954.755 -1212.4 928.991Z" stroke="#9DDF30" stroke-width="3.76655"/>
<path fill-rule="evenodd" clip-rule="evenodd" d="M-1165.65 897.69C-1150.67 812.332 -1123.02 728.611 -1096.68 647.575C-1063 543.842 -1025.57 440.752 -975.067 346.464C-945.408 291.112 -909.441 226.778 -851.278 198.078C-830.528 187.841 -807.137 188.08 -783.428 185.227C-756.388 181.988 -729.762 177.172 -703.307 172.184C-648.851 161.916 -594.807 150.552 -541.176 138.092C-512.726 131.536 -478.798 126.929 -455.226 110.954C-436.481 98.2559 -422.998 76.023 -408.48 58.9587C-382.333 28.2303 -356.262 -2.56334 -329.818 -33.0189C-299.302 -68.1589 -268.515 -103.214 -235.247 -135.742C-216.705 -153.872 -188.635 -188.756 -161.206 -187.262C-137.274 -185.957 -132.825 -99.1285 -131.397 -83.2141C-126.945 -33.5199 -124.958 16.05 -117.062 66.0558C-112.433 95.5706 -106.82 131.485 -89.4393 159.358C-74.6213 183.108 -44.0308 196.464 -21.1159 209.2C7.57676 225.165 35.8588 243.176 65.1127 257.64C91.1742 270.531 119.004 277.399 145.915 285.898C175.517 295.249 205.566 304.791 234.331 318.521C252.011 326.99 281.527 341.263 284.836 362.878C288.631 387.821 246.646 411.027 231.2 422.376C199.808 445.345 166.578 466.056 133.979 487.445C79.8403 522.975 28.9586 557.582 -14.748 605.187C-71.6567 667.188 -125.064 732.575 -181.193 795.333C-201.907 818.523 -221.718 843.313 -245.032 863.938C-258.401 875.757 -272.686 880.652 -290.603 877.385C-315.06 872.934 -346.103 887.972 -370.421 895.702C-408.331 907.762 -445.652 921.04 -483.059 934.092C-565.19 962.732 -647.42 993.404 -734.538 1011.34C-762.096 1017.02 -793.323 1023.85 -823.69 1018.06C-840.628 1014.84 -848.609 1003.4 -863.508 996.877C-883.142 988.329 -907.727 1000.19 -923.23 1006.48C-953.162 1018.6 -981.017 1034.52 -1008.33 1050.65C-1070.12 1087.14 -1127.69 1128.09 -1183.76 1171.9C-1196.88 1182.18 -1247.9 1223.34 -1247.45 1175.38C-1246.97 1122.38 -1221.22 1070.9 -1204.53 1024.62C-1189.47 982.953 -1173.46 942.19 -1165.65 897.69Z" stroke="#9DDF30" stroke-width="3.76655"/>
<path fill-rule="evenodd" clip-rule="evenodd" d="M-1089.81 834.864C-1073.61 756.75 -1044.47 681.415 -1015.78 608.533C-980.957 520.093 -941.681 433.021 -890.432 354.996C-858.229 305.99 -819.918 254.768 -765.625 228.4C-728.552 210.389 -681.481 214.851 -639.564 208.388C-597.647 201.924 -555.838 193.395 -516.046 181.344C-491.35 173.864 -465.373 165.23 -448.608 146.193C-407.839 99.9124 -370.936 49.8708 -330.554 3.11063C-303.861 -27.8441 -276.732 -58.4807 -247.295 -86.8667C-229.549 -103.989 -206.876 -129.218 -180.248 -133.46C-150.807 -138.143 -135.958 58.3949 -132.648 78.877C-124.346 130.232 -110.825 195.886 -64.2426 234.145C-19.7085 270.717 27.8215 283.74 79.1116 295.999C108.261 302.999 192.064 315.77 202.41 352.44C208.328 373.397 178.892 393.53 166.201 404.388C141.192 425.789 114.238 444.988 87.7887 464.704C49.2533 493.481 7.13472 520.529 -28.8761 552.122C-53.9474 574.126 -75.5719 599.855 -99.1073 623.476C-132.858 657.341 -166.979 690.836 -201.156 724.274C-229.855 752.349 -258.169 781.287 -289.78 806.251C-309.412 821.792 -327.355 830.545 -352.952 830.176C-375.22 829.86 -398.392 839.808 -419.562 846.617C-454.521 857.869 -488.917 870.292 -523.414 882.46C-595.647 907.933 -667.949 934.454 -743.927 951.996C-778.603 960.011 -833.156 977.235 -870.485 949.921C-883.946 940.073 -890.311 936.367 -906.263 939.067C-928.904 942.901 -948.999 954.516 -967.537 965.682C-1010.75 991.713 -1045.1 1028.62 -1088.16 1054.7C-1105.73 1065.27 -1131.67 1076.09 -1132.9 1042.72C-1134.38 1003.74 -1118.21 965.318 -1108.24 930.354C-1103.26 912.903 -1097.55 895.512 -1094.51 877.249C-1092.2 863.205 -1092.72 848.683 -1089.81 834.864Z" stroke="#9DDF30" stroke-width="3.76655"/>
<path fill-rule="evenodd" clip-rule="evenodd" d="M-990.834 755.214C-972.412 686.503 -943.379 620.906 -913.395 557.961C-880.067 488.07 -842.355 420.073 -795.245 360.077C-762.73 318.635 -724.647 277.918 -675.095 255.689C-643.756 241.635 -610.193 244.422 -575.42 240.133C-522.906 233.694 -472.761 220.055 -441.79 180.199C-407.057 135.528 -370.953 91.9678 -333.477 49.5187C-310.874 23.9112 -287.801 -1.41206 -262.62 -24.5C-246.705 -39.1044 -225.943 -57.6599 -204.232 -62.4986C-175.172 -68.9625 -155.92 83.7247 -151.707 104.571C-141.257 156.271 -123.771 203.995 -94.1058 251.33C-69.8942 289.951 -30.4801 299.929 8.20359 308.245C32.2373 313.4 99.4444 319.604 108.845 348.106C114.058 363.794 96.2559 380.514 87.5189 390.319C70.8611 408.999 52.0631 425.69 33.9317 442.895C7.12994 468.273 -15.7511 500.936 -45.5567 522.868C-111.601 571.484 -176.331 621.123 -239.989 672.835C-275.078 701.345 -310.059 730.346 -347.916 755.517C-361.507 764.552 -375.607 773.825 -391.481 779.391C-401.688 782.977 -411.085 781.098 -421.532 782.29C-471.307 788.013 -518.863 812.901 -564.232 830.036C-624.545 852.817 -684.787 876.111 -747.397 894.384C-780.329 903.994 -823.437 920.306 -861.873 911.143C-873.486 908.376 -877.353 900.738 -887.047 896.607C-898.221 891.835 -910.324 899.182 -918.825 903.24C-938.124 912.445 -1005.41 964.472 -1007.53 907.371C-1008.52 880.151 -1000.85 854.388 -997.146 828.516C-995.807 819.146 -994.623 809.89 -995.577 800.008C-997.194 783.458 -995.02 770.919 -990.834 755.214Z" stroke="#9DDF30" stroke-width="3.76655"/>
<path fill-rule="evenodd" clip-rule="evenodd" d="M-884.781 670.934C-839.455 544.247 -766.375 415.737 -667.238 327.338C-634.263 297.948 -594.733 270.38 -547.234 263.818C-519.206 259.97 -492.822 260.882 -469.309 246.103C-452.337 235.433 -441.032 216.973 -428.424 201.776C-410.164 179.761 -391.694 157.934 -372.887 136.41C-349.543 109.752 -325.741 83.3897 -300.011 59.0252C-281.623 41.6184 -257.463 16.349 -230.181 12.5364C-197.622 7.97045 -179.213 120.877 -174.162 139.224C-161.919 183.693 -145.742 222.462 -115.651 260.717C-106.896 271.876 -100.737 286.129 -90.1772 295.639C-79.3807 305.339 -65.0831 309.291 -52.2491 312.572C-35.442 316.888 11.2769 320.266 17.9518 339.35C21.6347 349.891 9.66032 363.658 4.49659 371.837C-5.17347 387.197 -16.3401 401.422 -26.6692 416.274C-44.176 441.49 -52.8332 475.253 -74.6262 496.335C-133.211 553.042 -213.511 589.703 -281.987 634.211C-322.719 660.648 -363.018 687.975 -405.874 711.472C-419.436 718.904 -433.42 726.544 -448.597 731.323C-459.187 734.659 -470.125 732.667 -480.635 735.056C-520.964 744.192 -558.872 763.167 -595.926 779.227C-644.059 800.049 -691.895 821.4 -740.67 841.101C-771.241 853.452 -806.852 873.032 -842.242 874.626C-868.088 875.793 -862.547 862.871 -866.914 844.251C-869.135 834.752 -875.75 829.817 -880.805 821.601C-888.021 809.871 -888.462 796.671 -888.609 784.557C-888.827 767.835 -884.811 749.865 -888.448 732.734C-889.724 726.699 -894.372 722.273 -895.634 717.162C-899.316 702.282 -889.043 682.849 -884.781 670.934Z" stroke="#9DDF30" stroke-width="3.76655"/>
</g>
</g>
<defs>
<filter id="filter0_d_2220_23815" x="0" y="0" width="2080" height="1128" filterUnits="userSpaceOnUse" color-interpolation-filters="sRGB">
<feFlood flood-opacity="0" result="BackgroundImageFix"/>
<feColorMatrix in="SourceAlpha" type="matrix" values="0 0 0 0 0 0 0 0 0 0 0 0 0 0 0 0 0 0 127 0" result="hardAlpha"/>
<feOffset dy="8"/>
<feGaussianBlur stdDeviation="20"/>
<feComposite in2="hardAlpha" operator="out"/>
<feColorMatrix type="matrix" values="0 0 0 0 0 0 0 0 0 0 0 0 0 0 0 0 0 0 0.1 0"/>
<feBlend mode="normal" in2="BackgroundImageFix" result="effect1_dropShadow_2220_23815"/>
<feBlend mode="normal" in="SourceGraphic" in2="effect1_dropShadow_2220_23815" result="shape"/>
</filter>
<clipPath id="clip0_2220_23815">
<rect width="2000" height="1048" fill="white" transform="translate(40 32)"/>
</clipPath>
<clipPath id="clip1_2220_23815">
<rect width="3402.45" height="2551.83" fill="white" transform="translate(1795.31 779.42) rotate(135)"/>
</clipPath>
</defs>
</svg>
