<svg width="736" height="441" viewBox="0 0 736 441" fill="none" xmlns="http://www.w3.org/2000/svg">
<path d="M40.8633 229.282C38.467 229.282 36.4302 228.444 34.7528 226.766C33.0754 225.089 32.2367 223.052 32.2367 220.656L32.2367 51.0001C32.2367 48.6038 33.0754 46.567 34.7528 44.8896C36.4302 43.2122 38.467 42.3735 40.8633 42.3735L70.3374 42.3735C72.7337 42.3735 74.7705 43.2122 76.4479 44.8896C78.1253 46.567 78.964 48.6038 78.964 51.0001L78.964 65.7371C85.1943 58.0691 93.102 51.719 102.687 46.6868C112.512 41.415 124.613 38.7791 138.99 38.7791C153.608 38.7791 166.308 42.1339 177.091 48.8434C187.874 55.3134 196.142 64.539 201.893 76.5203C207.883 88.5017 210.879 102.879 210.879 119.653L210.879 220.656C210.879 223.052 210.04 225.089 208.362 226.766C206.685 228.444 204.648 229.282 202.252 229.282L170.621 229.282C168.225 229.282 166.188 228.444 164.511 226.766C162.833 225.089 161.995 223.052 161.995 220.656L161.995 121.81C161.995 107.911 158.52 97.0084 151.571 89.1008C144.861 81.1931 135.037 77.2392 122.097 77.2392C109.636 77.2392 99.6917 81.1931 92.2633 89.1008C84.8348 97.0084 81.1206 107.911 81.1206 121.81L81.1206 220.656C81.1206 223.052 80.2819 225.089 78.6045 226.766C76.9271 228.444 74.8903 229.282 72.494 229.282L40.8633 229.282ZM309.733 232.877C295.116 232.877 282.416 229.642 271.632 223.172C261.089 216.462 252.942 207.117 247.19 195.136C241.439 182.915 238.564 168.537 238.564 152.003L238.564 51.0001C238.564 48.6038 239.403 46.567 241.08 44.8896C242.757 43.2122 244.794 42.3735 247.19 42.3735L278.821 42.3735C281.457 42.3735 283.494 43.2122 284.932 44.8896C286.609 46.567 287.448 48.6038 287.448 51.0001L287.448 149.846C287.448 179.56 300.507 194.417 326.627 194.417C339.087 194.417 348.912 190.463 356.101 182.555C363.529 174.648 367.244 163.745 367.244 149.846L367.244 51.0001C367.244 48.6038 368.082 46.567 369.76 44.8896C371.437 43.2122 373.474 42.3735 375.87 42.3735L407.501 42.3735C409.897 42.3735 411.934 43.2122 413.611 44.8896C415.289 46.567 416.127 48.6038 416.127 51.0001L416.127 220.656C416.127 223.052 415.289 225.089 413.611 226.766C411.934 228.444 409.897 229.282 407.501 229.282L378.386 229.282C375.75 229.282 373.594 228.444 371.916 226.766C370.478 225.089 369.76 223.052 369.76 220.656V205.919C363.29 214.306 355.262 220.896 345.677 225.688C336.092 230.481 324.111 232.877 309.733 232.877Z" fill="black"/>
<path fill-rule="evenodd" clip-rule="evenodd" d="M488.176 163.152C499.173 169.484 504.236 183.018 501.907 195.801C499.485 209.091 490.367 220.715 477.491 221.795C465.106 222.833 455.087 212.306 450.384 200.121C446.282 189.491 449.751 177.991 457.618 170.296C466.013 162.083 477.939 157.256 488.176 163.152Z" fill="#92C341"/>
<path d="M35.7334 376.63C34.8179 376.63 34.0398 376.309 33.3989 375.668C32.7581 375.027 32.4377 374.249 32.4377 373.334L32.4377 283.937C32.4377 282.93 32.7581 282.106 33.3989 281.465C34.0398 280.825 34.8179 280.504 35.7334 280.504L95.3312 280.504C96.3382 280.504 97.1621 280.825 97.8029 281.465C98.4438 282.106 98.7642 282.93 98.7642 283.937L98.7642 293.55C98.7642 294.557 98.4438 295.381 97.8029 296.022C97.1621 296.571 96.3382 296.845 95.3312 296.845L51.2508 296.845L51.2508 322.937L92.5847 322.937C93.5917 322.937 94.4157 323.257 95.0565 323.898C95.6973 324.539 96.0178 325.363 96.0178 326.37L96.0178 335.982C96.0178 336.898 95.6973 337.676 95.0565 338.317C94.4157 338.958 93.5917 339.278 92.5847 339.278L51.2508 339.278L51.2508 373.334C51.2508 374.249 50.9304 375.027 50.2895 375.668C49.6487 376.309 48.8248 376.63 47.8177 376.63L35.7334 376.63ZM137.327 378.003C130.003 378.003 123.824 376.721 118.789 374.158C113.845 371.594 110.046 367.978 107.391 363.309C104.827 358.64 103.363 353.193 102.997 346.968C102.905 345.32 102.859 343.306 102.859 340.926C102.859 338.546 102.905 336.531 102.997 334.884C103.363 328.567 104.873 323.12 107.528 318.542C110.275 313.873 114.12 310.257 119.063 307.694C124.098 305.131 130.186 303.849 137.327 303.849C144.468 303.849 150.51 305.131 155.454 307.694C160.489 310.257 164.334 313.873 166.989 318.542C169.735 323.12 171.291 328.567 171.658 334.884C171.749 336.531 171.795 338.546 171.795 340.926C171.795 343.306 171.749 345.32 171.658 346.968C171.291 353.193 169.781 358.64 167.126 363.309C164.563 367.978 160.763 371.594 155.728 374.158C150.785 376.721 144.651 378.003 137.327 378.003ZM137.327 364.408C142.179 364.408 145.933 362.897 148.587 359.876C151.242 356.764 152.707 352.232 152.982 346.281C153.073 344.908 153.119 343.123 153.119 340.926C153.119 338.729 153.073 336.943 152.982 335.57C152.707 329.711 151.242 325.225 148.587 322.113C145.933 319 142.179 317.444 137.327 317.444C132.475 317.444 128.721 319 126.067 322.113C123.412 325.225 121.947 329.711 121.672 335.57C121.581 336.943 121.535 338.729 121.535 340.926C121.535 343.123 121.581 344.908 121.672 346.281C121.947 352.232 123.412 356.764 126.067 359.876C128.721 362.897 132.475 364.408 137.327 364.408ZM207.333 378.003C201.749 378.003 196.897 376.767 192.777 374.295C188.749 371.732 185.636 368.161 183.439 363.584C181.242 358.915 180.144 353.422 180.144 347.105L180.144 308.518C180.144 307.602 180.464 306.824 181.105 306.183C181.746 305.542 182.524 305.222 183.439 305.222L195.524 305.222C196.531 305.222 197.309 305.542 197.858 306.183C198.499 306.824 198.819 307.602 198.819 308.518L198.819 346.281C198.819 357.633 203.809 363.309 213.787 363.309C218.548 363.309 222.301 361.799 225.048 358.778C227.886 355.757 229.305 351.591 229.305 346.281L229.305 308.518C229.305 307.602 229.625 306.824 230.266 306.183C230.907 305.542 231.685 305.222 232.601 305.222H244.685C245.6 305.222 246.379 305.542 247.019 306.183C247.66 306.824 247.981 307.602 247.981 308.518L247.981 373.334C247.981 374.249 247.66 375.027 247.019 375.668C246.379 376.309 245.6 376.63 244.685 376.63H233.562C232.555 376.63 231.731 376.309 231.09 375.668C230.541 375.027 230.266 374.249 230.266 373.334V367.704C227.794 370.908 224.727 373.425 221.066 375.256C217.404 377.087 212.826 378.003 207.333 378.003ZM263.236 376.63C262.321 376.63 261.543 376.309 260.902 375.668C260.261 375.027 259.941 374.249 259.941 373.334L259.941 308.518C259.941 307.602 260.261 306.824 260.902 306.183C261.543 305.542 262.321 305.222 263.236 305.222H274.497C275.412 305.222 276.19 305.542 276.831 306.183C277.472 306.824 277.792 307.602 277.792 308.518V314.148C280.173 311.218 283.194 308.792 286.856 306.87C290.609 304.856 295.232 303.849 300.725 303.849C306.31 303.849 311.162 305.131 315.281 307.694C319.401 310.166 322.559 313.69 324.757 318.268C327.045 322.845 328.19 328.338 328.19 334.746L328.19 373.334C328.19 374.249 327.869 375.027 327.228 375.668C326.587 376.309 325.809 376.63 324.894 376.63H312.809C311.894 376.63 311.116 376.309 310.475 375.668C309.834 375.027 309.514 374.249 309.514 373.334L309.514 335.57C309.514 330.26 308.186 326.095 305.531 323.074C302.968 320.053 299.215 318.542 294.271 318.542C289.511 318.542 285.711 320.053 282.873 323.074C280.035 326.095 278.616 330.26 278.616 335.57L278.616 373.334C278.616 374.249 278.296 375.027 277.655 375.668C277.014 376.309 276.236 376.63 275.321 376.63H263.236ZM365.956 378.003C361.196 378.003 356.985 377.225 353.323 375.668C349.752 374.02 346.777 371.732 344.397 368.802C342.017 365.873 340.186 362.44 338.904 358.503C337.622 354.475 336.89 350.081 336.707 345.32C336.615 343.672 336.569 342.207 336.569 340.926C336.569 339.553 336.615 338.042 336.707 336.394C336.89 331.817 337.576 327.56 338.767 323.623C340.048 319.687 341.879 316.254 344.259 313.324C346.731 310.303 349.752 307.969 353.323 306.321C356.985 304.673 361.196 303.849 365.956 303.849C370.9 303.849 375.065 304.719 378.453 306.458C381.931 308.106 384.815 310.257 387.104 312.912V282.427C387.104 281.511 387.379 280.733 387.928 280.092C388.569 279.451 389.393 279.131 390.4 279.131H402.072C402.987 279.131 403.766 279.451 404.406 280.092C405.047 280.733 405.368 281.511 405.368 282.427L405.368 373.334C405.368 374.249 405.047 375.027 404.406 375.668C403.766 376.309 402.987 376.63 402.072 376.63H391.224C390.217 376.63 389.393 376.309 388.752 375.668C388.202 375.027 387.928 374.249 387.928 373.334V368.253C385.639 371.091 382.71 373.425 379.139 375.256C375.66 377.087 371.266 378.003 365.956 378.003ZM371.037 363.309C374.882 363.309 377.949 362.44 380.238 360.7C382.527 358.961 384.22 356.764 385.319 354.109C386.417 351.362 387.012 348.57 387.104 345.732C387.195 344.084 387.241 342.345 387.241 340.514C387.241 338.591 387.195 336.806 387.104 335.158C387.012 332.412 386.372 329.803 385.181 327.331C383.991 324.768 382.252 322.662 379.963 321.014C377.674 319.366 374.699 318.542 371.037 318.542C367.192 318.542 364.125 319.412 361.837 321.151C359.64 322.799 358.037 324.996 357.03 327.743C356.023 330.489 355.428 333.51 355.245 336.806C355.154 339.553 355.154 342.299 355.245 345.045C355.428 348.341 356.023 351.362 357.03 354.109C358.037 356.855 359.64 359.098 361.837 360.837C364.125 362.485 367.192 363.309 371.037 363.309ZM438.226 378.003C433.466 378.003 429.163 377.087 425.318 375.256C421.473 373.334 418.406 370.816 416.117 367.704C413.92 364.499 412.822 360.929 412.822 356.992C412.822 350.584 415.385 345.503 420.512 341.75C425.73 337.905 432.596 335.341 441.11 334.06L459.923 331.313V328.429C459.923 324.584 458.962 321.609 457.039 319.504C455.117 317.398 451.821 316.345 447.152 316.345C443.857 316.345 441.156 317.032 439.05 318.405C437.036 319.687 435.526 321.426 434.519 323.623C433.786 324.813 432.733 325.408 431.36 325.408H420.512C419.505 325.408 418.727 325.134 418.177 324.584C417.72 324.035 417.491 323.303 417.491 322.387C417.582 320.923 418.177 319.137 419.276 317.032C420.374 314.926 422.114 312.912 424.494 310.99C426.874 308.976 429.941 307.282 433.695 305.909C437.448 304.535 441.98 303.849 447.29 303.849C453.057 303.849 457.909 304.581 461.846 306.046C465.874 307.419 469.078 309.296 471.458 311.676C473.838 314.056 475.578 316.849 476.676 320.053C477.775 323.257 478.324 326.644 478.324 330.215L478.324 373.334C478.324 374.249 478.004 375.027 477.363 375.668C476.722 376.309 475.944 376.63 475.029 376.63H463.906C462.898 376.63 462.075 376.309 461.434 375.668C460.884 375.027 460.61 374.249 460.61 373.334V367.978C459.42 369.718 457.818 371.366 455.804 372.922C453.789 374.387 451.318 375.622 448.388 376.63C445.55 377.545 442.163 378.003 438.226 378.003ZM442.895 364.957C446.099 364.957 448.983 364.271 451.547 362.897C454.201 361.524 456.261 359.418 457.726 356.581C459.282 353.651 460.061 349.989 460.061 345.595V342.711L446.328 344.908C440.927 345.732 436.899 347.06 434.244 348.89C431.589 350.721 430.262 352.964 430.262 355.619C430.262 357.633 430.857 359.373 432.047 360.837C433.328 362.211 434.931 363.264 436.853 363.996C438.776 364.637 440.79 364.957 442.895 364.957ZM521.362 376.63C515.869 376.63 511.246 375.668 507.492 373.746C503.739 371.823 500.947 368.985 499.116 365.232C497.285 361.387 496.369 356.626 496.369 350.95V319.778H485.521C484.605 319.778 483.827 319.458 483.186 318.817C482.546 318.176 482.225 317.398 482.225 316.482V308.518C482.225 307.602 482.546 306.824 483.186 306.183C483.827 305.542 484.605 305.222 485.521 305.222H496.369V282.427C496.369 281.511 496.644 280.733 497.193 280.092C497.834 279.451 498.658 279.131 499.665 279.131L510.788 279.131C511.704 279.131 512.482 279.451 513.123 280.092C513.763 280.733 514.084 281.511 514.084 282.427V305.222H531.249C532.165 305.222 532.943 305.542 533.584 306.183C534.224 306.824 534.545 307.602 534.545 308.518V316.482C534.545 317.398 534.224 318.176 533.584 318.817C532.943 319.458 532.165 319.778 531.249 319.778H514.084V349.577C514.084 353.331 514.725 356.26 516.006 358.366C517.38 360.471 519.714 361.524 523.01 361.524H532.485C533.4 361.524 534.179 361.845 534.819 362.485C535.46 363.126 535.781 363.904 535.781 364.82V373.334C535.781 374.249 535.46 375.027 534.819 375.668C534.179 376.309 533.4 376.63 532.485 376.63H521.362ZM545.079 376.63C544.163 376.63 543.385 376.309 542.744 375.668C542.104 375.027 541.783 374.249 541.783 373.334L541.783 308.518C541.783 307.602 542.104 306.824 542.744 306.183C543.385 305.542 544.163 305.222 545.079 305.222H556.477C557.484 305.222 558.262 305.542 558.811 306.183C559.452 306.824 559.772 307.602 559.772 308.518L559.772 373.334C559.772 374.249 559.452 375.027 558.811 375.668C558.262 376.309 557.484 376.63 556.477 376.63H545.079ZM544.53 293.412C543.523 293.412 542.699 293.138 542.058 292.588C541.509 291.948 541.234 291.124 541.234 290.117V280.229C541.234 279.314 541.509 278.536 542.058 277.895C542.699 277.254 543.523 276.934 544.53 276.934H557.026C558.033 276.934 558.857 277.254 559.498 277.895C560.139 278.536 560.459 279.314 560.459 280.229V290.117C560.459 291.124 560.139 291.948 559.498 292.588C558.857 293.138 558.033 293.412 557.026 293.412H544.53ZM603.798 378.003C596.474 378.003 590.295 376.721 585.26 374.158C580.316 371.594 576.517 367.978 573.862 363.309C571.298 358.64 569.834 353.193 569.468 346.968C569.376 345.32 569.33 343.306 569.33 340.926C569.33 338.546 569.376 336.531 569.468 334.884C569.834 328.567 571.344 323.12 573.999 318.542C576.746 313.873 580.591 310.257 585.534 307.694C590.569 305.131 596.657 303.849 603.798 303.849C610.939 303.849 616.981 305.131 621.925 307.694C626.96 310.257 630.805 313.873 633.46 318.542C636.206 323.12 637.762 328.567 638.129 334.884C638.22 336.531 638.266 338.546 638.266 340.926C638.266 343.306 638.22 345.32 638.129 346.968C637.762 353.193 636.252 358.64 633.597 363.309C631.034 367.978 627.234 371.594 622.199 374.158C617.256 376.721 611.122 378.003 603.798 378.003ZM603.798 364.408C608.65 364.408 612.404 362.897 615.058 359.876C617.713 356.764 619.178 352.232 619.453 346.281C619.544 344.908 619.59 343.123 619.59 340.926C619.59 338.729 619.544 336.943 619.453 335.57C619.178 329.711 617.713 325.225 615.058 322.113C612.404 319 608.65 317.444 603.798 317.444C598.946 317.444 595.192 319 592.538 322.113C589.883 325.225 588.418 329.711 588.143 335.57C588.052 336.943 588.006 338.729 588.006 340.926C588.006 343.123 588.052 344.908 588.143 346.281C588.418 352.232 589.883 356.764 592.538 359.876C595.192 362.897 598.946 364.408 603.798 364.408ZM650.597 376.63C649.681 376.63 648.903 376.309 648.262 375.668C647.622 375.027 647.301 374.249 647.301 373.334L647.301 308.518C647.301 307.602 647.622 306.824 648.262 306.183C648.903 305.542 649.681 305.222 650.597 305.222H661.857C662.773 305.222 663.551 305.542 664.192 306.183C664.833 306.824 665.153 307.602 665.153 308.518V314.148C667.533 311.218 670.554 308.792 674.216 306.87C677.97 304.856 682.593 303.849 688.086 303.849C693.67 303.849 698.522 305.131 702.642 307.694C706.762 310.166 709.92 313.69 712.117 318.268C714.406 322.845 715.55 328.338 715.55 334.746L715.55 373.334C715.55 374.249 715.23 375.027 714.589 375.668C713.948 376.309 713.17 376.63 712.254 376.63H700.17C699.255 376.63 698.476 376.309 697.836 375.668C697.195 375.027 696.874 374.249 696.874 373.334V335.57C696.874 330.26 695.547 326.095 692.892 323.074C690.329 320.053 686.575 318.542 681.632 318.542C676.871 318.542 673.072 320.053 670.234 323.074C667.396 326.095 665.977 330.26 665.977 335.57V373.334C665.977 374.249 665.657 375.027 665.016 375.668C664.375 376.309 663.597 376.63 662.681 376.63H650.597Z" fill="black"/>
</svg>
