<svg width="736" height="442" viewBox="0 0 736 442" fill="none" xmlns="http://www.w3.org/2000/svg">
<path d="M40.8633 229.874C38.467 229.874 36.4302 229.035 34.7528 227.357C33.0754 225.68 32.2367 223.643 32.2367 221.247L32.2367 51.5911C32.2367 49.1949 33.0754 47.158 34.7528 45.4807C36.4302 43.8033 38.467 42.9646 40.8633 42.9646L70.3374 42.9646C72.7337 42.9646 74.7705 43.8033 76.4479 45.4807C78.1253 47.158 78.964 49.1949 78.964 51.5911L78.964 66.3282C85.1943 58.6601 93.102 52.31 102.687 47.2779C112.512 42.0061 124.613 39.3702 138.99 39.3702C153.608 39.3702 166.308 42.725 177.091 49.4345C187.874 55.9044 196.142 65.1301 201.893 77.1114C207.883 89.0928 210.879 103.47 210.879 120.244L210.879 221.247C210.879 223.643 210.04 225.68 208.362 227.357C206.685 229.035 204.648 229.874 202.252 229.874L170.621 229.874C168.225 229.874 166.188 229.035 164.511 227.357C162.833 225.68 161.995 223.643 161.995 221.247L161.995 122.401C161.995 108.503 158.52 97.5995 151.571 89.6918C144.861 81.7841 135.037 77.8303 122.097 77.8303C109.636 77.8303 99.6917 81.7841 92.2633 89.6918C84.8348 97.5995 81.1206 108.503 81.1206 122.401L81.1206 221.247C81.1206 223.643 80.2819 225.68 78.6045 227.357C76.9271 229.035 74.8903 229.874 72.494 229.874L40.8633 229.874ZM309.733 233.468C295.116 233.468 282.416 230.233 271.632 223.763C261.089 217.053 252.942 207.708 247.19 195.727C241.439 183.506 238.564 169.128 238.564 152.594L238.564 51.5911C238.564 49.1949 239.403 47.158 241.08 45.4807C242.757 43.8033 244.794 42.9646 247.19 42.9646L278.821 42.9646C281.457 42.9646 283.494 43.8033 284.932 45.4807C286.609 47.158 287.448 49.1949 287.448 51.5911L287.448 150.437C287.448 180.151 300.507 195.008 326.627 195.008C339.087 195.008 348.912 191.054 356.101 183.146C363.529 175.239 367.244 164.336 367.244 150.437L367.244 51.5911C367.244 49.1949 368.082 47.158 369.76 45.4807C371.437 43.8033 373.474 42.9646 375.87 42.9646L407.501 42.9646C409.897 42.9646 411.934 43.8033 413.611 45.4807C415.289 47.158 416.127 49.1949 416.127 51.5911L416.127 221.247C416.127 223.643 415.289 225.68 413.611 227.357C411.934 229.035 409.897 229.874 407.501 229.874L378.386 229.874C375.75 229.874 373.594 229.035 371.916 227.357C370.478 225.68 369.76 223.643 369.76 221.247V206.51C363.29 214.897 355.262 221.487 345.677 226.279C336.092 231.072 324.111 233.468 309.733 233.468Z" fill="white"/>
<path fill-rule="evenodd" clip-rule="evenodd" d="M488.176 163.743C499.173 170.075 504.236 183.609 501.907 196.392C499.485 209.682 490.367 221.306 477.491 222.386C465.106 223.424 455.087 212.897 450.384 200.712C446.282 190.082 449.751 178.582 457.618 170.887C466.013 162.674 477.939 157.847 488.176 163.743Z" fill="#92C341"/>
<path d="M35.7334 377.221C34.8179 377.221 34.0398 376.9 33.3989 376.259C32.7581 375.619 32.4377 374.84 32.4377 373.925L32.4377 284.528C32.4377 283.521 32.7581 282.697 33.3989 282.057C34.0398 281.416 34.8179 281.095 35.7334 281.095L95.3312 281.095C96.3382 281.095 97.1621 281.416 97.8029 282.057C98.4438 282.697 98.7642 283.521 98.7642 284.528L98.7642 294.141C98.7642 295.148 98.4438 295.972 97.8029 296.613C97.1621 297.162 96.3382 297.437 95.3312 297.437L51.2508 297.437L51.2508 323.528L92.5847 323.528C93.5917 323.528 94.4157 323.848 95.0565 324.489C95.6973 325.13 96.0178 325.954 96.0178 326.961L96.0178 336.573C96.0178 337.489 95.6973 338.267 95.0565 338.908C94.4157 339.549 93.5917 339.869 92.5847 339.869L51.2508 339.869L51.2508 373.925C51.2508 374.84 50.9304 375.619 50.2895 376.259C49.6487 376.9 48.8248 377.221 47.8177 377.221L35.7334 377.221ZM137.327 378.594C130.003 378.594 123.824 377.312 118.789 374.749C113.845 372.186 110.046 368.569 107.391 363.9C104.827 359.232 103.363 353.784 102.997 347.559C102.905 345.911 102.859 343.897 102.859 341.517C102.859 339.137 102.905 337.123 102.997 335.475C103.363 329.158 104.873 323.711 107.528 319.133C110.275 314.465 114.12 310.848 119.063 308.285C124.098 305.722 130.186 304.44 137.327 304.44C144.468 304.44 150.51 305.722 155.454 308.285C160.489 310.848 164.334 314.465 166.989 319.133C169.735 323.711 171.291 329.158 171.658 335.475C171.749 337.123 171.795 339.137 171.795 341.517C171.795 343.897 171.749 345.911 171.658 347.559C171.291 353.784 169.781 359.232 167.126 363.9C164.563 368.569 160.763 372.186 155.728 374.749C150.785 377.312 144.651 378.594 137.327 378.594ZM137.327 364.999C142.179 364.999 145.933 363.489 148.587 360.467C151.242 357.355 152.707 352.823 152.982 346.873C153.073 345.499 153.119 343.714 153.119 341.517C153.119 339.32 153.073 337.535 152.982 336.161C152.707 330.302 151.242 325.817 148.587 322.704C145.933 319.591 142.179 318.035 137.327 318.035C132.475 318.035 128.721 319.591 126.067 322.704C123.412 325.817 121.947 330.302 121.672 336.161C121.581 337.535 121.535 339.32 121.535 341.517C121.535 343.714 121.581 345.499 121.672 346.873C121.947 352.823 123.412 357.355 126.067 360.467C128.721 363.489 132.475 364.999 137.327 364.999ZM207.333 378.594C201.749 378.594 196.897 377.358 192.777 374.886C188.749 372.323 185.636 368.753 183.439 364.175C181.242 359.506 180.144 354.013 180.144 347.696L180.144 309.109C180.144 308.194 180.464 307.415 181.105 306.775C181.746 306.134 182.524 305.813 183.439 305.813L195.524 305.813C196.531 305.813 197.309 306.134 197.858 306.775C198.499 307.415 198.819 308.194 198.819 309.109L198.819 346.873C198.819 358.224 203.809 363.9 213.787 363.9C218.548 363.9 222.301 362.39 225.048 359.369C227.886 356.348 229.305 352.182 229.305 346.873L229.305 309.109C229.305 308.194 229.625 307.415 230.266 306.775C230.907 306.134 231.685 305.813 232.601 305.813H244.685C245.6 305.813 246.379 306.134 247.019 306.775C247.66 307.415 247.981 308.194 247.981 309.109L247.981 373.925C247.981 374.84 247.66 375.619 247.019 376.259C246.379 376.9 245.6 377.221 244.685 377.221H233.562C232.555 377.221 231.731 376.9 231.09 376.259C230.541 375.619 230.266 374.84 230.266 373.925V368.295C227.794 371.499 224.727 374.017 221.066 375.847C217.404 377.678 212.826 378.594 207.333 378.594ZM263.236 377.221C262.321 377.221 261.543 376.9 260.902 376.259C260.261 375.619 259.941 374.84 259.941 373.925L259.941 309.109C259.941 308.194 260.261 307.415 260.902 306.775C261.543 306.134 262.321 305.813 263.236 305.813H274.497C275.412 305.813 276.19 306.134 276.831 306.775C277.472 307.415 277.792 308.194 277.792 309.109V314.739C280.173 311.81 283.194 309.384 286.856 307.461C290.609 305.447 295.232 304.44 300.725 304.44C306.31 304.44 311.162 305.722 315.281 308.285C319.401 310.757 322.559 314.281 324.757 318.859C327.045 323.436 328.19 328.929 328.19 335.337L328.19 373.925C328.19 374.84 327.869 375.619 327.228 376.259C326.587 376.9 325.809 377.221 324.894 377.221H312.809C311.894 377.221 311.116 376.9 310.475 376.259C309.834 375.619 309.514 374.84 309.514 373.925L309.514 336.161C309.514 330.852 308.186 326.686 305.531 323.665C302.968 320.644 299.215 319.133 294.271 319.133C289.511 319.133 285.711 320.644 282.873 323.665C280.035 326.686 278.616 330.852 278.616 336.161L278.616 373.925C278.616 374.84 278.296 375.619 277.655 376.259C277.014 376.9 276.236 377.221 275.321 377.221H263.236ZM365.956 378.594C361.196 378.594 356.985 377.816 353.323 376.259C349.752 374.612 346.777 372.323 344.397 369.393C342.017 366.464 340.186 363.031 338.904 359.094C337.622 355.066 336.89 350.672 336.707 345.911C336.615 344.263 336.569 342.799 336.569 341.517C336.569 340.144 336.615 338.633 336.707 336.985C336.89 332.408 337.576 328.151 338.767 324.214C340.048 320.278 341.879 316.845 344.259 313.915C346.731 310.894 349.752 308.56 353.323 306.912C356.985 305.264 361.196 304.44 365.956 304.44C370.9 304.44 375.065 305.31 378.453 307.049C381.931 308.697 384.815 310.848 387.104 313.503V283.018C387.104 282.102 387.379 281.324 387.928 280.683C388.569 280.043 389.393 279.722 390.4 279.722H402.072C402.987 279.722 403.766 280.043 404.406 280.683C405.047 281.324 405.368 282.102 405.368 283.018L405.368 373.925C405.368 374.84 405.047 375.619 404.406 376.259C403.766 376.9 402.987 377.221 402.072 377.221H391.224C390.217 377.221 389.393 376.9 388.752 376.259C388.202 375.619 387.928 374.84 387.928 373.925V368.844C385.639 371.682 382.71 374.017 379.139 375.847C375.66 377.678 371.266 378.594 365.956 378.594ZM371.037 363.9C374.882 363.9 377.949 363.031 380.238 361.291C382.527 359.552 384.22 357.355 385.319 354.7C386.417 351.953 387.012 349.161 387.104 346.323C387.195 344.675 387.241 342.936 387.241 341.105C387.241 339.183 387.195 337.397 387.104 335.749C387.012 333.003 386.372 330.394 385.181 327.922C383.991 325.359 382.252 323.253 379.963 321.605C377.674 319.957 374.699 319.133 371.037 319.133C367.192 319.133 364.125 320.003 361.837 321.743C359.64 323.39 358.037 325.588 357.03 328.334C356.023 331.081 355.428 334.102 355.245 337.397C355.154 340.144 355.154 342.89 355.245 345.637C355.428 348.932 356.023 351.953 357.03 354.7C358.037 357.446 359.64 359.689 361.837 361.429C364.125 363.077 367.192 363.9 371.037 363.9ZM438.226 378.594C433.466 378.594 429.163 377.678 425.318 375.847C421.473 373.925 418.406 371.407 416.117 368.295C413.92 365.091 412.822 361.52 412.822 357.584C412.822 351.175 415.385 346.094 420.512 342.341C425.73 338.496 432.596 335.933 441.11 334.651L459.923 331.904V329.021C459.923 325.176 458.962 322.2 457.039 320.095C455.117 317.989 451.821 316.936 447.152 316.936C443.857 316.936 441.156 317.623 439.05 318.996C437.036 320.278 435.526 322.017 434.519 324.214C433.786 325.405 432.733 326 431.36 326H420.512C419.505 326 418.727 325.725 418.177 325.176C417.72 324.626 417.491 323.894 417.491 322.979C417.582 321.514 418.177 319.729 419.276 317.623C420.374 315.517 422.114 313.503 424.494 311.581C426.874 309.567 429.941 307.873 433.695 306.5C437.448 305.127 441.98 304.44 447.29 304.44C453.057 304.44 457.909 305.172 461.846 306.637C465.874 308.01 469.078 309.887 471.458 312.267C473.838 314.648 475.578 317.44 476.676 320.644C477.775 323.848 478.324 327.235 478.324 330.806L478.324 373.925C478.324 374.84 478.004 375.619 477.363 376.259C476.722 376.9 475.944 377.221 475.029 377.221H463.906C462.898 377.221 462.075 376.9 461.434 376.259C460.884 375.619 460.61 374.84 460.61 373.925V368.569C459.42 370.309 457.818 371.957 455.804 373.513C453.789 374.978 451.318 376.214 448.388 377.221C445.55 378.136 442.163 378.594 438.226 378.594ZM442.895 365.548C446.099 365.548 448.983 364.862 451.547 363.489C454.201 362.115 456.261 360.01 457.726 357.172C459.282 354.242 460.061 350.58 460.061 346.186V343.302L446.328 345.499C440.927 346.323 436.899 347.651 434.244 349.482C431.589 351.313 430.262 353.556 430.262 356.21C430.262 358.224 430.857 359.964 432.047 361.429C433.328 362.802 434.931 363.855 436.853 364.587C438.776 365.228 440.79 365.548 442.895 365.548ZM521.362 377.221C515.869 377.221 511.246 376.259 507.492 374.337C503.739 372.414 500.947 369.576 499.116 365.823C497.285 361.978 496.369 357.217 496.369 351.541V320.369H485.521C484.605 320.369 483.827 320.049 483.186 319.408C482.546 318.767 482.225 317.989 482.225 317.074V309.109C482.225 308.194 482.546 307.415 483.186 306.775C483.827 306.134 484.605 305.813 485.521 305.813H496.369V283.018C496.369 282.102 496.644 281.324 497.193 280.683C497.834 280.043 498.658 279.722 499.665 279.722L510.788 279.722C511.704 279.722 512.482 280.043 513.123 280.683C513.763 281.324 514.084 282.102 514.084 283.018V305.813H531.249C532.165 305.813 532.943 306.134 533.584 306.775C534.224 307.415 534.545 308.194 534.545 309.109V317.074C534.545 317.989 534.224 318.767 533.584 319.408C532.943 320.049 532.165 320.369 531.249 320.369H514.084V350.168C514.084 353.922 514.725 356.851 516.006 358.957C517.38 361.062 519.714 362.115 523.01 362.115H532.485C533.4 362.115 534.179 362.436 534.819 363.077C535.46 363.717 535.781 364.496 535.781 365.411V373.925C535.781 374.84 535.46 375.619 534.819 376.259C534.179 376.9 533.4 377.221 532.485 377.221H521.362ZM545.079 377.221C544.163 377.221 543.385 376.9 542.744 376.259C542.104 375.619 541.783 374.84 541.783 373.925L541.783 309.109C541.783 308.194 542.104 307.415 542.744 306.775C543.385 306.134 544.163 305.813 545.079 305.813H556.477C557.484 305.813 558.262 306.134 558.811 306.775C559.452 307.415 559.772 308.194 559.772 309.109L559.772 373.925C559.772 374.84 559.452 375.619 558.811 376.259C558.262 376.9 557.484 377.221 556.477 377.221H545.079ZM544.53 294.004C543.523 294.004 542.699 293.729 542.058 293.18C541.509 292.539 541.234 291.715 541.234 290.708V280.821C541.234 279.905 541.509 279.127 542.058 278.486C542.699 277.845 543.523 277.525 544.53 277.525H557.026C558.033 277.525 558.857 277.845 559.498 278.486C560.139 279.127 560.459 279.905 560.459 280.821V290.708C560.459 291.715 560.139 292.539 559.498 293.18C558.857 293.729 558.033 294.004 557.026 294.004H544.53ZM603.798 378.594C596.474 378.594 590.295 377.312 585.26 374.749C580.316 372.186 576.517 368.569 573.862 363.9C571.298 359.232 569.834 353.784 569.468 347.559C569.376 345.911 569.33 343.897 569.33 341.517C569.33 339.137 569.376 337.123 569.468 335.475C569.834 329.158 571.344 323.711 573.999 319.133C576.746 314.465 580.591 310.848 585.534 308.285C590.569 305.722 596.657 304.44 603.798 304.44C610.939 304.44 616.981 305.722 621.925 308.285C626.96 310.848 630.805 314.465 633.46 319.133C636.206 323.711 637.762 329.158 638.129 335.475C638.22 337.123 638.266 339.137 638.266 341.517C638.266 343.897 638.22 345.911 638.129 347.559C637.762 353.784 636.252 359.232 633.597 363.9C631.034 368.569 627.234 372.186 622.199 374.749C617.256 377.312 611.122 378.594 603.798 378.594ZM603.798 364.999C608.65 364.999 612.404 363.489 615.058 360.467C617.713 357.355 619.178 352.823 619.453 346.873C619.544 345.499 619.59 343.714 619.59 341.517C619.59 339.32 619.544 337.535 619.453 336.161C619.178 330.302 617.713 325.817 615.058 322.704C612.404 319.591 608.65 318.035 603.798 318.035C598.946 318.035 595.192 319.591 592.538 322.704C589.883 325.817 588.418 330.302 588.143 336.161C588.052 337.535 588.006 339.32 588.006 341.517C588.006 343.714 588.052 345.499 588.143 346.873C588.418 352.823 589.883 357.355 592.538 360.467C595.192 363.489 598.946 364.999 603.798 364.999ZM650.597 377.221C649.681 377.221 648.903 376.9 648.262 376.259C647.622 375.619 647.301 374.84 647.301 373.925L647.301 309.109C647.301 308.194 647.622 307.415 648.262 306.775C648.903 306.134 649.681 305.813 650.597 305.813H661.857C662.773 305.813 663.551 306.134 664.192 306.775C664.833 307.415 665.153 308.194 665.153 309.109V314.739C667.533 311.81 670.554 309.384 674.216 307.461C677.97 305.447 682.593 304.44 688.086 304.44C693.67 304.44 698.522 305.722 702.642 308.285C706.762 310.757 709.92 314.281 712.117 318.859C714.406 323.436 715.55 328.929 715.55 335.337L715.55 373.925C715.55 374.84 715.23 375.619 714.589 376.259C713.948 376.9 713.17 377.221 712.254 377.221H700.17C699.255 377.221 698.476 376.9 697.836 376.259C697.195 375.619 696.874 374.84 696.874 373.925V336.161C696.874 330.852 695.547 326.686 692.892 323.665C690.329 320.644 686.575 319.133 681.632 319.133C676.871 319.133 673.072 320.644 670.234 323.665C667.396 326.686 665.977 330.852 665.977 336.161V373.925C665.977 374.84 665.657 375.619 665.016 376.259C664.375 376.9 663.597 377.221 662.681 377.221H650.597Z" fill="white"/>
</svg>
