<svg width="1852" height="1852" viewBox="0 0 1852 1852" fill="none" xmlns="http://www.w3.org/2000/svg">
<rect width="1852" height="1852" fill="white"/>
<path d="M188.513 1227C180.771 1227 174.191 1224.29 168.771 1218.87C163.352 1213.45 160.643 1206.87 160.643 1199.13L160.643 651.018C160.643 643.276 163.352 636.696 168.771 631.277C174.191 625.857 180.771 623.148 188.513 623.148H283.736C291.477 623.148 298.058 625.857 303.477 631.277C308.896 636.696 311.606 643.276 311.606 651.018V698.629C331.734 673.856 357.282 653.34 388.248 637.083C419.989 620.051 459.085 611.535 505.535 611.535C552.759 611.535 593.79 622.374 628.628 644.05C663.466 664.953 690.175 694.758 708.755 733.467C728.109 772.175 737.786 818.626 737.786 872.817V1199.13C737.786 1206.87 735.076 1213.45 729.657 1218.87C724.238 1224.29 717.658 1227 709.916 1227H607.726C599.984 1227 593.403 1224.29 587.984 1218.87C582.565 1213.45 579.855 1206.87 579.855 1199.13V879.785C579.855 834.883 568.63 799.658 546.179 774.111C524.502 748.563 492.761 735.789 450.956 735.789C410.699 735.789 378.571 748.563 354.572 774.111C330.573 799.658 318.573 834.883 318.573 879.785V1199.13C318.573 1206.87 315.864 1213.45 310.444 1218.87C305.025 1224.29 298.445 1227 290.703 1227H188.513Z" fill="black"/>
<path d="M1057.16 1238.61C1009.93 1238.61 968.903 1228.16 934.065 1207.26C900.002 1185.58 873.68 1155.39 855.1 1116.68C836.52 1077.2 827.23 1030.75 827.23 977.33V651.018C827.23 643.276 829.939 636.696 835.359 631.277C840.778 625.857 847.358 623.148 855.1 623.148H957.29C965.806 623.148 972.387 625.857 977.032 631.277C982.451 636.696 985.16 643.276 985.16 651.018V970.363C985.16 1066.36 1027.35 1114.36 1111.74 1114.36C1151.99 1114.36 1183.73 1101.58 1206.96 1076.04C1230.96 1050.49 1242.96 1015.26 1242.96 970.363V651.018C1242.96 643.276 1245.67 636.696 1251.09 631.277C1256.51 625.857 1263.09 623.148 1270.83 623.148H1373.02C1380.76 623.148 1387.34 625.857 1392.76 631.277C1398.18 636.696 1400.89 643.276 1400.89 651.018V1199.13C1400.89 1206.87 1398.18 1213.45 1392.76 1218.87C1387.34 1224.29 1380.76 1227 1373.02 1227H1278.96C1270.44 1227 1263.47 1224.29 1258.06 1218.87C1253.41 1213.45 1251.09 1206.87 1251.09 1199.13V1151.52C1230.19 1178.61 1204.25 1199.9 1173.28 1215.39C1142.32 1230.87 1103.61 1238.61 1057.16 1238.61Z" fill="black"/>
<path fill-rule="evenodd" clip-rule="evenodd" d="M1621.52 1059.62C1659.22 1080.08 1676.57 1123.8 1668.59 1165.1C1660.29 1208.04 1629.03 1245.59 1584.89 1249.08C1542.43 1252.44 1508.08 1218.43 1491.96 1179.06C1477.9 1144.72 1489.79 1107.56 1516.76 1082.7C1545.54 1056.17 1586.42 1040.57 1621.52 1059.62Z" fill="#92C341"/>
</svg>
