<svg width="471" height="553" viewBox="0 0 471 553" fill="none" xmlns="http://www.w3.org/2000/svg">
<path fill-rule="evenodd" clip-rule="evenodd" d="M431.318 399.387C432.099 401.133 432.787 402.921 433.379 404.742C434.893 407.869 436.442 410.977 438.027 414.068C440.529 418.65 443.022 423.237 445.426 427.877C447.709 432.374 449.594 437.063 451.059 441.889C451.656 443.786 452.114 445.741 452.569 447.679L452.671 448.116C453.421 451.329 454.063 454.692 452.712 457.865C452.103 459.353 451.215 460.711 450.097 461.867C451.049 465.305 452.04 468.724 453.129 472.121C454.388 476.04 455.63 479.963 456.798 483.913C457.28 485.537 457.715 487.18 458.148 488.818L458.192 488.986C458.34 489.544 458.496 490.105 458.652 490.667C459.321 493.075 460 495.52 460.113 497.996C460.299 502.111 457.817 505.977 454.317 507.984C455.99 508.467 457.553 509.289 458.762 510.592C459.475 511.296 460.106 512.079 460.642 512.926C461.695 514.664 462.263 516.653 462.284 518.685C462.277 520.982 461.597 523.227 460.328 525.142C459.06 527.056 457.257 528.557 455.144 529.459C454.976 529.533 454.806 529.603 454.636 529.672C454.369 529.782 454.101 529.893 453.838 530.019C452.27 530.858 450.661 531.617 449.016 532.293C445.46 533.575 441.839 534.669 438.167 535.571C436.695 535.977 435.236 536.431 433.778 536.885L433.776 536.886L433.773 536.887C432.071 537.416 430.37 537.946 428.645 538.401C427.692 538.651 426.741 538.907 425.79 539.162L425.787 539.163C423.069 539.893 420.355 540.623 417.601 541.226C416.484 541.461 415.366 541.694 414.248 541.927C413.244 542.155 412.243 542.402 411.241 542.649C408.781 543.257 406.32 543.865 403.805 544.183C401.224 544.511 398.618 544.654 396.014 544.796H396.013L396.004 544.797C394.943 544.855 393.882 544.913 392.824 544.983C392.579 545.003 392.334 545.023 392.089 545.043C391.688 545.076 391.288 545.109 390.888 545.142L390.886 545.142C387.002 545.462 383.122 545.782 379.224 545.883C375.762 545.973 372.299 546.034 368.839 546.095L368.828 546.095C367.835 546.112 366.843 546.13 365.85 546.148C362.87 546.204 359.89 546.23 356.908 546.225C352.604 546.225 348.301 546.182 343.998 546.138L343.983 546.138H343.98C341.785 546.115 339.591 546.093 337.396 546.077C334.715 546.056 332.033 546.041 329.351 546.026H329.349C322.65 545.987 315.95 545.949 309.255 545.832C301.657 545.703 294.101 545.052 286.54 544.402L286.531 544.401C284.197 544.2 281.862 543.999 279.525 543.813C275.657 543.505 271.798 543.111 267.939 542.718L267.935 542.717L267.93 542.717C263.654 542.281 259.377 541.844 255.089 541.524C250.174 541.297 245.256 541.273 240.338 541.25C236.223 541.23 232.107 541.211 227.993 541.071C225.324 540.983 222.656 540.844 219.988 540.706L219.984 540.706C218.064 540.607 216.145 540.508 214.226 540.427C211.414 540.31 208.6 540.261 205.786 540.212C204.075 540.182 202.365 540.152 200.655 540.108C194.268 539.937 187.884 539.629 181.5 539.321C179.371 539.219 177.242 539.116 175.113 539.018C168.83 538.732 162.56 538.278 156.289 537.823L156.282 537.823C153.823 537.645 151.364 537.467 148.904 537.299C142.865 536.989 136.817 536.897 130.768 536.805H130.763C127.721 536.759 124.68 536.713 121.639 536.639C111.826 536.399 102.014 535.991 92.205 535.418C87.6948 535.18 83.1995 534.713 78.7365 534.02C73.7075 533.209 68.7123 532.208 63.7172 531.2C60.2378 530.497 56.7664 529.742 53.2968 528.987L53.2031 528.967C52.1967 528.748 51.1905 528.529 50.1843 528.312C45.5964 527.318 41.0119 526.31 36.458 525.176C33.811 524.518 31.1642 523.86 28.5208 523.185C25.4852 522.485 22.4881 521.627 19.5418 520.616C16.4801 519.57 13.5501 518.173 10.8105 516.452C9.44069 515.626 8.2058 514.595 7.149 513.395C6.50021 512.631 6.07093 511.706 5.90699 510.717C5.81823 510.085 5.89474 509.44 6.12904 508.846C6.36333 508.252 6.74748 507.729 7.24403 507.327C7.50689 507.113 7.78327 506.935 8.07066 506.789C7.40546 505.65 6.93374 504.35 6.58969 503.127C5.99393 500.904 5.59423 498.633 5.39517 496.34C4.93999 491.8 5.29512 487.127 5.64101 482.575C5.66899 482.207 5.6969 481.84 5.72433 481.473C6.06711 476.916 6.48111 472.366 6.96633 467.825C7.08644 466.717 7.196 465.605 7.30569 464.492C7.63609 461.138 7.96762 457.774 8.59176 454.472C9.57588 449.602 10.8116 444.786 12.294 440.043C13.613 435.336 15.2327 430.718 17.1432 426.218C19.1928 421.634 21.4291 417.137 23.6959 412.655C25.8213 408.391 28.2245 404.272 30.8899 400.323C31.6216 399.253 32.3616 398.188 33.1014 397.124L33.1046 397.119C34.3978 395.259 35.6905 393.399 36.9387 391.509C39.2246 387.713 41.7575 384.071 44.5212 380.607C47.7823 376.725 51.1214 372.894 54.6404 369.239C61.276 362.31 68.2968 355.761 75.6694 349.622C81.1112 345.099 86.8449 340.938 92.8332 337.168C98.2769 333.762 103.886 330.724 109.577 327.757C109.369 327.865 109.16 327.973 108.952 328.081C114.141 325.386 119.08 322.283 124.021 319.177C126.038 317.91 128.055 316.643 130.09 315.403C134.003 313.014 138.107 310.953 142.36 309.24C144.759 308.277 147.203 307.401 149.649 306.563C150.521 306.264 151.4 305.973 152.279 305.684C153.372 305.36 154.485 305.107 155.611 304.927C155.655 304.917 155.7 304.907 155.744 304.897C156.029 303.666 156.317 302.437 156.606 301.207C157.349 298.044 158.092 294.881 158.765 291.702C158.91 290.843 159.039 289.983 159.135 289.12C159.29 287.176 159.585 285.245 160.017 283.344C161.157 278.87 163.627 274.846 167.101 271.805C167.154 270.842 167.212 269.88 167.275 268.919C166.75 268.514 166.231 268.099 165.717 267.674C163.62 265.94 161.564 264.183 159.633 262.262C157.448 260.088 155.508 257.681 153.847 255.085C152.575 253.112 151.495 251.019 150.421 248.935L150.145 248.4C148.302 244.83 146.619 241.216 145.065 237.51C144.671 236.572 144.271 235.637 143.872 234.702L143.87 234.698C142.427 231.316 140.983 227.936 139.798 224.449C139.084 222.356 138.5 220.215 137.916 218.074C137.551 216.738 137.187 215.402 136.791 214.079C134.655 212.042 132.919 209.599 131.696 206.873C130.362 203.669 129.716 200.22 129.799 196.751C129.797 196.104 129.791 195.457 129.784 194.811C129.777 194.161 129.77 193.511 129.769 192.862C129.765 190.71 129.762 188.556 129.816 186.404C129.817 186.372 129.818 186.339 129.819 186.306C129.794 186.204 129.769 186.101 129.743 185.998C129.221 183.862 128.608 181.753 127.903 179.672C127.635 179.008 127.336 178.365 127.016 177.726C126.669 177.079 126.311 176.44 125.918 175.819C125.242 174.941 124.524 174.098 123.807 173.254C122.283 171.464 120.761 169.676 119.648 167.569C118.412 165.314 117.617 162.845 117.306 160.293C117.164 158.532 117.179 156.762 117.35 155.003L117.355 154.91C116.699 153.974 116.158 152.963 115.746 151.898C114.659 149.235 114.643 146.255 115.701 143.581C116.508 141.789 117.747 140.226 119.306 139.031C120.865 137.836 122.697 137.046 124.636 136.733C126.157 136.574 127.692 136.807 129.097 137.41C128.337 134.607 127.77 131.754 127.399 128.873C126.987 125.252 127.077 121.591 127.667 117.994C127.801 117.028 127.955 116.069 128.109 115.111C128.428 113.123 128.746 111.142 128.882 109.114C129.025 106.542 129.333 103.981 129.804 101.448C129.947 100.713 130.124 99.9858 130.3 99.2582C130.416 98.7828 130.531 98.3072 130.637 97.8297C130.666 97.6315 130.691 97.4329 130.711 97.2339C130.713 97.1175 130.713 97.0012 130.712 96.8849C130.649 96.3451 130.566 95.8025 130.463 95.2854L130.515 95.5277C130.216 93.955 130.239 92.3358 130.585 90.7687C131.137 88.5797 132.386 86.6298 134.145 85.2137C135.459 84.1601 137.031 83.4768 138.698 83.2345C140.365 82.9921 142.067 83.1995 143.627 83.8353L143.626 83.7953C145.336 84.4933 146.843 85.6115 148.006 87.0464L148.077 87.1106C148.961 87.8111 149.875 88.4624 150.812 89.0934C152.77 90.327 154.748 91.5316 156.792 92.62C157.189 92.795 157.587 92.9625 157.988 93.124C161.966 92.6586 166.057 93.1473 169.709 94.6088L169.815 94.6519C173.818 92.0365 178.485 90.6215 183.266 90.5741C184.713 90.5612 186.158 90.6756 187.586 90.9159C189.814 85.6919 193.846 81.4428 198.946 78.9434C204.046 76.444 209.875 75.8607 215.369 77.2999C217.32 76.6731 219.332 76.2974 221.357 76.1741C222.507 75.3475 223.706 74.59 224.906 73.8324C225.651 73.3622 226.395 72.8919 227.128 72.405C227.168 72.3737 227.208 72.3423 227.248 72.3107C227.283 72.2739 227.317 72.2371 227.352 72.2L227.281 72.2842L227.335 72.2408C228.236 71.1668 229.315 70.2554 230.525 69.5463C232.54 68.2857 234.863 67.6047 237.24 67.5781C240.166 67.7006 242.979 68.7392 245.282 70.5474C246.46 71.4388 247.587 72.395 248.659 73.4114C252.184 76.8848 255.445 80.6166 258.415 84.5757C261.513 88.382 264.387 92.3658 267.021 96.507C268.439 98.8382 269.691 101.237 270.872 103.694C272.022 106.29 272.989 108.964 273.763 111.696C274.343 113.533 274.842 115.402 275.288 117.286C275.96 117.107 276.647 116.985 277.34 116.922C278.735 116.711 280.157 116.776 281.527 117.112C283.218 117.582 284.776 118.442 286.075 119.623C288.477 121.924 289.516 125.242 289.838 128.473C290.246 133.481 289.031 138.488 286.373 142.752C285.042 144.989 283.581 147.147 281.999 149.213C280.293 151.423 278.615 153.641 276.993 155.902C276.607 156.783 276.178 157.647 275.755 158.499L275.754 158.5L275.669 158.672C275.633 158.744 275.598 158.816 275.562 158.888C275.29 159.436 275.016 159.983 274.736 160.528C274.707 160.6 274.677 160.671 274.647 160.743C274.531 161.023 274.415 161.302 274.299 161.582C273.508 163.495 272.716 165.407 271.858 167.292C271.855 167.298 271.853 167.303 271.85 167.309C271.846 167.327 271.842 167.345 271.837 167.363C271.549 169.232 271.37 171.105 271.242 172.993C271.182 174.271 271.133 175.55 271.085 176.829C270.977 179.682 270.868 182.536 270.635 185.384C270.244 189.228 269.644 193.049 268.835 196.827C268.754 197.272 268.673 197.717 268.592 198.162L268.591 198.17L268.591 198.172C268.202 200.317 267.813 202.461 267.316 204.584C266.655 207.173 265.859 209.726 264.934 212.233C263.325 216.927 261.288 221.464 258.849 225.786C256.562 229.786 254.062 233.66 251.564 237.532C251.346 237.871 251.127 238.21 250.909 238.549L250.092 239.814C251.22 239.671 252.366 239.78 253.447 240.134C254.528 240.488 255.517 241.078 256.342 241.861C257.865 243.461 258.844 245.503 259.138 247.694L259.155 247.783C259.424 248.568 259.656 249.373 259.888 250.179L259.888 250.18C260.037 250.697 260.187 251.215 260.346 251.729C260.872 253.425 261.443 255.107 262.029 256.785C263.852 261.337 265.234 266.054 266.155 270.871C266.468 272.853 266.688 274.794 266.814 276.799C266.96 279.526 266.753 282.261 266.198 284.934C268.036 286.36 270.001 287.624 271.957 288.882L271.963 288.886C272.301 289.103 272.639 289.32 272.976 289.538L271.704 288.724C274.361 290.427 277.004 292.144 279.607 293.932C281.337 295.118 283.02 296.376 284.7 297.632L284.707 297.637C285.255 298.046 285.803 298.456 286.353 298.863C290.784 302.14 295.324 305.235 299.928 308.257C301.753 309.399 303.58 310.537 305.424 311.647C306.016 311.665 306.607 311.719 307.192 311.809C308.424 311.996 309.669 312.23 310.881 312.539C311.037 312.578 311.194 312.618 311.351 312.657C311.47 312.686 311.588 312.716 311.707 312.745L311.708 312.746C312.622 312.973 313.538 313.2 314.437 313.482C317.135 314.323 319.782 315.24 322.432 316.214C325.475 317.333 328.469 318.613 331.449 319.91C336.721 321.95 342.001 323.972 347.289 325.976C350.07 327.039 352.837 328.138 355.589 329.272C355.773 329.277 355.957 329.284 356.139 329.292C358.225 329.386 360.302 329.632 362.352 330.028C365.253 330.596 368.122 331.316 370.948 332.183C376.029 333.737 380.901 335.908 385.454 338.648C388.837 340.656 392.06 342.922 395.278 345.184C396.106 345.766 396.933 346.347 397.762 346.924C401.899 349.652 405.87 352.622 409.656 355.818C411.462 357.475 413.101 359.305 414.55 361.282C416.212 363.449 417.722 365.729 419.07 368.106C420.386 370.469 421.313 372.949 422.044 375.491C427.087 380.621 430.292 387.287 431.141 394.448C431.306 396.091 431.365 397.74 431.318 399.387ZM24.4123 472.672C24.3708 472.839 24.3293 473.007 24.2879 473.174C24.3783 473.064 24.4699 472.954 24.5625 472.846C24.5121 472.788 24.4621 472.73 24.4123 472.672ZM153.357 374.523C150.949 376.977 148.692 379.575 146.599 382.302C145.099 381.805 143.577 381.382 142.034 381.033L142.09 380.996C142.486 380.736 142.883 380.476 143.288 380.229C145.35 378.95 147.292 377.488 149.092 375.86C150.068 375.622 151.014 375.332 151.965 375.009L151.66 375.119C152.227 374.924 152.793 374.725 153.357 374.523Z" fill="white"/>
<path d="M380.189 439.485C380.177 439.483 380.166 439.483 380.155 439.482C380.144 439.481 380.133 439.48 380.121 439.478C378.978 439.343 377.85 439.097 376.755 438.742C375.621 438.426 374.481 438.165 373.331 437.948C370.114 437.459 366.877 437.171 363.633 436.927C361.053 436.923 358.473 436.952 355.893 436.98L355.886 436.98L355.183 436.988H355.176C350.832 437.038 346.49 437.089 342.149 437.001C339.763 436.95 337.374 436.862 334.999 436.638C331.669 436.343 328.4 435.562 325.297 434.32C320.167 432.278 315.565 429.101 311.835 425.029C311.048 424.167 310.281 423.295 309.531 422.403C307.837 420.321 306.446 418.01 305.401 415.538C304.017 412.232 303.125 408.742 302.755 405.178C302.391 402.566 302.388 399.917 302.744 397.305C303.137 395.038 303.736 392.812 304.533 390.654C305.417 388.242 306.513 385.913 307.807 383.694C310.323 379.443 313.243 375.445 316.528 371.756C317.897 370.134 319.291 368.531 320.684 366.927L320.688 366.923L320.699 366.91L320.701 366.908C322.01 365.401 323.319 363.895 324.608 362.373C325.691 361.046 326.736 359.706 327.727 358.315C328.253 357.443 328.754 356.558 329.23 355.661C329.447 355.155 329.658 354.646 329.858 354.127C330.241 352.797 330.57 351.46 330.849 350.103C331.066 348.555 331.222 347.015 331.31 345.454C331.31 344.646 331.286 343.845 331.235 343.038C331.134 342.264 331.008 341.5 330.862 340.733C330.397 338.962 329.834 337.218 329.206 335.497C328.884 334.7 328.543 333.91 328.185 333.129C327.842 332.883 327.52 332.609 327.221 332.311C325.732 330.836 324.269 329.333 322.806 327.83L322.801 327.826L322.798 327.822L322.792 327.817C321.83 326.828 320.867 325.839 319.898 324.859C319.233 324.187 318.549 323.535 317.865 322.883C317.125 322.178 316.386 321.473 315.67 320.743C313.956 318.999 312.269 317.226 310.607 315.425C307.412 311.939 304.686 308.051 302.497 303.86C301.553 302.064 300.802 300.173 300.258 298.219C301.492 298.857 302.727 299.493 303.973 300.107C304.401 300.318 304.828 300.529 305.256 300.741C309.314 302.744 313.373 304.748 317.502 306.602C317.808 306.74 318.113 306.877 318.418 307.015C318.9 307.233 319.382 307.452 319.864 307.67L319.886 307.68C323.581 309.355 327.284 311.034 331.076 312.466C333.451 313.362 335.82 314.224 338.233 315.018C340.482 315.76 342.747 316.449 345.016 317.138L345.02 317.14L345.274 317.217C345.664 317.336 346.055 317.454 346.448 317.573C348.075 318.241 349.705 318.899 351.338 319.558C351.787 319.739 352.236 319.92 352.685 320.101C353.164 320.295 353.642 320.491 354.12 320.687C355.962 321.441 357.807 322.197 359.685 322.852C360.756 325.858 361.467 328.981 361.803 332.155C362.089 334.814 362.068 337.498 361.742 340.153C361.403 342.636 360.914 345.096 360.276 347.52C359.092 352.407 357.416 357.162 355.274 361.711C352.563 367.082 349.351 372.184 345.681 376.951C344.905 377.996 344.122 379.035 343.339 380.073C340.938 383.259 338.538 386.442 336.353 389.782C335.549 391.143 334.788 392.51 334.072 393.915C333.475 395.33 332.929 396.759 332.406 398.208C332.128 399.154 331.87 400.098 331.666 401.065C331.616 401.462 331.571 401.859 331.537 402.259C331.544 402.51 331.554 402.762 331.568 403.009L331.573 403.039C331.588 403.135 331.604 403.229 331.619 403.322C331.683 403.546 331.751 403.77 331.823 403.993C331.951 404.289 332.084 404.58 332.226 404.872C332.667 405.605 333.132 406.321 333.611 407.031C333.957 407.478 334.31 407.913 334.673 408.344C335.036 408.697 335.406 409.039 335.786 409.379C336.631 410.027 337.493 410.641 338.379 411.235C339.509 411.91 340.649 412.548 341.823 413.152C342.848 413.593 343.876 413.99 344.931 414.35C346.947 414.886 348.966 415.355 351.012 415.748C353.935 416.198 356.879 416.5 359.832 416.654C360.688 416.678 361.544 416.696 362.401 416.714H362.402C364.863 416.767 367.325 416.819 369.781 417C373.315 417.147 376.824 417.666 380.25 418.548C383.484 419.495 386.84 420.808 389.049 423.478C390.736 425.511 391.557 428.125 391.336 430.757C391.152 433.026 390.15 435.151 388.516 436.736C388.355 437.515 388.014 438.245 387.519 438.867C387.025 439.489 386.391 439.987 385.669 440.32C385.03 440.61 384.335 440.76 383.633 440.758C382.371 440.753 381.151 440.302 380.189 439.485Z" fill="#84C500"/>
<path d="M134.217 412.79C133.926 412.718 133.64 412.632 133.36 412.532C132.693 415.432 132.077 418.34 131.548 421.269C131.156 424.04 130.904 426.811 130.728 429.607C130.69 431.26 130.717 432.891 130.816 434.542C131.054 436.302 131.355 438.035 131.711 439.776C131.909 440.526 132.133 441.265 132.385 441.999C132.652 442.643 132.941 443.277 133.248 443.906C133.845 444.984 134.45 446.048 135.132 447.075C135.679 447.795 136.254 448.483 136.857 449.157C137.377 449.698 137.912 450.218 138.471 450.717C138.855 451.01 139.245 451.289 139.643 451.559C140.715 452.205 141.82 452.803 142.937 453.364C143.544 453.629 144.154 453.875 144.777 454.103C145.536 454.32 146.298 454.506 147.072 454.661C148.764 454.904 150.462 455.036 152.168 455.138C153.432 455.117 154.673 455.062 155.93 454.969C159.14 454.514 162.317 453.907 165.489 453.231C167.442 452.747 169.352 452.183 171.252 451.508C173.204 450.729 175.116 449.851 176.98 448.877C177.759 448.46 178.542 448.051 179.329 447.651C183.225 445.676 188.234 447.431 190.47 451.031C191.083 452.026 191.494 453.132 191.678 454.287C191.863 455.441 191.818 456.62 191.546 457.757C190.982 459.998 189.577 461.936 187.623 463.169C185.436 464.551 183.126 465.725 180.721 466.678C178.512 467.613 176.247 468.407 173.937 469.053C171.603 469.681 169.242 470.199 166.855 470.608C166.602 470.651 166.349 470.695 166.096 470.739C164.12 471.081 162.141 471.423 160.15 471.643C158.708 471.802 157.272 471.951 155.823 472.033C155.271 472.066 154.722 472.076 154.172 472.076C153.659 472.076 153.146 472.067 152.63 472.057L152.389 472.053C149.046 471.97 145.721 471.532 142.47 470.747C139.462 470.022 136.585 468.83 133.946 467.214C131.983 466.089 130.115 464.807 128.36 463.379C126.073 461.334 124.057 459.004 122.361 456.447C121.176 454.597 120.149 452.65 119.293 450.627C116.826 445.296 116.341 439.171 116.534 433.365C116.665 430.922 116.97 428.492 117.447 426.093C117.81 424.04 118.228 421.993 118.747 419.978C119.883 415.754 121.382 411.636 123.226 407.67C124.085 405.78 125.052 403.944 126.032 402.115C126.192 401.827 126.357 401.542 126.528 401.26C125.601 397.786 124.52 394.357 123.283 390.974C121.797 387.384 120.114 383.902 118.309 380.461C115.244 374.957 111.905 369.611 108.305 364.441C105.177 360.134 101.807 356.03 98.432 351.921C97.5661 350.866 96.6999 349.812 95.8373 348.753C94.5512 347.173 93.2756 345.584 91.9998 343.994L91.9953 343.988C91.2321 343.037 90.4688 342.086 89.7031 341.137C90.6495 340.263 91.5947 339.388 92.5389 338.512C96.0613 335.247 99.6109 332.01 103.188 328.8C104.311 327.791 105.432 326.78 106.551 325.766C108.071 327.874 109.573 329.995 111.075 332.114C111.499 332.712 111.922 333.31 112.346 333.907C114.745 337.263 117.177 340.593 119.642 343.897C122.482 347.725 125.238 351.587 127.695 355.676C130.175 359.809 132.466 364.068 134.638 368.374C136.874 372.734 138.856 377.219 140.573 381.808C141.87 385.455 142.902 389.191 143.661 392.986C144.037 394.785 144.371 396.591 144.662 398.406C144.681 398.525 144.7 398.645 144.719 398.765L144.76 399.022C145.141 401.394 145.547 403.926 144.957 406.251C144.457 408.171 143.346 409.876 141.79 411.107C140.235 412.338 138.321 413.029 136.338 413.075C135.621 413.075 134.908 412.98 134.217 412.79Z" fill="#84C500"/>
<path d="M15.3445 519.885C14.0837 519.728 12.8228 519.567 11.5617 519.406C9.32101 519.121 7.07956 518.835 4.83594 518.571C5.24794 515.785 5.64468 512.997 6.02618 510.207C7.34961 500.495 8.5713 490.783 9.37219 481.013C9.38775 480.825 9.40303 480.637 9.41803 480.449C9.49517 480.33 9.57265 480.212 9.65045 480.094L10.0673 479.459C11.2137 477.712 12.365 475.958 13.6513 474.311C15.3107 472.18 17.0379 470.117 18.8195 468.088C21.8736 464.703 25.0969 461.475 28.4771 458.416C32.0742 455.081 35.7617 451.851 39.5397 448.728C44.192 444.88 48.7969 440.988 53.2694 436.929C55.3623 434.976 57.3513 432.915 59.2283 430.753C60.7926 428.812 62.3129 426.844 63.6974 424.771C64.2132 423.895 64.6996 423.006 65.1566 422.103C65.6996 420.844 66.1848 419.572 66.6225 418.276C66.9483 417.159 67.2401 416.043 67.4844 414.906C67.5794 414.173 67.6575 413.443 67.7186 412.707C67.7152 411.73 67.6711 410.759 67.5964 409.785C67.4268 408.533 67.196 407.298 66.9347 406.059C65.7292 401.283 64.0609 396.644 62.3932 392.007C61.1974 388.682 60.0017 385.357 58.9772 381.983C58.1288 379.187 57.3347 376.391 56.7036 373.554C57.5156 372.714 58.3247 371.871 59.134 371.028L59.1354 371.027C59.8137 370.32 60.4921 369.613 61.1727 368.908C65.5468 364.378 69.9854 359.919 74.4443 355.48C74.4647 355.772 74.485 356.064 74.5088 356.356L74.5163 356.425C74.5546 356.775 74.5931 357.129 74.6378 357.479C74.7498 357.805 74.8652 358.127 74.9806 358.45C75.8527 360.571 76.7892 362.641 77.8276 364.683C80.5924 369.59 83.762 374.253 86.9316 378.916C88.8543 381.745 90.7771 384.574 92.6093 387.457C97.8284 395.665 102.603 404.512 103.947 414.268C104.345 417.292 104.36 420.355 103.991 423.383C103.608 426.277 102.957 429.13 102.046 431.904C100.751 436.12 98.7224 440.075 96.0536 443.587C94.6531 445.378 93.1218 447.062 91.4725 448.626C89.5561 450.37 87.5058 451.961 85.3405 453.384C80.1033 456.978 74.4072 459.89 68.7397 462.787C67.1949 463.576 65.6522 464.365 64.1215 465.166C59.9946 467.386 55.9871 469.821 52.1156 472.462C49.1735 474.661 46.357 476.972 43.6219 479.422C40.7357 482.162 37.9903 485.046 35.3962 488.065C33.1871 490.823 31.0866 493.654 29.1184 496.592C27.7712 498.798 26.5462 501.055 25.406 503.376C23.8723 506.736 22.5243 510.177 21.3679 513.685C20.7638 515.772 20.2718 517.872 19.868 520.007C19.8476 520.153 19.8272 520.299 19.8035 520.445C19.307 520.382 18.8106 520.32 18.3142 520.257L18.3003 520.255L18.291 520.254C17.3088 520.13 16.3267 520.006 15.3445 519.885Z" fill="#84C500"/>
<path d="M162.685 535.565C157.667 535.495 152.673 534.873 147.791 533.709C143.397 532.421 139.188 530.573 135.266 528.208C131.303 525.968 127.617 523.269 124.285 520.166C121.414 517.543 118.686 514.784 116.002 511.974L115.923 511.892L115.922 511.891C113.34 509.191 110.781 506.516 107.987 504.034C106.928 503.182 105.849 502.368 104.732 501.591C104.216 501.289 103.694 500.996 103.164 500.712C102.353 500.359 101.536 500.036 100.697 499.741C99.5606 499.449 98.4159 499.194 97.2633 498.974C96.4862 498.862 95.7125 498.76 94.932 498.693C94.2534 498.896 93.5712 499.079 92.8654 499.263C91.8372 499.527 90.8101 499.803 89.7842 500.091C87.7617 500.664 85.7664 501.329 83.7847 502.032C81.6008 502.881 79.4613 503.84 77.3745 504.906C76.6755 505.323 75.9933 505.751 75.3147 506.192C74.9651 506.453 74.6224 506.718 74.2797 506.99C73.8317 507.376 73.3907 507.77 72.9495 508.17C71.0967 509.932 69.3321 511.761 67.6557 513.691C66.5223 515.107 65.4432 516.545 64.4286 518.045C63.8551 518.999 63.3156 519.966 62.8235 520.967C62.1312 522.535 61.517 524.143 60.9673 525.772C60.8414 525.756 60.7153 525.74 60.5891 525.724L60.217 525.677L60.216 525.677C60.0697 525.659 59.9235 525.64 59.7774 525.622C59.674 525.609 59.5706 525.595 59.4674 525.582C54.0651 524.89 48.6639 524.185 43.2639 523.468C41.8997 523.288 40.5344 523.109 39.168 522.932C39.1983 522.305 39.323 521.686 39.5379 521.096C41.0877 516.733 42.8603 512.453 44.8486 508.272C46.936 504.087 49.4116 500.107 52.2429 496.385C53.7616 494.421 55.4184 492.568 57.2006 490.84C58.8361 489.158 60.5625 487.566 62.3722 486.072C66.119 483.05 70.0881 480.314 74.2457 477.888C78.5496 475.416 83.0787 473.359 87.7719 471.745C90.2259 470.955 92.7379 470.357 95.2849 469.957C97.7793 469.541 100.3 469.304 102.828 469.248C105.238 469.162 107.65 469.212 110.053 469.397C111.757 469.528 113.453 469.759 115.13 470.089C117.54 470.686 119.862 471.592 122.039 472.787C125.14 474.487 127.925 476.708 130.271 479.354C131.897 481.091 133.413 482.93 134.808 484.858C135.31 485.532 135.809 486.21 136.308 486.887C137.412 488.387 138.516 489.886 139.658 491.356C140.998 493.85 142.552 496.223 144.303 498.448C147.18 501.966 150.302 505.276 153.645 508.354C157.069 511.717 160.732 514.827 164.606 517.662L164.901 517.876L164.902 517.877C166.612 519.115 168.324 520.355 170.12 521.459C172.14 522.698 174.175 523.918 176.208 525.137L177.088 525.665L177.25 525.762L177.341 525.816C177.98 526.204 178.616 526.595 179.254 526.986L179.257 526.988L179.26 526.99C181.11 528.125 182.961 529.261 184.847 530.333C185.322 530.602 185.8 530.866 186.281 531.125C185.265 531.598 184.225 532.017 183.164 532.379C180.943 533.131 178.684 533.762 176.394 534.269C172.455 535.165 168.425 535.608 164.385 535.589C163.818 535.589 163.255 535.579 162.685 535.565Z" fill="#84C500"/>
<path d="M290.952 547.093C291.301 547.575 291.732 547.991 292.225 548.324C293.013 548.866 293.944 549.164 294.9 549.178C295.326 549.178 295.751 549.114 296.158 548.989C297.27 548.655 298.204 547.895 298.758 546.875C299.248 545.779 299.545 544.607 299.637 543.41C299.761 542.468 299.901 541.526 300.05 540.587C300.526 538.044 301.137 535.55 301.862 533.069C302.556 530.974 303.312 528.931 304.2 526.913C304.773 525.827 305.367 524.769 305.993 523.715C306.718 522.682 307.461 521.685 308.238 520.693C309.12 519.734 310.014 518.814 310.942 517.905C312.001 517.009 313.071 516.152 314.171 515.309C315.888 514.156 317.632 513.074 319.431 512.045C321.751 510.847 324.095 509.75 326.52 508.782C328.399 508.132 330.292 507.563 332.219 507.069C334.995 506.453 337.8 505.978 340.605 505.502L340.904 505.451C343.833 505.052 346.727 504.431 349.561 503.592C351.806 502.937 353.787 501.592 355.224 499.747C356.414 498.085 357.027 496.079 356.971 494.036C356.914 491.993 356.191 490.024 354.912 488.43C353.488 486.768 351.588 485.582 349.469 485.035C349.036 483.214 348.047 481.572 346.641 480.337C345.234 479.103 343.478 478.335 341.617 478.141C337.92 477.986 334.216 478.185 330.557 478.735C326.949 479.168 323.371 479.818 319.841 480.683C312.887 482.336 306.28 485.205 300.326 489.159C295.848 492.122 291.878 495.789 288.571 500.018C285.459 503.965 282.917 508.33 281.02 512.985C279.231 517.605 278.122 522.461 277.729 527.4C277.564 529.631 277.55 531.87 277.688 534.103L277.691 534.221C277.717 535.021 277.775 535.818 277.867 536.612C277.958 539.099 278.583 541.536 279.7 543.76C281.925 547.721 287.064 548.825 290.952 547.093Z" fill="#84C500"/>
<path d="M373.922 394.74C374.694 395.821 375.617 396.785 376.664 397.604C378.262 398.769 380.189 399.397 382.168 399.396C383.872 399.399 385.543 398.927 386.993 398.031C389.918 396.216 391.218 393.04 391.856 389.813C392.264 387.761 392.591 385.683 392.915 383.617L392.916 383.615L392.97 383.271C393.265 381.406 393.561 379.538 393.695 377.657C393.937 375.673 393.827 373.661 393.369 371.716C393.003 370.475 392.281 369.37 391.293 368.536C391.578 368.027 391.866 367.514 392.148 367.002C392.966 365.523 393.743 364.019 394.479 362.492L394.65 362.137C395.036 361.338 395.426 360.532 395.787 359.714C395.814 359.593 395.843 359.472 395.874 359.35C396.067 358.597 396.281 357.843 396.502 357.097C396.679 356.507 396.858 355.916 397.038 355.322C397.171 354.818 397.365 354.332 397.616 353.877C397.792 353.58 397.999 353.302 398.234 353.046C398.61 352.665 399.053 352.356 399.54 352.133C400.117 351.761 400.792 351.569 401.478 351.579C402.164 351.589 402.832 351.802 403.398 352.19C403.471 352.241 403.542 352.295 403.61 352.352C403.654 352.389 403.697 352.427 403.74 352.466C403.8 352.323 403.857 352.177 403.911 352.028C404.125 351.681 404.318 351.318 404.508 350.952C404.67 350.714 404.839 350.483 405.015 350.257C405.222 350.011 405.412 349.752 405.587 349.483C405.78 349.138 405.877 348.749 405.869 348.355C405.861 347.961 405.749 347.576 405.543 347.24C405.162 346.681 404.62 346.251 403.989 346.007C403.358 345.764 402.668 345.718 402.01 345.875C401.111 345.185 400.026 344.781 398.897 344.713C398.834 343.404 398.644 342.101 398.327 340.825C397.906 339.213 397.106 337.333 395.538 336.539C394.774 336.146 393.902 336.015 393.057 336.167C392.212 336.319 391.44 336.746 390.862 337.381C390.088 338.304 389.479 339.353 389.06 340.483C388.694 341.314 388.349 342.153 388.003 342.992C387.604 343.96 387.205 344.928 386.776 345.885C385.951 347.582 385.062 349.227 384.075 350.836C382.48 353.253 380.748 355.572 379.016 357.891L379.016 357.892C377.336 360.14 375.657 362.39 374.102 364.729C371.784 368.207 369.839 372.058 369.493 376.293C369.17 379.911 369.433 383.557 370.27 387.091C370.941 389.867 372.184 392.473 373.922 394.74Z" fill="#84C500"/>
<path d="M383.053 527.581C382.622 523.101 381.814 518.666 380.962 514.251C380.84 513.617 380.714 512.979 380.586 512.344C380.511 510.98 380.424 509.618 380.324 508.259C380.182 506.28 380.032 504.301 379.876 502.32L379.789 501.225C380.298 500.008 380.855 498.811 381.458 497.634C385.891 489.354 391.005 481.457 396.748 474.026C400.311 469.256 404.168 464.729 408.027 460.198L408.493 459.651C411.815 455.652 414.926 451.483 417.815 447.16C418.907 445.375 419.949 443.577 420.923 441.72C421.568 440.282 422.151 438.836 422.677 437.346C423.125 435.728 423.509 434.106 423.838 432.46C424.198 430.095 424.459 427.74 424.605 425.351C424.656 422.795 424.588 420.26 424.384 417.712C424.37 417.583 424.355 417.455 424.34 417.326C424.273 417.017 424.22 416.705 424.181 416.39C424.045 415.735 423.926 415.073 423.811 414.412C423.675 413.656 423.543 412.9 423.412 412.144C423.392 412.065 423.372 411.986 423.353 411.906C423.208 411.435 423.13 410.948 423.12 410.458L423.047 410.041L422.876 409.048C422.44 406.529 422.005 404.011 421.612 401.486L421.576 401.257C420.708 395.662 419.818 389.926 420.427 384.261C420.676 382.368 421.659 380.649 423.163 379.473C424.667 378.298 426.573 377.76 428.47 377.977C432.223 378.438 435.43 382.144 434.755 386.019C434.623 386.778 434.522 387.535 434.457 388.3C434.427 389.14 434.433 389.979 434.453 390.819C435.442 392.477 436.06 394.33 436.265 396.25C436.425 397.107 436.548 397.971 436.672 398.835L436.673 398.844C436.716 399.147 436.759 399.45 436.804 399.752C436.977 400.907 437.146 402.063 437.312 403.218C437.436 403.435 437.542 403.661 437.629 403.895C437.85 404.5 438.027 405.121 438.156 405.752C438.76 405.948 439.328 406.244 439.834 406.627C440.502 407.111 441.07 407.72 441.507 408.419C442.031 409.372 442.369 410.417 442.502 411.497C442.596 412.042 442.643 412.6 442.689 413.152L442.689 413.154C442.704 413.336 442.719 413.518 442.736 413.699C442.859 414.988 442.99 416.277 443.122 417.565C443.172 418.057 443.222 418.549 443.272 419.04C443.449 420.795 443.618 422.549 443.771 424.303C443.859 425.291 443.941 426.282 444.002 427.273C444.128 428.409 444.116 429.556 443.968 430.69C443.896 431.094 443.79 431.491 443.651 431.878C443.694 432.168 443.741 432.458 443.794 432.748C443.81 432.806 443.827 432.863 443.844 432.921C443.879 433.04 443.916 433.158 443.958 433.276C443.942 433.23 443.925 433.185 443.909 433.139C443.894 433.096 443.879 433.054 443.863 433.011C444.251 434.092 444.22 435.28 443.775 436.34C443.452 437.109 442.928 437.77 442.265 438.259C442.55 439.25 442.836 440.242 443.121 441.233L443.559 442.758L443.563 442.772C445.036 447.891 446.508 453.011 447.999 458.128C448.196 458.806 448.396 459.488 448.596 460.167C448.386 460.924 448.157 461.678 447.911 462.431C446.915 465.122 445.569 467.67 443.91 470.011C441.906 473.079 439.644 475.969 437.147 478.651C434.467 481.439 431.548 483.986 428.422 486.263C425.045 488.796 421.496 491.082 417.945 493.368C415.481 494.954 413.017 496.541 410.611 498.211C409.155 499.307 407.75 500.437 406.376 501.628C405.086 502.9 403.858 504.214 402.663 505.578C401.207 507.444 399.84 509.348 398.523 511.309C397.261 513.403 396.073 515.514 394.964 517.692C394.176 519.474 393.453 521.266 392.798 523.108C392.534 523.99 392.279 524.873 392.059 525.769C391.984 526.278 391.889 526.787 391.767 527.286C391.765 527.286 391.764 527.285 391.762 527.285C391.761 527.285 391.76 527.284 391.759 527.284L391.755 527.281L391.75 527.279C391.488 528.414 390.998 529.484 390.311 530.424C389.529 531.495 388.517 532.376 387.35 533.003C386.182 533.631 384.889 533.988 383.565 534.05C383.439 531.885 383.258 529.741 383.053 527.581Z" fill="#84C500"/>
<path d="M427.684 518.708C425.488 523.09 424.771 528.065 425.641 532.889C425.721 533.264 425.806 533.637 425.896 534.007C430.102 533.009 434.31 532.007 438.519 531.002C439.939 530.649 441.36 530.299 442.781 529.949L442.884 529.924C449.58 528.274 456.284 526.623 462.905 524.705C463.224 523.361 463.228 521.961 462.915 520.615C462.603 519.27 461.983 518.014 461.104 516.948C460.225 515.882 459.111 515.034 457.85 514.47C456.589 513.907 455.214 513.643 453.834 513.699C454.38 513.533 454.926 513.373 455.479 513.224C456.537 513 457.555 512.616 458.496 512.084C459.237 511.615 459.765 510.874 459.965 510.021C460.166 509.167 460.023 508.269 459.569 507.52C458.282 505.541 455.849 504.618 453.606 504.252C452.564 504.054 451.505 503.954 450.444 503.953C449.307 503.98 448.19 504.072 447.057 504.194C446.013 504.332 444.983 504.556 443.976 504.863C442.932 505.139 441.911 505.498 440.925 505.938C437.909 507.248 435.16 509.101 432.815 511.405C430.704 513.532 428.969 516.001 427.684 518.708Z" fill="#84C500"/>
<path d="M236.489 135.398C237.139 135.946 237.613 136.674 237.85 137.491C238.088 138.308 238.079 139.176 237.824 139.988C237.57 140.799 237.081 141.517 236.419 142.052C235.758 142.587 234.953 142.914 234.107 142.992C232.956 143.083 231.815 142.725 230.924 141.991C230.744 141.849 230.561 141.71 230.374 141.571C227.914 139.854 225.311 138.316 222.695 136.85C221.84 136.419 220.988 136.005 220.112 135.615C219.425 135.307 218.723 135.04 218.02 134.773L218.012 134.77L217.879 134.719C217.636 134.641 217.392 134.558 217.148 134.475L217.146 134.475L217.138 134.472L217.129 134.469C216.593 134.286 216.053 134.102 215.507 133.966C214.764 133.779 214.02 133.595 213.275 133.413L212.97 133.359C211.665 133.129 210.362 132.899 209.039 132.755C207.592 132.632 206.139 132.582 204.686 132.605C203.342 132.662 202.002 132.786 200.671 132.979C199.373 133.197 198.088 133.483 196.82 133.837C195.595 134.21 194.397 134.641 193.216 135.133C192.053 135.656 190.919 136.242 189.819 136.888C188.797 137.525 187.836 138.23 186.865 138.941L186.847 138.954C186.049 139.636 185.275 140.322 184.526 141.048C184.288 141.316 184.057 141.577 183.837 141.856C183.719 142.134 183.537 142.381 183.305 142.575C183.073 142.769 182.798 142.905 182.503 142.972C182.371 143 182.237 143.015 182.103 143.016C181.662 143.019 181.233 142.871 180.887 142.598C180.541 142.325 180.299 141.942 180.199 141.513C180.154 141.084 180.209 140.651 180.362 140.248C180.515 139.845 180.76 139.483 181.078 139.192C181.633 138.538 182.221 137.913 182.839 137.319C184.06 136.113 185.373 135.004 186.765 134C190.248 131.436 194.149 129.497 198.296 128.268C202.449 127.055 206.769 126.519 211.093 126.68C214.597 126.82 218.077 127.334 221.473 128.214C224.754 129.017 227.923 130.221 230.91 131.798C232.871 132.833 234.737 134.038 236.489 135.398Z" fill="black"/>
<path d="M152.346 140.178L152.325 140.148C152.281 140.098 152.236 140.048 152.191 139.998C152.176 139.985 152.161 139.972 152.146 139.959C152.131 139.946 152.116 139.933 152.101 139.92C152.088 139.909 152.075 139.898 152.062 139.887L152.025 139.857C151.94 139.799 151.853 139.742 151.766 139.689C151.57 139.59 151.371 139.499 151.169 139.414C150.88 139.318 150.593 139.235 150.299 139.16C150.032 139.108 149.764 139.064 149.495 139.03C148.921 138.986 148.352 138.967 147.775 138.971C146.418 139.048 145.075 139.242 143.732 139.443C143.222 139.517 142.711 139.59 142.2 139.662C141.617 139.746 141.033 139.829 140.45 139.915C139.685 140.043 138.927 140.189 138.171 140.359C137.484 140.512 136.767 140.459 136.11 140.206C135.453 139.952 134.887 139.509 134.481 138.934C134.076 138.358 133.851 137.675 133.833 136.972C133.816 136.268 134.007 135.575 134.384 134.98C134.898 134.191 135.696 133.63 136.613 133.412C137.967 133.053 139.335 132.696 140.712 132.438C141.462 132.299 142.212 132.191 142.969 132.096C143.798 132.015 144.631 131.983 145.463 132.001C149.936 131.95 156.322 134.033 156.38 139.378C156.38 139.299 156.377 139.217 156.374 139.137C156.375 139.157 156.377 139.177 156.38 139.198C156.426 139.752 156.253 140.303 155.897 140.731C155.542 141.158 155.033 141.429 154.479 141.485C154.414 141.492 154.349 141.494 154.285 141.494C153.868 141.49 153.462 141.363 153.117 141.129C152.772 140.895 152.504 140.564 152.346 140.178Z" fill="black"/>
<path d="M213.046 165.902L213.051 165.903C213.892 166.151 214.733 166.398 215.563 166.685C216.051 166.854 216.564 166.939 217.081 166.938C218.174 166.917 219.234 166.567 220.124 165.935C220.364 165.786 220.592 165.617 220.807 165.428C220.885 165.376 220.964 165.324 221.043 165.273C222.76 164.308 224.434 163.285 226.113 162.26L226.12 162.256L226.127 162.252C226.573 161.979 227.02 161.707 227.467 161.435C228.422 160.773 229.089 159.773 229.334 158.638C229.578 157.502 229.38 156.316 228.782 155.32C228.183 154.325 227.227 153.595 226.11 153.278C224.992 152.962 223.796 153.083 222.764 153.617C221.977 154.042 221.181 154.447 220.384 154.853L220.382 154.854C219.78 155.16 219.178 155.466 218.58 155.782C218.314 155.922 218.05 156.068 217.787 156.216C217.06 155.918 216.329 155.628 215.59 155.355C215.223 155.224 214.852 155.1 214.479 154.985C215.072 154.194 215.631 153.376 216.188 152.561L216.189 152.558L216.4 152.249C216.67 151.825 216.854 151.351 216.941 150.856C217.028 150.36 217.016 149.852 216.907 149.361C216.797 148.87 216.592 148.406 216.303 147.994C216.014 147.582 215.646 147.232 215.221 146.962C214.796 146.693 214.322 146.51 213.827 146.424C213.331 146.338 212.823 146.35 212.332 146.46C211.841 146.571 211.377 146.777 210.966 147.067C210.555 147.357 210.205 147.725 209.936 148.15C209.718 148.468 209.497 148.784 209.276 149.1L209.273 149.105C208.722 149.895 208.17 150.684 207.662 151.499L207.509 151.746L207.322 152.047C207.054 152.479 206.786 152.912 206.513 153.34C205.8 153.234 205.085 153.141 204.368 153.064L204.248 153.048C204.253 152.921 204.26 152.793 204.268 152.665L204.28 152.571L204.3 152.395C204.405 151.766 204.322 151.121 204.062 150.539C203.802 149.958 203.377 149.466 202.839 149.125C202.301 148.784 201.674 148.609 201.037 148.622C200.4 148.635 199.782 148.835 199.258 149.198C198.55 149.708 198.066 150.471 197.907 151.329C197.885 151.422 197.864 151.516 197.844 151.609L197.839 151.63C197.822 151.704 197.806 151.778 197.789 151.852C197.795 151.821 197.802 151.791 197.809 151.76L197.82 151.712C197.783 151.872 197.745 152.031 197.708 152.192L197.685 152.289C197.695 152.243 197.706 152.198 197.716 152.152C197.734 152.073 197.752 151.995 197.772 151.916C197.746 152.019 197.72 152.122 197.694 152.225C197.633 152.465 197.572 152.705 197.518 152.946C196.372 153.061 195.232 153.243 194.103 153.492C191.522 154.114 189.119 155.322 187.079 157.021C185.852 157.956 184.983 159.282 184.615 160.78C184.546 161.095 184.526 161.42 184.558 161.741C184.614 162.358 184.842 162.947 185.215 163.441C185.588 163.936 186.091 164.317 186.668 164.542C187.245 164.766 187.874 164.825 188.483 164.712C189.092 164.6 189.657 164.319 190.116 163.903C190.495 163.558 190.787 163.129 190.97 162.65C191.007 162.625 191.045 162.601 191.082 162.576C191.417 162.393 191.751 162.224 192.096 162.064C192.518 161.901 192.941 161.754 193.373 161.621C193.7 161.537 194.028 161.465 194.359 161.404C194.872 161.334 195.38 161.282 195.897 161.246C196.467 161.239 197.033 161.254 197.604 161.283C198.948 161.445 200.262 161.674 201.584 161.96C203.302 162.434 204.98 162.979 206.652 163.599C207.061 163.76 207.47 163.926 207.879 164.092L207.88 164.093C208.93 164.519 209.983 164.947 211.053 165.294C211.714 165.51 212.38 165.706 213.046 165.902Z" fill="black"/>
<path d="M158.142 161.772C158.217 161.907 158.293 162.041 158.376 162.174C158.631 162.565 158.983 162.884 159.396 163.101C159.81 163.318 160.273 163.425 160.74 163.413C161.472 163.42 162.182 163.156 162.733 162.673C163.036 162.391 163.277 162.048 163.439 161.667C163.601 161.286 163.681 160.875 163.673 160.461C163.666 160.047 163.571 159.639 163.394 159.264C163.218 158.889 162.965 158.555 162.651 158.285C162.574 158.22 162.493 158.161 162.411 158.102L162.394 158.089C162.245 157.929 162.101 157.764 161.957 157.6C161.681 157.285 161.405 156.97 161.094 156.687C159.765 155.484 158.178 154.603 156.455 154.111L156.353 154.081C156.391 153.871 156.41 153.658 156.411 153.443C156.412 152.915 156.301 152.392 156.084 151.91C155.867 151.429 155.55 150.999 155.153 150.649C154.757 150.3 154.291 150.039 153.785 149.885C153.28 149.73 152.748 149.686 152.224 149.753C151.7 149.821 151.197 150 150.747 150.278C150.298 150.556 149.914 150.927 149.619 151.366C149.325 151.805 149.128 152.301 149.041 152.822C149.006 152.991 148.978 153.16 148.956 153.331C148.443 153.365 147.933 153.417 147.424 153.487C147.429 153.409 147.433 153.331 147.437 153.253L147.441 153.152L147.444 153.094C147.462 152.574 147.365 152.056 147.16 151.578C146.955 151.1 146.647 150.673 146.257 150.328C145.868 149.983 145.407 149.729 144.907 149.583C144.408 149.437 143.882 149.403 143.369 149.484C142.855 149.566 142.365 149.759 141.935 150.052C141.505 150.344 141.144 150.728 140.88 151.176C140.616 151.625 140.454 152.126 140.406 152.644C140.358 153.162 140.425 153.684 140.602 154.173C140.764 154.623 140.945 155.066 141.146 155.5C140.886 155.635 140.627 155.773 140.369 155.911L140.174 156.014C139.852 155.479 139.513 154.955 139.158 154.44C138.921 154.098 138.619 153.805 138.269 153.58C137.919 153.354 137.528 153.2 137.118 153.125C136.709 153.051 136.288 153.058 135.881 153.146C135.474 153.234 135.089 153.401 134.746 153.639C134.404 153.876 134.112 154.178 133.887 154.528C133.661 154.879 133.507 155.27 133.433 155.68C133.359 156.089 133.367 156.51 133.455 156.917C133.544 157.323 133.711 157.709 133.949 158.051C134.665 159.124 135.518 160.098 136.487 160.949C137.206 161.535 137.956 162.081 138.735 162.583L138.771 162.615L138.75 162.595C139.163 162.946 139.686 163.139 140.228 163.139C140.772 163.141 141.297 162.94 141.7 162.574C141.725 162.551 141.75 162.527 141.775 162.502C142.073 162.477 142.368 162.413 142.654 162.31C142.706 162.294 142.757 162.278 142.808 162.262L142.947 162.218C143.492 162.072 144.042 161.94 144.592 161.807C145.229 161.654 145.867 161.5 146.499 161.325C147.664 161.001 148.83 160.732 150.016 160.511C150.71 160.42 151.399 160.349 152.099 160.29C152.791 160.284 153.474 160.296 154.171 160.331C154.708 160.396 155.235 160.48 155.764 160.59C156.09 160.679 156.41 160.775 156.73 160.884C156.931 160.97 157.128 161.059 157.324 161.156C157.504 161.267 157.675 161.378 157.847 161.495L158.035 161.653C158.067 161.686 158.099 161.72 158.13 161.755L158.142 161.772Z" fill="black"/>
<path d="M161.225 187.085C161.441 188.762 162.083 190.355 163.088 191.714C163.632 192.414 164.44 193.292 165.367 193.292C165.633 193.29 165.894 193.22 166.125 193.088C166.405 192.938 166.636 192.71 166.789 192.431C166.941 192.152 167.009 191.834 166.983 191.517C166.91 191.105 166.776 190.706 166.586 190.333C166.405 189.885 166.246 189.431 166.095 188.974C165.979 188.542 165.876 188.113 165.796 187.672C165.769 187.464 165.75 187.255 165.738 187.044C165.742 187.139 165.742 187.234 165.745 187.333C165.732 187.086 165.734 186.838 165.749 186.591C165.765 186.464 165.785 186.337 165.809 186.211C165.838 186.102 165.87 185.993 165.906 185.886C165.944 185.795 165.984 185.705 166.028 185.616C166.074 185.545 166.119 185.473 166.163 185.402C166.21 185.343 166.258 185.285 166.308 185.229C166.382 185.158 166.457 185.089 166.534 185.024C166.648 184.939 166.766 184.857 166.887 184.78C167.05 184.687 167.216 184.603 167.385 184.523C167.709 184.391 168.034 184.274 168.365 184.17C168.85 184.046 169.335 183.945 169.828 183.86C170.602 183.761 171.373 183.719 172.149 183.684C173.018 183.706 173.874 183.747 174.739 183.817C175.839 183.975 176.922 184.169 178.004 184.409C180.083 184.948 182.176 185.523 184.195 186.261C184.937 186.486 185.737 186.422 186.433 186.08C187.129 185.738 187.669 185.145 187.944 184.419C188.218 183.694 188.207 182.892 187.913 182.174C187.618 181.457 187.062 180.879 186.357 180.556C184.046 179.575 181.621 178.889 179.139 178.513C177.836 178.357 176.543 178.252 175.233 178.201C174.074 178.155 172.913 178.199 171.761 178.333C169.362 178.509 167.021 179.156 164.873 180.237C163.651 180.9 162.647 181.902 161.982 183.122C161.33 184.334 161.066 185.718 161.225 187.085Z" fill="black"/>
<path d="M160.999 210.359C159.918 210.239 158.847 210.031 157.799 209.738C157.288 209.59 156.784 209.422 156.28 209.254C155.941 209.141 155.601 209.028 155.26 208.921C154.823 208.972 154.382 208.874 154.009 208.642C153.659 208.421 153.392 208.09 153.249 207.702C153.106 207.313 153.095 206.888 153.217 206.493C153.34 206.098 153.589 205.753 153.926 205.514C154.264 205.274 154.671 205.152 155.085 205.167C155.537 205.189 155.968 205.367 156.303 205.671C156.383 205.691 156.463 205.711 156.543 205.731L156.585 205.741C158.099 206.083 159.63 206.339 161.173 206.508C162.233 206.567 163.281 206.61 164.342 206.623C165.099 206.633 165.856 206.612 166.614 206.591L167.056 206.579L167.187 206.576C167.144 206.576 167.101 206.577 167.056 206.579C169.652 206.433 172.235 206.243 174.821 205.985C177.231 205.742 179.632 205.402 182.029 205.059C186.362 204.337 190.681 203.55 194.957 202.551C199.462 201.501 203.918 200.301 208.359 199.014C214.329 197.282 220.202 195.23 225.951 192.866C227.024 192.39 228.092 191.905 229.16 191.419C229.657 191.193 230.155 190.967 230.652 190.742C230.994 190.588 231.336 190.436 231.679 190.284C232.815 189.781 233.952 189.277 235.045 188.693C235.073 188.674 235.101 188.655 235.128 188.636C235.177 188.59 235.226 188.543 235.273 188.496C235.57 188.17 235.86 187.829 236.143 187.488L236.161 187.422C236.214 187.136 236.257 186.851 236.292 186.563C236.306 186.409 236.319 186.256 236.326 186.103L236.324 186.084C236.14 185.491 236.064 184.87 236.099 184.25C236.212 183.689 236.538 183.193 237.009 182.868C237.48 182.543 238.059 182.413 238.624 182.506C239.513 182.716 240.319 183.188 240.938 183.86C241.491 184.354 241.984 184.911 242.407 185.519C242.643 185.87 242.803 186.266 242.876 186.682C242.95 187.098 242.935 187.525 242.833 187.935C242.731 188.345 242.544 188.729 242.284 189.062C242.024 189.396 241.697 189.671 241.325 189.87C241.248 189.909 241.17 189.945 241.091 189.978C240.743 190.411 240.394 190.843 240.045 191.274C239.062 192.49 238.079 193.704 237.125 194.946C235.895 196.545 234.703 198.173 233.512 199.799L232.883 200.657C232.947 200.572 233.009 200.487 233.073 200.403C231.85 202.091 230.634 203.785 229.419 205.479L229.416 205.482C226.799 209.13 224.181 212.778 221.485 216.369C219.679 218.774 217.806 221.143 215.862 223.437L215.379 224.011C214.533 225.017 213.685 226.026 212.787 226.987C211.569 228.29 210.341 229.569 209.082 230.828C208.084 231.828 207.002 232.741 205.923 233.651L205.614 233.913C204.261 235.043 202.816 236.057 201.294 236.946C198.069 238.91 194.455 240.146 190.703 240.567C189.52 240.677 188.349 240.741 187.171 240.741C186.635 240.741 186.098 240.727 185.558 240.699C182.244 240.48 178.975 239.813 175.84 238.718C174.292 238.18 172.775 237.562 171.292 236.865C169.819 236.211 168.399 235.442 167.047 234.564C165.543 233.57 164.237 232.306 163.196 230.835C162.613 229.995 162.339 228.98 162.42 227.961C162.501 226.942 162.932 225.983 163.64 225.246C164.347 224.509 165.288 224.039 166.303 223.917C167.317 223.794 168.343 224.026 169.205 224.574C170.056 225.155 170.884 225.772 171.711 226.389L171.712 226.389L171.942 226.561C172.874 227.211 173.822 227.818 174.81 228.377C176.093 229.031 177.389 229.623 178.719 230.171C179.988 230.617 181.254 231 182.555 231.337C183.567 231.527 184.571 231.692 185.588 231.832C186.617 231.91 187.631 231.957 188.663 231.975C189.634 231.922 190.594 231.858 191.559 231.727C192.307 231.593 193.042 231.429 193.776 231.233C194.651 230.963 195.511 230.652 196.355 230.301C197.31 229.855 198.221 229.348 199.138 228.832C199.672 228.482 200.207 228.134 200.744 227.787C201.153 227.522 201.543 227.224 201.932 226.926C202.105 226.794 202.278 226.662 202.452 226.533C204.028 225.246 205.56 223.926 207.042 222.528C208.462 221.194 209.814 219.796 211.167 218.396L210.955 218.615C215.37 213.905 219.554 209.002 223.728 204.078C226.116 201.168 228.614 198.351 231.216 195.633C229.17 196.654 227.068 197.581 224.945 198.425C220.347 200.25 215.664 201.848 210.927 203.281C206.064 204.747 201.156 206.047 196.203 207.183C193.858 207.723 191.496 208.184 189.131 208.639C186.748 209.1 184.326 209.474 181.916 209.759C179.619 210.033 177.325 210.285 175.017 210.434C172.574 210.597 170.134 210.692 167.684 210.729C167.487 210.732 167.291 210.733 167.094 210.733C165.057 210.725 163.022 210.6 160.999 210.359Z" fill="black"/>
<path fill-rule="evenodd" clip-rule="evenodd" d="M380.577 535.952C380.639 537.374 381.243 538.719 382.266 539.708C383.281 540.667 384.624 541.203 386.02 541.205C386.058 541.205 386.096 541.205 386.134 541.204C386.154 541.203 386.173 541.203 386.193 541.201C387.63 541.142 388.986 540.52 389.968 539.469C390.95 538.418 391.48 537.023 391.443 535.585C391.307 533.291 391.174 530.997 391.062 528.7C390.527 517.724 390.12 506.742 389.714 495.76L389.714 495.759L389.713 495.757L389.713 495.747C389.643 493.849 389.572 491.951 389.501 490.052C389.477 489.405 389.453 488.758 389.428 488.111C389.401 487.406 389.374 486.701 389.346 485.996C389.148 480.89 388.951 475.784 388.857 470.676C388.84 469.734 388.818 468.791 388.797 467.848L388.797 467.844C388.746 465.572 388.694 463.299 388.704 461.029C388.71 459.825 388.713 458.622 388.716 457.417L388.716 457.37V457.367C388.723 454.93 388.73 452.491 388.755 450.054C388.85 447.342 388.921 444.631 388.992 441.918L388.992 441.897C389.029 440.465 389.067 439.033 389.108 437.6C389.207 434.862 389.358 432.124 389.509 429.387C389.585 428.024 389.66 426.659 389.729 425.296C389.865 422.623 390.074 419.953 390.283 417.283L390.283 417.28C390.337 416.585 390.392 415.89 390.445 415.195C390.477 414.774 390.509 414.353 390.54 413.931C390.74 411.176 390.998 408.431 391.259 405.678C391.336 404.881 391.409 404.083 391.483 403.285L391.484 403.276L391.484 403.272C391.688 401.064 391.891 398.856 392.155 396.655C392.425 394.411 392.695 392.169 392.963 389.93C393.01 389.536 393.054 389.141 393.098 388.746L393.098 388.745C393.19 387.918 393.282 387.091 393.404 386.272C393.478 385.773 393.553 385.274 393.629 384.776C393.751 383.963 393.874 383.15 393.997 382.337L394.001 382.313C394.299 380.348 394.596 378.382 394.887 376.417C395.162 374.915 395.443 373.415 395.724 371.914L395.726 371.905C395.942 370.747 396.159 369.59 396.373 368.432C396.53 367.576 396.739 366.727 396.947 365.879L396.948 365.874C397.046 365.477 397.143 365.08 397.235 364.683L397.238 364.67L397.238 364.668C397.606 363.095 397.972 361.529 398.415 359.976C398.415 359.935 398.418 359.894 398.423 359.854L398.412 359.85C398.469 359.582 398.546 359.319 398.643 359.063C398.748 358.748 398.857 358.432 398.976 358.12L399.004 358.046C399.034 357.967 399.064 357.888 399.094 357.809L399.099 357.797L399.109 357.77C399.167 357.598 399.227 357.426 399.288 357.255C399.31 357.194 399.331 357.134 399.353 357.073C399.378 357.007 399.402 356.941 399.427 356.874L399.431 356.895C399.593 356.427 399.759 355.967 399.95 355.51C400.047 355.266 400.158 355.027 400.282 354.794C400.362 354.654 400.46 354.526 400.558 354.397C400.58 354.367 400.603 354.337 400.626 354.307C400.666 354.253 400.706 354.199 400.744 354.143C400.72 354.18 400.693 354.217 400.669 354.255L400.781 354.092L400.795 354.06L400.803 354.044L400.814 354.02C400.822 354.003 400.83 353.986 400.839 353.969L400.846 353.956C400.909 353.842 401 353.747 401.11 353.678L401.125 353.663C401.109 353.477 401.07 353.295 401.012 353.118C401.08 353.27 401.148 353.422 401.216 353.574C401.243 353.548 401.27 353.522 401.299 353.496L401.299 353.495C401.46 353.338 401.663 353.23 401.884 353.186C401.926 353.179 401.968 353.177 402.01 353.177L402.301 351.923C402.302 351.916 402.304 351.908 402.305 351.9C402.7 352.288 403.091 352.681 403.476 353.08C405.886 355.756 408.154 358.556 410.27 361.47C413.854 366.672 417.12 372.087 420.05 377.685L420.363 378.287C422.456 382.376 424.501 386.511 426.303 390.736C428.08 394.899 429.703 399.126 431.263 403.373C432.482 406.829 433.584 410.32 434.668 413.825C435.055 415.081 435.449 416.335 435.842 417.589C436.699 420.32 437.555 423.052 438.353 425.8C439.517 429.821 440.63 433.856 441.736 437.891C444.025 446.278 446.192 454.711 448.038 463.203C449.932 472.122 451.274 481.15 452.056 490.235C452.578 497.655 452.917 505.105 452.921 512.546C452.924 515.63 452.897 518.711 452.871 521.794C452.865 522.511 452.859 523.228 452.853 523.945L452.853 523.951C452.836 525.669 452.819 527.384 452.829 529.103C452.833 529.839 452.839 530.575 452.849 531.312C452.872 533.347 453.469 535.335 454.57 537.047C455.341 538.284 456.411 539.307 457.682 540.022C458.953 540.737 460.383 541.12 461.841 541.136L461.917 541.136C463.419 541.111 464.889 540.694 466.181 539.927C467.473 539.16 468.543 538.069 469.284 536.762C470.273 535.06 470.795 533.127 470.797 531.159C470.798 530.423 470.804 529.686 470.814 528.95C470.837 527.285 470.862 525.621 470.889 523.958C470.947 520.426 470.974 516.897 470.943 513.364C470.879 505.576 470.449 497.808 469.856 490.044C468.756 477.233 466.592 464.535 463.386 452.082C461.237 443.607 458.924 435.176 456.447 426.791C454.029 418.617 451.311 410.529 448.438 402.502C446.687 397.643 444.711 392.872 442.649 388.133C440.84 383.976 438.767 379.955 436.605 375.975C434.471 372.042 432.228 368.163 429.808 364.4C424.852 356.417 418.655 349.274 411.45 343.242C409.359 341.578 407.156 340.064 404.857 338.709C404.93 338.542 405.01 338.38 405.097 338.221C404.658 337.757 404.152 337.362 403.594 337.05C402.723 336.562 401.859 336.056 400.994 335.549C399.485 334.665 397.974 333.78 396.42 332.988C393.341 331.419 390.089 330.163 386.86 328.915C386.296 328.698 385.733 328.48 385.171 328.261C381.417 326.793 377.645 325.37 373.854 323.992C366.301 321.247 358.686 318.651 351.057 316.103C349.548 315.599 348.038 315.096 346.528 314.594C340.191 312.488 333.857 310.381 327.565 308.131C324.024 306.866 320.537 305.445 317.055 304.027L316.577 303.832C314.762 303.099 312.949 302.356 311.137 301.602C311.004 301.547 310.872 301.491 310.739 301.435L310.737 301.435C310.415 301.299 310.093 301.164 309.77 301.032C309.746 300.859 309.715 300.683 309.681 300.51C309.521 299.817 309.175 299.181 308.68 298.671C308.398 298.374 308.044 298.157 307.652 298.039C307.242 297.252 306.821 296.472 306.4 295.691C304.683 292.488 302.901 289.315 300.994 286.217C296.519 278.757 291.099 271.906 284.868 265.836C281.857 262.928 278.564 260.327 275.038 258.071C273.303 256.921 271.427 256.001 269.456 255.333C268.774 255.094 268.074 254.914 267.362 254.793C266.785 251.101 266.222 247.416 265.831 243.7C265.715 242.241 265.624 240.782 265.56 239.323C266.032 238.556 266.49 237.779 266.917 236.988C268.183 234.647 269.439 232.322 270.558 229.906C271.165 228.608 271.77 227.307 272.374 226.004C272.679 225.35 272.938 224.668 273.197 223.988L273.197 223.987C273.318 223.668 273.439 223.349 273.565 223.034C275.475 218.26 277.063 213.394 278.57 208.48C279.071 206.846 279.506 205.192 279.94 203.538L279.941 203.536C280.098 202.937 280.256 202.338 280.416 201.741C280.996 199.579 281.495 197.37 281.916 195.168C281.922 195.147 281.927 195.125 281.93 195.103C282.086 194.484 282.193 193.847 282.3 193.215C282.352 192.911 282.403 192.609 282.459 192.31C282.486 192.169 282.513 192.026 282.54 191.883L282.622 191.452C282.629 191.412 282.637 191.372 282.644 191.332C282.656 191.268 282.668 191.206 282.68 191.143C282.696 191.06 282.712 190.977 282.727 190.895C282.737 190.845 282.747 190.795 282.757 190.745C282.765 190.701 282.774 190.657 282.782 190.613L282.793 190.553C282.799 190.524 282.804 190.496 282.809 190.467C282.815 190.437 282.82 190.407 282.826 190.376C282.827 190.369 282.828 190.363 282.829 190.356C282.83 190.351 282.831 190.347 282.832 190.342C282.835 190.331 282.837 190.32 282.839 190.308L282.849 190.261C282.853 190.237 282.856 190.217 282.859 190.196V190.19C282.863 190.169 282.87 190.152 282.873 190.132C282.876 190.111 282.88 190.089 282.884 190.068L282.885 190.066L282.886 190.058C282.89 190.039 282.894 190.019 282.897 190C283.845 184.549 284.45 179.044 284.709 173.518C284.916 169.958 285.048 166.388 285.055 162.818C286.323 161.01 287.546 159.17 288.723 157.301C292.332 151.729 295.101 145.656 296.942 139.278C297.427 137.726 297.805 136.142 298.072 134.538C298.473 134.48 298.876 134.422 299.277 134.368C299.559 134.33 299.842 134.294 300.125 134.257L300.127 134.257C300.908 134.156 301.691 134.055 302.47 133.923C302.705 133.883 302.939 133.835 303.173 133.787C303.368 133.747 303.562 133.708 303.756 133.672L303.736 133.852C303.697 134.179 303.676 134.507 303.675 134.836C303.696 135.315 303.824 135.784 304.05 136.206C304.276 136.629 304.594 136.996 304.981 137.279C305.455 137.629 306.025 137.827 306.614 137.846C306.625 137.855 306.638 137.863 306.651 137.87C306.995 138.071 307.386 138.175 307.784 138.172C308.226 138.172 308.66 138.05 309.036 137.819C310.241 137.072 310.482 135.535 310.672 134.181C310.716 133.93 310.757 133.676 310.787 133.424C310.935 132.78 311.044 132.127 311.113 131.47C311.132 130.784 311.112 130.097 311.052 129.413C311.067 128.375 310.864 127.345 310.455 126.39C310.378 126.254 310.295 126.123 310.204 125.996C310.167 125.711 310.054 125.44 309.878 125.213C309.701 124.986 309.467 124.81 309.199 124.703C308.928 124.599 308.634 124.572 308.348 124.626C308.063 124.68 307.798 124.813 307.584 125.009C307.574 125.01 307.565 125.012 307.555 125.014C307.546 125.016 307.536 125.018 307.527 125.02C307.503 125.025 307.479 125.03 307.455 125.036C306.975 125.221 306.537 125.501 306.169 125.861C305.801 126.22 305.51 126.651 305.314 127.126C305.102 127.559 304.918 128.004 304.761 128.46C304.545 128.453 304.328 128.45 304.112 128.446L304.109 128.446C303.813 128.434 303.517 128.413 303.221 128.392C302.855 128.366 302.488 128.34 302.121 128.331C301.198 128.311 300.275 128.341 299.352 128.389L298.591 128.429C298.602 127.248 298.558 126.068 298.466 124.89C298.11 120.339 296.433 115.735 292.931 112.67C291.082 111.028 288.776 109.99 286.321 109.694C284.549 109.533 282.763 109.665 281.034 110.085C279.546 110.427 278.104 110.94 276.734 111.615C275.37 107.811 273.979 104.014 272.445 100.274C268.93 91.2516 264.697 82.5252 259.788 74.1788C257.487 70.4223 254.962 66.8185 252.336 63.2826C253.327 63.2317 254.314 63.1604 255.305 63.0756C256.904 62.9897 258.497 62.8119 260.076 62.5428C263.328 61.9651 266.511 61.0507 269.574 59.8145C271.006 59.1969 272.401 58.5454 273.796 57.8497C276.839 56.3033 279.637 54.3159 282.099 51.9519C286.565 47.7636 289.61 42.2848 290.81 36.2811C291.501 32.8159 291.399 29.2394 290.512 25.8192C289.855 23.3299 288.846 20.9474 287.515 18.744C285.036 14.2975 281.699 10.3874 277.698 7.24028C272.342 3.25823 266 0.815228 259.357 0.175181C252.631 -0.519287 245.854 0.861465 239.936 4.13191C236.993 5.82246 234.258 7.85321 231.789 10.1824C229.742 12.0373 227.898 14.1042 226.288 16.3482C222.848 21.1699 220.734 26.8098 220.156 32.7045C220.109 33.3255 220.068 33.9567 220.044 34.5878C219.949 34.5521 219.852 34.5198 219.755 34.4872C219.713 34.4734 219.672 34.4595 219.63 34.4453C214.966 32.8326 210.148 31.7079 205.252 31.0892C200.831 30.5347 196.368 30.3882 191.919 30.6515C187.059 31.0088 182.236 31.7532 177.494 32.8776C175.417 33.356 173.351 33.9227 171.325 34.5912C168.992 35.3222 166.711 36.2052 164.494 37.2347C160.071 39.3305 155.884 41.8911 152.003 44.8733C148.311 47.843 144.989 51.2449 142.107 55.006C139.143 58.7722 136.687 62.9128 134.805 67.3207C131.157 75.9366 129.033 85.1158 127.502 94.3221C126.973 97.512 126.613 100.726 126.345 103.946C125.51 108.347 124.842 112.823 124.329 117.272C123.776 122.059 123.288 126.858 122.863 131.67C122.807 132.318 122.755 132.966 122.707 133.615C122.429 133.628 122.154 133.652 121.873 133.686C120.623 133.851 119.417 134.257 118.323 134.884C115.566 136.593 113.537 139.26 112.625 142.373C112.175 143.706 111.834 145.073 111.607 146.462C111.413 147.7 111.33 148.952 111.36 150.205C111.438 152.803 111.787 155.386 112.401 157.911C112.476 158.244 112.554 158.58 112.639 158.916C113.861 163.527 115.54 168.005 117.651 172.283C118.666 174.451 119.701 176.609 120.783 178.744C121.849 180.837 122.979 182.873 124.214 184.865L124.733 188.951C124.939 190.555 125.211 192.155 125.483 193.753L125.484 193.754C125.615 194.525 125.746 195.296 125.87 196.067C126.127 197.684 126.465 199.291 126.802 200.894C126.95 201.597 127.097 202.298 127.237 203C128.198 207.808 129.542 212.525 130.892 217.232C132.214 221.834 133.947 226.312 135.673 230.776L135.799 231.101C136.402 232.658 137.1 234.18 137.797 235.7L137.798 235.702C138.077 236.311 138.356 236.92 138.629 237.531C139.238 238.892 139.944 240.214 140.649 241.533C140.993 242.178 141.338 242.822 141.67 243.47C142.154 244.413 142.697 245.321 143.241 246.229C143.384 246.467 143.527 246.706 143.668 246.945C143.84 247.233 144.01 247.523 144.179 247.814C144.659 248.633 145.139 249.455 145.66 250.246C147.475 253.039 149.454 255.722 151.589 258.279C155.623 263.229 160.377 267.546 165.692 271.085C166.435 271.584 167.185 272.083 167.938 272.575C167.102 272.812 166.309 273.181 165.59 273.668C164.905 274.093 164.236 274.541 163.567 274.989C163.265 275.192 162.962 275.395 162.658 275.595C160.641 276.927 158.613 278.239 156.574 279.532C152.26 282.27 148.042 285.131 143.936 288.171C142.187 289.466 140.515 290.862 138.928 292.352C137.128 294.106 135.571 296.091 134.296 298.256C132.857 300.635 131.645 303.144 130.675 305.749C127.596 307.894 124.499 310.013 121.372 312.088L120.527 312.491C114.206 315.507 107.878 318.526 101.742 321.9C94.1479 326.027 86.8725 330.716 79.9768 335.928C76.761 338.375 73.5938 340.875 70.4753 343.431C67.2244 346.091 64.1329 348.948 61.106 351.857C54.949 357.692 49.1729 363.917 43.8132 370.493C41.2682 373.656 38.8113 376.893 36.5683 380.28C34.1735 383.898 32.0114 387.66 29.8504 391.421L29.6457 391.777C29.0655 392.786 28.484 393.796 27.9023 394.805L27.8976 394.813C24.2247 401.186 20.5478 407.567 17.1919 414.109C15.0083 418.33 13.0443 422.661 11.3076 427.085C9.64481 431.371 8.2535 435.766 6.97762 440.177C5.76274 444.391 4.71755 448.647 3.84206 452.946C2.92586 457.443 2.37612 462.014 1.86031 466.574C0.828693 475.659 0.22124 484.838 0.0482403 493.98C-0.0763103 498.653 0.0403598 503.33 0.397789 507.991C0.584369 510.163 0.804955 512.328 1.15108 514.479C1.32034 516.357 1.78156 518.198 2.51809 519.934C2.70201 520.505 3.06408 521.003 3.55129 521.354C4.0385 521.705 4.62528 521.891 5.22573 521.885C5.59257 521.887 5.95596 521.814 6.29348 521.67C6.631 521.526 6.93547 521.315 7.18807 521.049C7.56925 520.631 7.81834 520.111 7.90401 519.552C7.98969 518.993 7.90811 518.421 7.66952 517.909C7.64805 516.39 7.68303 514.869 7.71791 513.351L7.71795 513.35C7.72469 513.056 7.73143 512.763 7.73775 512.47C7.78267 510.272 7.83682 508.08 7.94015 505.885C8.37307 499.785 9.16256 493.722 10.0928 487.678C10.9806 481.898 11.9114 476.127 12.9716 470.376C14.2312 463.734 15.8676 457.169 17.8729 450.714C20.0026 444.23 22.4649 437.86 25.2501 431.629C26.8634 428.284 28.5605 424.986 30.4024 421.761C32.3468 418.351 34.3863 414.991 36.4359 411.645C40.086 405.693 43.7865 399.774 47.5376 393.887C49.282 391.186 51.0807 388.526 53.0297 385.967C53.6659 385.134 54.3101 384.307 54.9612 383.485C54.8356 384.843 54.7272 386.202 54.6319 387.558C54.3197 392.076 54.0347 396.598 53.7767 401.121C53.4476 406.91 53.1932 412.704 52.9388 418.497L52.9387 418.5C52.8416 420.71 52.7446 422.92 52.6434 425.129C52.4888 428.469 52.3286 431.808 52.1683 435.148C51.5198 448.665 50.8713 462.183 50.5938 475.715C50.4687 481.729 50.5558 487.742 50.6429 493.754C50.6692 495.569 50.6954 497.383 50.7159 499.198C50.7443 501.857 50.7594 504.517 50.7744 507.178C50.8061 512.776 50.8378 518.375 50.9941 523.97C51.0448 525.16 51.5509 526.286 52.408 527.114C53.265 527.942 54.4074 528.409 55.599 528.418C55.6235 528.418 55.648 528.418 55.6725 528.418C55.6989 528.418 55.7253 528.417 55.7517 528.415C56.9674 528.362 58.1139 527.834 58.945 526.945C59.7761 526.057 60.2257 524.877 60.1971 523.661C59.8815 511.96 60.2537 500.263 60.6259 488.569L60.6259 488.567C60.7579 484.42 60.8899 480.273 60.9912 476.126C61.3848 459.949 61.731 443.773 61.8667 427.593C61.93 419.008 61.9821 410.422 62.0228 401.837C62.0567 393.913 62.1144 385.99 62.335 378.07C62.3535 377.642 62.3695 377.213 62.3855 376.784C62.4118 376.079 62.4382 375.371 62.4763 374.665C66.8073 369.918 71.3501 365.368 76.091 361.027C78.9619 358.404 81.8893 355.844 84.8972 353.38C88.175 350.699 91.4495 348.022 94.896 345.56C97.771 343.582 100.755 341.78 103.758 340C106.695 338.249 109.678 336.58 112.706 334.993C116.681 332.945 120.704 330.987 124.741 329.064C124.124 332.567 123.559 336.077 123.033 339.595C122.358 344.108 121.75 348.635 121.245 353.169C120.729 357.76 120.393 362.365 120.111 366.973C119.546 376.12 119.076 385.267 118.703 394.416L118.674 395.14C118.493 399.647 118.312 404.162 118.296 408.671C118.286 410.894 118.289 413.117 118.435 415.336C118.611 417.867 119.037 420.375 119.708 422.822C120.35 425.189 121.212 427.491 122.283 429.697C123.364 431.878 124.62 433.968 126.036 435.948C127.389 437.915 128.858 439.801 130.434 441.594C132.13 443.571 133.961 445.427 135.914 447.149C137.923 448.853 139.946 450.519 142.067 452.077C143.925 453.444 145.875 454.675 147.826 455.907L147.827 455.908L148.206 456.148C148.312 456.215 148.418 456.282 148.524 456.349C152.39 458.792 156.482 460.92 160.541 463.027C167.642 466.713 174.912 470.04 182.185 473.368L183.398 473.923C183.843 474.127 184.288 474.33 184.732 474.534C185.876 475.091 186.985 475.691 188.078 476.34C189.456 477.246 190.789 478.203 192.103 479.197C192.495 479.493 192.917 479.747 193.362 479.957C194.957 482.743 196.589 485.505 198.231 488.261C202.11 494.79 206.372 501.078 210.783 507.254C212.891 510.199 215.042 513.117 217.275 515.971C218.453 517.478 219.705 518.92 221.008 520.315C222.327 521.781 223.784 523.117 225.358 524.306C226.327 525.006 227.492 525.381 228.687 525.378C229.041 525.377 229.394 525.344 229.742 525.279C231.17 526.833 232.72 528.27 234.378 529.576C235.152 530.135 235.974 530.626 236.835 531.042C237.669 531.507 238.553 531.875 239.471 532.138C239.784 532.224 240.107 532.268 240.432 532.267C241.291 532.265 242.129 531.993 242.825 531.489C243.521 530.984 244.04 530.273 244.31 529.457C244.579 528.641 244.583 527.76 244.323 526.941C244.063 526.121 243.552 525.405 242.861 524.893C242.654 524.703 242.454 524.509 242.257 524.309C242.034 524.051 241.823 523.785 241.612 523.519L241.61 523.516C241.511 523.391 241.411 523.266 241.311 523.142C240.965 522.721 240.587 522.327 240.209 521.933C240.145 521.866 240.081 521.8 240.018 521.733C239.183 520.79 238.443 519.775 237.707 518.757C236.638 517.233 235.649 515.654 234.744 514.027C234.29 513.135 233.859 512.235 233.458 511.319C233.414 510.958 233.341 510.602 233.238 510.253C232.958 509.294 232.698 508.329 232.457 507.359C232.008 505.264 231.667 503.147 231.436 501.017L231.365 500.231C231.085 497.143 230.805 494.048 230.655 490.948C230.496 487.568 230.465 484.192 230.506 480.809C230.689 477.694 231.059 474.619 231.551 471.538C231.965 469.553 232.461 467.615 233.034 465.671C234.194 462.131 235.54 458.655 237.065 455.256C237.985 453.414 238.928 451.598 239.963 449.813C240.853 448.276 241.796 446.773 242.746 445.266C244.901 441.995 247.174 438.842 249.618 435.785C256.316 427.918 263.645 420.619 270.968 413.327L270.973 413.322C273.447 410.859 275.919 408.396 278.367 405.913C281.669 402.56 284.848 399.116 287.804 395.447C290.892 391.62 293.885 387.666 295.653 383.024C297.27 378.617 298.517 374.082 299.379 369.467C300.271 365.002 301.086 360.522 301.88 356.04C303.526 346.742 305.144 337.437 306.559 328.102C307.275 323.378 307.974 318.654 308.629 313.921C308.948 311.606 309.254 309.292 309.518 306.971C309.549 306.71 309.576 306.448 309.6 306.184C309.637 306.068 309.668 305.953 309.695 305.837C310.303 306.274 310.92 306.699 311.544 307.113C313.065 308.118 314.598 309.068 316.163 310.005C317.029 310.523 317.922 310.997 318.815 311.472C319.243 311.699 319.671 311.927 320.096 312.159C321.626 312.997 323.218 313.771 324.799 314.514L325.133 314.672C325.49 314.84 325.846 315.009 326.202 315.178L326.206 315.18C327.609 315.844 329.011 316.508 330.425 317.144C334.226 318.853 338.04 320.531 341.868 322.177C349.286 325.363 356.687 328.57 364.03 331.926C369.584 334.522 375.083 337.24 380.526 340.08C381.53 340.605 382.532 341.138 383.533 341.672L383.536 341.673C385.175 342.546 386.816 343.419 388.473 344.258C390.079 345.07 391.743 345.756 393.409 346.442L393.41 346.442C394.43 346.862 395.451 347.283 396.458 347.732C396.538 347.771 396.619 347.809 396.7 347.847C396.757 347.875 396.815 347.902 396.872 347.93C397.07 348.024 397.268 348.12 397.466 348.218C397.915 348.44 398.385 348.618 398.868 348.75C398.98 348.847 399.092 348.944 399.204 349.041C399.37 349.436 399.539 349.831 399.715 350.223C399.831 350.482 399.947 350.74 400.062 350.999L400.089 351.059C400.236 351.388 400.383 351.718 400.531 352.048C400.635 352.281 400.74 352.515 400.845 352.748C400.836 352.729 400.826 352.712 400.816 352.696L400.815 352.694C400.504 352.239 400.035 351.916 399.498 351.788C398.874 351.633 398.214 351.718 397.649 352.025C396.871 352.452 396.21 353.064 395.725 353.807C395.1 354.695 394.549 355.633 394.076 356.61C393.364 358.044 392.742 359.52 392.213 361.031L391.698 362.584C391.452 363.327 391.206 364.071 390.96 364.815C390.93 364.906 390.9 364.996 390.868 365.087C390.829 365.203 390.788 365.319 390.748 365.435L390.747 365.437C390.579 365.917 390.411 366.4 390.285 366.888L388.687 373.102C388.054 375.559 387.548 378.045 387.042 380.533C386.897 381.247 386.752 381.961 386.603 382.675C386.056 385.303 385.613 387.948 385.17 390.598C385.092 391.069 385.013 391.539 384.934 392.01C384.452 394.864 383.987 397.711 383.59 400.578C383.443 401.639 383.288 402.7 383.134 403.762L383.133 403.764C382.812 405.964 382.491 408.167 382.239 410.375L380.906 422.211C380.668 424.336 380.488 426.466 380.307 428.596L380.307 428.602C380.281 428.899 380.256 429.196 380.231 429.493C380.192 429.953 380.152 430.412 380.112 430.871C380.076 431.286 380.039 431.7 380.003 432.115C379.796 434.469 379.59 436.822 379.44 439.182C379.295 441.492 379.148 443.8 378.999 446.108C378.974 446.512 378.947 446.917 378.919 447.322L378.919 447.325L378.919 447.329L378.919 447.331C378.85 448.352 378.781 449.374 378.747 450.397C378.692 451.923 378.636 453.448 378.578 454.971C378.556 455.573 378.534 456.175 378.511 456.776V456.778C378.41 459.477 378.309 462.174 378.289 464.877C378.283 465.747 378.274 466.618 378.264 467.489C378.238 469.901 378.212 472.314 378.252 474.724C378.364 481.638 378.537 488.549 378.771 495.458C379.226 508.964 379.783 522.466 380.577 535.952ZM175.081 283.597C175.034 282.84 174.986 282.087 174.935 281.33C175.014 279.776 175.075 278.222 175.109 276.668C180.715 279.401 186.713 281.247 192.887 282.138C195.471 282.491 198.076 282.669 200.685 282.671C204.902 282.678 209.106 282.19 213.21 281.215C219.669 279.632 225.852 277.084 231.551 273.658C235.681 271.19 239.604 268.391 243.279 265.286C243.575 265.038 243.874 264.791 244.174 264.544L244.175 264.544C245.012 263.854 245.853 263.161 246.635 262.412C247.521 261.562 248.406 260.712 249.292 259.86C249.389 259.767 249.486 259.674 249.584 259.581L249.784 259.391C250.336 258.866 250.888 258.342 251.403 257.78C252.434 256.658 253.466 255.533 254.497 254.407C255.75 253.041 256.909 251.586 258.067 250.132L258.069 250.129C258.481 249.611 258.893 249.094 259.309 248.58C259.632 248.183 259.934 247.766 260.226 247.345C260.229 248.729 260.253 250.114 260.297 251.502C260.386 254.451 260.548 257.396 260.782 260.339C260.94 262.562 261.251 264.772 261.712 266.952C261.464 267.37 261.223 267.787 260.982 268.208C256.985 275.218 253.569 282.553 250.165 289.864C249.873 290.491 249.581 291.118 249.289 291.745C245.617 299.621 242.183 307.609 238.759 315.594C238.196 316.905 237.632 318.217 237.067 319.529L237.064 319.536C234.262 326.049 231.457 332.568 228.806 339.144C225.558 347.193 222.406 355.293 219.786 363.566C219.752 363.672 219.718 363.78 219.684 363.885C219.63 364.058 219.576 364.231 219.522 364.408C219.396 364.802 219.274 365.195 219.152 365.589L219.06 365.884C218.972 366.169 218.884 366.451 218.795 366.732C217.703 370.211 216.729 373.723 215.809 377.249C214.896 380.757 214.004 384.276 213.295 387.829C211.578 396.452 210.23 405.156 209.314 413.904C208.28 422.566 207.78 431.283 207.818 440.006C207.985 448.993 208.534 457.954 209.464 466.889C210.162 473.576 211.266 480.214 212.769 486.768C212.063 485.642 211.367 484.511 210.682 483.374C208.456 479.686 206.277 475.97 204.146 472.227C204.132 472.081 204.112 471.938 204.088 471.796C203.757 469.921 202.746 468.234 201.248 467.059C200.633 465.947 200.023 464.833 199.419 463.716C197.044 459.237 194.695 454.751 192.574 450.143C190.498 445.643 188.601 441.072 186.775 436.464L186.559 435.89C185.133 432.106 183.701 428.306 182.571 424.42C181.923 422.201 181.285 419.985 180.677 417.759C180.19 415.981 179.75 414.195 179.309 412.406L179.308 412.401L179.177 411.872C178.136 407.077 177.114 402.268 176.337 397.426L176.27 397.013L176.27 397.01C175.875 394.56 175.48 392.112 175.146 389.651C174.85 387.492 174.598 385.326 174.347 383.159L174.298 382.736C173.625 375.494 173.154 368.236 172.886 360.96C172.34 345.988 172.492 330.986 172.94 316.014C173.043 313.201 173.161 310.388 173.293 307.575C173.806 307.243 174.238 306.8 174.558 306.279C174.878 305.758 175.078 305.173 175.143 304.565C175.182 304.165 175.225 303.766 175.268 303.367C175.422 301.922 175.576 300.478 175.587 299.023C175.607 296.875 175.541 294.724 175.475 292.577C175.462 292.164 175.45 291.75 175.438 291.337C175.366 288.755 175.241 286.176 175.081 283.597ZM133.868 105.826C134.479 99.7823 135.446 93.7726 136.569 87.8036L136.722 87.101C137.147 87.9304 137.621 88.7338 138.141 89.5069C138.965 90.7286 139.834 91.8857 140.771 93.0225C142.857 95.5328 145.292 97.7315 148.002 99.5515C150.76 101.45 153.806 102.894 157.022 103.827C160.636 104.852 164.343 105.521 168.088 105.823C169.603 105.936 171.118 105.992 172.631 105.992C175.034 105.992 177.433 105.86 179.839 105.636C181.72 105.43 183.585 105.096 185.421 104.635C187.293 104.196 189.135 103.637 190.935 102.962C194.461 101.646 197.898 100.104 201.224 98.3434C204.564 96.59 207.792 94.6305 210.889 92.4762C213.773 90.4503 216.583 88.326 219.355 86.1475C220.081 85.5774 220.806 85.0052 221.531 84.433L221.533 84.4311L221.534 84.4304C223.552 82.837 225.57 81.243 227.622 79.6932C228.697 78.8821 229.794 78.1066 230.892 77.3307C231.149 77.149 231.406 76.9673 231.663 76.785C232.117 76.4634 232.57 76.1378 233.022 75.812L233.025 75.8101C233.765 75.2773 234.506 74.744 235.257 74.2264C236.213 73.5975 237.174 72.9742 238.141 72.3566C238.714 72.0071 239.257 71.6098 239.763 71.1689C240.032 70.9224 240.27 70.6431 240.469 70.3376C241.024 71.1294 241.582 71.9189 242.142 72.7062C242.276 72.8996 242.411 73.093 242.546 73.2864C242.681 73.4799 242.816 73.6733 242.95 73.8667C242.377 74.2387 241.812 74.6195 241.248 75.0002L241.247 75.001C241.106 75.0957 240.966 75.1905 240.825 75.2852C239.492 76.1776 238.179 77.1108 236.886 78.061C234.154 80.0699 231.432 82.0991 228.782 84.2166C226.2 86.2843 223.661 88.4075 221.167 90.5861C218.58 92.8348 215.979 95.0654 213.362 97.2779C212.978 97.6269 212.747 98.1133 212.719 98.6317C212.691 99.1501 212.868 99.6586 213.213 100.047C213.394 100.249 213.615 100.41 213.862 100.52C214.11 100.63 214.378 100.686 214.649 100.685C215.135 100.682 215.606 100.509 215.979 100.196C216.529 99.7359 217.078 99.2766 217.628 98.8185C219.626 97.1596 221.653 95.5369 223.682 93.9133L223.683 93.9121C223.966 93.6861 224.248 93.4599 224.531 93.2337C224.779 93.0345 225.028 92.8352 225.277 92.6357C227.802 90.6074 230.285 88.5313 232.768 86.455L233.258 86.0457C235.818 83.9056 238.392 81.7836 240.981 79.6797C241.638 79.1452 242.3 78.6159 242.963 78.0866L242.964 78.0851C243.495 77.6606 244.026 77.2361 244.555 76.8089L244.819 76.5951C245.552 77.681 246.268 78.7805 246.947 79.8969C246.16 80.4191 245.387 80.9616 244.614 81.5041L244.612 81.5054C240.367 84.4814 236.166 87.5117 232.081 90.7049C229.972 92.3533 227.89 94.0356 225.807 95.7176L225.806 95.719C223.988 97.1875 222.17 98.6558 220.336 100.101C219.95 100.448 219.675 100.901 219.546 101.403C219.416 101.905 219.438 102.434 219.609 102.924C219.779 103.414 220.09 103.842 220.504 104.156C220.917 104.469 221.413 104.654 221.931 104.686L221.941 104.686C221.991 104.69 222.039 104.693 222.087 104.693C222.734 104.677 223.356 104.438 223.848 104.017L224.207 103.738C224.333 103.64 224.459 103.541 224.584 103.444L227.323 101.316C228.537 100.377 229.76 99.4481 230.983 98.5189C233.738 96.426 236.493 94.3324 239.156 92.1234C241.176 90.4436 243.184 88.7503 245.179 87.0434C245.945 86.3891 246.705 85.728 247.465 85.0672C248.024 84.5802 248.585 84.093 249.146 83.6093C249.642 84.4644 250.127 85.3264 250.605 86.1883C248.805 87.5461 246.981 88.8693 245.158 90.1923L245.156 90.1939C242.701 91.975 240.247 93.7555 237.853 95.6186C237.792 95.6661 237.731 95.7136 237.673 95.7611C237.666 95.7636 237.66 95.7684 237.656 95.7747C236.677 96.5416 235.707 97.3186 234.738 98.0957L234.736 98.0973C233.767 98.8737 232.797 99.6507 231.819 100.417C231.178 100.918 230.535 101.417 229.892 101.915L229.886 101.92C229.425 102.277 228.964 102.635 228.504 102.993C227.913 103.407 227.502 104.03 227.354 104.737C227.285 105.089 227.287 105.452 227.359 105.804C227.431 106.155 227.572 106.489 227.774 106.786C228.039 107.159 228.389 107.464 228.795 107.674C229.201 107.884 229.652 107.994 230.109 107.994C230.635 108.001 231.148 107.833 231.568 107.516C234.188 105.499 236.866 103.564 239.546 101.628C241.073 100.525 242.6 99.4215 244.117 98.3028C246.306 96.6909 248.45 95.0146 250.558 93.2941C251.382 92.6237 252.182 91.923 252.981 91.2234L253.12 91.102C253.731 92.3677 254.324 93.6402 254.911 94.9162C253.035 96.7202 251.062 98.4206 249 100.01C248.252 100.587 247.504 101.165 246.756 101.744C243.92 103.938 241.082 106.133 238.195 108.262C237.803 108.535 237.532 108.95 237.442 109.419C237.351 109.888 237.447 110.375 237.71 110.774C237.883 111.02 238.113 111.22 238.38 111.359C238.647 111.498 238.943 111.571 239.244 111.571C239.596 111.575 239.94 111.465 240.225 111.259C240.35 111.167 240.476 111.072 240.598 110.981C241.575 110.263 242.549 109.541 243.523 108.82C244.119 108.378 244.715 107.936 245.311 107.496C245.662 107.236 246.014 106.978 246.365 106.719L246.366 106.719C247.617 105.799 248.869 104.878 250.093 103.922C251.722 102.65 253.317 101.347 254.874 99.9893C255.434 99.5007 255.977 98.995 256.52 98.4894C256.971 99.5108 257.416 100.536 257.854 101.564C258.006 101.92 258.159 102.28 258.305 102.64C256.893 103.685 255.446 104.687 254 105.689C253.638 105.939 253.277 106.189 252.916 106.44C252.07 107.03 251.23 107.628 250.39 108.226C249.303 109 248.216 109.773 247.117 110.529C246.733 110.788 246.443 111.164 246.289 111.601C246.136 112.038 246.127 112.512 246.265 112.955C246.402 113.397 246.678 113.783 247.052 114.056C247.427 114.328 247.879 114.473 248.342 114.469C248.768 114.47 249.184 114.342 249.536 114.103C250.36 113.544 251.189 112.993 252.019 112.442L252.02 112.441C253.714 111.316 255.409 110.191 257.053 108.995C257.711 108.515 258.367 108.032 259.023 107.549L259.076 107.511C259.385 107.283 259.695 107.055 260.005 106.827C260.376 107.767 260.741 108.707 261.101 109.647C260.191 110.296 259.244 110.891 258.297 111.486L258.001 111.672C257.945 111.708 257.888 111.743 257.832 111.779L257.704 111.86C256.775 112.45 255.86 113.064 254.946 113.679C254.488 113.986 254.03 114.294 253.571 114.598C253.201 114.852 252.946 115.242 252.861 115.682C252.776 116.123 252.868 116.579 253.116 116.953C253.272 117.182 253.482 117.369 253.727 117.497C253.972 117.625 254.244 117.692 254.521 117.689C254.86 117.69 255.191 117.592 255.475 117.408C255.822 117.181 256.171 116.956 256.52 116.731C257.624 116.019 258.728 115.306 259.801 114.55C260.638 113.961 261.461 113.353 262.268 112.725C262.33 112.891 262.393 113.057 262.455 113.223L262.458 113.232C262.52 113.397 262.583 113.563 262.645 113.729C262.576 113.771 262.506 113.813 262.437 113.854C262.327 113.92 262.217 113.985 262.109 114.052C261.487 114.43 260.874 114.821 260.261 115.212L260.26 115.213C259.477 115.712 258.695 116.211 257.894 116.685C257.872 116.699 257.85 116.711 257.826 116.722C257.147 117.077 256.628 117.676 256.374 118.399C256.14 119.114 256.194 119.892 256.527 120.567C256.772 121.048 257.145 121.452 257.605 121.734C258.064 122.017 258.593 122.167 259.133 122.169C259.564 122.17 259.989 122.067 260.371 121.867C261.175 121.446 261.992 121.058 262.809 120.669L262.81 120.668C263.332 120.42 263.854 120.172 264.372 119.916C263.979 120.446 263.77 121.091 263.778 121.752C263.786 122.413 264.01 123.052 264.416 123.574C263.498 125.254 262.673 126.984 261.946 128.755C261.826 129.062 261.768 129.389 261.775 129.718C261.782 130.047 261.854 130.372 261.987 130.673C262.119 130.975 262.31 131.247 262.547 131.474C262.785 131.702 263.065 131.881 263.372 132C263.679 132.119 264.006 132.177 264.335 132.17C264.664 132.162 264.989 132.09 265.29 131.958C265.591 131.825 265.863 131.634 266.091 131.396C266.318 131.158 266.496 130.878 266.615 130.571C266.761 130.14 266.921 129.719 267.1 129.302C267.137 129.231 267.174 129.162 267.211 129.093C267.242 129.035 267.273 128.977 267.304 128.918C267.545 128.558 267.796 128.209 268.057 127.859C268.948 126.846 269.889 125.879 270.877 124.961C271.531 124.396 272.201 123.848 272.886 123.319C273.816 122.685 274.759 122.108 275.743 121.565C276.476 121.222 277.213 120.9 277.959 120.591C278.899 120.262 279.839 119.953 280.803 119.678C281.312 119.58 281.814 119.491 282.33 119.417C282.792 119.386 283.25 119.362 283.711 119.359C283.76 119.363 283.809 119.368 283.857 119.372C283.961 119.382 284.064 119.393 284.166 119.406C284.271 119.43 284.376 119.454 284.482 119.481C284.563 119.512 284.644 119.546 284.726 119.58C284.804 119.617 284.879 119.658 284.953 119.702C284.986 119.726 285.019 119.75 285.053 119.774C285.085 119.797 285.118 119.821 285.15 119.844C285.225 119.912 285.296 119.98 285.367 120.051C285.394 120.083 285.422 120.115 285.449 120.148C285.496 120.204 285.542 120.261 285.588 120.319C285.741 120.553 285.886 120.788 286.026 121.029C286.158 121.31 286.28 121.588 286.399 121.874C286.524 122.25 286.636 122.63 286.742 123.014C286.898 123.798 287.006 124.578 287.094 125.369C287.139 126.268 287.159 127.157 287.166 128.053C287.145 128.48 287.118 128.905 287.088 129.329C287.077 129.331 287.068 129.331 287.059 129.332C287.054 129.333 287.048 129.333 287.043 129.334C287.039 129.334 287.034 129.335 287.03 129.336C286.018 129.436 285.008 129.56 283.999 129.684C283.069 129.798 282.139 129.912 281.207 130.008C281.007 130.028 280.806 130.048 280.606 130.065C280.553 129.643 280.378 129.245 280.103 128.92C279.828 128.595 279.464 128.357 279.055 128.236C278.972 128.188 278.885 128.147 278.794 128.114C278.439 127.982 278.052 127.959 277.684 128.048C277.315 128.138 276.982 128.336 276.728 128.616C276.246 129.236 275.957 129.982 275.896 130.764C275.763 131.881 275.765 133.011 275.903 134.127L275.944 134.619C275.9 134.972 275.866 135.325 275.852 135.678C275.808 136.223 275.97 136.764 276.307 137.195C276.484 137.414 276.706 137.594 276.958 137.721C277.175 137.976 277.454 138.17 277.769 138.284C278.021 138.372 278.286 138.417 278.553 138.42C278.959 138.42 279.357 138.302 279.697 138.081C280.063 137.836 280.363 137.503 280.569 137.113C280.872 136.493 281.006 135.803 280.956 135.115C280.956 135.084 280.955 135.054 280.954 135.023C280.954 135.006 280.953 134.99 280.953 134.973C280.952 134.959 280.952 134.945 280.952 134.931L281.235 134.952L281.366 134.962C282.449 135.037 283.531 135.049 284.614 135.06L284.909 135.064C285.333 135.071 285.754 135.074 286.175 135.074C285.992 135.814 285.791 136.55 285.574 137.29C284.929 139.258 284.247 141.199 283.409 143.096C282.49 144.964 281.477 146.784 280.372 148.549C279.133 150.416 277.83 152.234 276.412 153.975C274.898 155.767 273.358 157.545 271.729 159.232C269.887 160.901 268.159 162.692 266.557 164.593C265.91 165.473 265.495 166.503 265.352 167.586C265.208 168.669 265.341 169.771 265.738 170.79C266.134 171.808 266.781 172.71 267.619 173.411C268.457 174.112 269.459 174.59 270.531 174.801L270.528 174.845C270.515 174.994 270.503 175.145 270.487 175.293C270.288 177.334 270.09 179.375 269.893 181.414C269.832 182.049 269.733 182.684 269.635 183.316C269.587 183.624 269.539 183.931 269.496 184.238C269.444 184.604 269.398 184.972 269.351 185.34L269.351 185.342C269.262 186.049 269.173 186.756 269.041 187.451C268.764 188.915 268.488 190.38 268.213 191.846C268.152 192.089 268.104 192.336 268.071 192.586C267.413 195.47 266.737 198.341 265.977 201.201C265.264 203.894 264.453 206.548 263.641 209.211L263.575 209.427C262.597 212.244 261.603 215.043 260.487 217.816C260.404 218.02 260.322 218.224 260.241 218.429C259.79 219.554 259.34 220.675 258.821 221.772C258.692 222.045 258.564 222.317 258.436 222.59C258.308 222.864 258.179 223.137 258.051 223.411C257.704 224.15 257.357 224.888 257.008 225.627C256.499 226.55 255.99 227.47 255.481 228.396C255.333 228.666 255.189 228.942 255.045 229.218C254.753 229.775 254.46 230.337 254.124 230.863C253.202 232.321 252.278 233.778 251.352 235.234C250.745 236.069 250.137 236.904 249.526 237.738C249.354 237.976 249.185 238.219 249.015 238.462C248.657 238.977 248.297 239.494 247.901 239.971C246.816 241.282 245.729 242.591 244.64 243.897L242.502 246.178C242.293 246.4 242.087 246.628 241.88 246.857C241.463 247.32 241.043 247.786 240.591 248.21C239.302 249.423 238.012 250.637 236.723 251.852L236.266 252.231C233.96 254.143 231.665 256.046 229.233 257.8C226.654 259.578 223.976 261.207 221.211 262.68C218.989 263.797 216.708 264.793 214.377 265.663C212.534 266.291 210.678 266.823 208.785 267.264C206.956 267.628 205.12 267.896 203.264 268.075C201.469 268.187 199.687 268.211 197.888 268.147C195.945 268.013 194.009 267.778 192.089 267.444C190.114 267.034 188.17 266.535 186.242 265.934C184.467 265.323 182.733 264.635 181.023 263.861C178.506 262.599 176.059 261.201 173.693 259.673C171.62 258.306 169.619 256.832 167.697 255.259C166.004 253.772 164.416 252.181 162.875 250.535C160.873 248.304 158.996 245.965 157.252 243.527C156.63 242.619 156.044 241.692 155.456 240.76L155.23 240.402C155.024 240.074 154.809 239.748 154.595 239.422C154.164 238.766 153.73 238.107 153.357 237.423C152.403 235.686 151.45 233.951 150.496 232.217C149.718 230.6 148.938 228.983 148.158 227.368C147.672 226.362 147.244 225.329 146.815 224.296L146.814 224.293C146.659 223.919 146.504 223.546 146.346 223.174C145.237 220.538 144.245 217.868 143.251 215.189L143.031 214.595C142.44 212.765 141.846 210.934 141.249 209.101C140.857 207.881 140.516 206.646 140.176 205.411L140.175 205.409L140.093 205.109C140.07 205.028 140.048 204.946 140.025 204.865C140.007 204.8 139.989 204.735 139.971 204.669C139.952 204.603 139.934 204.536 139.915 204.469C139.013 201.236 138.242 197.98 137.468 194.714L137.397 194.415C137.259 193.718 137.115 193.022 136.971 192.325C136.628 190.669 136.285 189.011 136.013 187.346C135.879 186.53 135.738 185.714 135.597 184.898L135.596 184.894C135.29 183.122 134.983 181.346 134.751 179.565C134.637 178.699 134.515 177.833 134.392 176.967C134.139 175.174 133.886 173.379 133.705 171.58C133.44 168.91 133.173 166.239 132.905 163.568C132.457 157.247 132.053 150.935 131.978 144.596C131.934 141.002 131.961 137.426 132.016 133.832C132.051 131.583 132.147 129.338 132.243 127.092C132.274 126.366 132.305 125.64 132.334 124.914C132.365 124.424 132.395 123.933 132.425 123.443C132.572 121.024 132.72 118.604 132.915 116.186C133.193 112.728 133.519 109.277 133.868 105.826ZM120.763 139.36C121.109 139.129 121.459 138.915 121.822 138.712L121.888 138.681C122.069 138.596 122.248 138.512 122.433 138.437C122.328 140.679 122.259 142.923 122.19 145.164L122.19 145.166C122.176 145.624 122.162 146.082 122.148 146.54C122.008 150.969 122.107 155.411 122.253 159.839C122.385 163.735 122.538 167.644 122.847 171.533C121.774 169.341 120.77 167.121 119.864 164.848C119.412 163.623 118.981 162.391 118.595 161.142C118.252 160.033 117.96 158.906 117.678 157.779C117.278 155.94 116.956 154.104 116.732 152.238C116.65 151.06 116.616 149.9 116.647 148.726C116.711 148.04 116.793 147.372 116.895 146.696C117.03 146.089 117.176 145.492 117.339 144.894C117.604 144.111 117.896 143.347 118.228 142.594C118.459 142.156 118.693 141.735 118.944 141.318C119.134 141.05 119.324 140.785 119.528 140.527C119.745 140.283 119.965 140.049 120.196 139.821C120.383 139.662 120.57 139.509 120.763 139.36Z" fill="black"/>
<path fill-rule="evenodd" clip-rule="evenodd" d="M297.551 552.321L297.548 552.321C297.244 552.288 296.941 552.255 296.637 552.224C295.923 552.155 295.209 552.019 294.499 551.883L294.495 551.882C294.161 551.818 293.827 551.755 293.495 551.698C292.258 551.503 291.033 551.236 289.827 550.897L289.442 550.785C288.04 550.375 286.64 549.966 285.266 549.472C282.534 548.448 279.93 547.111 277.505 545.488C271.085 541.328 266.368 534.975 263.141 528.131C261.09 523.733 259.393 519.178 258.068 514.51C256.176 507.668 255.042 500.639 254.688 493.549C254.484 490.179 254.335 486.806 254.304 483.429C254.287 481.655 254.294 479.88 254.382 478.109C254.42 477.328 254.464 476.551 254.559 475.774C254.758 474.638 255.084 473.528 255.533 472.465C255.811 471.753 256.304 471.145 256.943 470.726C257.583 470.306 258.337 470.096 259.101 470.124C259.865 470.153 260.601 470.418 261.208 470.884C261.814 471.349 262.261 471.992 262.486 472.723C262.866 473.75 263.144 474.812 263.317 475.893C263.419 476.775 263.473 477.667 263.527 478.554L263.538 478.736C263.641 480.456 263.72 482.175 263.799 483.892L263.826 484.495C263.995 488.17 264.203 491.835 264.524 495.496C264.762 497.603 265.026 499.699 265.357 501.795C265.689 503.892 266.129 505.958 266.586 508.029C267.356 510.937 268.223 513.789 269.198 516.638C269.708 517.966 270.224 519.289 270.786 520.598C271.403 522.034 272.084 523.437 272.768 524.844C273.214 525.64 273.662 526.435 274.112 527.228C274.441 527.812 274.829 528.372 275.215 528.928C275.351 529.124 275.487 529.32 275.62 529.517C276.328 530.466 277.07 531.382 277.858 532.266C278.728 533.175 279.636 534.034 280.591 534.852C281.469 535.551 282.373 536.207 283.309 536.825C284.253 537.397 285.215 537.925 286.207 538.41C287.269 538.875 288.345 539.285 289.445 539.655C291.261 540.194 293.101 540.584 294.959 540.958C295.869 541.088 296.779 541.218 297.689 541.348C298.391 541.45 299.107 541.488 299.821 541.527H299.822C300.059 541.54 300.296 541.552 300.532 541.567C300.847 541.569 301.162 541.57 301.477 541.571L302.353 541.573C302.701 541.574 303.049 541.575 303.397 541.576C304.119 541.578 304.849 541.515 305.577 541.453L305.58 541.453C305.837 541.431 306.094 541.409 306.35 541.39L306.716 541.342C307.003 541.304 307.289 541.266 307.576 541.229C308.142 541.155 308.708 541.082 309.274 541.009C309.995 540.915 310.714 540.759 311.43 540.603C311.737 540.537 312.043 540.47 312.349 540.408C313.83 540.033 315.299 539.651 316.76 539.2C318.259 538.737 319.729 538.214 321.205 537.683C322.675 537.081 324.138 536.478 325.58 535.807C326.834 535.224 328.051 534.588 329.272 533.941C330.286 533.351 331.273 532.732 332.246 532.073C333.137 531.415 333.993 530.723 334.821 529.987C335.475 529.352 336.099 528.695 336.699 528.011C337.348 527.2 337.956 526.364 338.531 525.498C339.094 524.568 339.606 523.614 340.121 522.655L340.304 522.315L340.264 522.403C340.361 522.195 340.457 521.987 340.555 521.778L340.229 522.481C340.362 522.193 340.497 521.905 340.631 521.617L340.669 521.536L341.105 520.598C341.791 519.099 342.344 517.536 342.895 515.979C342.974 515.757 343.052 515.535 343.131 515.313C343.604 513.751 344.042 512.187 344.457 510.607C344.822 509.225 345.087 507.81 345.352 506.403C345.414 506.073 345.476 505.743 345.539 505.414C346.425 500.124 347.111 494.811 347.742 489.483C348.366 484.224 348.931 478.954 349.229 473.662L349.232 473.504L349.235 473.335C348.724 473.356 348.213 473.374 347.701 473.382C346.188 473.405 344.674 473.426 343.161 473.432C339.679 473.455 336.209 473.375 332.731 473.258L332.706 473.257L332.634 473.255C330.441 473.177 328.248 473.094 326.056 473.012C323.908 472.93 321.761 472.849 319.613 472.773L319.411 472.767C309.973 472.433 300.541 472.046 291.126 471.247C286.236 470.833 281.36 470.334 276.48 469.812C274.122 469.559 271.767 469.269 269.413 468.978L269.408 468.978C267.048 468.686 264.688 468.395 262.323 468.142C261.949 468.101 261.574 468.077 261.199 468.053L261.196 468.053L261.192 468.053C261.057 468.044 260.922 468.035 260.787 468.026C260.442 468.018 260.098 468.013 259.753 468.03C259.24 468.096 258.715 468.037 258.222 467.852C257.443 467.56 256.809 466.977 256.452 466.225C256.111 465.463 256.084 464.597 256.378 463.815C256.671 463.034 257.261 462.4 258.02 462.051C259.681 461.502 261.428 461.264 263.175 461.349C265.296 461.352 267.416 461.423 269.534 461.511C273.787 461.686 278.038 461.856 282.286 462.022C291.627 462.303 300.966 462.383 310.302 462.261C313.253 462.219 316.204 462.137 319.154 462.055H319.155L319.163 462.054C320.691 462.012 322.219 461.969 323.747 461.932C324.287 461.919 324.827 461.906 325.367 461.891C325.91 461.877 326.454 461.862 326.997 461.847L327.006 461.847C330.623 461.747 334.244 461.648 337.86 461.695C340.321 461.725 342.777 461.817 345.234 461.925L345.471 461.936C347.598 462.034 349.731 462.132 351.841 462.407C353.908 462.679 355.937 463.171 357.42 464.732C359.253 466.656 359.714 469.428 359.792 471.994C359.863 474.362 359.829 476.724 359.714 479.089C359.266 488.323 358.594 497.594 357.247 506.742C356.555 511.565 355.383 516.307 353.748 520.896C351.505 527.127 348.373 533.146 343.636 537.853C341.548 539.881 339.229 541.656 336.727 543.143C335.519 543.88 334.251 544.519 332.986 545.158L332.962 545.17C332.678 545.313 332.395 545.456 332.112 545.6C330.035 546.595 327.908 547.481 325.739 548.254C323.422 549.148 321.035 549.825 318.651 550.502L318.525 550.538C316.11 551.166 313.665 551.667 311.198 552.041C310.466 552.168 309.721 552.236 308.978 552.304C308.611 552.337 308.246 552.371 307.883 552.411C306.85 552.523 305.809 552.561 304.77 552.599L304.766 552.599C304.455 552.61 304.145 552.622 303.835 552.635C303.62 552.644 303.403 552.648 303.187 552.648C302.663 552.648 302.136 552.625 301.61 552.602L301.606 552.602C301.264 552.587 300.923 552.572 300.584 552.564C299.57 552.54 298.56 552.431 297.551 552.321ZM259.951 468.002L259.903 468.007C260.062 467.979 260.22 467.939 260.375 467.886C260.341 467.899 260.308 467.912 260.274 467.926C260.167 467.953 260.058 467.978 259.951 468.002ZM260.633 467.789L260.582 467.808C260.596 467.802 260.611 467.796 260.626 467.789H260.633Z" fill="black"/>
</svg>
