<svg width="349" height="528" viewBox="0 0 349 528" fill="none" xmlns="http://www.w3.org/2000/svg">
<path d="M108.138 263.076C104.517 261.838 101.436 259.316 98.599 256.853C96.798 255.22 95.152 253.424 93.682 251.488C91.2848 248.459 89.0934 245.274 87.1226 241.952C86.3004 240.57 85.4857 239.163 84.7052 237.735C82.3642 234.051 80.3808 230.169 78.4118 226.268C76.1648 221.858 74.1619 217.327 72.4121 212.697C72.2753 212.33 72.1394 211.961 72.0044 211.592C71.0553 211.403 70.1235 211.134 69.2189 210.79C60.6267 207.522 57.0355 198.381 54.0053 190.387C53.7807 190.118 53.553 189.85 53.3222 189.584C53.0036 189.252 52.687 188.922 52.3612 188.598C51.0569 187.585 49.843 186.461 48.7329 185.238C47.2636 183.516 46.0457 181.594 45.1155 179.53C43.58 176.022 42.4857 172.337 41.8578 168.559C41.3964 166.031 40.9993 163.523 40.6634 160.975C40.4793 159.579 40.3361 158.177 40.2211 156.771C39.9756 155.808 39.7361 154.844 39.4893 153.883C38.2186 148.899 37.2206 143.85 36.4997 138.758C35.037 128.541 34.0666 118.286 33.5169 107.98C32.9501 97.3688 33.6763 86.8051 36.6863 76.5841C38.3519 71.0231 40.5994 65.6533 43.3916 60.5638C44.7837 58.1084 46.3273 55.742 48.0135 53.4783C49.6463 51.1607 51.4913 49 53.5244 47.0241C57.1596 43.6691 61.0651 40.6194 65.2012 37.906C66.0468 37.335 66.8926 36.7606 67.7519 36.2072L67.8242 36.1346C71.7325 32.0613 76.7079 29.1697 82.1818 27.7902C85.6032 26.917 89.1536 26.6653 92.664 27.0471C95.0312 27.3696 97.3575 27.9431 99.6034 28.7577C107.334 25.3957 115.994 24.8292 124.097 27.1557C129.232 28.622 134.022 31.0965 138.19 34.4345C140.489 36.3007 142.627 38.3576 144.58 40.5834C144.901 40.9475 145.213 41.3187 145.515 41.6969C147.822 41.8861 150.113 42.2374 152.371 42.7484C160.627 44.5571 168.531 48.8871 175.121 54.096C178.283 56.5802 181.266 59.2835 184.049 62.1859C186.667 64.8179 189.098 67.63 191.324 70.6016C192.205 71.8348 193.122 73.061 194.026 74.2966C196.319 76.3782 198.17 78.8999 199.468 81.7117C199.826 82.4805 200.142 83.2682 200.415 84.0712C202.814 87.9891 205.133 91.9493 207.25 96.0455C207.13 95.8142 207.01 95.5832 206.891 95.3524C207.792 97.0834 208.693 98.8144 209.594 100.545C211.013 103.267 212.377 105.988 213.595 108.805C214.213 110.233 214.752 111.696 215.292 113.155C215.859 114.689 216.415 116.229 216.924 117.787C217.446 119.606 217.87 121.451 218.193 123.315C219.446 129.312 218.879 135.546 216.564 141.219C214.786 145.583 211.939 149.43 208.284 152.407C207.612 152.948 206.911 153.453 206.185 153.92C205.757 159.03 205.175 164.127 204.402 169.194C203.694 173.868 202.535 178.463 200.941 182.913C200.215 184.948 199.384 186.942 198.591 188.952C197.823 191.554 196.796 194.073 195.525 196.47C193.736 200.045 191.171 203.174 188.016 205.629C186.031 207.124 183.908 208.426 181.677 209.518C179.148 210.731 176.442 211.534 173.661 211.897C173.479 211.911 173.298 211.925 173.118 211.94C171.436 213.87 169.622 215.681 167.689 217.36C165.555 219.135 163.194 220.617 160.667 221.767C160.613 222.938 160.545 224.11 160.464 225.284C160.157 229.245 159.444 233.165 158.337 236.981C156.6 243.398 153.358 249.309 148.879 254.223C143.782 259.751 136.947 263.37 129.51 264.478C127.479 264.765 125.429 264.891 123.379 264.856C121.932 265.078 120.471 265.193 119.007 265.201C118.96 265.201 118.912 265.201 118.864 265.201C115.195 265.1 111.569 264.382 108.138 263.076Z" fill="white"/>
<path d="M76.193 194.318C76.7598 194.46 77.3358 194.561 77.9169 194.62C78.5746 194.674 79.2338 194.706 79.8931 194.706C80.5958 194.708 81.2979 194.668 81.9958 194.586C84.4798 194.291 86.94 193.829 89.3833 193.303C93.9881 192.211 98.4881 190.717 102.831 188.838C106.063 187.521 109.222 186.031 112.38 184.541L112.396 184.534C113.279 184.118 114.161 183.702 115.044 183.289C117.026 182.366 118.998 181.427 120.945 180.429C121.068 180.366 121.191 180.304 121.313 180.242C121.557 180.12 121.8 179.998 122.035 179.866C122.44 179.653 122.845 179.443 123.25 179.234C123.728 178.983 124.21 178.729 124.688 178.474C125.557 178.016 126.429 177.555 127.267 177.039C127.7 176.771 128.127 176.496 128.555 176.222L128.556 176.221C129.038 175.912 129.521 175.602 130.009 175.301C130.43 175.044 130.851 174.789 131.278 174.545C131.335 174.512 131.391 174.48 131.448 174.448C131.578 174.375 131.708 174.302 131.832 174.219C131.887 174.181 131.944 174.143 132.002 174.104C132.129 174.02 132.259 173.933 132.371 173.842C132.655 173.599 132.908 173.322 133.124 173.018C133.498 172.512 133.713 171.906 133.741 171.277C133.77 170.649 133.61 170.026 133.284 169.488C132.956 168.964 132.484 168.544 131.925 168.279C131.365 168.015 130.742 167.916 130.128 167.995C129.292 168.129 128.491 168.429 127.773 168.879C126.651 169.45 125.509 169.949 124.357 170.452L124.271 170.49C123.339 170.893 122.421 171.329 121.502 171.764L121.501 171.765C121.285 171.867 121.07 171.969 120.854 172.071C119.617 172.656 118.374 173.231 117.132 173.807L117.125 173.809C115.926 174.365 114.726 174.92 113.531 175.485C109.445 177.409 105.36 179.312 101.23 181.142L100.291 181.557C96.4486 183.261 92.6129 184.961 88.6603 186.409L88.4166 186.496C86.1918 187.292 83.9618 188.089 81.7006 188.787C80.4054 189.188 79.1012 189.557 77.788 189.893C77.6148 189.937 77.4367 189.979 77.2563 190.022C76.1897 190.273 75.0416 190.544 74.3335 191.4C74.1018 191.715 73.9922 192.104 74.0253 192.494C74.0584 192.884 74.2318 193.249 74.5134 193.521C74.9911 193.933 75.5715 194.209 76.193 194.318Z" fill="black"/>
<path fill-rule="evenodd" clip-rule="evenodd" d="M95.8041 246.391C102.147 248.679 108.765 250.115 115.486 250.659C117.878 250.839 120.281 250.931 122.68 250.931C127.216 250.932 131.747 250.608 136.237 249.961C143.098 248.97 149.852 247.347 156.414 245.111C158.533 244.392 160.623 243.572 162.711 242.754C163.458 242.461 164.204 242.169 164.952 241.881C166.558 241.26 168.111 240.515 169.664 239.771C170.165 239.53 170.666 239.29 171.168 239.054C171.391 238.95 171.615 238.847 171.838 238.744L171.84 238.743C172.629 238.381 173.42 238.017 174.175 237.592C175.357 236.928 176.537 236.265 177.714 235.603C178.039 235.419 178.372 235.242 178.705 235.065L178.706 235.064C179.364 234.714 180.025 234.361 180.64 233.954C181.669 233.274 182.699 232.593 183.731 231.911C187.68 229.364 191.423 226.509 194.922 223.373C199.797 219.049 204.106 214.125 207.746 208.72C209.646 205.841 211.361 202.845 212.88 199.748C213.501 198.459 214.071 197.159 214.638 195.846C214.8 195.473 214.971 195.101 215.141 194.728L215.142 194.727C215.503 193.938 215.866 193.145 216.158 192.337C216.557 191.23 216.956 190.124 217.356 189.022C218.262 186.504 219.043 183.972 219.803 181.41C220.344 179.596 220.757 177.749 221.171 175.903C221.276 175.432 221.382 174.961 221.49 174.491C221.707 173.546 221.851 172.582 221.994 171.622C222.043 171.293 222.092 170.964 222.144 170.636C222.193 170.332 222.248 170.027 222.303 169.721C222.423 169.051 222.543 168.377 222.606 167.704C222.653 167.194 222.702 166.685 222.751 166.175L222.751 166.173C222.944 164.171 223.138 162.17 223.186 160.161C223.225 158.709 223.261 157.259 223.295 155.81C223.313 155.073 223.271 154.329 223.229 153.588C223.209 153.23 223.189 152.873 223.176 152.519C223.071 149.773 222.809 147.055 222.545 144.32C222.388 142.721 222.13 141.132 221.872 139.545L221.871 139.542C221.773 138.935 221.674 138.327 221.581 137.72C221.462 136.949 221.29 136.182 221.119 135.416L221.116 135.404C221.029 135.014 220.942 134.624 220.862 134.235C220.794 133.907 220.73 133.577 220.665 133.247C220.51 132.448 220.353 131.647 220.149 130.862C220.028 130.396 219.908 129.929 219.789 129.463L219.786 129.453C219.314 127.61 218.841 125.767 218.276 123.949C217.878 122.663 217.478 121.377 217.078 120.091C216.789 119.164 216.445 118.249 216.1 117.336C215.931 116.886 215.761 116.436 215.599 115.985C214.881 113.993 214.081 112.038 213.278 110.078C213.177 109.831 213.076 109.584 212.975 109.337C212.208 107.464 211.326 105.615 210.423 103.799C209.185 101.302 207.909 98.8348 206.592 96.378C204.556 92.5841 202.276 88.8955 199.904 85.3052C197.24 81.2739 194.495 77.29 191.611 73.4113C188.909 69.7736 186.12 66.2207 183.09 62.8544C179.842 59.2472 176.228 55.5925 171.84 53.4037C170.238 52.5432 168.367 52.3272 166.611 52.7997C165.253 53.1872 164.047 53.9833 163.157 55.0801C164.487 56.2712 165.766 57.5199 167.039 58.7721C169.254 60.9518 171.265 63.3246 173.273 65.6943L173.275 65.6968L173.279 65.7015C173.795 66.3101 174.311 66.919 174.83 67.5237C174.97 67.6863 175.111 67.8483 175.252 68.0104L175.257 68.0164L175.26 68.0199L175.261 68.0208C175.702 68.5285 176.145 69.0377 176.557 69.57C177.188 70.3878 177.782 71.2259 178.373 72.0743C179.452 73.6251 180.483 75.2065 181.43 76.8455C181.816 77.5147 182.2 78.1855 182.581 78.8577C183.205 79.665 183.811 80.4851 184.399 81.318C185.648 83.0961 186.846 84.9082 187.993 86.7542C189.876 89.7928 191.55 92.9503 193.223 96.1072L193.224 96.1102L193.226 96.113C193.551 96.7265 193.876 97.34 194.203 97.9525L194.25 98.0435L194.251 98.046C194.295 98.1319 194.339 98.2185 194.385 98.3038L194.383 98.2986L194.536 98.5939L194.507 98.5412C194.891 99.2871 195.253 100.043 195.615 100.799L195.616 100.8L195.618 100.805C195.948 101.493 196.278 102.18 196.622 102.859C196.932 103.474 197.256 104.081 197.58 104.687C197.991 105.457 198.403 106.227 198.784 107.013C198.972 107.401 199.163 107.787 199.354 108.174C199.896 109.27 200.438 110.367 200.905 111.496C201.269 112.431 201.554 113.395 201.757 114.378L201.728 114.248C201.736 114.286 201.744 114.325 201.753 114.364C201.763 114.412 201.773 114.461 201.784 114.509C201.775 114.465 201.766 114.422 201.757 114.378L201.794 114.535C201.858 114.813 201.922 115.09 201.977 115.368C202.021 115.581 202.049 115.795 202.072 116.009L202.077 116.052L202.082 116.087L202.089 116.149L202.095 116.191C202.11 116.309 202.125 116.426 202.134 116.545C202.096 117.182 201.966 117.809 201.747 118.408C201.558 118.689 201.289 118.908 200.975 119.035C200.996 119.089 201.018 119.143 201.039 119.197C200.41 119.256 199.787 119.37 199.177 119.539C198.764 119.636 198.361 119.772 197.961 119.907C197.845 119.947 197.729 119.986 197.612 120.024C195.863 120.464 194.151 121.04 192.492 121.748C190.749 122.647 188.983 123.499 187.195 124.303C183.754 125.846 180.247 127.23 176.708 128.525C171.382 130.351 165.952 131.856 160.446 133.033C156.348 133.887 152.228 134.607 148.105 135.328L148.104 135.328L148.087 135.331L148.083 135.332C146.747 135.566 145.411 135.799 144.075 136.038C138.077 137.102 132.096 138.243 126.13 139.462C117.124 141.262 108.218 143.531 99.4477 146.259C90.1431 149.194 80.9299 152.472 72.3615 157.185C68.1481 159.441 64.2026 162.165 60.6 165.306C56.8353 168.501 53.7389 172.408 51.4886 176.803C51.249 177.278 51.0265 177.761 50.8215 178.25C50.3617 176.869 49.9352 175.477 49.5823 174.074C49.4498 173.552 49.3182 173.032 49.1866 172.511L48.7915 170.952C48.1661 168.468 47.5395 165.984 46.9116 163.5C46.3665 160.537 45.819 157.575 45.2692 154.612C44.9147 152.697 44.6721 150.775 44.4286 148.845L44.4284 148.844C44.3876 148.52 44.3468 148.197 44.3054 147.873C44.2337 147.313 44.159 146.753 44.0842 146.193L44.0837 146.189C43.8437 144.393 43.6035 142.595 43.4639 140.788C43.2411 137.94 43.0196 135.093 42.799 132.246C42.713 129.129 42.6259 126.013 42.5376 122.897C42.5121 121.988 42.5547 121.07 42.5973 120.154C42.617 119.729 42.6367 119.305 42.6496 118.883L42.7718 114.716L42.8923 113.391C43.005 113.332 43.1165 113.27 43.2266 113.206C44.2167 112.544 45.1139 111.754 45.8943 110.854C46.0813 110.685 46.2682 110.516 46.4548 110.347C48.8895 108.125 51.5838 106.207 54.4792 104.633C54.9948 104.388 55.5134 104.166 56.0447 103.962C56.698 103.746 57.3586 103.555 58.0266 103.388C58.3452 103.334 58.6636 103.289 58.9847 103.251C59.153 103.245 59.3214 103.241 59.4899 103.241C59.8647 103.288 60.2365 103.355 60.6075 103.423C60.9485 103.499 61.3003 103.597 61.658 103.696C62.9733 104.063 64.3689 104.453 65.5994 103.83C66.1996 103.559 66.6969 103.102 67.0178 102.527C68.5923 99.3877 66.2102 96.0859 63.845 94.1414C62.7313 93.3115 61.4636 92.7116 60.1156 92.3768C59.0532 92.0697 57.9612 91.8764 56.8579 91.8C54.5007 91.5788 52.1231 91.7531 49.8234 92.3158C49.4399 92.4133 49.0583 92.5178 48.6789 92.6291C48.4818 92.5397 48.2827 92.4546 48.0817 92.3739C47.6636 92.1937 47.2405 92.0256 46.8129 91.8699C47.1875 90.8152 47.5827 89.7709 48.0553 88.746C48.2216 88.4134 48.3981 88.0843 48.588 87.7653C48.6333 87.7044 48.6773 87.6435 48.7209 87.5832C48.7526 87.5394 48.784 87.4959 48.8155 87.4531C49.1514 87.0852 49.3287 86.5996 49.309 86.1018C49.2893 85.604 49.0742 85.1339 48.7102 84.7937C48.3463 84.4534 47.8629 84.2703 47.3649 84.2841C46.8669 84.2979 46.3944 84.5074 46.0498 84.8673C45.6118 85.3214 45.2343 85.8301 44.9265 86.3808C44.421 87.2088 43.9492 88.0469 43.5115 88.9123C43.2308 89.4622 42.9865 90.0343 42.7429 90.6048L42.6355 90.856C41.6227 90.8157 40.6355 91.0401 39.9274 91.8682C39.5766 92.2877 39.3705 92.8092 39.3399 93.3552C39.3093 93.9012 39.4559 94.4425 39.7578 94.8985C40.0405 95.2594 40.3898 95.561 40.7854 95.7877C40.7471 95.8998 40.7099 96.0125 40.6737 96.1256C40.5365 96.2057 40.3998 96.2868 40.2637 96.3687C39.7981 96.3021 39.3318 96.2441 38.8653 96.1948L39.1707 96.2253C38.2281 96.114 37.2795 96.0618 36.3304 96.0693C35.2402 95.9904 34.1512 96.2372 33.2016 96.7785C32.7699 97.0789 32.4231 97.4857 32.1948 97.9595C31.9665 98.4334 31.8645 98.9582 31.8986 99.483C31.9828 100.175 32.2657 100.828 32.713 101.363C32.8314 101.532 32.9548 101.698 33.0832 101.86C32.9337 101.876 32.7827 101.892 32.6306 101.908C29.8787 102.197 26.7435 102.527 24.9625 104.817C24.4718 105.419 24.1627 106.148 24.0714 106.919C23.98 107.69 24.1102 108.471 24.4466 109.171C24.9869 110.111 25.7823 110.878 26.7405 111.384C27.9687 112.11 29.2601 112.723 30.5989 113.216C32.5506 113.859 34.5489 114.351 36.5761 114.688C36.7072 114.759 36.8417 114.822 36.9789 114.877C36.9491 115.168 36.9219 115.459 36.8977 115.751C36.7575 117.471 36.6161 119.192 36.4735 120.912C36.4586 121.099 36.442 121.286 36.4254 121.473C36.3782 122.006 36.331 122.538 36.3209 123.07C36.261 125.957 36.2022 128.843 36.1444 131.727C36.1134 133.272 36.1814 134.821 36.2493 136.368C36.2779 137.019 36.3065 137.67 36.3277 138.32L36.3535 139.149C36.4067 140.877 36.4597 142.6 36.606 144.323L37.3593 153.377C37.4817 154.826 37.7051 156.272 37.9279 157.714C38.0265 158.351 38.1249 158.988 38.2144 159.624C38.296 160.198 38.3707 160.773 38.4455 161.35C38.6317 162.785 38.8183 164.223 39.1137 165.637C39.7494 168.67 40.3828 171.701 41.0139 174.732C42.0461 179.511 43.3894 184.217 45.0352 188.821C49.4467 201.397 55.5141 213.532 64.1774 223.75C68.3299 228.755 73.0733 233.238 78.3042 237.103C83.6687 241.011 89.5607 244.138 95.8041 246.391ZM68.9762 188.714C71.0628 186.817 73.2454 185.028 75.5155 183.354C77.3739 182.107 79.2937 180.977 81.2623 179.918C86.8399 177.144 92.5824 174.716 98.4574 172.646C105.32 170.132 112.327 168.028 119.44 166.346C125.132 165.195 130.887 164.375 136.674 163.889C140.464 163.605 144.263 163.328 148.062 163.212C152.167 163.095 156.273 163.133 160.38 163.327C163.812 163.532 167.23 163.919 170.621 164.487C172.331 164.83 174.022 165.224 175.695 165.716C176.393 165.961 177.08 166.223 177.76 166.515C177.934 166.605 178.107 166.698 178.278 166.793C178.373 166.945 178.464 167.099 178.554 167.253C178.6 167.352 178.645 167.451 178.69 167.55L178.695 167.595C178.707 167.96 178.709 168.325 178.701 168.69C178.643 169.345 178.557 169.994 178.449 170.643C178.168 171.896 177.82 173.126 177.435 174.348C176.423 177.327 175.251 180.25 173.925 183.103C172.788 185.396 171.53 187.627 170.157 189.788C169.163 191.305 168.132 192.784 166.992 194.196C165.254 196.18 163.473 198.126 161.591 199.973C160.717 200.743 159.817 201.471 158.877 202.161C157.413 203.124 155.911 204.024 154.371 204.862C153.606 205.23 152.835 205.569 152.045 205.876C150.56 206.368 149.055 206.801 147.533 207.175C146.812 207.312 146.091 207.425 145.359 207.508C144.186 207.562 143.012 207.568 141.837 207.526C141.125 207.463 140.42 207.377 139.716 207.264C138.904 207.078 138.107 206.865 137.312 206.623C136.48 206.322 135.665 205.992 134.859 205.63C134.078 205.228 133.318 204.796 132.568 204.338C131.699 203.758 130.842 203.163 129.999 202.552C128.39 201.391 126.812 200.183 125.244 198.965C124.68 198.527 124.121 198.078 123.562 197.63C122.519 196.793 121.475 195.955 120.388 195.182C118.628 193.812 116.695 192.679 114.64 191.812C111.961 190.719 109.013 190.473 106.19 191.106C104.598 191.575 103.126 192.381 101.874 193.469C100.621 194.558 99.6178 195.903 98.9317 197.414C97.8789 199.724 97.1854 202.181 96.8753 204.7C96.7222 205.741 96.6196 206.79 96.5171 207.838C96.4538 208.485 96.3905 209.132 96.3154 209.777C96.1025 211.576 95.8338 213.365 95.5095 215.145C95.2622 216.375 94.9858 217.592 94.6312 218.797C94.5064 219.12 94.3767 219.439 94.24 219.756C94.0948 220.02 93.9461 220.277 93.7925 220.533C93.6882 220.674 93.5831 220.815 93.4786 220.955C93.233 221.23 92.9825 221.499 92.7232 221.765C92.3776 222.066 92.0265 222.356 91.6623 222.633C91.4114 222.793 91.1589 222.946 90.9006 223.092C90.8013 223.138 90.7012 223.182 90.6006 223.224C90.3757 223.294 90.1507 223.358 89.923 223.416C89.8506 223.427 89.778 223.438 89.7054 223.448L89.6424 223.456C89.6143 223.459 89.5861 223.463 89.558 223.466C89.3857 223.473 89.2128 223.475 89.0394 223.472C88.6702 223.441 88.303 223.4 87.9344 223.349C87.0376 223.161 86.1616 222.934 85.282 222.672C84.6459 222.433 84.0193 222.182 83.395 221.917C82.504 221.166 81.6187 220.413 80.7729 219.61C79.347 218.202 77.9681 216.728 76.6511 215.22C76.2982 214.816 75.937 214.417 75.5756 214.019C74.9691 213.35 74.3621 212.681 73.7934 211.983C72.4104 210.237 71.1315 208.41 69.9634 206.513C69.537 205.773 69.14 205.024 68.7866 204.248C68.5437 203.635 68.3282 203.012 68.1401 202.38C67.8999 201.524 67.6653 200.657 67.5079 199.781C67.3888 198.826 67.3329 197.869 67.3043 196.906C67.3032 196.48 67.3159 196.057 67.3479 195.633C67.3954 195.274 67.4575 194.919 67.5343 194.567C67.5694 194.428 67.6047 194.29 67.64 194.152C67.8065 193.499 67.9731 192.846 68.1133 192.189C68.173 191.909 68.2245 191.628 68.2761 191.348C68.3247 191.083 68.3732 190.819 68.4285 190.556C68.5776 189.995 68.741 189.434 68.9209 188.883C68.9397 188.827 68.9581 188.771 68.9762 188.714Z" fill="black"/>
<path d="M72.0195 145.095C69.1826 141.939 69.0569 137.32 70.4788 133.486C71.2087 131.539 72.2206 129.709 73.482 128.056C74.5917 126.636 75.8436 125.333 77.2181 124.167C78.7555 122.86 80.4106 121.698 82.1623 120.696C83.8319 119.728 85.587 118.916 87.4052 118.27C89.2879 117.568 91.215 116.992 93.1739 116.546C95.1166 116.112 97.1054 115.918 99.0954 115.969C100.213 115.97 101.326 116.106 102.411 116.373C102.944 116.519 103.463 116.682 103.978 116.878C104.702 117.182 105.389 117.568 106.025 118.029C106.786 118.591 107.34 119.39 107.6 120.3C107.86 121.211 107.811 122.181 107.461 123.061C107.111 123.941 106.48 124.68 105.666 125.163C104.852 125.646 103.9 125.846 102.961 125.732C102.105 125.598 101.257 125.49 100.399 125.425C99.2499 125.387 98.1094 125.387 96.9609 125.449C95.7751 125.572 94.611 125.758 93.443 125.992C91.8659 126.371 90.3231 126.816 88.7852 127.329C87.4728 127.836 86.1926 128.386 84.9218 128.991C83.7075 129.656 82.5447 130.365 81.4022 131.147C80.9211 131.518 80.4551 131.902 79.9991 132.303C79.5896 132.703 79.1978 133.113 78.8209 133.541C78.559 133.874 78.311 134.211 78.0722 134.557C77.8879 134.862 77.715 135.17 77.5496 135.486C77.4042 135.819 77.2722 136.151 77.1481 136.493C77.0877 136.7 77.0354 136.909 76.9911 137.119C76.9548 137.335 76.9273 137.552 76.9087 137.771C76.9011 138.01 76.9029 138.25 76.9142 138.489C76.9371 138.706 76.9677 138.922 77.0041 139.136C77.069 139.391 77.1398 139.642 77.2197 139.892C77.2718 140.022 77.3288 140.149 77.3892 140.274C77.4899 140.453 77.5972 140.628 77.7111 140.8C77.8248 140.952 77.9424 141.101 78.0639 141.247C78.5001 141.629 78.8895 142.062 79.2237 142.536C79.4723 142.942 79.6231 143.4 79.6644 143.874C79.7056 144.348 79.6361 144.825 79.4612 145.268C79.2 145.88 78.7638 146.402 78.2072 146.768C77.6506 147.134 76.9985 147.327 76.3325 147.324L76.2916 147.324C75.4646 147.266 74.6585 147.038 73.9235 146.654C73.1885 146.27 72.5404 145.74 72.0195 145.095Z" fill="black"/>
<path d="M97.3099 90.6036L97.324 90.7216C97.3342 90.807 97.3442 90.8925 97.3539 90.9781C97.3756 91.5949 97.6348 92.1795 98.0773 92.6098C98.5198 93.0402 99.1113 93.2829 99.7285 93.2875C99.8376 93.2875 99.9465 93.2797 100.054 93.2641C100.636 93.1779 101.165 92.8781 101.538 92.4231C101.91 91.968 102.1 91.3905 102.07 90.8032C102.077 90.741 102.086 90.6792 102.096 90.6173C102.168 90.317 102.252 90.0216 102.341 89.7272C102.46 89.3972 102.586 89.0706 102.719 88.7474C103.186 88.5233 103.624 88.2417 104.021 87.9093C104.443 87.5072 104.835 87.0754 105.194 86.617C105.407 86.3803 105.627 86.1518 105.856 85.9316C106.623 85.2551 107.421 84.5853 108.245 83.9807C108.657 83.7017 109.076 83.4384 109.511 83.1959C110.391 82.7639 111.298 82.3953 112.215 82.0431C113.12 81.7445 114.042 81.508 114.972 81.2983C117.423 80.8577 119.896 80.5578 122.381 80.4002L122.118 80.42L122.439 80.3966L122.381 80.4002L122.773 80.3704L122.963 80.3555L122.889 80.3615C123.875 80.2855 124.861 80.2047 125.847 80.1238C126.556 80.0657 127.264 80.0076 127.973 79.9513C131.017 79.7031 134.074 79.6286 137.127 79.7283C138.715 79.8473 140.302 80.0334 141.871 80.2964C141.963 80.316 142.056 80.3359 142.149 80.3557C142.67 80.4669 143.191 80.5783 143.714 80.6575C145.114 80.8536 146.54 80.678 147.851 80.1485C149.101 79.6066 150.164 78.707 150.905 77.5628C151.646 76.4186 152.032 75.0809 152.014 73.7179C152.005 73.2665 151.954 72.8183 151.862 72.3791C153.301 70.104 154.475 67.6698 155.359 65.1239L155.416 64.9589C156.141 62.8576 156.982 60.4206 155.725 58.3541C155.278 57.6368 154.636 57.0614 153.874 56.6949C153.112 56.3284 152.262 56.1859 151.422 56.284C150.229 56.4332 149.08 56.8308 148.049 57.4514C145.501 59.0136 143.053 60.7341 140.719 62.6026C139.758 63.3118 138.805 64.0342 137.862 64.7699C137.236 64.6982 136.609 64.6408 135.98 64.5978C135.961 64.0397 135.948 63.4821 135.938 62.925C135.933 62.6229 135.934 62.3204 135.936 62.0179C135.938 61.5286 135.94 61.0395 135.914 60.553C135.918 59.7892 135.679 59.0439 135.233 58.424C134.787 57.804 134.156 57.3413 133.43 57.1019C131.109 56.5182 128.731 57.974 126.84 59.1888C125.744 59.8935 124.68 60.652 123.617 61.4094C123.355 61.5964 123.092 61.7833 122.83 61.9693C121.969 62.5677 121.099 63.154 120.228 63.7408L120.227 63.7416L120.225 63.7433C119.939 63.9355 119.654 64.1277 119.369 64.3205C119.355 64.2917 119.342 64.2631 119.327 64.2348C118.921 63.3753 118.269 62.6551 117.454 62.1648C116.591 61.699 115.591 61.5547 114.631 61.7576C112.992 62.1683 111.517 63.0692 110.403 64.34C109.646 65.1143 108.955 65.9497 108.336 66.8376C107.478 68.0422 106.616 69.2639 105.876 70.5466C105.419 71.2489 105.08 72.0192 104.871 72.8265C104.275 73.3519 103.704 73.9064 103.159 74.4883C102.401 75.3176 101.699 76.1974 101.059 77.1215C100.479 78.0076 99.9557 78.929 99.4911 79.8804C98.4981 81.817 97.8113 83.8958 97.4551 86.0428C97.2731 87.0621 97.1822 88.0955 97.1836 89.1308C97.1932 89.6279 97.2515 90.1149 97.3099 90.6036Z" fill="black"/>
<path fill-rule="evenodd" clip-rule="evenodd" d="M157.258 501.773C159.711 497.456 161.471 492.781 162.475 487.918C163.035 487.006 163.59 486.092 164.138 485.173C164.908 483.877 165.682 482.553 166.323 481.189C167.539 478.946 168.406 476.53 168.892 474.026C169.08 472.544 168.845 471.04 168.214 469.687C168.931 468.303 169.529 466.861 170.001 465.376C170.365 464.175 170.678 462.932 170.862 461.675C171.79 463.167 172.763 464.63 173.788 466.054C175.057 467.825 176.347 469.579 177.657 471.317C177.618 471.452 177.583 471.587 177.551 471.724C177.184 473.498 177.261 475.335 177.775 477.072C178.437 479.081 179.478 480.945 180.839 482.563C181.712 483.72 182.667 484.812 183.697 485.831C183.95 486.081 184.2 486.334 184.451 486.588C184.965 487.109 185.48 487.631 186.021 488.121C189.643 491.492 193.471 494.634 197.484 497.528C201.44 500.359 205.569 502.94 209.846 505.258C211.852 506.324 213.888 507.308 215.948 508.265C218.31 509.361 220.729 510.443 223.182 511.319C225.676 512.275 228.31 512.81 230.979 512.903C231.564 513.126 232.155 513.339 232.752 513.541C235.106 514.323 237.506 514.958 239.939 515.442C241.866 515.879 243.829 516.141 245.803 516.222C247.306 516.255 248.807 516.096 250.27 515.749C250.538 515.786 250.807 515.82 251.077 515.851C251.989 516 252.904 516.128 253.822 516.236C255.48 516.443 257.149 516.555 258.82 516.569C261.654 516.639 264.47 516.085 267.066 514.946C268.68 514.162 270.105 513.043 271.246 511.665C276.253 508.655 280.397 504.378 283.25 499.249C284.025 498.331 284.729 497.35 285.363 496.322C287.183 495.941 288.899 495.162 290.387 494.038C292.066 492.742 293.326 490.979 294.009 488.97C294.046 488.89 294.082 488.811 294.118 488.732L294.024 488.931C294.144 488.619 294.258 488.304 294.365 487.987L294.129 488.708C294.7 487.463 295.207 486.19 295.648 484.893C295.575 485.115 295.502 485.338 295.429 485.561C295.551 485.214 295.68 484.874 295.821 484.537C297.038 482.032 297.846 479.349 298.215 476.589C298.983 475.158 299.639 473.669 300.177 472.136C301.551 468.079 302.794 463.382 302.824 458.888C303.47 457.455 304.087 456.01 304.681 454.557C305.073 453.601 305.46 452.643 305.843 451.683C305.931 451.481 306.02 451.279 306.11 451.078C306.836 449.446 307.532 447.797 308.183 446.134C309.667 442.364 311.115 438.577 312.527 434.773C313.112 433.197 313.699 431.621 314.286 430.046L314.289 430.039C315.574 426.59 316.859 423.142 318.119 419.685C318.513 419.111 318.891 418.522 319.253 417.918C321.67 413.659 323.576 409.129 324.93 404.422C327.864 395.257 330.197 385.91 331.913 376.44L332.078 375.505C333.243 368.909 334.443 362.119 333.39 355.432C333.173 353.962 332.85 352.511 332.423 351.088C333.109 348.384 333.587 345.632 333.854 342.856C333.948 341.812 333.995 340.762 334.042 339.714C334.055 339.426 334.068 339.139 334.082 338.851C334.233 336.379 334.242 333.9 334.109 331.427C333.936 328.851 333.719 326.289 333.474 323.717C333.271 321.538 333.043 319.322 332.623 317.171C332.35 315.572 331.954 313.998 331.438 312.46C331.518 310.381 331.417 308.299 331.136 306.237C330.519 301.459 329.535 296.739 328.469 292.036C327.665 288.476 326.776 284.743 324.394 281.862C324.177 281.6 323.944 281.346 323.699 281.104C323.172 279.527 322.609 277.959 322.011 276.399C321.05 274.097 319.934 271.863 318.672 269.711C317.6 267.743 316.453 265.822 315.231 263.945C314.592 262.96 313.942 261.98 313.28 261.006C311.79 258.767 309.943 256.786 307.813 255.143C306.075 253.879 303.977 253.206 301.827 253.225C301.717 253.226 301.607 253.229 301.498 253.234C300.56 252.479 299.609 251.739 298.658 250.999C295.083 248.259 291.362 245.715 287.511 243.378C286.282 242.617 285.04 241.878 283.798 241.141C283.558 240.999 283.319 240.855 283.078 240.71L283.076 240.709C282.275 240.226 281.471 239.741 280.635 239.326C277.442 237.741 273.74 236.448 270.201 237.69C268.924 238.12 267.755 238.82 266.773 239.742C266.167 239.525 265.563 239.308 264.959 239.091C263.868 238.051 262.672 237.125 261.391 236.329C260.109 235.498 258.799 234.724 257.482 233.954C256.074 233.126 254.625 232.352 253.159 231.626C249.909 230.012 246.627 228.475 243.28 227.067C242.211 226.468 241.137 225.879 240.057 225.301C238.767 224.611 237.47 223.935 236.166 223.273C235.121 222.571 234.063 221.889 232.985 221.239C230.671 219.848 228.343 218.49 225.954 217.231L225.796 217.148L225.795 217.148C223.568 215.978 221.336 214.805 219.079 213.685C214.759 211.537 209.516 209.121 204.976 212.145C203.647 212.964 202.574 214.138 201.877 215.534C201.179 216.93 200.885 218.493 201.028 220.048C200.832 221.729 201.125 223.431 201.874 224.949C202.622 226.468 203.793 227.737 205.246 228.605C204.589 230.834 204.655 233.214 205.434 235.403C206.054 237.183 206.826 238.906 207.742 240.553C206.651 240.851 205.611 241.307 204.654 241.908C201.236 244.066 199.818 248.135 200.052 252.031C200.083 252.539 200.143 253.046 200.23 253.548C200.19 253.58 200.151 253.612 200.112 253.645L200.087 253.666C200.057 253.691 200.028 253.716 199.998 253.742C198.567 253.478 197.092 253.581 195.711 254.04C194.33 254.499 193.087 255.3 192.098 256.368C191.234 257.333 190.591 258.475 190.215 259.715C189.838 260.955 189.738 262.262 189.919 263.545C190.085 265.404 190.549 267.225 191.294 268.937C191.419 269.216 191.547 269.494 191.678 269.771C191.555 269.925 191.438 270.084 191.328 270.247C190.397 271.509 189.709 272.934 189.298 274.448C188.992 275.943 188.987 277.484 189.285 278.981C189.649 280.608 190.198 282.189 190.92 283.691C191.008 283.902 191.096 284.112 191.183 284.322C191.297 284.596 191.411 284.87 191.526 285.143C191.025 285.718 190.592 286.348 190.235 287.02C188.521 290.271 188.688 294.184 189.536 297.655C190.209 300.306 191.122 302.89 192.264 305.375C192.152 305.554 192.047 305.737 191.949 305.925C191.25 307.35 190.815 308.889 190.666 310.469C190.494 312.196 190.672 313.94 191.192 315.596C191.666 317.178 192.256 318.723 192.956 320.218C193.186 320.699 193.422 321.176 193.663 321.65C193.421 322.037 193.211 322.443 193.033 322.863C192.213 321.558 191.401 320.248 190.599 318.932C188.098 314.83 185.604 310.724 183.225 306.546C180.887 302.436 178.627 298.289 176.397 294.123L175.4 292.229C175.411 290.384 175.292 288.54 175.046 286.711C174.846 284.734 174.594 282.762 174.342 280.791L174.342 280.79L174.262 280.159C174.009 278.188 173.756 276.216 173.502 274.241C173.292 271.344 172.758 268.48 171.91 265.703C171.7 265.165 171.438 264.653 171.128 264.174L171.127 264.159L171.127 264.157C170.885 261.48 170.642 258.791 170.15 256.144C169.565 252.685 168.645 249.29 167.405 246.008C167.185 245.447 166.956 244.876 166.709 244.31C166.581 243.649 166.439 242.993 166.285 242.34C165.899 240.864 165.134 239.514 164.067 238.423C163.816 238.167 163.55 237.926 163.272 237.704C163.216 237.493 163.156 237.284 163.087 237.079C162.883 236.468 162.677 235.854 162.47 235.243C162.204 234.677 161.923 234.12 161.628 233.574C160.978 232.412 160.074 231.412 158.982 230.65C157.891 229.887 156.641 229.382 155.326 229.172C155.211 228.826 155.096 228.48 154.98 228.134C154.156 225.671 153.294 223.221 152.422 220.774C152.269 220.346 152.118 219.916 151.967 219.485L151.967 219.484C151.393 217.848 150.816 216.206 150.131 214.618C149.586 213.327 148.745 212.182 147.677 211.275C146.608 210.369 145.341 209.726 143.978 209.399L142.849 205.666C142.324 203.93 141.793 202.195 141.257 200.461C140.653 198.282 139.936 196.135 139.109 194.03C138.427 192.435 137.297 191.072 135.857 190.106L135.824 190.04C135.023 188.221 133.699 186.682 132.02 185.618C130.616 184.765 128.993 184.341 127.351 184.4C125.46 184.434 123.625 185.047 122.095 186.158C120.88 187.05 119.931 188.256 119.349 189.646C118.638 191.37 118.394 193.25 118.64 195.096C117.883 193.463 117.051 191.849 115.741 190.591C114.859 189.692 113.795 188.992 112.62 188.539C111.845 188.239 111.033 188.051 110.21 187.979C110.116 187.945 110.021 187.916 109.924 187.893C109.482 187.787 109.021 187.797 108.584 187.922C108.489 187.949 108.395 187.981 108.304 188.019C107.267 188.153 106.261 188.471 105.332 188.959C104.218 189.545 103.241 190.362 102.469 191.357C102.545 191.477 102.618 191.599 102.687 191.724C102.577 191.704 102.466 191.686 102.355 191.671C100.447 191.404 98.5048 191.771 96.8256 192.714C96.6423 192.816 96.4658 192.928 96.2927 193.043C95.0306 193.134 93.8044 193.504 92.7025 194.126C91.5892 194.76 90.6363 195.642 89.9174 196.703C89.1984 197.763 88.7325 198.975 88.5557 200.244C88.3958 202.656 88.4959 205.078 88.8542 207.469C88.9221 208.216 88.99 208.962 89.0579 209.705C89.0544 210.055 89.0544 210.397 89.0613 210.747C89.0748 211.561 89.0918 212.369 89.1257 213.18C89.2039 215.07 89.3023 216.957 89.4073 218.844C89.5713 221.76 89.7761 224.675 89.9809 227.589L89.9812 227.594C90.0265 228.238 90.0718 228.882 90.1166 229.526L90.2388 231.27C90.1466 232.751 90.1341 234.236 90.2014 235.719C90.2449 236.622 90.2927 237.524 90.3448 238.425C90.3569 238.449 90.3686 238.473 90.3801 238.497L90.3976 238.534L90.4153 238.573C90.4842 238.726 90.5212 238.892 90.5242 239.06C90.5271 239.228 90.4958 239.395 90.4323 239.55C90.4356 239.555 90.4398 239.559 90.4441 239.564C90.4483 239.568 90.4526 239.572 90.4559 239.577C90.518 239.642 90.5747 239.711 90.6256 239.784C90.7672 239.927 90.8904 240.086 90.9922 240.259C91.1028 240.45 91.1694 240.663 91.1879 240.882L91.1868 240.88C91.2075 241.181 91.1421 241.481 90.9982 241.745L90.9922 241.756L90.9911 241.766C90.9867 241.799 90.9812 241.832 90.9747 241.865C90.9705 241.885 90.9659 241.906 90.9609 241.926L90.9583 241.936C90.9532 241.954 90.9477 241.972 90.9419 241.99C90.9027 242.111 90.8473 242.226 90.7775 242.331C90.7294 242.404 90.6745 242.472 90.6134 242.535L90.6135 242.537C90.5665 242.585 90.5158 242.631 90.4618 242.673C90.222 242.86 89.9288 242.965 89.625 242.974C89.5567 242.975 89.4885 242.969 89.4214 242.957C89.1339 242.905 88.8528 242.822 88.5831 242.709C88.2491 242.757 87.909 242.739 87.5822 242.655C86.9309 242.471 86.3076 242.199 85.7292 241.847C84.64 241.257 83.5914 240.592 82.5632 239.903C81.457 239.163 80.361 238.407 79.292 237.612C78.9093 237.33 78.5312 237.033 78.165 236.727C75.6983 237.78 73.3645 239.12 71.2123 240.721C67.9448 242.81 64.9036 245.233 62.1382 247.952C61.8493 248.253 61.5763 248.569 61.3203 248.899C60.9964 248.871 60.6711 248.866 60.3464 248.882C59.1536 248.925 57.9701 249.11 56.8207 249.432C54.7011 250.157 52.7271 251.253 50.9907 252.669C49.7896 253.582 48.6256 254.532 47.465 255.503C46.0687 256.67 44.6836 257.852 43.297 259.035L42.8873 259.385C40.5297 259.153 38.1761 259.862 36.338 261.356C35.4035 262.169 34.5929 263.115 33.932 264.163C33.4833 264.739 33.0178 265.306 32.5538 265.872L32.5525 265.873L32.5052 265.931C32.5681 265.853 32.6308 265.775 32.6935 265.696C31.4734 267.089 30.384 268.59 29.4392 270.182C28.6803 271.586 28.2695 273.151 28.2413 274.747C27.5966 276.135 26.9722 277.529 26.3546 278.927C25.7352 280.254 25.236 281.63 24.8611 283.04C24.0473 284.286 23.2695 285.557 22.529 286.851C21.1311 289.287 19.8719 291.795 18.7562 294.365C18.5416 294.701 18.3325 295.04 18.1289 295.382C17.7576 296.051 17.4278 296.742 17.1415 297.452C16.8376 298.301 16.6379 299.184 16.5466 300.08C15.911 301.947 15.3481 303.839 14.8598 305.753C13.475 310.595 12.6172 315.567 12.298 320.582L12.1022 321.579C11.6361 324.14 11.32 326.725 11.1554 329.323C10.819 334.359 10.7895 339.411 11.0673 344.451C11.1714 346.824 11.4068 349.195 11.6415 351.559L11.6713 351.859C11.8945 355.048 12.3803 358.213 13.1237 361.323C13.5639 362.805 14.3879 364.144 15.5124 365.205C16.637 366.265 18.022 367.01 19.527 367.363C20.0926 367.493 20.6688 367.568 21.2474 367.586C21.7401 369.794 22.2427 372.003 22.795 374.198C22.8553 374.531 22.9159 374.863 22.9769 375.196C23.3082 377.016 23.721 378.83 24.14 380.639C23.5586 381.484 23.1257 382.423 22.8617 383.416C22.5505 384.587 22.4804 385.809 22.6557 387.008C23.2515 390.354 24.3144 393.598 25.8134 396.648C25.915 397.213 26.0264 397.775 26.1475 398.336C27.2313 403.065 28.6952 407.7 30.5249 412.194C31.3903 414.4 32.2726 416.562 33.2533 418.713C34.268 420.942 35.3166 423.124 36.4329 425.303C37.6817 427.739 38.9916 430.132 40.3285 432.521C42.5954 436.569 45.0998 440.485 47.604 444.394C49.4527 447.465 51.8467 450.171 54.6681 452.381C55.3913 453.359 56.2027 454.268 57.0921 455.097C58.4441 456.405 60.1128 457.339 61.9345 457.808C62.5241 457.943 63.1227 458.019 63.7218 458.037C67.3304 464.178 71.2306 470.223 77.259 473.492C77.4612 473.936 77.669 474.377 77.8824 474.816C80.2079 479.612 82.6615 484.336 85.2431 488.989C85.5994 490.113 86.0406 491.208 86.5627 492.265C86.9346 493.015 87.3243 493.744 87.7319 494.452C87.6615 495.911 87.7646 497.373 88.0389 498.808C88.6404 501.813 89.836 504.668 91.5556 507.205C93.2752 509.742 95.4842 511.911 98.0529 513.583C100.402 515.231 102.959 516.561 105.658 517.539C109.741 518.987 114.126 519.37 118.399 518.654C119.263 518.974 120.145 519.244 121.04 519.463C123.498 519.993 126.002 520.288 128.516 520.342C128.745 520.355 128.974 520.361 129.203 520.361C131.64 520.224 134.053 519.815 136.399 519.141C138.982 518.395 141.458 517.316 143.762 515.931C149.442 512.499 154.102 507.611 157.258 501.773ZM297.038 275.795C297.022 275.764 297.005 275.733 296.988 275.702C296.21 275.052 295.469 274.347 294.739 273.616C294.099 272.977 293.482 272.318 292.864 271.659C292.754 271.541 292.643 271.423 292.533 271.305C292.085 270.82 291.663 270.31 291.271 269.778C290.532 268.771 289.955 267.655 289.56 266.47C289.395 266.009 289.283 265.531 289.225 265.045C288.26 264.319 287.289 263.603 286.312 262.897C284.702 264.011 282.745 264.509 280.798 264.298C277.401 263.874 274.399 261.942 271.853 259.692L271.482 259.518C266.621 257.441 261.682 255.579 256.708 253.792C256.108 253.649 255.514 253.475 254.927 253.3C253.359 252.833 251.812 252.288 250.268 251.738L250.493 252.111C250.812 252.642 251.131 253.172 251.452 253.697C253.277 256.674 255.035 259.695 256.792 262.714L256.793 262.715L256.796 262.721C257.361 263.692 257.927 264.663 258.494 265.632C263.192 273.669 267.773 281.772 272.319 289.892L273.329 290.834C273.829 291.3 274.33 291.767 274.83 292.235C277.417 290.744 280.283 289.769 283.268 289.381C283.677 288.495 284.122 287.627 284.614 286.781C286.713 283.019 289.72 279.844 293.363 277.544C294.537 276.853 295.767 276.268 297.038 275.795ZM83.1161 340.343C82.4293 342.836 81.7798 345.34 81.1565 347.85C80.9127 346.193 80.6295 344.54 80.3463 342.887L80.3459 342.885C80.2027 342.049 80.0595 341.213 79.9213 340.376C80.9768 340.624 82.0729 340.611 83.1161 340.343Z" fill="white"/>
<path fill-rule="evenodd" clip-rule="evenodd" d="M326.785 361.07C324.122 357.043 321.197 353.195 318.027 349.552C314.117 345.1 309.889 340.938 305.376 337.098C302.148 334.603 298.752 332.334 295.211 330.306L295.215 330.306C295.132 330.258 295.049 330.211 294.966 330.163L294.905 330.128C291.146 328.128 287.264 326.369 283.282 324.862C283.119 324.804 282.957 324.747 282.795 324.69C282.633 324.634 282.471 324.577 282.308 324.519C279.727 323.668 277.097 322.971 274.433 322.431C274.26 322.395 274.086 322.36 273.912 322.326L273.714 322.296C272.476 322.101 271.245 321.94 269.994 321.834L269.884 321.824C269.855 321.823 269.826 321.822 269.797 321.821L269.69 321.818C268.543 321.782 267.409 321.79 266.261 321.842C264.55 321.997 262.849 322.24 261.164 322.571C259.89 322.867 258.619 323.182 257.348 323.496C256.665 323.665 255.983 323.834 255.3 324C254.814 324.119 254.326 324.231 253.839 324.344C252.67 324.614 251.502 324.884 250.352 325.239C250.09 325.312 249.816 325.333 249.546 325.301C249.276 325.269 249.015 325.183 248.777 325.05C248.54 324.917 248.331 324.738 248.163 324.524C247.995 324.31 247.871 324.065 247.797 323.803C247.724 323.541 247.702 323.267 247.735 322.997C247.767 322.727 247.852 322.465 247.986 322.228C248.119 321.991 248.298 321.782 248.512 321.614C248.726 321.446 248.971 321.321 249.233 321.248C249.65 321.119 250.067 320.987 250.481 320.844C252.394 320.089 254.266 319.231 256.087 318.275C258.093 317.265 260.175 316.415 262.314 315.734C264.391 315.016 266.524 314.47 268.69 314.101C271.079 313.77 273.496 313.69 275.901 313.864C280.774 314.155 285.602 314.959 290.306 316.26L290.317 316.263L318.94 331.364L318.949 331.372L318.998 331.412C319.039 331.445 319.079 331.478 319.12 331.511C319.164 331.546 319.207 331.582 319.25 331.617L319.325 331.678L319.446 331.777C319.319 331.673 319.191 331.57 319.064 331.467C322.905 334.596 326.563 337.942 330.018 341.489C331.784 343.305 333.495 345.175 335.15 347.096C335.311 346.245 335.393 345.373 335.474 344.518L335.499 344.246C335.594 343.275 335.679 342.308 335.761 341.338C335.934 339.322 336.035 337.296 336.083 335.277C336.128 333.351 336.154 331.422 336.161 329.491C336.163 328.522 336.112 327.554 336.008 326.59C335.957 325.923 335.844 325.263 335.672 324.618C335.754 323.466 335.825 322.312 335.89 321.158C336.163 316.845 336.161 312.518 335.883 308.205C335.721 305.871 335.497 303.543 335.127 301.232C334.73 298.765 334.251 296.322 333.736 293.878C333.315 291.886 332.857 289.891 332.317 287.93C332.276 287.78 332.235 287.629 332.194 287.479C331.965 286.634 331.736 285.79 331.465 284.957C331.385 284.709 331.305 284.457 331.225 284.204L331.225 284.203C330.934 283.281 330.635 282.334 330.247 281.438C329.769 279.824 329.209 278.236 328.567 276.681C327.691 274.719 326.712 272.805 325.635 270.946C324.407 268.879 322.99 266.929 321.404 265.123C320.559 264.111 319.655 263.15 318.696 262.245C317.611 261.118 316.382 260.139 315.041 259.333C313.868 258.698 312.551 258.373 311.217 258.389C309.882 258.405 308.574 258.762 307.416 259.425C307.119 259.599 306.834 259.792 306.564 260.003C304.661 258.756 302.766 257.501 300.886 256.224C300.873 256.068 300.853 255.912 300.829 255.756C300.349 253.174 298.954 250.852 296.899 249.217C296.055 248.475 295.179 247.775 294.269 247.116C292.712 245.983 291.083 244.934 289.423 243.954C287.526 242.83 285.609 241.744 283.672 240.696C281.728 239.477 279.564 238.654 277.302 238.273C275.811 238.086 274.296 238.277 272.898 238.829C272.559 238.971 272.232 239.139 271.92 239.332C271.774 239.315 271.625 239.305 271.476 239.294C269.867 239.141 268.244 239.265 266.677 239.661C265.319 240.051 264.061 240.729 262.989 241.649C261.945 242.537 261.087 243.622 260.464 244.842C259.84 246.062 259.465 247.393 259.358 248.759C259.316 249.283 259.278 249.808 259.24 250.333L259.24 250.335C259.159 251.449 259.078 252.561 258.967 253.672C258.893 254.402 258.811 255.128 258.723 255.858L258.694 255.903C258.669 255.944 258.642 255.986 258.618 256.027C258.139 256.818 257.707 257.636 257.325 258.477C257.132 258.69 256.942 258.903 256.752 259.116L256.741 259.129C255.883 260.099 255.024 261.107 254.247 262.142L254.061 262.39L254.06 262.392C252.89 263.948 251.718 265.506 250.623 267.117C249.16 269.272 247.718 271.437 246.327 273.639C246.23 273.792 246.132 273.946 246.034 274.1C245.094 275.581 244.136 277.091 243.334 278.665C243.179 278.93 243.024 279.195 242.868 279.461L242.867 279.463C242.712 279.726 242.558 279.99 242.404 280.253C241.736 281.404 241.141 282.597 240.623 283.823C240.15 284.941 239.861 286.128 239.788 287.311C239.626 287.556 239.465 287.802 239.303 288.048C238.603 289.082 237.905 290.117 237.207 291.153C235.41 293.815 233.614 296.479 231.784 299.118C230.57 300.867 229.35 302.61 228.125 304.347C227.169 305.706 226.162 307.018 225.153 308.334C224.912 308.648 224.671 308.963 224.43 309.278C223.943 309.939 223.643 310.719 223.564 311.536C223.537 311.816 223.536 312.097 223.56 312.375L218.023 316.178L217.736 316.375L217.732 316.378C216.916 316.936 216.098 317.495 215.288 318.065C215.162 318.154 215.034 318.242 214.906 318.33C214.554 318.573 214.198 318.818 213.87 319.086C213.334 319.501 212.821 319.944 212.333 320.413C211.843 320.951 211.412 321.539 211.046 322.168C210.602 322.948 210.312 323.804 210.189 324.69C208.009 326.695 206.26 329.163 207.531 332.193C207.773 332.764 208.105 333.288 208.511 333.748C208.61 334.418 208.833 335.068 209.177 335.663C210.706 338.284 213.834 338.93 216.653 339.513L216.654 339.513C217.08 339.601 217.499 339.688 217.904 339.779C217.986 339.796 218.067 339.813 218.149 339.834C218.325 340.397 218.608 340.92 218.984 341.374C219.101 343.164 219.775 344.873 220.911 346.261C221.556 347.045 222.366 347.679 223.282 348.117C224.198 348.556 225.199 348.788 226.215 348.799C226.754 348.799 227.29 348.732 227.813 348.602C228.754 348.334 229.632 347.88 230.394 347.267C231.157 346.654 231.788 345.894 232.252 345.032C232.53 344.547 232.768 344.039 232.964 343.515C233.321 343.464 233.677 343.42 234.03 343.383C234.192 343.403 234.354 343.406 234.514 343.394C234.485 343.423 234.455 343.451 234.425 343.48C233.752 344.137 233.18 344.891 232.729 345.716C232.295 346.445 232.02 347.257 231.921 348.099C231.872 348.775 232.069 350.164 232.927 350.255C233.052 350.294 233.185 350.293 233.309 350.252C233.434 350.212 233.542 350.135 233.621 350.031C233.74 349.92 233.843 349.792 233.926 349.653C234.156 349.297 234.395 348.948 234.64 348.602C234.89 348.29 235.151 348 235.426 347.713C235.74 347.415 236.06 347.129 236.395 346.856C236.844 346.534 237.306 346.234 237.776 345.938C238.714 345.41 239.671 344.937 240.653 344.495C242.394 343.799 244.162 343.215 245.963 342.694C247.411 342.314 248.86 341.997 250.336 341.739C252.357 341.471 254.392 341.318 256.43 341.281C258.975 341.283 261.504 341.366 264.039 341.593C266.248 341.857 268.441 342.231 270.612 342.715C273.545 343.474 276.431 344.402 279.256 345.494C283.431 347.168 287.509 349.074 291.471 351.204C292.748 351.922 294.02 352.66 295.246 353.464C296.64 354.377 297.985 355.356 299.321 356.349C302.594 358.807 305.712 361.463 308.66 364.302C311.757 367.387 314.664 370.655 317.368 374.089C318.745 375.923 320.02 377.831 321.187 379.805C322.057 381.362 322.844 382.964 323.544 384.604C324.646 387.271 325.594 390 326.383 392.776C326.458 393.049 326.531 393.322 326.601 393.594C326.699 394.163 326.914 394.705 327.231 395.187C327.548 395.669 327.96 396.081 328.443 396.397C329.074 396.781 329.796 396.991 330.534 397.005C330.785 397.005 331.035 396.978 331.28 396.926C332.253 396.704 333.105 396.121 333.663 395.294C333.971 394.83 334.18 394.307 334.277 393.758C334.374 393.209 334.357 392.646 334.226 392.104C333.978 390.845 333.676 389.593 333.371 388.344C332.887 386.202 332.277 384.09 331.545 382.019C330.909 380.368 330.175 378.757 329.348 377.194C329.714 377.062 330.065 376.888 330.392 376.674C331.437 376.299 332.309 375.554 332.842 374.58C333.064 374.176 333.222 373.739 333.31 373.286C331.646 369.569 329.76 365.956 327.663 362.466L327.667 362.465C327.519 362.221 327.369 361.978 327.219 361.735L327.182 361.675C327.137 361.606 327.092 361.537 327.047 361.468C326.96 361.335 326.872 361.203 326.785 361.07ZM308.309 323.994C311.993 326.162 315.514 328.599 318.844 331.287C318.831 331.276 318.818 331.265 318.805 331.255L318.86 331.299L318.82 331.265L318.863 331.3L318.879 331.314C318.894 331.325 318.907 331.336 318.921 331.349L318.905 331.337C318.912 331.342 318.918 331.347 318.924 331.352L318.93 331.357L308.309 323.994ZM303.534 348.77L303.294 348.673C303.359 348.718 303.424 348.764 303.488 348.81C303.498 348.802 303.507 348.793 303.517 348.785L303.534 348.77ZM243.515 336.382C244.126 336.66 244.761 336.876 245.411 337.028C243.835 337.617 242.294 338.296 240.795 339.062C239.36 339.74 238 340.56 236.734 341.508C236.754 341.423 236.771 341.336 236.782 341.249C236.827 340.722 236.708 340.195 236.442 339.738C236.176 339.281 235.776 338.918 235.296 338.697C235.462 338.398 235.625 338.096 235.778 337.791C236.311 337.732 236.841 337.629 237.372 337.526C237.459 337.509 237.546 337.492 237.634 337.475L237.972 337.41L237.977 337.409C238.686 337.271 239.394 337.134 240.104 337C241.238 336.783 242.374 336.572 243.515 336.382Z" fill="#84C500"/>
<path d="M6.84557 328.892C6.30248 333.856 6.10974 338.852 6.26879 343.843C6.39029 346.88 6.69228 349.906 7.17309 352.907C15.2758 348.487 24.1976 345.772 33.389 344.929C41.2285 344.38 49.1061 344.993 56.7663 346.748C60.6031 347.461 64.3347 348.655 67.8729 350.301C69.2062 350.941 70.4704 351.717 71.6457 352.615C71.8466 351.862 72.0376 351.107 72.2267 350.352C72.5439 349.132 72.7987 347.896 72.9902 346.65L72.9971 346.636C74.3861 342.641 75.6744 338.614 76.8622 334.555C76.8938 334.445 76.9262 334.335 76.9587 334.224C76.9992 334.087 77.0398 333.948 77.0793 333.809C78.4231 329.825 79.6006 325.787 80.7544 321.739C80.9355 321.101 81.118 320.463 81.3008 319.824C82.3812 316.047 83.4674 312.25 84.3005 308.416C84.6434 307.092 84.6736 305.706 84.3887 304.368C84.1463 303.346 83.7034 302.383 83.0857 301.534C82.6303 300.912 82.0887 300.358 81.4772 299.888C81.2271 299.534 80.9514 299.198 80.6525 298.884C80.1432 298.355 79.5672 297.896 78.9388 297.516C78.8958 295.308 78.0191 293.197 76.4846 291.608C74.9502 290.019 72.8715 289.068 70.6656 288.948C70.6847 288.892 70.704 288.837 70.7235 288.781L70.7627 288.669C70.8064 288.544 70.8502 288.419 70.8929 288.293C70.9576 288.104 71.0242 287.915 71.0908 287.727C71.2199 287.361 71.3489 286.996 71.4631 286.627C71.7674 285.749 71.9956 284.846 72.1451 283.929C72.2231 283.271 72.274 282.612 72.3249 281.951C72.3648 280.611 72.089 279.28 71.5195 278.066C70.9501 276.852 70.1031 275.79 69.047 274.964C68.1282 274.237 67.0721 273.704 65.942 273.396C65.2889 271.713 64.0968 270.295 62.552 269.361C61.5444 268.768 60.4222 268.395 59.2598 268.268C58.0973 268.141 56.9211 268.263 55.8092 268.625C55.7386 267.729 55.5492 266.847 55.246 266.002C55.0904 265.525 54.8725 265.071 54.5978 264.651C55.0391 264.175 55.2976 263.559 55.3274 262.91C55.3036 261.159 53.3694 260.898 52.0222 261.095C51.3616 261.195 50.711 261.353 50.0778 261.566C48.4179 261.194 46.6792 261.44 45.1879 262.259C44.0727 262.882 43.0739 263.694 42.2356 264.658C41.7248 265.267 41.2554 265.91 40.8307 266.582C40.7798 266.66 40.7323 266.735 40.6848 266.813C39.7482 267.481 38.832 268.174 37.9293 268.872C34.237 271.689 30.849 274.884 27.8203 278.405C24.7378 282.04 21.9391 285.906 19.4487 289.969C18.2712 291.883 17.1854 293.862 16.1605 295.86C14.9992 297.965 13.9559 300.132 13.0353 302.352C11.4692 306.626 10.1848 310.998 9.19042 315.44C8.1031 319.866 7.31965 324.36 6.84557 328.892Z" fill="#84C500"/>
<path d="M14.6635 387.187C14.7224 387.18 14.7813 387.172 14.8403 387.165C15.2344 387.257 15.6377 387.304 16.0423 387.304C16.6899 387.303 17.3315 387.181 17.934 386.943C18.0883 386.884 18.2431 386.825 18.3979 386.766C18.849 386.594 19.3006 386.422 19.7426 386.227L20.4475 385.92L20.4536 385.918L20.4613 385.914L20.4691 385.911L20.4897 385.902L20.4935 385.9L20.4969 385.899C21.5955 385.419 22.6944 384.94 23.8046 384.49C26.5141 383.383 29.2652 382.393 32.0581 381.52C34.6877 380.747 37.3579 380.121 40.0565 379.642C43.0833 379.15 46.1347 378.822 49.1971 378.661C50.8072 378.611 52.4202 378.624 54.0332 378.636C55.5534 378.646 57.0771 378.657 58.6007 378.619C59.356 378.6 60.1114 378.588 60.8667 378.575L60.8768 378.575C61.7197 378.561 62.5627 378.548 63.4056 378.524C63.4501 378.523 63.4951 378.522 63.5406 378.521L63.6059 378.52C63.6719 378.518 63.7389 378.517 63.8065 378.516L63.8098 378.516C64.7708 378.502 65.8784 378.486 66.6022 377.839C66.9409 377.489 67.1403 377.027 67.1628 376.54C67.1684 376.419 67.1629 376.298 67.1469 376.18C67.3643 376.017 67.5728 375.842 67.7712 375.656C68.7165 374.782 69.3952 373.658 69.7292 372.415C70.1435 370.953 70.1599 369.406 69.7769 367.936C69.438 366.716 68.8891 365.564 68.1548 364.532C68.3754 364.047 68.5721 363.558 68.7554 363.07C68.915 362.641 69.0624 362.21 69.2007 361.777C68.5758 361.587 67.959 361.37 67.3417 361.152L67.3401 361.151L67.339 361.151L67.338 361.15C66.7245 360.934 66.1105 360.717 65.4875 360.528C64.2964 360.239 63.0985 360.012 61.8871 359.819C60.1887 359.608 58.4822 359.465 56.7754 359.322L56.7644 359.321L56.7582 359.321L56.7562 359.32C55.9699 359.255 55.1835 359.189 54.3978 359.116C51.6763 358.862 48.9548 358.699 46.2163 358.645C43.1351 358.661 40.0742 358.845 37.0066 359.167C34.322 359.517 31.6579 360.009 29.0253 360.64C26.7207 361.259 24.4516 362.003 22.2283 362.869C22.1481 362.903 22.0681 362.935 21.988 362.968L21.9855 362.969C21.936 362.989 21.8864 363.009 21.8369 363.029C21.8045 363.043 21.772 363.056 21.7396 363.07C18.3248 364.576 15.0033 366.285 11.793 368.189C12.1305 368.717 12.5182 369.212 12.9507 369.666C13.1406 369.869 13.3435 370.06 13.5581 370.236C12.9348 371.775 12.9287 373.495 13.541 375.038C14.0968 376.32 15.0167 377.41 16.1848 378.173C15.889 378.346 15.5953 378.523 15.3039 378.704C14.6391 379.096 14.0081 379.542 13.4172 380.038C12.7766 380.622 12.3011 381.364 12.0385 382.19C11.8329 382.436 11.6483 382.699 11.4864 382.976C11.24 383.399 11.1051 383.878 11.0944 384.367C11.0837 384.856 11.1976 385.34 11.4253 385.773C11.6613 386.215 12.0114 386.587 12.4392 386.849C12.8669 387.111 13.3568 387.253 13.8584 387.262C14.132 387.255 14.3978 387.221 14.6635 387.187Z" fill="#84C500"/>
<path d="M20.875 363.423C21.082 363.342 21.2889 363.257 21.4926 363.172C21.3733 363.222 21.253 363.27 21.1322 363.319C21.0466 363.353 20.9608 363.388 20.875 363.423Z" fill="#84C500"/>
<path d="M22.7701 362.646L22.7134 362.671C22.6906 362.68 22.6677 362.69 22.6445 362.699L22.6993 362.676L22.7345 362.661C22.7876 362.638 22.8416 362.615 22.8956 362.594C22.8532 362.611 22.8116 362.629 22.7701 362.646Z" fill="#84C500"/>
<path d="M138.801 43.929C139.388 44.1962 139.877 44.6395 140.201 45.1974C140.525 45.7553 140.667 46.4001 140.608 47.0425C140.548 47.6848 140.291 48.2928 139.87 48.782C139.45 49.2711 138.887 49.6173 138.261 49.7725C136.306 50.0576 134.338 50.2445 132.364 50.3324C131.684 50.3949 131.004 50.4549 130.323 50.5149L130.318 50.5154C129.228 50.6115 128.137 50.7078 127.049 50.8142C126.378 50.8799 125.706 50.9433 125.034 51.0067L125.029 51.0071L125.016 51.0084C121.944 51.2981 118.868 51.5882 115.824 52.097C113.035 52.5842 110.275 53.2209 107.554 54.0041C106.302 54.4248 105.077 54.9033 103.869 55.4361C103.143 55.7924 102.437 56.1724 101.745 56.5898C101.188 56.9665 100.649 57.3601 100.119 57.7741C99.8648 58.0049 99.6137 58.239 99.3694 58.4833C99.1216 58.7752 98.884 59.0772 98.6499 59.3826C97.7813 60.6653 97.0042 62.0227 96.2644 63.38C95.882 64.1634 95.4407 64.9166 94.9443 65.6333C94.5373 66.1818 94.0086 66.6284 93.3998 66.9381C92.791 67.2478 92.1187 67.4121 91.4357 67.4182H91.361C88.8295 67.4182 87.3195 64.8765 86.9054 62.681C86.7044 61.667 86.5807 60.6393 86.5355 59.6066C86.5263 58.3889 86.6874 57.1758 87.014 56.0027C87.7295 53.5058 89.0758 51.2351 90.9232 49.4093C92.35 47.9994 93.947 46.7728 95.6773 45.758C97.2972 44.8012 99.0267 44.0435 100.828 43.5014C102.93 42.8021 105.093 42.3044 107.289 42.0151C111.121 41.5899 114.978 41.4493 118.83 41.5943C122.068 41.669 125.302 41.7945 128.532 42.0388C132.032 42.1374 135.495 42.7749 138.801 43.929Z" fill="black"/>
<path d="M292.513 476.083C292.522 475.993 292.533 475.905 292.545 475.814L292.526 475.969L292.513 476.083Z" fill="black"/>
<path d="M188.232 325.054C188.275 325.111 188.317 325.168 188.357 325.228L188.346 325.213C188.314 325.169 188.281 325.126 188.249 325.083C188.227 325.054 188.205 325.025 188.184 324.997L188.232 325.054Z" fill="black"/>
<path d="M262.526 390.138L262.517 390.121C262.511 390.111 262.506 390.1 262.5 390.09C262.51 390.11 262.52 390.128 262.53 390.146L262.539 390.163L262.526 390.138Z" fill="black"/>
<path fill-rule="evenodd" clip-rule="evenodd" d="M188.67 18.8707L188.777 18.9527C190.267 20.0861 191.689 21.3553 193.067 22.621C196.233 25.5292 199.3 28.529 202.219 31.6882C205.042 34.7457 207.628 38.0271 210.132 41.3459C212.555 44.5629 214.89 47.8477 217.18 51.1597C219.494 54.4988 221.795 57.8583 223.926 61.3196C226.305 65.1779 228.592 69.0736 230.781 73.0404C234.725 80.2743 238.237 87.7359 241.297 95.3861C243.904 101.796 246.269 108.305 248.633 114.81L248.662 114.891C249.018 115.869 249.373 116.848 249.73 117.827L250.052 118.712L250.053 118.714C251.297 122.127 252.54 125.541 253.686 128.988C255.017 132.995 256.273 137.024 257.457 141.075C259.75 148.81 261.637 156.659 263.11 164.591C266.064 180.873 267.886 197.34 268.563 213.874C268.764 218.039 268.789 222.209 268.639 226.373C274.215 228.296 279.752 230.326 285.2 232.596C289.543 234.408 293.812 236.444 298.044 238.504C302.194 240.523 306.28 242.651 310.213 245.07C314.378 247.615 318.229 250.641 321.686 254.087C325.158 257.487 328.378 261.135 331.32 265.003C334.221 269.027 336.787 273.282 338.992 277.725C341.142 281.975 342.882 286.42 344.188 291C345.459 295.475 346.412 300.033 347.042 304.642C347.757 309.606 348.192 314.591 348.436 319.603C348.794 328.946 348.417 338.302 347.31 347.586C346.196 356.851 344.571 366.048 342.44 375.133C340.462 383.803 338.035 392.364 335.168 400.781C329.464 417.765 323.203 434.603 315.961 450.997C315.171 452.786 314.396 454.581 313.62 456.377L313.618 456.382C312.759 458.371 311.899 460.36 311.02 462.341C309.375 466.053 307.685 469.745 305.988 473.434C304.278 477.156 302.639 480.93 301.166 484.754C300.797 485.712 300.439 486.675 300.081 487.637L300.08 487.639C299.176 490.067 298.273 492.494 297.199 494.853C296.98 495.331 296.737 495.796 296.47 496.248C296.229 497.155 295.955 498.054 295.647 498.943C294.957 501.059 294.047 503.099 292.933 505.027C292.322 506.084 291.646 507.102 290.907 508.074C290.055 509.126 289.19 510.144 288.27 511.138C287.485 511.965 286.647 512.738 285.759 513.453C284.76 514.302 283.709 515.09 282.613 515.811C280.571 517.147 278.424 518.316 276.193 519.306C272.02 521.067 267.696 522.447 263.274 523.429C258.873 524.474 254.367 525.011 249.843 525.028C249.568 525.028 249.29 525.024 249.012 525.021C244.164 524.923 239.333 524.409 234.573 523.484C225.443 521.647 216.654 518.401 208.522 513.863C204.363 511.533 200.374 508.914 196.584 506.025C192.942 503.303 189.48 500.349 186.22 497.181C182.632 493.699 179.249 490.013 176.087 486.139C175.237 485.081 174.407 484.007 173.595 482.919L173.555 483.045C173.536 483.103 173.517 483.162 173.498 483.22C172.199 487.153 170.507 490.946 168.449 494.541C167.387 496.404 166.236 498.223 165.069 500.018C163.898 501.816 162.711 503.608 161.387 505.298C158.68 508.682 155.665 511.809 152.381 514.637C149.034 517.634 145.409 520.306 141.556 522.618C139.418 523.918 137.16 525.01 134.813 525.879C132.695 526.645 130.502 527.19 128.271 527.504C126.437 527.762 124.589 527.898 122.737 527.911C122.07 527.911 121.402 527.89 120.734 527.844C118.486 527.678 116.258 527.302 114.08 526.721C109.86 525.46 105.797 523.721 101.972 521.539C100.014 520.523 98.1224 519.383 96.3083 518.128C94.4388 516.794 92.6736 515.319 91.0281 513.717C87.8073 510.597 84.7535 507.308 81.8795 503.866C79.0171 500.424 76.4087 496.779 74.0747 492.96C73.607 492.197 73.1553 491.424 72.72 490.643C71.9194 489.688 71.1298 488.724 70.3456 487.755C69.2461 486.395 68.164 485.022 67.0822 483.648L67.0807 483.646C65.976 482.244 64.8715 480.841 63.7488 479.455C59.3203 473.981 54.919 468.474 50.7247 462.817C46.3943 456.981 42.3357 450.937 38.2853 444.905L38.2844 444.904L38.2201 444.808C34.2203 438.836 30.5236 432.667 27.1439 426.324C23.479 419.463 19.9023 412.56 16.5395 405.546C13.2416 398.754 10.4492 391.727 8.18493 384.524C5.94047 377.144 4.10075 369.647 2.67394 362.066C1.96142 358.371 1.37096 354.657 0.902578 350.926C0.400378 346.986 0.162833 343.019 0.0237935 339.052C-0.0611942 335.138 0.081537 331.222 0.451284 327.324C0.77895 323.631 1.29772 319.956 2.00548 316.316C2.67104 312.384 3.61569 308.505 4.83227 304.707C7.0593 297.419 10.3637 290.505 14.6357 284.194C15.6504 282.66 16.6786 281.15 17.8086 279.694C18.9353 278.242 20.1263 276.827 21.3513 275.456C26.4443 269.924 32.0467 264.884 38.0843 260.403C39.558 259.273 41.1138 258.235 42.6603 257.203L42.8284 257.091C44.301 256.107 45.8009 255.153 47.3144 254.234C47.5023 254.12 47.6904 254.007 47.8787 253.894C47.6006 253.048 47.3266 252.2 47.0543 251.351C46.1721 248.592 45.3611 245.813 44.5806 243.023C43.8273 240.332 43.0841 237.635 42.4292 234.917C41.0447 229.144 39.7111 223.355 38.6591 217.512C37.5935 211.597 36.6095 205.672 35.89 199.703C35.4795 196.276 35.1006 192.846 34.7533 189.414C34.3901 187.097 34.0542 184.772 33.776 182.437C33.0882 176.718 32.781 170.971 32.4737 165.223L32.4733 165.215C32.4002 163.848 32.3271 162.48 32.2489 161.113C32.0757 158.072 31.8401 155.034 31.6045 151.995C31.2771 147.772 30.9496 143.549 30.7897 139.317C30.4786 132.173 30.5307 125.017 30.9458 117.878C31.0785 115.779 31.2354 113.682 31.3923 111.586C31.5043 110.09 31.6163 108.593 31.7195 107.097C31.8097 105.803 31.8938 104.508 31.9778 103.214C32.1278 100.905 32.2778 98.5962 32.4626 96.2887C32.9689 89.1121 33.8364 81.9656 35.062 74.8763C36.4349 67.2174 38.6496 59.7337 41.6656 52.5611C43.1094 49.2307 44.7409 45.9848 46.5521 42.839C48.2652 39.7673 50.148 36.7935 52.192 33.9313C53.1455 32.6112 54.133 31.3195 55.1544 30.056C55.2886 29.8629 55.4372 29.6803 55.599 29.5097C59.1507 25.1615 63.1599 21.2081 67.5574 17.7175C70.3506 15.4795 73.4001 13.5817 76.6416 12.0641C80.0912 10.5142 83.6822 9.30055 87.3647 8.43993C91.4298 7.46245 95.6233 7.13036 99.7915 7.45584C101.921 7.61513 104.032 7.96979 106.096 8.51531C106.242 8.43842 106.387 8.36192 106.533 8.28581C108.148 7.45781 109.801 6.70111 111.453 5.95455C113.14 5.19104 114.83 4.4411 116.56 3.78955C120.212 2.47353 123.983 1.5177 127.82 0.935685C131.978 0.250884 136.189 -0.0591602 140.402 0.00928617C142.486 0.0278559 144.567 0.156986 146.636 0.396135C148.593 0.636034 150.519 1.0408 152.448 1.44626L152.473 1.45149C155.923 2.18131 159.294 3.1783 162.671 4.17715C162.984 4.26971 163.297 4.36229 163.61 4.45467C165.378 4.95122 167.118 5.54252 168.822 6.22602C170.437 6.89482 172.008 7.65774 173.581 8.42128L173.77 8.51315C177.276 10.2366 180.619 12.2742 183.757 14.6009C185.487 15.918 187.127 17.3445 188.67 18.8707ZM50.3006 260.799C47.3562 263.017 44.5075 265.36 41.7622 267.822C37.5639 271.762 33.5762 275.92 29.8157 280.28C28.8236 281.518 27.8386 282.757 26.8894 284.028C25.9701 285.261 25.1084 286.523 24.2672 287.809C22.5104 290.763 20.8596 293.768 19.3622 296.859C18.8887 297.943 18.4192 299.025 17.9715 300.119C17.5642 301.129 17.203 302.151 16.8412 303.175L16.7432 303.453C16.244 305.024 15.7576 306.598 15.2839 308.175C14.823 309.717 14.4845 311.296 14.1469 312.871L14.1465 312.873C14.0911 313.131 14.0357 313.39 13.9798 313.648C13.5464 316.038 13.1466 318.43 12.8407 320.84C12.5223 323.37 12.2993 325.907 12.1069 328.447L12.0791 329.004C11.9889 330.798 11.8984 332.599 11.938 334.393C11.9471 334.774 11.9512 335.155 11.9554 335.538C11.9637 336.3 11.972 337.064 12.0195 337.824C12.0864 338.912 12.1541 340 12.2226 341.088C12.3672 342.745 12.5173 344.402 12.7049 346.053C12.8983 347.749 13.145 349.432 13.3923 351.121L13.4447 351.479C13.9332 354.803 14.6173 358.101 15.3014 361.388C16.1608 365.292 17.0995 369.175 18.1174 373.037C19.0731 376.695 20.2375 380.291 21.4536 383.869C22.3108 386.228 23.1785 388.588 24.1645 390.897C25.3555 393.679 26.5738 396.448 27.8497 399.194C30.3062 404.476 32.9661 409.667 35.6396 414.841C35.5077 414.588 35.3759 414.334 35.244 414.084C35.6015 414.768 35.9577 415.453 36.3124 416.138C37.9545 419.293 39.6287 422.432 41.3352 425.554C43.0557 428.693 44.9119 431.76 46.7884 434.807C50.511 440.851 54.3082 446.851 58.1802 452.806C59.0436 454.138 59.9089 455.469 60.7788 456.798L60.7555 456.694C59.7917 452.391 58.9977 448.044 58.3563 443.684C58.3253 443.472 58.2941 443.26 58.2629 443.049L58.2141 442.719C57.9463 440.907 57.6779 439.092 57.4877 437.274C57.2297 434.803 57.016 432.333 56.8293 429.855C56.5035 425.522 56.551 421.158 56.6053 416.818C56.6665 412.308 57.0262 407.795 57.4944 403.312C57.9559 398.897 58.7635 394.53 59.6051 390.176C60.3924 386.111 61.3459 382.083 62.3844 378.075C64.5188 369.84 66.7471 361.628 69.0693 353.439C70.3104 349.059 71.6664 344.713 73.0225 340.367L73.0229 340.366C74.2067 336.572 75.3905 332.779 76.4975 328.962L77.3263 326.103C78.8375 320.891 80.3489 315.678 81.7947 310.448C81.8165 310.369 81.8384 310.29 81.8602 310.211C79.8811 308.734 78.0764 307.035 76.4821 305.147C74.5754 303.038 72.7866 300.825 71.1239 298.519C67.5981 293.728 64.3982 288.685 61.3169 283.598C59.834 281.148 58.4597 278.63 57.1261 276.096C55.806 273.585 54.547 271.022 53.4204 268.42C52.3293 265.897 51.2764 263.367 50.3006 260.799ZM86.3994 238.327C86.3984 238.177 86.3973 238.027 86.3961 237.876C86.3589 233.723 86.2502 229.569 86.1145 225.419C86.0888 224.617 86.0616 223.815 86.0344 223.013C85.9214 219.679 85.8084 216.346 85.8056 213.009C85.7591 208.822 85.9813 204.636 86.4708 200.478C86.9122 195.992 88.6902 191.742 91.5746 188.278C92.5456 187.246 93.7351 186.443 95.0561 185.93C95.9836 185.609 96.9623 185.472 97.9383 185.522C97.9047 184.615 97.9386 183.706 98.0404 182.802C98.272 181.232 98.964 179.765 100.029 178.588C100.63 177.954 101.353 177.447 102.154 177.098C102.955 176.749 103.818 176.564 104.691 176.555C107.81 176.535 110.65 178.167 112.968 180.145C114.277 181.242 115.508 182.428 116.653 183.695C116.999 184.085 117.341 184.478 117.679 184.873C117.862 183.452 118.306 182.077 118.988 180.817C119.691 179.548 120.699 178.474 121.92 177.692C123.47 176.788 125.287 176.455 127.057 176.748C128.966 177.05 130.778 177.792 132.351 178.913C133.326 179.554 134.248 180.272 135.11 181.058C136.427 182.28 137.655 183.555 138.86 184.889C143.227 189.718 146.495 195.453 149.491 201.198C150.664 203.445 151.791 205.715 152.872 208.007C153.223 207.815 153.608 207.691 154.005 207.642C154.83 207.543 155.666 207.595 156.472 207.798C157.382 208.062 158.248 208.461 159.04 208.982C160.517 209.942 161.869 211.082 163.065 212.376C165.355 214.834 167.313 217.583 168.888 220.55C170.362 223.233 171.592 226.042 172.564 228.943C173.011 228.362 173.554 227.854 174.175 227.442C174.351 224.928 174.84 222.445 175.63 220.052C176.096 218.602 176.946 217.306 178.089 216.301C179.233 215.296 180.628 214.62 182.125 214.344C182.734 214.256 183.352 214.247 183.963 214.318C183.969 214.206 183.975 214.093 183.981 213.981C184.151 210.941 184.541 207.7 186.615 205.318C187.504 204.283 188.698 203.556 190.025 203.241C191.353 202.926 192.746 203.038 194.005 203.563C195.327 204.125 196.444 205.078 197.205 206.295C197.67 207.087 198.001 207.95 198.186 208.85C198.649 208.874 199.109 208.941 199.56 209.051C199.43 207.735 199.291 206.419 199.142 205.105C198.955 204.894 198.77 204.681 198.59 204.465C197.85 203.53 197.211 202.52 196.682 201.451C196.505 201.27 196.367 201.052 196.279 200.813C196.191 200.575 196.155 200.32 196.172 200.066C196.19 199.812 196.261 199.565 196.381 199.34C196.501 199.116 196.667 198.919 196.868 198.764C197.069 198.608 197.301 198.497 197.548 198.437C197.796 198.377 198.053 198.371 198.303 198.417C198.323 198.421 198.343 198.425 198.362 198.43C198.331 198.164 198.299 197.898 198.267 197.632C197.802 194.924 197.605 192.176 197.68 189.43C197.881 187.782 198.618 186.246 199.779 185.059C200.939 183.873 202.458 183.101 204.101 182.863C205.101 182.724 206.12 182.789 207.094 183.055C207.119 181.99 207.191 180.924 207.291 179.864C207.464 177.7 207.983 175.578 208.828 173.579C209.193 172.735 209.7 171.96 210.328 171.289C211.125 170.434 212.137 169.809 213.258 169.478C212.994 167.138 212.712 164.802 212.43 162.466C212.263 161.083 212.096 159.701 211.933 158.319C211.743 156.723 211.576 155.125 211.41 153.527C211.365 153.096 211.32 152.665 211.275 152.234C211.197 151.515 211.149 150.793 211.1 150.07C211.079 149.75 211.058 149.429 211.034 149.109L211.011 148.814L211.01 148.804C210.953 148.071 210.896 147.335 210.857 146.601C210.832 145.781 210.862 144.961 210.945 144.145C211.007 143.566 211.142 142.997 211.346 142.452C210.809 139.091 210.286 135.728 209.778 132.363C209.242 128.755 208.74 125.145 208.271 121.531C208.126 120.415 208.028 119.292 207.93 118.17L207.93 118.167L207.929 118.164C207.885 117.66 207.841 117.157 207.793 116.655C207.628 115.026 207.547 113.391 207.552 111.754C207.535 110.625 207.63 109.496 207.833 108.385C207.855 108.251 207.88 108.119 207.908 107.987C206.935 106.566 205.959 105.148 204.981 103.73L204.457 102.971C200.274 96.9078 196.087 90.838 191.631 84.9715C189.385 82.0125 187.108 79.084 184.773 76.1894C182.387 73.3728 179.956 70.5982 177.48 67.8654C175.102 65.2389 172.502 62.799 169.903 60.3829C167.86 58.6149 165.807 56.8639 163.679 55.1943C161.592 53.5485 159.468 51.9604 157.32 50.3994L156.607 49.8964C154.303 48.2707 151.998 46.6435 149.617 45.1363C148.083 44.1657 146.546 43.202 144.985 42.2723C143.797 41.5596 142.583 40.9047 141.361 40.2498C139.644 39.4489 137.927 38.6888 136.179 37.966C134 37.1753 131.815 36.4525 129.592 35.8044C127.512 35.1936 125.412 34.6778 123.304 34.1789L122.858 34.0916C121.704 33.8655 120.551 33.6395 119.385 33.4562C118.075 33.2525 116.769 33.0863 115.452 32.9336C114.003 32.8284 112.561 32.7469 111.112 32.696C109.849 32.6517 108.58 32.6871 107.317 32.7223L107.043 32.73C104.712 32.8895 102.421 33.1677 100.114 33.5274C98.4917 33.826 96.8833 34.1518 95.2816 34.542C94.3336 34.7737 93.3963 35.0347 92.4629 35.3083C91.3309 35.8424 90.2188 36.4182 89.1289 37.0346C87.5346 37.9563 85.9936 38.9674 84.5133 40.0629C83.3463 40.9994 82.2297 41.997 81.1683 43.0517C80.5479 43.7093 79.961 44.3978 79.41 45.1145C78.9833 45.8611 78.4083 46.5126 77.7206 47.0289C77.4645 47.1685 77.1817 47.2519 76.8909 47.2736C76.6 47.2952 76.3079 47.2546 76.034 47.1545C75.6689 47.0027 75.3391 46.7771 75.0653 46.4919C74.7784 46.2268 74.5371 45.9163 74.3509 45.5729C74.1629 45.2691 73.9636 44.9671 73.7571 44.6772C73.6272 44.4949 73.501 44.3104 73.3749 44.126L73.3742 44.125C73.1703 43.8269 72.9664 43.5287 72.7473 43.2405C72.4547 42.8763 72.1565 42.5252 71.8339 42.1901C71.6429 42.0174 71.4468 41.8525 71.2455 41.6916C71.0709 41.5657 70.8956 41.4425 70.7171 41.3241C70.1067 41.5503 69.4997 41.7817 68.9044 42.0449C67.7009 42.6369 66.5566 43.3381 65.4147 44.0378L65.2668 44.1284C64.1978 44.8275 63.173 45.5638 62.1686 46.3545C61.663 46.7922 61.1606 47.23 60.6822 47.6983C60.1122 48.2514 59.5726 48.8249 59.0331 49.4086C58.2288 50.3723 57.4484 51.3462 56.6849 52.3439L56.5836 52.4862C55.8808 53.4736 55.1784 54.4604 54.547 55.4998C53.7971 56.7282 53.0708 57.9634 52.365 59.2189C51.52 60.8376 50.7125 62.463 49.949 64.1224C51.904 62.78 54.1611 61.9429 56.5187 61.686C58.6253 61.4467 60.7547 61.8588 62.62 62.8669C63.7677 63.5458 64.756 64.4635 65.5179 65.5579C66.2394 66.5237 66.7566 67.6264 67.0382 68.7986C67.2364 69.6075 67.2642 70.4488 67.1196 71.269C67.0065 72.0806 66.6574 72.841 66.1156 73.4558C65.5738 74.0706 64.8633 74.5126 64.0724 74.7269C62.7636 74.924 61.426 74.7094 60.2446 74.1127C60.0389 74.0245 59.8354 73.9322 59.6317 73.8398C59.3884 73.7294 59.145 73.6189 58.8975 73.5154C58.5784 73.4069 58.2527 73.3152 57.9235 73.2304C57.4247 73.1286 56.9258 73.0472 56.4236 72.9861C55.9452 72.9522 55.4701 72.9216 54.9916 72.9216C54.6896 72.9454 54.3943 72.9827 54.0957 73.0234C53.3899 73.1694 52.6976 73.356 52.0054 73.563C51.6965 73.6682 51.3945 73.7836 51.0959 73.9125C50.4685 74.2333 49.8555 74.5826 49.2447 74.9305C49.1254 74.9985 49.0061 75.0665 48.8868 75.1341C48.2901 75.474 47.6659 75.7569 47.0426 76.0393L47.0413 76.0399L47.0377 76.0415C46.8723 76.1165 46.7066 76.1916 46.542 76.2675C46.5318 76.2727 46.5216 76.2769 46.5113 76.2812L46.4987 76.2865L46.4882 76.2912L46.4808 76.2947C46.0796 76.488 45.6432 76.5977 45.1982 76.6171L45.1676 76.7189C44.5636 78.7753 43.989 80.8385 43.4437 82.9085C42.6124 86.4715 41.842 90.0482 41.2754 93.669C40.9429 95.8034 40.6329 97.9413 40.3456 100.083C40.1481 101.561 39.9882 103.047 39.8285 104.532L39.7145 105.587C39.4497 108.597 39.2089 111.6 39.0018 114.617C38.8133 117.33 38.724 120.049 38.6349 122.766L38.6183 123.27C38.4249 129.242 38.4657 135.211 38.5607 141.184C38.5818 142.546 38.6322 143.908 38.6826 145.27C38.705 145.876 38.7275 146.482 38.7473 147.088C39.069 153.866 39.475 160.637 39.9509 167.404C40.3623 167.314 40.7929 167.332 41.1995 167.461C41.7514 167.636 42.222 168.003 42.5255 168.496C42.8005 169.056 42.9783 169.659 43.0515 170.278L43.0808 170.444L43.0962 170.533C43.6308 171.142 43.9678 171.899 44.0627 172.704C44.1476 173.12 44.2291 173.537 44.3105 173.953C44.392 174.37 44.4734 174.786 44.5582 175.202C44.8646 176.737 45.186 178.269 45.5095 179.801C45.6185 180.186 45.7279 180.572 45.8375 180.957C46.2735 182.486 46.7125 184.014 47.1544 185.542C47.4245 186.02 47.6515 186.522 47.8329 187.041C48.0294 187.559 48.2056 188.085 48.3819 188.612C48.4551 188.83 48.5284 189.049 48.6032 189.267C49.085 190.675 49.5837 192.08 50.0823 193.485C50.6325 195.029 51.1846 196.574 51.738 198.117C51.8026 198.159 51.8662 198.204 51.9287 198.25C52.6795 198.799 53.3158 199.489 53.8019 200.282C54.1053 200.772 54.3848 201.272 54.6662 201.776L54.7758 201.972C55.0079 202.385 55.2392 202.799 55.4705 203.213L55.4723 203.217L55.4752 203.222C55.7022 203.628 55.9291 204.034 56.1569 204.439C56.8242 205.624 57.4925 206.808 58.1616 207.991C58.6626 207.549 59.2584 207.228 59.9032 207.052C61.8206 206.509 63.714 207.755 64.8983 209.163C65.7921 210.283 66.6226 211.452 67.3857 212.665C68.5667 214.433 69.7476 216.204 70.9115 217.986C73.3853 221.783 75.8613 225.58 78.3397 229.378C79.6088 231.325 80.8745 233.277 82.12 235.238C82.2339 235.417 82.3482 235.595 82.4628 235.774C83.4727 235.784 84.4483 236.142 85.2239 236.789C85.7291 237.21 86.1292 237.737 86.3994 238.327ZM267.654 238.91C267.164 242.706 266.615 246.495 265.862 250.248C265.034 254.374 264.086 258.471 263.018 262.539C260.901 270.579 258.014 278.396 254.399 285.882C253.466 287.813 252.438 289.72 251.362 291.577C251.197 291.862 251.032 292.148 250.867 292.434L250.867 292.435C250.067 293.824 249.265 295.217 248.379 296.548L247.985 297.14L247.982 297.145L247.98 297.147C246.851 298.845 245.715 300.553 244.446 302.147C243.119 303.817 241.769 305.439 240.374 307.047C239.012 308.614 237.508 310.078 236.019 311.527L235.912 311.632C234.643 312.867 233.346 314.078 231.996 315.222C230.17 316.769 228.317 318.276 226.448 319.769C225.039 320.892 223.568 321.936 222.1 322.978L222.088 322.986C221.887 323.129 221.687 323.271 221.486 323.414C218.133 325.713 214.663 327.839 211.092 329.783C210.465 330.138 209.837 330.492 209.206 330.843C210.31 332.249 211.355 333.702 212.337 335.197C213.097 335.914 213.864 336.625 214.637 337.331C216.659 339.176 218.741 340.95 220.823 342.723L220.829 342.728C222.066 343.782 223.302 344.835 224.526 345.903C225.897 347.1 227.262 348.303 228.615 349.519C228.824 348.547 229.091 347.588 229.417 346.647C229.755 345.688 230.152 344.75 230.548 343.813L230.552 343.803L230.554 343.799C230.661 343.547 230.767 343.295 230.872 343.043C231.366 341.829 231.925 340.642 232.545 339.487C233.268 338.174 234.066 336.912 234.904 335.67C236.429 333.402 238.083 331.225 239.858 329.147C241.603 327.028 243.473 325.015 245.457 323.117C245.632 322.956 245.807 322.795 245.982 322.633C246.245 322.389 246.508 322.144 246.771 321.9L246.775 321.896C248.296 320.48 249.816 319.065 251.443 317.769C251.379 317.82 251.316 317.87 251.253 317.92C251.192 317.968 251.131 318.016 251.07 318.065C251.328 317.861 251.586 317.655 251.843 317.449L251.913 317.392L252.085 317.254L252.023 317.304C253.167 316.391 254.33 315.507 255.493 314.622L256.004 314.233L256.079 314.176C256.628 313.757 257.177 313.337 257.758 312.961C258.192 312.68 258.639 312.424 259.087 312.167C259.168 312.12 259.249 312.074 259.33 312.027C259.418 311.977 259.505 311.926 259.591 311.876C259.639 311.846 259.686 311.817 259.733 311.788L259.819 311.734C260.151 311.527 260.484 311.319 260.829 311.135C261.301 310.886 261.783 310.673 262.274 310.461C262.535 310.339 262.794 310.214 263.052 310.087C263.31 309.961 263.602 309.923 263.884 309.977C264.166 310.032 264.423 310.176 264.616 310.388C264.809 310.601 264.928 310.87 264.955 311.156C264.982 311.442 264.915 311.728 264.766 311.973C264.616 312.219 264.469 312.468 264.328 312.719C263.62 313.954 262.848 315.15 262.014 316.303C261.255 317.398 260.373 318.398 259.492 319.397C259.155 319.779 258.818 320.161 258.488 320.549C258.35 320.711 258.212 320.874 258.074 321.036L257.692 321.489C256.41 323.004 255.129 324.519 253.771 325.964C252.125 327.715 250.527 329.507 248.932 331.306C247.845 332.532 246.842 333.82 245.837 335.111L245.837 335.111L245.832 335.118C245.565 335.46 245.298 335.803 245.03 336.145C244.421 336.922 243.795 337.684 243.169 338.446L243.167 338.449C242.335 339.461 241.504 340.474 240.713 341.521C238.286 344.84 236.055 348.298 234.031 351.877C233.708 352.467 233.398 353.064 233.101 353.667C233.598 354.142 234.093 354.621 234.584 355.103C236.42 356.908 238.222 358.743 239.998 360.603L240.032 360.477C240.123 360.585 240.218 360.694 240.313 360.802C240.325 360.817 240.34 360.83 240.357 360.84C240.463 360.96 240.569 361.081 240.676 361.201L240.759 361.294L240.84 361.386L240.88 361.43C241.358 361.97 241.847 362.502 242.353 363.015C242.349 363.044 242.352 363.074 242.361 363.102C242.363 363.106 242.364 363.11 242.365 363.113L242.369 363.117C242.378 363.138 242.392 363.157 242.409 363.172L242.548 363.309L242.616 363.382L242.739 363.503C242.981 363.741 243.223 363.979 243.465 364.219C243.87 364.656 244.281 365.089 244.697 365.516L244.826 365.648L244.823 365.655L244.785 365.736C249.086 370.46 253.148 375.397 256.953 380.529C256.968 380.554 256.983 380.578 256.997 380.602L257.027 380.651C257.055 380.699 257.084 380.747 257.113 380.794C257.286 381.117 257.459 381.442 257.629 381.768C257.62 381.75 257.61 381.732 257.6 381.713L257.599 381.711C257.584 381.682 257.568 381.653 257.554 381.622L257.789 382.077C258.76 383.951 259.732 385.828 260.645 387.73C261.595 389.712 262.448 391.738 263.204 393.808L263.194 393.774C263.815 395.505 264.426 397.249 264.979 399.007C264.974 399.028 264.968 399.048 264.962 399.069L264.962 399.07L264.954 399.098C264.951 399.11 264.948 399.123 264.945 399.136C264.877 399.322 264.809 399.505 264.734 399.689L264.572 399.984C264.497 400.099 264.415 400.211 264.334 400.32C264.249 400.415 264.164 400.51 264.079 400.602C264.001 400.669 263.92 400.737 263.835 400.802C263.766 400.848 263.693 400.891 263.62 400.935L263.615 400.938C263.573 400.958 263.53 400.977 263.488 400.995L263.448 401.012C263.418 401.022 263.387 401.031 263.356 401.04L263.35 401.042L263.328 401.049C263.316 401.052 263.304 401.056 263.292 401.06C263.241 401.067 263.187 401.077 263.133 401.083C263.103 401.085 263.075 401.086 263.046 401.086C263.012 401.087 262.978 401.087 262.943 401.087C262.827 401.08 262.713 401.07 262.599 401.056C262.532 401.048 262.464 401.039 262.396 401.029C262.101 400.971 261.809 400.9 261.518 400.815C261.354 400.762 261.191 400.702 261.028 400.642L261.019 400.639C260.859 400.483 260.7 400.327 260.537 400.171C260.399 400.04 260.261 399.908 260.123 399.776L260.098 399.752C259.973 399.632 259.847 399.512 259.722 399.393C259.261 398.738 258.789 398.094 258.314 397.449C256.407 394.887 254.286 392.491 252.135 390.129C251.107 389.003 250.022 387.928 248.938 386.854L248.84 386.756L248.249 386.176C245.199 382.352 242.026 378.634 238.731 375.022C232.731 368.553 226.398 362.402 219.758 356.592C218.064 355.118 216.354 353.662 214.644 352.206C212.851 350.678 211.058 349.151 209.283 347.603C205.944 344.692 202.751 341.625 199.706 338.404C198.852 337.496 198.018 336.572 197.205 335.633C197.19 335.631 197.174 335.628 197.159 335.626L196.221 334.525L196.206 334.509L196.066 334.346C195.03 333.126 193.996 331.905 192.964 330.683L191.913 329.44L191.913 329.436C190.683 327.977 189.456 326.517 188.232 325.054C187.997 324.752 187.707 324.497 187.376 324.303C186.175 322.774 185.014 321.215 183.911 319.612C181.817 316.564 179.829 313.408 178.041 310.171C176.192 306.852 174.542 303.427 173.1 299.913C171.878 296.908 170.806 293.852 169.733 290.794L169.731 290.786C169.389 289.814 169.048 288.841 168.702 287.869C168.755 288.016 168.808 288.162 168.861 288.309C168.911 288.451 168.962 288.593 169.014 288.735C167.575 284.72 166.215 280.686 164.976 276.603C164.005 273.406 163.141 270.173 162.278 266.941C162.149 266.459 162.021 265.976 161.891 265.493C159.908 258.107 158.11 250.691 156.61 243.194C155.902 241.326 155.194 239.458 154.469 237.596C153.71 235.641 152.917 233.699 152.125 231.757L152.119 231.743C151.739 230.81 151.358 229.877 150.981 228.943C150.45 227.626 149.926 226.308 149.402 224.989L149.398 224.978C148.773 223.408 148.149 221.837 147.513 220.269C144.864 213.738 141.998 207.301 138.834 200.997C137.998 199.405 137.142 197.828 136.243 196.267C135.315 194.643 134.284 193.082 133.238 191.535C132.03 189.86 130.778 188.244 129.41 186.694C128.889 186.171 128.372 185.652 127.821 185.16C127.417 184.836 127.006 184.531 126.576 184.243C126.395 184.137 126.211 184.036 126.025 183.941C125.86 183.87 125.693 183.803 125.523 183.742L125.469 183.727L125.438 183.718L125.392 183.706C125.341 183.693 125.291 183.68 125.24 183.669C125.146 183.657 125.052 183.645 124.96 183.633L124.916 183.633L124.883 183.634L124.857 183.634L124.784 183.645L124.667 183.679L124.646 183.688L124.627 183.696L124.598 183.709C124.535 183.745 124.473 183.782 124.411 183.821C124.319 183.891 124.23 183.965 124.143 184.04C124.077 184.106 124.013 184.173 123.951 184.242C123.874 184.34 123.8 184.441 123.73 184.543C123.667 184.647 123.608 184.753 123.551 184.861C123.452 185.083 123.361 185.308 123.277 185.538C123.174 185.902 123.087 186.267 123.005 186.636C122.886 187.354 122.795 188.07 122.724 188.794C122.698 189.458 122.701 190.113 122.734 190.776C122.772 191.068 122.813 191.358 122.859 191.648C123.765 192.984 124.635 194.344 125.476 195.711C127.176 198.473 128.797 201.282 130.339 204.137C131.116 205.582 131.883 207.036 132.64 208.497C132.696 208.607 132.753 208.717 132.81 208.827L132.921 209.04L132.922 209.041C133.173 209.525 133.425 210.011 133.665 210.499C134.003 211.215 134.302 211.949 134.56 212.698C135.049 214.059 135.562 215.41 136.101 216.75C136.16 216.898 136.222 217.048 136.284 217.199L136.285 217.201C136.791 218.433 137.335 219.757 137.021 221.087C136.859 221.7 136.481 222.233 135.958 222.59C135.434 222.948 134.8 223.104 134.17 223.031C133.835 222.99 133.511 222.882 133.217 222.715L133.217 222.719C132.225 222.004 131.406 221.075 130.821 220.001C130.187 219.054 129.546 218.112 128.896 217.176C128.792 217.029 128.687 216.882 128.582 216.734L128.578 216.728C128.075 216.021 127.572 215.314 127.091 214.592C126.695 213.994 126.356 213.35 126.019 212.71L126.019 212.709C125.857 212.401 125.695 212.093 125.527 211.792C124.4 209.76 123.266 207.731 122.123 205.708C119.816 201.635 117.407 197.632 114.782 193.756C113.253 191.6 111.61 189.528 109.861 187.547C109.202 186.88 108.536 186.233 107.845 185.598C107.334 185.189 106.825 184.789 106.283 184.42C106.056 184.282 105.825 184.15 105.59 184.029C105.429 183.957 105.267 183.891 105.102 183.831C105.073 183.823 105.044 183.815 105.016 183.807C105.001 183.91 104.989 184.013 104.979 184.116C104.971 184.483 104.983 184.844 105.002 185.208C105.254 187.213 105.678 189.196 106.101 191.173L106.188 191.58C108.11 199.766 110.538 207.826 113.459 215.711C115.445 221.076 117.566 226.423 120.019 231.593C120.205 231.985 120.398 232.375 120.591 232.765L120.592 232.767C121.011 233.616 121.431 234.467 121.784 235.342C122.161 236.087 122.381 236.902 122.429 237.735C122.416 238.444 122.153 239.126 121.686 239.66C121.219 240.194 120.578 240.546 119.877 240.653C117.895 240.938 116.287 239.309 115.014 238.01C114.19 237.166 113.397 236.294 112.605 235.423L112.604 235.422L112.551 235.364C112.413 235.212 112.275 235.06 112.137 234.909C110.998 233.657 109.803 232.457 108.556 231.312C108.59 231.532 108.627 231.751 108.667 231.97C109.488 235.976 110.7 239.883 111.914 243.784C113.258 248.09 114.575 252.403 115.82 256.736C116.272 258.307 116.707 259.882 117.143 261.457L117.143 261.46C117.783 263.773 118.423 266.087 119.115 268.386C120.012 271.354 120.949 274.309 121.885 277.265L122.284 278.525C122.62 279.581 122.956 280.633 123.306 281.681C124.76 285.89 126.348 290.091 128.158 294.159C129.983 298.259 131.972 302.286 133.96 306.312C134.198 306.793 134.436 307.275 134.673 307.757C134.937 308.276 135.209 308.791 135.486 309.304C136.053 310.078 136.619 310.852 137.182 311.629C138.325 313.207 139.449 314.802 140.487 316.451C141.488 318.04 142.374 319.709 143.225 321.382C145.01 325.104 146.413 328.997 147.413 333.001C148.539 337.3 149.402 341.663 149.999 346.066C150.589 350.087 150.945 354.146 151.271 358.194C151.482 360.84 151.68 363.488 151.877 366.136C152.003 367.827 152.129 369.517 152.259 371.208C152.554 374.951 152.87 378.69 153.185 382.426C153.233 382.989 153.281 383.552 153.328 384.115C153.61 387.455 153.893 390.796 154.264 394.127C155.163 402.138 156.399 410.082 158.038 417.976L157.995 417.773C157.968 417.644 157.941 417.516 157.912 417.389L157.892 417.297C158.703 421.087 159.568 424.857 160.532 428.614C161.455 432.187 162.568 435.71 163.776 439.195C165.752 444.643 168.016 449.983 170.559 455.191C171.632 457.19 172.753 459.159 173.922 461.099C175.035 462.936 176.251 464.709 177.465 466.48L177.468 466.484C177.63 466.721 177.792 466.957 177.954 467.194C179.705 469.674 181.486 472.131 183.353 474.527C185.328 477.065 187.425 479.481 189.586 481.86C192.369 484.745 195.243 487.49 198.25 490.143C200.238 491.793 202.251 493.391 204.307 494.952C206.285 496.455 208.349 497.843 210.425 499.204C213.15 500.87 215.916 502.407 218.766 503.849C220.592 504.698 222.428 505.502 224.294 506.252C226.178 507.009 228.112 507.65 230.039 508.288C232.679 509.089 235.323 509.768 238.024 510.324C239.575 510.606 241.126 510.87 242.686 511.081C244.434 511.315 246.182 511.471 247.936 511.6C250.057 511.668 252.154 511.658 254.272 511.569C255.758 511.434 257.241 511.278 258.717 511.026C260.122 510.786 261.513 510.507 262.908 510.219C265.378 509.635 267.798 508.957 270.207 508.156C271.802 507.531 273.349 506.859 274.883 506.106C275.81 505.573 276.712 505.02 277.608 504.443C278.409 503.846 279.179 503.232 279.943 502.594C280.598 501.953 281.236 501.304 281.86 500.629C282.379 499.978 282.878 499.323 283.367 498.644C283.961 497.667 284.497 496.679 285.002 495.654C285.315 494.959 285.61 494.263 285.892 493.557C286.266 492.946 286.628 492.328 286.976 491.702L286.978 491.694C287.271 491.167 287.554 490.638 287.825 490.106L287.877 490.004C288.88 488.058 289.75 486.046 290.479 483.981C290.536 483.817 290.592 483.652 290.648 483.488C291.187 481.901 291.687 480.302 292.149 478.691C292.286 477.824 292.407 476.955 292.513 476.083L292.507 476.136C292.922 472.695 293.124 469.231 293.111 465.765L293.111 465.715L293.11 465.492C293.093 463.454 293.076 461.411 292.915 459.376C292.853 458.63 292.777 457.885 292.702 457.141C292.668 456.813 292.635 456.484 292.602 456.156C292.557 455.705 292.518 455.253 292.48 454.801L292.479 454.799C292.422 454.124 292.364 453.447 292.283 452.774C292.228 452.406 292.17 452.039 292.107 451.67C292.056 451.423 292.054 451.168 292.101 450.921C292.148 450.673 292.243 450.437 292.382 450.226C292.52 450.015 292.698 449.834 292.907 449.692C293.115 449.55 293.35 449.451 293.597 449.399C293.844 449.348 294.098 449.346 294.346 449.393C294.593 449.44 294.829 449.536 295.04 449.674C295.251 449.812 295.433 449.991 295.574 450.199C295.716 450.408 295.816 450.642 295.867 450.889C295.968 451.3 296.075 451.71 296.186 452.121C296.353 452.692 296.53 453.259 296.707 453.826L296.707 453.827C297.017 454.817 297.327 455.808 297.581 456.817C297.882 458.015 298.125 459.226 298.311 460.446L298.336 460.39C299.309 458.166 300.341 455.97 301.373 453.774L301.374 453.773C302.123 452.179 302.872 450.585 303.599 448.981C306.446 442.693 309.095 436.309 311.741 429.933L312.242 428.726C315.086 421.867 317.522 414.833 319.843 407.781C321.839 401.673 323.769 395.538 325.5 389.348C327.251 383.074 328.649 376.708 329.878 370.311C331.661 360.321 332.854 350.234 333.451 340.103C333.617 336.353 333.733 332.607 333.699 328.854C333.661 325.125 333.492 321.402 333.261 317.676C333.013 314.751 332.708 311.839 332.338 308.924C331.981 306.115 331.459 303.325 330.919 300.546C330.56 298.951 330.18 297.361 329.779 295.775C329.415 294.329 328.944 292.911 328.474 291.494L328.398 291.265C327.824 289.762 327.234 288.265 326.576 286.796C325.9 285.289 325.171 283.813 324.428 282.34C322.979 279.68 321.428 277.098 319.785 274.552C317.706 271.701 315.483 268.958 313.124 266.334C311.38 264.501 309.598 262.733 307.735 261.023C305.764 259.404 303.745 257.894 301.617 256.472C294.011 251.709 286.135 247.391 278.029 243.54C274.595 241.943 271.132 240.41 267.654 238.91ZM161.238 225.83C160.966 225.939 160.706 226.071 160.459 226.226C159.63 224.053 158.781 221.889 157.913 219.732C157.64 219.024 157.37 218.315 157.102 217.605C157.687 218.55 158.241 219.509 158.779 220.486C158.908 220.738 159.039 220.989 159.169 221.241C159.149 221.203 159.129 221.165 159.108 221.128C159.864 222.674 160.574 224.242 161.238 225.83ZM142.119 353.85C142.144 354.171 142.168 354.492 142.19 354.814C142.501 359.105 142.74 363.402 142.979 367.699C143.12 370.249 143.262 372.799 143.419 375.348C143.86 382.518 144.349 389.691 144.997 396.845C145.798 405.691 146.979 414.521 148.607 423.256C149.476 427.895 150.396 432.544 151.662 437.094C152.893 441.517 154.281 445.893 155.825 450.223C157.302 454.513 159.069 458.698 161.112 462.748C162.758 465.931 164.512 469.037 166.372 472.09C166.177 472.5 165.988 472.913 165.806 473.328C165.639 473.771 165.48 474.216 165.32 474.661C165.044 475.433 164.767 476.204 164.455 476.966C163.429 479.478 162.344 481.974 161.219 484.443C159.21 488.522 156.99 492.494 154.567 496.342C153.619 497.767 152.633 499.15 151.561 500.488C149.967 502.286 148.273 503.973 146.53 505.625C144.489 507.49 142.35 509.244 140.122 510.88C138.528 511.951 136.909 512.949 135.229 513.883C134.038 514.464 132.842 514.995 131.611 515.48C130.518 515.824 129.43 516.124 128.317 516.379C127.212 516.558 126.111 516.698 125 516.805C123.943 516.855 122.899 516.861 121.841 516.826C121.163 516.762 120.494 516.679 119.821 516.578C118.71 516.33 117.611 516.054 116.515 515.74C115.117 515.232 113.755 514.653 112.402 514.036C109.829 512.73 107.33 511.296 104.859 509.811C103.773 509.085 102.724 508.326 101.697 507.512C99.8404 505.883 98.1252 504.141 96.4403 502.336C93.3737 498.914 90.5024 495.322 87.84 491.577C86.0526 488.843 84.3818 486.059 82.8413 483.18C81.8478 481.036 80.9694 478.859 80.1333 476.648C77.6438 469.753 75.5364 462.725 73.8207 455.597C72.2464 447.895 71.063 440.118 70.2753 432.297C70.0163 428.63 69.8452 424.971 69.8262 421.294C69.8067 417.589 69.9215 413.9 70.1152 410.205C70.3452 407.079 70.6102 403.959 71.0172 400.852C71.4173 397.825 71.9222 394.817 72.4514 391.813C74.0091 383.82 76.0207 375.92 78.0517 368.034C79.1139 363.908 80.1794 359.785 81.3163 355.679C82.4802 351.478 83.7391 347.307 85.0049 343.14C86.2231 339.122 87.4346 335.105 88.5476 331.06C89.6424 327.056 90.7465 323.054 91.8596 319.054C92.9986 314.943 94.1128 310.825 95.2021 306.698L95.2944 306.349C95.3639 306.086 95.4337 305.823 95.5035 305.56L95.6775 304.906L95.6794 304.899C96.5777 301.522 97.4771 298.141 98.134 294.709C99.6178 286.962 98.9856 278.996 98.3642 271.166C98.2978 270.33 98.2315 269.495 98.168 268.661L98.2045 269.127C98.136 268.235 98.0674 267.343 97.999 266.451L98.0087 266.582L98.0143 266.661L98.022 266.775L97.7878 263.646C97.5422 260.298 97.3153 256.949 97.0884 253.601C96.7353 248.389 96.3822 243.178 95.9587 237.971C95.6432 234.093 95.2566 230.222 94.8701 226.35L94.8699 226.348C94.4576 222.219 94.0452 218.089 93.719 213.951C93.4263 209.616 93.2395 205.278 93.3778 200.933C93.453 199.806 93.5582 198.693 93.7179 197.575C93.8907 196.732 94.0947 195.906 94.3414 195.083C94.5252 194.598 94.7167 194.12 94.9221 193.644C95.0963 193.313 95.2707 192.985 95.4613 192.661C95.5896 192.471 95.7247 192.287 95.8668 192.107C96.1118 191.833 96.374 191.576 96.652 191.335L96.6561 191.333L96.4067 191.563L96.4821 191.502L96.5608 191.438L96.5617 191.437C96.6518 191.364 96.7422 191.29 96.832 191.216C96.8695 191.191 96.907 191.166 96.9445 191.141C96.9825 191.116 97.0205 191.09 97.0585 191.064L97.1231 191.033L97.193 190.998C97.2667 190.976 97.3408 190.956 97.4154 190.937C97.5372 190.92 97.6611 190.902 97.7833 190.887C97.8563 190.884 97.9293 190.882 98.0025 190.883L98.1291 190.901C98.355 190.956 98.5785 191.015 98.8013 191.079L98.8166 191.084C98.9903 191.857 99.1781 192.626 99.374 193.39C100.165 196.471 101.081 199.501 102.119 202.508C103.188 205.596 104.339 208.657 105.492 211.714C106.616 214.7 107.773 217.676 109.011 220.622C109.612 222.043 110.224 223.459 110.848 224.871C110.419 224.588 109.972 224.334 109.51 224.11C108.162 223.399 106.672 222.998 105.15 222.936C103.9 222.966 102.693 223.398 101.709 224.168C101.22 224.551 100.807 225.022 100.49 225.556C100.149 226.085 99.8858 226.661 99.7099 227.266C99.3686 228.524 99.2638 229.835 99.4011 231.131C99.7149 233.764 100.224 236.369 100.925 238.926C101.262 240.274 101.612 241.62 101.971 242.963C102.114 244.419 102.3 245.873 102.486 247.327C102.583 248.089 102.681 248.851 102.772 249.614C102.887 250.582 102.999 251.551 103.111 252.52L103.112 252.525C103.251 253.733 103.391 254.941 103.536 256.149C104.035 260.286 104.635 264.426 105.372 268.529C106.043 272.261 106.838 275.97 107.723 279.659C108.616 283.361 109.573 287.046 110.777 290.664C112.019 294.583 113.513 298.418 115.25 302.144C116.301 304.313 117.401 306.457 118.552 308.574L118.727 308.897C119.608 310.514 120.492 312.135 121.494 313.678C123.218 316.438 125.227 319.011 127.486 321.354C127.967 321.838 128.456 322.316 128.946 322.794L128.946 322.795L128.948 322.797L128.95 322.799L128.951 322.799C130.01 323.836 131.072 324.874 132.058 325.976C132.914 327.011 133.715 328.09 134.458 329.208C135.599 330.924 136.653 332.698 137.614 334.521C137.845 335.021 138.046 335.535 138.23 336.055C138.783 337.728 139.235 339.434 139.584 341.161L139.57 341.085C139.712 341.809 139.858 342.532 140.003 343.255C140.137 343.92 140.271 344.584 140.402 345.25C140.379 345.143 140.358 345.036 140.338 344.93L140.327 344.877C140.543 346.022 140.803 347.157 141.063 348.292C141.282 349.246 141.5 350.199 141.693 351.159C141.858 352.052 141.994 352.95 142.119 353.85Z" fill="black"/>
</svg>
