<svg width="436" height="529" viewBox="0 0 436 529" fill="none" xmlns="http://www.w3.org/2000/svg">
<path fill-rule="evenodd" clip-rule="evenodd" d="M170.192 193.484C170.738 195.446 171.92 197.171 173.552 198.39C173.653 198.464 173.756 198.537 173.86 198.607C174.688 202.209 175.766 205.75 177.088 209.202C177.124 209.302 177.159 209.401 177.195 209.5L177.687 210.866C177.558 210.506 177.429 210.146 177.3 209.786C179.671 216.048 182.885 221.958 186.853 227.351C188.896 230.313 191.265 233.022 193.909 235.429C193.126 235.612 192.354 235.844 191.599 236.125C189.221 236.533 186.916 237.288 184.757 238.364C184.471 238.508 184.186 238.653 183.901 238.798C182.854 239.332 181.807 239.864 180.735 240.347C179.469 240.525 178.207 240.728 176.945 240.93L176.942 240.931C175.151 241.218 173.359 241.506 171.558 241.725C170.281 241.731 169.007 241.843 167.749 242.059L167.684 242.072C166.675 241.597 165.656 241.142 164.614 240.753C161.872 239.767 159.049 239.026 156.178 238.537C155.034 238.319 153.872 238.235 152.711 238.151C151.656 238.075 150.602 237.999 149.562 237.823C146.854 237.285 144.12 236.885 141.372 236.623C137.497 236.294 133.611 236.043 129.723 235.985C129.098 235.975 128.474 235.974 127.851 235.982C127.456 235.215 127.006 234.478 126.505 233.777C126.305 233.407 126.087 233.045 125.851 232.69C123.342 228.687 119.426 225.768 114.873 224.508C112.49 223.88 110.003 223.748 107.567 224.122C105.131 224.496 102.798 225.366 100.712 226.68C99.7746 227.297 98.9675 227.933 98.1295 228.594C97.9121 228.765 97.6926 228.938 97.4681 229.113C96.4714 229.887 95.5139 230.715 94.5564 231.544C93.5345 232.429 92.5125 233.314 91.4428 234.131C91.1371 234.333 90.8304 234.533 90.5237 234.733L90.5219 234.734C89.2321 235.576 87.943 236.417 86.7246 237.38C86.2836 237.727 85.8516 238.089 85.419 238.451C85.0135 238.791 84.6069 239.131 84.1925 239.46C82.6474 240.395 81.1741 241.444 79.785 242.599C76.951 245.057 74.522 247.946 72.5876 251.16C70.54 254.599 68.7425 258.18 67.209 261.877C66.2325 264.11 65.4888 266.437 64.9897 268.823C64.8441 269.579 64.7109 270.338 64.5964 271.099C63.7878 272.867 63.0129 274.648 62.3293 276.455C62.1505 276.928 61.9761 277.403 61.8061 277.879C61.4696 278.341 61.1346 278.804 60.7997 279.267C59.5445 281.001 58.2894 282.735 56.9545 284.403C56.7108 284.684 56.4667 284.965 56.2225 285.246L56.2192 285.25C54.5494 287.173 52.8772 289.098 51.3448 291.138C49.7906 293.205 48.3416 295.346 46.9028 297.501C44.88 300.38 43.0623 303.399 41.4632 306.534C40.2242 309.041 39.1848 311.641 38.3548 314.312C37.9103 315.882 37.555 317.475 37.2906 319.085C37.2515 319.27 37.2106 319.454 37.1678 319.637C37.0477 319.843 36.9247 320.048 36.7989 320.252C35.7458 321.892 34.723 323.544 33.8347 325.286C32.647 327.614 31.5238 329.993 30.4956 332.405C29.3981 334.984 28.4863 337.637 27.7673 340.346C27.6541 340.774 27.5438 341.203 27.4337 341.631C27.0897 342.968 26.7465 344.302 26.3167 345.614L26.4912 345.081C25.9535 346.751 25.5005 348.447 25.134 350.163C24.8963 351.314 24.6125 352.454 24.2826 353.582C24.1063 354.008 23.9331 354.437 23.7631 354.866C23.0437 356.689 22.4091 358.545 21.7813 360.408C20.8202 363.067 20.0012 365.775 19.3279 368.522C18.7021 371.353 18.2433 374.213 17.7845 377.072C17.4985 378.855 17.2125 380.638 16.8861 382.414C16.0667 386.753 15.2814 391.101 14.497 395.446L14.4481 395.716C14.3089 396.488 14.1667 397.259 14.0243 398.031C13.4067 401.381 12.7878 404.738 12.4155 408.119C11.8211 413.191 11.5717 418.298 11.6689 423.403C11.7266 425.521 11.8012 427.631 11.937 429.746C11.9715 430.287 12.007 430.829 12.0433 431.37C11.898 432.546 11.825 433.729 11.825 434.914C11.8318 436.997 12.0354 439.074 12.2492 441.144C12.3871 442.488 12.5941 443.826 12.8477 445.152C12.9092 446.303 12.9767 447.455 13.05 448.606C13.1241 449.763 13.1619 450.929 13.1998 452.096C13.2851 454.723 13.3707 457.359 13.8712 459.93C14.2949 462.257 14.8604 464.557 15.5645 466.815C15.9288 467.938 16.2886 469.061 16.5813 470.203C16.6992 470.807 16.8144 471.41 16.9295 472.014L16.9298 472.015C17.7659 476.396 18.5965 480.748 20.3933 484.902C21.8437 488.267 23.7444 491.419 26.0434 494.271C27.8285 496.552 29.7927 498.686 31.9174 500.654C34.0926 502.572 36.2813 504.428 38.6126 506.152C40.8631 507.82 43.2824 509.279 45.6786 510.724L45.698 510.736C46.0139 510.927 46.33 511.117 46.6466 511.306C48.4688 513.345 50.333 515.347 52.3423 517.197C54.245 519.029 56.3755 520.609 58.6812 521.897C60.9204 523.051 63.2589 524 65.6683 524.734C69.7841 526.052 74.2393 525.962 78.4852 525.641L75.7435 525.851C77.3094 525.801 78.8714 525.667 80.423 525.45C82.0315 525.159 83.623 524.816 85.2112 524.443C87.3856 523.894 89.5043 523.144 91.5399 522.203C95.6872 520.385 99.6073 518.088 103.22 515.358C107.712 511.942 111.021 507.455 114.327 502.973C115.217 501.766 116.106 500.56 117.019 499.375C117.527 498.821 118.041 498.277 118.568 497.742C125.232 495.717 131.775 493.223 138.291 490.739L138.297 490.737C140.374 489.945 142.448 489.155 144.522 488.38C146.763 487.581 149.008 486.787 151.256 485.997C152.293 485.959 153.329 485.922 154.366 485.886C162.263 485.614 170.192 484.951 178.093 484.289C179.885 484.139 181.676 483.989 183.465 483.844C184.76 483.877 186.058 483.892 187.36 483.881C190.264 483.856 193.151 483.872 196.048 483.979C200.255 484.271 204.472 484.464 208.688 484.614C208.988 484.643 209.289 484.675 209.589 484.711C209.768 484.757 209.947 484.805 210.126 484.854C212.095 485.613 214.101 486.272 216.136 486.83C217.94 487.28 219.767 487.584 221.594 487.888C222.191 487.988 222.788 488.087 223.384 488.192C223.714 488.256 224.044 488.319 224.375 488.382C225.84 488.692 227.321 488.925 228.81 489.08C231.328 489.296 233.86 489.281 236.374 489.036C238.077 488.854 239.762 488.538 241.415 488.091C241.849 488.27 242.278 488.461 242.707 488.651C243.521 489.012 244.336 489.373 245.184 489.663C249.307 491.184 253.687 491.885 258.079 491.727C261.782 491.541 265.449 490.904 268.999 489.829C269.251 489.751 269.503 489.673 269.755 489.594L269.945 489.535C274.937 490.279 279.987 490.716 284.985 490.976C289.844 491.231 294.656 491.462 299.529 491.475C310.36 491.488 321.165 490.412 331.781 488.263C332.198 488.301 332.614 488.343 333.029 488.391C336.734 488.928 340.471 489.214 344.214 489.249C346.774 489.201 349.318 488.88 351.859 488.56C352.902 488.428 353.945 488.296 354.988 488.184L355.606 488.117C357.685 487.895 359.772 487.671 361.854 487.477C362.18 487.461 362.507 487.446 362.834 487.431C364.143 487.372 365.453 487.313 366.75 487.142C368.234 486.912 369.704 486.601 371.155 486.211C372.953 485.919 374.793 485.761 376.625 485.604L376.628 485.604C377.708 485.511 378.784 485.419 379.848 485.299C380.994 485.171 382.135 485.019 383.275 484.866L383.278 484.866C384.945 484.642 386.61 484.42 388.284 484.275C390.999 484.037 393.734 483.755 396.425 483.358C398.351 483.113 400.249 482.683 402.092 482.072C404.116 481.452 406.054 480.584 407.864 479.486C408.3 479.201 408.725 478.905 409.147 478.602L409.268 478.544C409.98 478.518 410.691 478.454 411.397 478.353C414.169 477.951 416.835 477.005 419.24 475.569C421.645 474.133 423.743 472.235 425.411 469.985C425.947 469.259 426.434 468.5 426.87 467.711L426.874 467.715L426.948 467.569C427.68 466.223 428.263 464.801 428.688 463.328C429.269 461.492 429.64 459.596 429.792 457.677C429.92 456.062 429.988 454.441 430.056 452.821L430.056 452.818C430.069 452.491 430.083 452.165 430.097 451.838C430.104 451.678 430.111 451.518 430.118 451.358C430.227 448.997 430.264 446.628 430.152 444.263C429.935 439.614 429.745 434.995 429.792 430.336C429.852 424.133 429.409 417.957 428.871 411.784C429.108 409.12 429.199 406.446 429.144 403.772C429.119 402.78 429.105 401.788 429.091 400.795C429.061 398.715 429.031 396.634 428.9 394.553C428.608 389.907 428.116 385.227 427.495 380.609C427.056 377.677 426.352 374.791 425.391 371.986C424.5 369.053 423.311 366.219 421.845 363.527C420.47 361.1 418.735 358.896 416.7 356.99C416.664 356.731 416.631 356.471 416.601 356.212L416.601 356.202L416.601 356.201C416.44 353.737 416.279 351.274 415.923 348.826C415.222 341.182 412.628 333.833 408.377 327.441C408.314 327.344 408.251 327.246 408.189 327.148C408.114 327.031 408.04 326.913 407.965 326.796L407.965 326.795C407.61 326.235 407.255 325.675 406.88 325.137C405.505 323.118 403.998 321.192 402.369 319.372L403.032 320.094L402.952 320.005L403.317 320.403L402.874 319.919C402.663 319.685 402.452 319.452 402.24 319.22C401.668 318.59 401.089 317.966 400.512 317.343L400.3 317.115L400.636 317.482C397.407 314.05 393.625 311.181 389.445 308.994C387.424 307.962 385.35 307.036 383.231 306.222C382.848 306.082 382.465 305.943 382.083 305.8C379.548 303.334 376.951 300.967 374.26 298.659C370.015 295.249 365.502 292.186 360.764 289.503C359.589 288.824 358.392 288.175 357.194 287.529L356.969 287.374C356.305 286.916 355.642 286.459 354.985 285.987C352.055 283.837 348.743 282.265 345.225 281.355C343.115 280.828 340.95 280.551 338.776 280.53C337.42 280.479 336.062 280.551 334.719 280.744C334.59 280.763 334.46 280.782 334.33 280.803C333.121 280.345 331.905 279.903 330.674 279.485C329.755 279.173 328.84 278.837 327.925 278.501L327.922 278.5C325.936 277.772 323.947 277.042 321.899 276.543C319.936 276.064 317.949 275.753 315.961 275.441C315.686 275.398 315.411 275.355 315.136 275.311C315.024 275.282 314.911 275.253 314.799 275.223L314.686 275.192C313.58 274.787 312.479 274.374 311.377 273.962C308.688 272.955 306.002 271.948 303.262 271.056C303.859 271.251 304.456 271.446 305.054 271.642C305.48 271.781 305.907 271.921 306.333 272.06C305.528 271.789 304.726 271.505 303.924 271.222L303.918 271.22C302.218 270.618 300.519 270.017 298.786 269.529C298.282 269.386 297.777 269.251 297.271 269.116C296.882 269.012 296.492 268.908 296.104 268.801C295.582 268.597 295.064 268.383 294.546 268.169C293.587 267.773 292.628 267.377 291.643 267.045C290.068 266.516 288.505 265.955 286.973 265.311C286.535 265.08 286.101 264.84 285.672 264.592C285.3 264.341 284.928 264.09 284.556 263.839L284.913 264.139L284.829 264.087L284.767 264.049C284.572 263.893 284.377 263.739 284.18 263.586C283.669 263.241 283.154 262.899 282.636 262.56L283.93 263.392C282.063 261.917 280.037 260.655 277.89 259.629C277.641 259.444 277.388 259.265 277.129 259.094C276.987 259 276.849 258.909 276.714 258.821C276.445 257.91 276.164 257.002 275.87 256.098L275.704 255.585C274.953 253.26 274.199 250.929 273.328 248.652C274.494 247.585 275.49 246.359 276.252 244.966C278.028 243.88 279.744 242.699 281.392 241.427C281.689 241.255 281.985 241.081 282.28 240.905C284.228 239.746 286.123 238.488 288.018 237.229C290.368 235.669 292.719 234.108 295.175 232.732C296 232.34 296.835 231.974 297.669 231.608C299.041 231.006 300.414 230.403 301.748 229.683C303.914 228.45 305.873 226.884 307.555 225.045C309.263 223.282 310.725 221.297 311.902 219.143C312.783 217.422 313.537 215.646 314.293 213.868C314.611 213.119 314.93 212.369 315.258 211.624C315.861 210.155 316.349 208.645 316.719 207.108C316.858 207.003 316.996 206.896 317.133 206.787C318.374 205.686 319.522 204.483 320.563 203.19C321.512 201.894 322.319 200.499 322.969 199.03C323.889 197.16 324.751 195.263 325.589 193.353C328.326 187.186 330.691 180.861 332.671 174.411C333.435 171.883 334.147 169.385 334.761 166.82C335.376 164.265 335.824 161.685 336.272 159.099L336.273 159.097C336.339 158.716 336.405 158.334 336.472 157.953C336.731 156.463 336.866 154.948 337.001 153.436L337.001 153.433C337.057 152.807 337.113 152.182 337.178 151.559C337.313 150.223 337.332 148.862 337.35 147.51C337.357 147.036 337.363 146.563 337.374 146.093C337.381 145.856 337.39 145.619 337.4 145.382L337.4 145.377V145.374C337.425 144.736 337.451 144.096 337.418 143.459C337.094 136.904 336.575 130.441 335.164 124.044C335.116 123.553 335.065 123.063 335.011 122.573C334.931 121.68 334.841 120.787 334.75 119.894L334.75 119.892L334.75 119.888C334.632 118.725 334.514 117.562 334.42 116.394C334.068 113.18 333.505 109.992 332.734 106.852C332.933 107.789 333.133 108.727 333.335 109.666C333.04 108.308 332.731 106.961 332.42 105.61L332.419 105.605L332.349 105.3C331.925 103.002 331.378 100.727 330.711 98.4871C330.581 98.0745 330.452 97.6609 330.323 97.2469C329.255 93.8268 328.18 90.383 326.3 87.3227C323.229 82.2735 318.612 78.3483 313.135 76.1291C310.714 75.1483 308.182 74.5238 305.616 74.2606C303.9 73.5051 302.082 72.9909 300.213 72.7372C297.119 72.3833 293.985 72.7345 291.047 73.7643C289.702 72.1314 288.173 70.6594 286.49 69.3777C284.055 67.5992 281.29 66.3239 278.357 65.6262C275.423 64.9285 272.38 64.8224 269.405 65.3141C268.71 64.1066 267.783 63.0489 266.677 62.2023C265.57 61.3557 264.307 60.7369 262.96 60.3817C261.029 59.9807 259.048 59.8766 257.086 60.0729C253.991 60.229 250.909 60.5574 247.854 61.0561C247.512 58.8871 246.765 56.801 245.649 54.9075C244.481 52.9249 242.933 51.1925 241.094 49.8098C239.255 48.427 237.161 47.4212 234.932 46.85C233.418 46.4826 231.867 46.2969 230.31 46.2969C227.139 46.3299 224.036 47.2135 221.324 48.8555C219.757 49.7559 218.355 50.9182 217.18 52.2919C215.303 53.6206 213.456 54.9828 211.66 56.4262C208.287 59.1376 205.036 62.0016 201.832 64.9097C199.809 66.7174 197.884 68.6329 196.067 70.648C194.282 72.6603 192.667 74.8118 191.068 76.9733C188.016 80.9307 185.19 85.0568 182.602 89.3322C180.856 92.3592 179.446 95.5456 178.036 98.7349C177.41 100.151 176.783 101.567 176.127 102.97L176.312 102.581C175.062 105.24 173.878 107.902 172.835 110.656C171.841 113.283 170.85 115.916 169.924 118.566C168.719 122.004 167.734 125.512 166.973 129.068C165.975 130.699 165.236 132.484 164.79 134.36C164.38 136.339 164.157 138.352 164.125 140.373C164.069 142.62 164.218 144.868 164.573 147.088C164.61 147.351 164.647 147.613 164.683 147.876C163.821 149.353 163.288 151.001 163.124 152.708C162.995 154.318 163.028 155.936 163.222 157.54C163.385 159.082 163.672 160.631 163.956 162.159L163.992 162.355C164.333 164.19 164.714 166.013 165.135 167.823C165.361 170.204 165.636 172.579 165.944 174.951C166.395 178.423 167.026 181.85 167.82 185.261C168.253 187.117 168.804 188.93 169.355 190.744C169.455 191.075 169.556 191.406 169.656 191.736C169.817 192.326 169.987 192.914 170.165 193.5L170.192 193.484ZM212.377 104.734C212.315 104.623 212.251 104.514 212.184 104.405C211.972 104.056 211.74 103.719 211.49 103.396L211.744 103.145C213.552 101.515 215.364 99.9049 217.247 98.3609C219.071 96.8657 220.954 95.4692 222.844 94.0686C224.802 92.776 226.752 91.496 228.775 90.305C230.492 89.2941 232.238 88.3669 233.997 87.4439C233.198 88.7206 232.419 90.0096 231.642 91.294L231.354 91.7704C228.123 92.827 225.05 94.3168 222.219 96.1992C218.586 98.6106 215.278 101.479 212.377 104.734ZM285.57 264.692L284.935 264.157L284.775 264.055C285.034 264.261 285.291 264.47 285.548 264.682L285.57 264.692Z" fill="white"/>
<path d="M323.695 205.379C323.586 206.379 323.805 207.387 324.319 208.251C324.728 208.911 325.294 209.459 325.966 209.846C326.639 210.233 327.397 210.446 328.173 210.467C328.407 210.468 328.64 210.446 328.87 210.402C329.264 210.323 329.652 210.212 330.028 210.071C330.304 210.074 330.58 210.055 330.853 210.013L330.848 210.032C332.034 209.812 333.166 209.37 334.188 208.729C334.348 208.643 334.509 208.556 334.67 208.47C335.249 208.159 335.829 207.847 336.41 207.541C336.21 207.643 336.01 207.748 335.81 207.85C335.993 207.756 336.177 207.66 336.362 207.565C336.855 207.309 337.35 207.053 337.849 206.805L337.958 206.761C338.868 206.424 339.751 206.017 340.598 205.543C341.389 205.05 342.033 204.352 342.46 203.523C343.188 202.968 343.891 202.382 344.568 201.783C345.638 200.873 346.601 199.845 347.439 198.719C348.244 197.656 348.851 196.457 349.231 195.179C349.482 194.169 349.556 193.123 349.451 192.088C349.404 191.559 349.326 191.046 349.227 190.524C349.041 189.219 348.6 187.963 347.931 186.828C347.33 185.903 346.587 185.078 345.729 184.385C345.084 183.918 344.352 183.583 343.577 183.401C343.321 183.33 343.06 183.282 342.795 183.256C341.945 183.009 341.058 182.909 340.173 182.961C340.126 182.95 340.079 182.939 340.031 182.929C339.442 182.796 338.826 182.835 338.259 183.043C337.691 183.251 337.196 183.619 336.833 184.102C336.252 184.52 335.796 185.088 335.514 185.746C335.308 186.252 335.222 186.8 335.264 187.345C335.306 187.891 335.475 188.419 335.757 188.888C335.779 188.936 335.8 188.985 335.821 189.034C335.236 189.39 334.725 189.854 334.313 190.401C333.332 191.669 332.6 193.11 332.155 194.65C331.983 195.272 331.874 195.91 331.831 196.554C331.684 196.705 331.546 196.863 331.417 197.027C330.987 197.137 330.599 197.368 330.299 197.694C329.866 198.094 329.511 198.57 329.25 199.099C329.161 199.322 329.101 199.557 329.071 199.795C328.383 200.144 327.735 200.567 327.14 201.058C326.315 201.481 325.566 202.04 324.923 202.709C324.235 203.442 323.804 204.379 323.695 205.379Z" fill="white"/>
<path d="M232.731 439.904C232.103 439.362 231.399 438.914 230.642 438.575C229.643 438.135 228.574 437.878 227.485 437.816C226.177 436.936 225.049 435.815 224.16 434.513L224.096 434.422L224.095 434.42C223.975 434.249 223.857 434.08 223.736 433.913C223.03 433.061 222.341 432.199 221.71 431.29C220.772 429.892 219.966 428.409 219.304 426.861C218.194 424.388 217.251 421.863 216.342 419.311C214.941 415.386 213.683 411.411 212.425 407.439C212.293 407.022 212.161 406.605 212.029 406.189C209.236 397.406 206.443 388.621 203.796 379.791C198.221 361.209 192.829 342.578 187.62 323.898C186.868 321.209 186.114 318.52 185.36 315.831L185.351 315.8L185.351 315.799L185.35 315.798C180.858 299.781 176.362 283.754 172.366 267.608C171.467 263.981 170.609 260.346 169.791 256.705C169.455 255.23 169.173 253.742 168.892 252.257C168.792 251.729 168.692 251.202 168.59 250.675C168.149 248.591 167.881 246.474 167.789 244.346C167.67 242.827 167.945 241.303 168.588 239.922C169.23 238.54 170.219 237.348 171.457 236.46C175.146 233.891 180.959 234.621 183.426 238.605C184.857 241.068 186.023 243.676 186.904 246.386C187.664 248.524 188.417 250.668 189.137 252.823C190.647 257.353 192.157 261.885 193.667 266.417C196.772 275.712 199.884 285.004 203.002 294.294L204.103 297.584C209.643 314.144 215.185 330.706 220.875 347.215C221.635 349.416 222.397 351.617 223.162 353.817C224.096 352.197 225.035 350.58 225.976 348.964C230.084 341.891 234.46 334.963 238.829 328.046C239.432 327.09 240.036 326.135 240.639 325.179C247.382 314.49 254.471 304.022 261.559 293.555L261.56 293.553C265.005 288.467 268.45 283.38 271.855 278.268C273.717 275.476 275.591 272.69 277.474 269.91C279.084 267.475 281.12 265.349 283.484 263.636C283.925 263.325 284.37 263.021 284.816 262.717L284.817 262.716C285.45 262.284 286.083 261.852 286.704 261.4C286.971 261.164 287.234 260.926 287.493 260.684C288.414 261.169 289.354 261.619 290.311 262.034C291.181 262.408 292.063 262.746 292.945 263.084L293.138 263.158C293.8 263.636 294.482 264.097 295.174 264.525C297.074 265.692 298.985 266.788 300.99 267.769C302.066 268.295 303.155 268.794 304.251 269.276C304.466 269.37 304.68 269.465 304.894 269.56C305.292 269.737 305.69 269.914 306.09 270.084C305.824 270.806 305.475 271.495 305.049 272.137C304.757 272.578 304.479 273.019 304.204 273.467C303.966 273.932 303.742 274.4 303.529 274.878C303.426 275.172 303.327 275.466 303.227 275.761C303.069 276.229 302.91 276.698 302.741 277.162C301.921 279.582 300.727 281.858 299.202 283.908C297.936 285.566 296.577 287.138 295.214 288.714L295.018 288.941C291.947 292.487 288.865 296.021 285.771 299.542C279.446 306.766 273.223 314.078 267.104 321.477C261.949 327.673 256.904 333.96 251.86 340.246C251.313 340.928 250.765 341.61 250.218 342.292C248.196 344.814 246.168 347.33 244.139 349.846L244.138 349.848C240.142 354.805 236.146 359.763 232.199 364.756C230.997 366.28 229.81 367.815 228.63 369.355C229.26 371.127 229.892 372.897 230.526 374.667C231.001 375.991 231.483 377.311 231.972 378.629C234 375.852 236.05 373.091 238.122 370.347C243.612 363.031 249.351 355.847 255.296 348.897C264.544 338.084 274.44 327.838 284.329 317.599L284.329 317.598L284.33 317.597C287.482 314.334 290.632 311.072 293.76 307.793C297.664 303.702 301.541 299.59 305.418 295.477L305.42 295.474L305.424 295.47L305.426 295.468L305.434 295.46C307.048 293.747 308.663 292.035 310.279 290.323C313.333 286.914 316.579 283.681 320.002 280.642C322.004 278.892 324.17 277.337 326.469 276C327.152 275.621 327.843 275.256 328.535 274.89C329.287 274.492 330.04 274.094 330.782 273.679C331.334 273.319 331.876 272.944 332.408 272.555C333.618 273.608 334.945 274.517 336.365 275.263C337.583 275.932 338.791 276.563 340.046 277.157C342.544 278.361 345.121 279.392 347.76 280.242C348.18 280.374 348.601 280.505 349.021 280.635C348.865 282.616 348.06 284.491 346.732 285.97C346.29 286.452 345.873 286.944 345.462 287.442C345.048 288.029 344.658 288.63 344.278 289.244C343.25 291.09 342.225 292.93 341.037 294.684C339.455 296.916 337.685 299.01 335.747 300.941C332.944 303.86 329.922 306.572 326.907 309.278L326.902 309.282C326.133 309.973 325.364 310.663 324.6 311.356C317.813 317.505 311.014 323.639 304.202 329.758C290.17 342.389 276.186 355.056 262.948 368.528C262.37 369.115 261.793 369.702 261.217 370.289L261.207 370.3C260.626 370.892 260.045 371.483 259.463 372.074C254.298 377.432 249.179 382.834 244.104 388.278C243.163 389.285 242.232 390.303 241.301 391.32C240.272 392.444 239.244 393.569 238.201 394.68C239.002 396.675 239.809 398.668 240.618 400.661L240.738 400.957L240.739 400.959C241.542 402.939 242.346 404.919 243.13 406.905C245.106 404.394 247.477 402.157 249.791 400.006C253.176 396.858 256.659 393.815 260.141 390.772L260.761 390.23C267.609 384.237 274.479 378.266 281.37 372.316C288.747 365.92 296.145 359.548 303.563 353.201C310.913 346.913 318.514 340.893 326.149 334.958C333.822 328.992 341.535 323.105 349.503 317.533C353.017 315.075 356.567 312.662 360.116 310.249L360.118 310.248L360.119 310.247L360.122 310.245L360.126 310.242L360.922 309.701C361.368 309.398 361.813 309.091 362.259 308.783L362.267 308.778C364.057 307.545 365.859 306.303 367.753 305.259C370.489 303.765 373.431 302.683 376.484 302.049C376.968 301.941 377.455 301.859 377.942 301.777L378.099 301.75C380.937 301.168 383.886 301.507 386.518 302.717C388.805 303.819 390.716 305.571 392.013 307.753C393.309 309.936 393.934 312.452 393.809 314.987C393.684 317.522 392.814 319.964 391.308 322.008C389.803 324.052 387.728 325.607 385.344 326.478C385.149 326.546 384.958 326.616 384.768 326.688C384.265 326.948 383.772 327.221 383.282 327.505C379.98 329.523 376.617 331.441 373.255 333.357L372.072 334.032C371.811 334.181 371.55 334.33 371.289 334.48C367.518 336.629 363.786 338.838 360.058 341.058C344.231 350.741 328.851 361.114 313.835 372.014C309.333 375.283 304.854 378.585 300.374 381.887C289.381 389.99 278.386 398.095 267.049 405.721C263.894 407.842 260.69 409.885 257.483 411.917C257.101 412.161 256.718 412.405 256.335 412.649C253.818 414.253 251.291 415.864 248.693 417.325C248.198 417.69 247.649 417.969 247.069 418.152C247.394 419.596 247.616 421.061 247.734 422.534C248.724 420.081 251.016 418.036 253.023 416.467C255.012 414.912 257.007 413.436 259.084 412.004C262.897 409.376 266.901 407.035 270.896 404.699C271.286 404.472 271.675 404.244 272.064 404.016C280.191 399.259 288.641 395.078 297.08 390.914C301.887 388.544 306.718 386.224 311.55 383.904C315.291 382.107 319.032 380.311 322.762 378.491C329.551 375.175 336.289 371.749 343.024 368.325L343.027 368.323C344.582 367.532 346.137 366.742 347.693 365.952C356.54 361.459 365.461 357.102 374.559 353.142C378.553 351.405 382.588 349.684 386.721 348.296C391.359 346.742 396.029 345.252 400.756 343.987C404.793 342.974 409.046 343.265 412.908 344.818C415.21 345.619 417.282 346.968 418.948 348.748C420.587 350.558 421.73 352.762 422.267 355.144C423.461 360.513 421.293 366.78 416.552 369.804C416.233 370.006 415.916 370.214 415.599 370.422L415.598 370.423C415.492 370.492 415.385 370.562 415.279 370.632C415.113 370.74 414.947 370.847 414.781 370.954C412.141 372.658 409.137 373.716 406.012 374.042C404.834 374.166 403.658 374.31 402.486 374.473C395.32 375.715 388.226 377.348 381.238 379.366C372.131 382.27 363.199 385.579 354.3 389.065C350.582 390.522 346.873 392.003 343.164 393.485C338.453 395.367 333.741 397.25 329.009 399.082C323.024 401.402 317.02 403.668 311.017 405.934C298.991 410.473 286.968 415.011 275.108 419.979C271.735 421.39 268.372 422.824 265.019 424.278C263.078 425.12 261.135 425.957 259.189 426.789C258.516 427.08 257.844 427.361 257.169 427.642L257.166 427.644L256.854 427.773C255.446 428.461 253.962 428.983 252.433 429.328C252.172 429.37 251.909 429.391 251.645 429.391C250.56 429.43 249.501 429.052 248.686 428.336C248.38 428.067 248.117 427.759 247.903 427.421C247.821 429.764 247.116 432.052 245.848 434.044C244.311 436.46 242.03 438.31 239.349 439.315C237.937 439.83 236.444 440.092 234.941 440.089C234.201 440.089 233.461 440.027 232.731 439.904Z" fill="#84C500"/>
<path d="M209.683 437.396L209.685 437.397C209.718 437.399 209.75 437.401 209.782 437.404C209.527 437.38 209.273 437.354 209.019 437.32C208.651 436.964 208.255 436.637 207.835 436.343C206.742 435.574 205.544 434.966 204.278 434.538C202.466 433.93 200.647 433.353 198.808 432.824C197.376 432.413 195.944 432.004 194.512 431.595C192.133 430.76 189.573 430.577 187.099 431.066C186.041 429.222 185.085 427.321 184.237 425.372C182.493 421.441 180.98 417.401 179.47 413.369C179.209 412.671 178.948 411.973 178.685 411.276C176.134 404.495 173.799 397.63 171.465 390.769C170.902 389.115 170.34 387.461 169.774 385.808C169.235 384.235 168.694 382.661 168.153 381.088L168.152 381.086C165.672 373.875 163.19 366.658 160.887 359.39C160.578 358.414 160.266 357.438 159.954 356.462C158.725 352.618 157.494 348.766 156.455 344.87C156.34 344.437 156.224 344.004 156.108 343.572L156.107 343.569C155.597 341.669 155.087 339.769 154.656 337.849C154.097 335.375 153.588 332.898 153.085 330.414C152.227 326.155 151.558 321.835 150.981 317.529C150.644 315.23 150.548 312.902 150.696 310.583C150.835 308.72 151.104 306.473 152.373 304.99C152.931 304.322 153.67 303.828 154.502 303.567C155.333 303.307 156.222 303.291 157.062 303.521C157.144 303.541 157.222 303.565 157.3 303.592C158.129 303.873 158.851 304.406 159.362 305.117C159.874 305.827 160.151 306.68 160.154 307.556C160.911 310.925 161.783 314.234 162.733 317.546C165.152 325.276 167.823 332.891 170.694 340.458C173.436 347.683 176.476 354.789 179.568 361.871C183.378 370.3 187.264 378.689 191.295 387.016C195.289 395.265 199.46 403.42 203.678 411.557C205.1 414.306 206.408 417.11 207.604 419.97C208.05 421.033 208.467 422.109 208.884 423.185C209.308 424.278 209.732 425.372 210.186 426.454L210.262 426.619L210.406 426.937L210.468 427.072C211.81 429.749 212.061 432.843 211.167 435.701C210.962 436.326 210.699 436.931 210.384 437.508C210.124 437.454 209.86 437.414 209.596 437.39C209.624 437.392 209.654 437.394 209.683 437.396Z" fill="#84C500"/>
<path d="M209.168 437.359C209.191 437.361 209.214 437.363 209.237 437.366H209.268C209.235 437.364 209.201 437.362 209.168 437.359Z" fill="#84C500"/>
<path d="M151.63 428.13C152.801 431.168 155.061 433.662 157.969 435.127C160.514 436.346 163.395 436.677 166.151 436.067C169.342 435.344 172.129 433.413 173.925 430.678C175.413 428.307 176.111 425.524 175.917 422.731C175.776 420.6 175.263 418.511 174.4 416.558C173.372 414.135 172.17 411.79 170.803 409.54C170.402 408.85 170.001 408.16 169.6 407.47L169.599 407.469L169.598 407.468C168.763 406.031 167.926 404.592 167.094 403.151C164.746 399.078 162.472 394.962 160.233 390.832C155.824 382.697 151.784 374.404 147.984 365.971C147.793 365.533 147.601 365.094 147.409 364.656L147.399 364.634C146.542 362.679 145.685 360.722 144.898 358.741C143.843 356.096 142.891 353.432 141.935 350.757L141.934 350.756C141.712 350.135 141.49 349.513 141.266 348.891C140.923 347.725 140.415 346.613 139.757 345.588C138.782 344.198 137.304 343.241 135.637 342.921C134.212 342.685 132.748 342.902 131.453 343.542C128.609 344.801 127.31 347.852 127.055 350.773C126.941 352.774 127.074 354.781 127.452 356.749C127.781 358.792 128.161 360.804 128.575 362.83C129.346 366.576 130.336 370.265 131.419 373.93C132.77 378.497 134.13 383.062 135.729 387.551C137.39 392.232 139.129 396.886 140.944 401.515C141.844 403.811 142.775 406.096 143.706 408.381L143.707 408.383L143.708 408.385C144.527 410.397 145.347 412.41 146.146 414.43C146.642 415.681 147.13 416.934 147.617 418.188L147.618 418.19C148.93 421.564 150.243 424.939 151.712 428.248C151.526 427.831 151.342 427.415 151.158 426.996C151.304 427.38 151.464 427.756 151.63 428.13Z" fill="#84C500"/>
<path d="M124.079 437.438C122.132 433.929 120.469 430.246 118.816 426.586C118.637 426.189 118.459 425.793 118.28 425.398L118.217 425.259L118.139 425.086C118.069 424.932 117.999 424.777 117.93 424.621L117.925 424.516L117.921 424.446L117.916 424.339L117.911 424.24L117.911 424.238L117.911 424.233L117.911 424.232C117.905 424.108 117.899 423.985 117.893 423.861C117.747 420.82 117.519 417.787 117.272 414.75C116.966 411.014 116.774 407.284 116.665 403.547C116.615 401.848 116.582 400.147 116.562 398.445L124.079 437.438Z" fill="#84C500"/>
<path d="M130.354 447.251C128.057 444.115 125.961 440.838 124.079 437.438L116.642 393.763C116.706 391.138 116.801 388.514 116.929 385.892C117.017 384.083 117.15 382.278 117.299 380.473C118.8 381.275 119.955 382.599 120.546 384.195C121.018 385.474 121.085 386.867 120.74 388.186C120.757 388.261 120.777 388.335 120.797 388.41C121.34 389.981 121.924 391.522 122.548 393.062C124.894 398.2 127.518 403.206 130.408 408.058C133.37 412.839 136.577 417.427 139.933 421.947C141.229 423.693 142.498 425.461 143.767 427.23C145.638 429.839 147.51 432.448 149.472 434.988L149.543 435.076L149.774 435.361L149.849 435.453C151.016 436.83 151.882 438.436 152.389 440.169C148.58 440.802 144.82 441.702 141.138 442.864C137.433 444.039 133.827 445.506 130.354 447.251Z" fill="#84C500"/>
<path d="M116.642 393.763L116.562 398.445C116.565 398.227 116.567 398.009 116.57 397.791C116.572 397.576 116.575 397.361 116.578 397.145C116.593 396.017 116.614 394.889 116.641 393.762L116.642 393.763Z" fill="#84C500"/>
<path d="M55.1752 336.086C52.7353 332.366 50.3939 328.532 48.3001 324.606C47.0887 322.342 45.9281 320.065 44.8117 317.751C43.7621 315.628 42.8629 313.434 42.1207 311.185L42.1054 311.137C41.3275 308.705 40.3713 305.717 42.1716 303.509C42.5479 303.018 43.0304 302.618 43.5829 302.34C44.1355 302.062 44.7437 301.913 45.3622 301.903C45.9807 301.893 46.5934 302.023 47.1545 302.284C47.7155 302.544 48.2104 302.928 48.6021 303.407C48.8689 303.73 49.1031 304.079 49.3011 304.449C49.2436 304.365 49.1862 304.281 49.1287 304.196C49.6261 304.928 50.1077 305.672 50.5893 306.416C50.8771 306.861 51.1648 307.305 51.4559 307.747C56.3429 314.813 61.5583 321.634 66.8864 328.371L66.7874 328.566C65.8508 330.415 64.9221 332.269 64.0014 334.128C62.5596 337.053 61.1345 339.985 59.7261 342.924C58.1954 340.654 56.6784 338.375 55.1752 336.086Z" fill="#84C500"/>
<path d="M25.113 346.124C27.4104 348.77 29.745 351.387 32.1577 353.932C37.1663 359.214 42.2222 364.448 47.3255 369.633C47.7324 368.906 48.141 368.18 48.5513 367.455C50.6209 362.472 52.8328 357.547 55.1127 352.653C53.0275 350.898 50.9353 349.151 48.8364 347.413C45.1409 344.353 41.4252 341.318 37.689 338.308C36.0534 336.992 34.394 335.692 32.6871 334.464C31.5368 333.636 30.3694 332.876 29.1546 332.139C27.9798 331.459 26.6805 331.022 25.3336 330.853C24.5516 330.759 23.7583 330.847 23.0163 331.111C22.2743 331.376 21.6039 331.809 21.0579 332.377C20.5273 332.939 20.1276 333.611 19.8877 334.345C19.6477 335.08 19.5734 335.859 19.67 336.625C19.9794 338.553 20.7321 340.383 21.8689 341.97C22.837 343.439 23.9219 344.828 25.113 346.124Z" fill="#84C500"/>
<path d="M27.6352 399.668C27.6326 399.674 27.6277 399.679 27.6217 399.682C27.5809 399.699 27.5402 399.716 27.4961 399.729C27.5436 399.709 27.5911 399.688 27.6352 399.668Z" fill="#84C500"/>
<path d="M12.5046 391.233C13.2166 391.672 13.9278 392.111 14.6359 392.552C18.4342 394.914 22.2671 397.212 26.1031 399.504L26.1565 399.451C27.1225 398.496 28.0873 397.541 29.051 396.584C30.5294 395.12 31.9999 393.648 33.4625 392.169C34.1231 391.185 34.7757 390.194 35.4205 389.196C36.0989 388.144 36.7592 387.081 37.4198 386.018C37.9057 385.236 38.3918 384.453 38.8852 383.675C39.0833 383.362 39.2813 383.049 39.4795 382.736C40.1759 381.636 40.8739 380.533 41.5811 379.435C41.1475 379.214 40.7139 378.993 40.2803 378.772C33.4154 375.273 26.5449 371.772 19.58 368.486C17.6955 367.602 15.8065 366.725 13.913 365.856C13.3644 365.481 12.7842 365.154 12.179 364.879C12.0929 365.411 12.0067 365.942 11.9204 366.474C11.4734 369.229 11.0267 371.984 10.5943 374.74C10.4264 375.807 10.2596 376.874 10.0928 377.941C9.53456 381.513 8.9759 385.087 8.375 388.653C9.74262 389.528 11.125 390.381 12.5046 391.233Z" fill="#84C500"/>
<path d="M231.573 146.372C230.421 145.679 229.327 144.893 228.301 144.023C224.402 141.023 220.343 138.236 216.144 135.674C213.966 134.404 211.724 133.249 209.425 132.215C208.337 131.743 207.221 131.336 206.084 130.998L206.092 131C206.351 131.073 206.611 131.146 206.87 131.216C206.605 131.142 206.34 131.069 206.076 130.995L205.31 130.783L205.687 130.888C205.825 130.927 205.963 130.965 206.102 131.004C205.071 130.775 204.042 130.581 203.002 130.412C202.087 130.319 201.176 130.253 200.258 130.21C199.485 130.232 198.72 130.288 197.95 130.37C197.455 130.449 196.964 130.533 196.475 130.64C196.164 130.737 195.857 130.841 195.55 130.953C195.106 131.157 194.671 131.375 194.24 131.607C193.627 131.997 193.041 132.412 192.462 132.844C191.072 134.04 189.712 135.27 188.381 136.533C187.504 137.438 186.669 138.373 185.877 139.356C185.78 139.482 185.685 139.61 185.589 139.737C184.739 140.955 183.46 141.806 182.009 142.12C180.905 142.342 179.759 142.231 178.719 141.8C177.678 141.369 176.789 140.638 176.165 139.701C175.541 138.763 175.21 137.661 175.215 136.535C175.219 135.409 175.559 134.31 176.19 133.377C176.686 132.683 177.189 131.996 177.693 131.309C178.268 130.523 178.845 129.737 179.409 128.942C180.571 127.181 181.827 125.483 183.172 123.857C186.17 120.538 190.188 118.311 194.591 117.529C196.891 117.117 199.236 117.022 201.561 117.249C203.856 117.474 206.123 117.922 208.331 118.589C210.455 119.249 212.508 120.123 214.456 121.198C218.123 123.249 221.58 125.656 224.777 128.383C227.66 130.728 230.26 133.401 232.524 136.348C233.681 137.781 234.636 139.365 235.363 141.057C235.737 141.955 235.948 142.914 235.984 143.887C236.059 144.454 235.958 145.031 235.692 145.538C235.427 146.045 235.012 146.458 234.503 146.719C234.035 146.959 233.507 147.053 232.985 146.991C232.464 146.93 231.972 146.714 231.573 146.372Z" fill="black"/>
<path d="M203.55 171.226C202.49 171.065 201.461 170.744 200.497 170.275C199.469 169.753 198.542 169.053 197.758 168.208C196.96 167.298 196.266 166.301 195.688 165.237C195.041 163.963 194.556 162.612 194.245 161.218C194.003 160.215 193.816 159.199 193.686 158.176C193.268 155.635 193.378 153.036 194.01 150.54C194.325 149.394 194.734 148.275 195.232 147.195C195.82 146.027 196.574 144.95 197.47 143.997C198.956 142.291 201.019 141.193 203.265 140.914C204.416 140.777 205.584 140.898 206.683 141.268C207.931 141.751 209.086 142.446 210.096 143.323C210.478 143.637 210.834 143.981 211.162 144.351C212.969 145.991 214.413 147.991 215.399 150.222C215.966 151.395 216.455 152.603 216.866 153.838C217.284 155.199 217.552 156.601 217.664 158.02C217.811 159.547 217.623 161.087 217.113 162.534C216.289 164.698 214.943 166.625 213.197 168.145C211.45 169.666 209.355 170.732 207.098 171.25C206.556 171.358 206.005 171.412 205.452 171.409C204.814 171.408 204.177 171.346 203.55 171.226Z" fill="black"/>
<path d="M311.53 155.218C311.506 155.174 311.483 155.13 311.459 155.086C310.657 153.835 309.759 152.636 308.857 151.451C308.142 150.561 307.377 149.725 306.593 148.894C305.968 148.288 305.328 147.71 304.66 147.151C304.162 146.79 303.659 146.441 303.144 146.102C302.225 145.595 301.296 145.14 300.337 144.712C299.059 144.198 297.78 143.743 296.464 143.342C295.544 143.135 294.635 142.954 293.706 142.799C293.112 142.737 292.521 142.697 291.924 142.674C290.621 142.7 289.321 142.792 288.028 142.952C286.66 143.192 285.31 143.47 283.961 143.801C281.484 144.498 279.047 145.327 276.659 146.285C275.632 146.746 274.628 147.23 273.64 147.773C272.807 148.277 271.997 148.806 271.217 149.388L271.162 149.433C271.095 149.631 271.002 149.818 270.885 149.991C270.559 150.473 270.068 150.82 269.505 150.967C268.941 151.114 268.344 151.051 267.824 150.79C267.303 150.528 266.896 150.086 266.678 149.546C266.46 149.006 266.446 148.406 266.639 147.856C266.799 147.386 267.108 146.981 267.518 146.701C268.379 145.504 269.374 144.409 270.485 143.439C271.154 142.831 271.878 142.285 272.646 141.808C273.576 141.213 274.513 140.615 275.482 140.082C277.184 139.143 278.903 138.251 280.661 137.426C282.414 136.615 284.21 135.9 286.041 135.285C287.058 134.964 288.092 134.698 289.139 134.49C290.736 134.131 292.369 133.949 294.006 133.946C296.197 133.934 298.381 134.186 300.511 134.697C304.745 135.733 308.933 137.135 312.316 139.997C314.219 141.539 315.887 143.349 317.269 145.371C317.919 146.349 318.494 147.374 318.989 148.439C319.515 149.667 319.903 150.95 320.146 152.264C320.356 153.354 320.168 154.484 319.616 155.447C319.065 156.41 318.186 157.144 317.14 157.515C316.667 157.678 316.17 157.762 315.67 157.762C314.815 157.749 313.979 157.506 313.251 157.058C312.522 156.61 311.928 155.975 311.53 155.218Z" fill="black"/>
<path d="M297.774 179.99C296.632 179.396 295.756 178.393 295.319 177.181C295.221 176.933 295.137 176.68 295.054 176.428L295.054 176.426L295.053 176.424C295.025 176.339 294.997 176.253 294.968 176.168L294.953 176.125L294.926 176.045C294.908 175.994 294.89 175.943 294.872 175.893C294.403 174.875 293.868 173.885 293.317 172.91C293.015 172.424 292.691 171.96 292.352 171.502C292.215 171.337 292.077 171.176 291.933 171.018C291.602 170.712 291.261 170.418 290.916 170.128C290.697 169.969 290.474 169.818 290.245 169.672C289.687 169.377 289.116 169.112 288.54 168.854C288.062 168.668 287.584 168.498 287.097 168.337C286.007 168.071 284.91 167.882 283.799 167.719C282.134 167.539 280.473 167.424 278.8 167.362C277.614 167.37 276.442 167.415 275.256 167.518C274.111 167.681 272.984 167.889 271.857 168.165C271.14 168.395 270.434 168.646 269.732 168.918C269.152 169.184 268.589 169.468 268.033 169.781C267.387 170.176 266.76 170.597 266.152 171.053L266.136 171.066C266.009 171.281 265.818 171.451 265.59 171.552C265.361 171.653 265.107 171.679 264.862 171.628C264.702 171.592 264.55 171.524 264.416 171.428C264.283 171.333 264.169 171.211 264.083 171.071C263.997 170.931 263.941 170.775 263.916 170.612C263.892 170.45 263.9 170.283 263.941 170.124L263.941 170.122C263.978 169.823 264.039 169.528 264.123 169.24C264.372 168.569 264.721 167.94 265.157 167.373C266.113 166.067 267.24 164.896 268.508 163.889C269.186 163.36 269.91 162.893 270.672 162.493C271.467 162.044 272.299 161.662 273.157 161.351C274.593 160.848 276.066 160.464 277.563 160.2C277.632 159.941 277.727 159.689 277.848 159.448C278.32 158.556 279.106 157.869 280.054 157.52C281.304 156.996 282.612 156.615 283.917 156.234C284.579 156.042 285.24 155.849 285.893 155.638L286.222 155.531C287.743 155.039 289.262 154.548 290.816 154.174C291.532 153.991 292.268 153.901 293.007 153.906C293.595 153.928 294.172 154.076 294.698 154.341C295.224 154.607 295.685 154.983 296.052 155.444C296.553 156.101 296.909 156.856 297.097 157.661C297.176 157.949 297.235 158.241 297.294 158.534C297.338 158.751 297.382 158.967 297.433 159.183C297.558 159.622 297.706 160.056 297.875 160.48C297.893 160.521 297.912 160.563 297.931 160.603C297.961 160.666 297.991 160.728 298.021 160.79C298.318 160.586 298.641 160.423 298.982 160.305C299.846 160.072 300.745 159.999 301.635 160.087C303.511 160.143 305.598 160.505 306.823 162.087C307.273 162.639 307.599 163.282 307.779 163.971C307.959 164.661 307.988 165.381 307.866 166.083C307.726 166.797 307.446 167.477 307.041 168.082C306.858 168.361 306.652 168.625 306.425 168.87C307.135 169.061 307.842 169.265 308.546 169.484C309.678 169.83 310.775 170.285 311.82 170.841C312.459 171.18 313.062 171.581 313.623 172.037C314.153 172.449 314.575 172.985 314.853 173.597C315.131 174.208 315.257 174.879 315.219 175.55C315.162 176.191 314.966 176.813 314.645 177.371C314.323 177.93 313.884 178.412 313.358 178.783C312.322 179.486 311.107 179.878 309.856 179.914L309.854 179.914C309.224 180.53 308.391 180.903 307.505 180.959C307.141 180.964 306.778 180.967 306.415 180.967C305.935 180.967 305.455 180.961 304.976 180.95C304.25 180.911 303.527 180.827 302.811 180.7C302.297 180.626 301.791 180.506 301.299 180.342C301.192 180.372 301.084 180.398 300.975 180.42C299.89 180.638 298.764 180.486 297.774 179.99Z" fill="black"/>
<path fill-rule="evenodd" clip-rule="evenodd" d="M353.802 123.827C354.158 120.02 354.274 116.194 354.15 112.372C353.936 108.64 353.447 104.928 352.686 101.268L352.537 100.519C352.017 97.916 351.498 95.3149 351.111 92.6843C351.032 91.901 350.987 91.1207 350.973 90.3345C351.008 88.924 351.114 87.5223 351.282 86.1207C351.382 85.4539 351.488 84.7862 351.595 84.1176C352.124 80.806 352.656 77.4723 352.401 74.1183C352.235 71.8605 351.786 69.6325 351.064 67.4869C350.3 64.9972 349.078 62.6716 347.463 60.629C345.125 57.9174 341.902 56.1211 338.367 55.5583C336.134 55.2223 333.861 55.2671 331.644 55.6908C329.314 56.1474 327.025 56.7894 324.798 57.6106C324.565 56.5585 324.34 55.5046 324.116 54.4508L324.115 54.4496C323.529 51.6962 322.942 48.9437 322.203 46.2266C321.253 42.3157 319.829 38.5353 317.963 34.9692C317.319 33.7998 316.569 32.6919 315.722 31.6594C315.037 30.7809 314.268 29.9713 313.425 29.2419C312.314 28.2768 311.099 27.4374 309.804 26.7389C308.731 26.1718 307.609 25.7018 306.453 25.3343C304.094 24.5451 301.577 24.3519 299.126 24.7719C297.68 25.0909 296.27 25.5576 294.918 26.1647C293.595 26.7497 292.339 27.4764 291.173 28.332C290.277 29.0004 289.425 29.7242 288.62 30.4993C287.294 31.7802 286.076 33.169 284.98 34.6512C283.216 32.063 281.5 29.4412 279.783 26.8185C279.346 26.1499 278.908 25.4813 278.47 24.8131C276.776 22.2307 275.03 19.6835 273.278 17.1394C272.368 15.8095 271.429 14.4981 270.46 13.2053C269.437 11.7539 268.324 10.3673 267.13 9.0534C265.752 7.61276 264.287 6.2586 262.742 4.99865C260.438 3.24165 257.836 1.91219 255.063 1.07342C250.113 -0.581495 244.668 -0.166267 239.709 1.25603C238.415 1.60522 237.145 2.03999 235.908 2.55749C234.598 3.14883 233.36 3.88994 232.221 4.76598C230.537 5.98765 229.145 7.56757 228.146 9.39196C227.039 11.4821 226.453 13.8085 226.438 16.1735C226.438 17.3946 226.558 18.6126 226.797 19.8101C226.929 20.4577 227.129 21.0894 227.395 21.6947C221.679 21.6034 215.961 21.5475 210.245 21.6182C206.102 21.6262 201.963 21.8838 197.851 22.3896C193.663 22.8278 189.543 23.7741 185.584 25.2076C183.519 26.0263 181.485 26.8832 179.482 27.8461C176.369 29.3671 173.446 31.2489 170.772 33.4527C166.57 36.6638 163.292 40.9283 161.27 45.8143C160.214 48.386 159.725 51.155 159.836 53.9327C160.151 56.7778 161.188 59.4952 162.848 61.8273C164.5 64.12 166.669 65.9913 169.179 67.2896C171.335 68.356 173.667 69.0215 176.061 69.2537C178.127 69.4592 180.205 69.5252 182.28 69.451C186.37 69.2773 190.442 68.7826 194.494 68.2055C198.419 67.6489 202.348 67.0541 206.217 66.1854C208.022 65.7816 209.82 65.3547 211.619 64.9278C213.624 64.452 215.629 63.9762 217.642 63.5323C220.724 62.8527 223.813 62.1832 226.912 61.5531C225.159 62.4583 223.403 63.3567 221.643 64.2482C220.856 64.6476 220.066 65.0425 219.276 65.4373C216.764 66.6931 214.251 67.9489 211.814 69.3513C208.293 71.3289 205.02 73.7166 202.065 76.4631C200.466 76.2883 198.858 76.1885 197.248 76.1641C194.866 76.2185 192.491 76.4398 190.14 76.8265C186.628 77.3445 183.163 78.1401 179.778 79.2058C176.218 80.3534 172.784 81.861 169.53 83.7053C166.189 85.5418 162.951 87.5579 159.828 89.7448C156.649 92.0373 153.639 94.5545 150.82 97.2772C147.698 100.178 144.809 103.321 142.181 106.676C140.019 109.483 138.027 112.416 136.215 115.46C135.108 117.317 134.12 119.242 133.255 121.223C132.371 123.187 131.606 125.203 130.964 127.26C129.722 131.223 128.871 135.298 128.423 139.427C128.076 143.402 127.957 147.393 128.067 151.382C128.114 155.505 128.59 159.611 129.489 163.635C129.969 165.77 130.561 167.878 131.265 169.951C132.027 172.118 132.928 174.227 133.879 176.32C135.636 180.047 137.696 183.624 140.04 187.012C140.356 187.491 140.675 187.967 140.998 188.441C140.824 188.688 140.651 188.936 140.477 189.184C140.275 189.327 140.081 189.481 139.897 189.647C138.484 190.993 137.185 192.456 136.016 194.019C132.877 198.049 129.964 202.238 127.049 206.427L127.048 206.429C125.84 208.166 124.632 209.903 123.407 211.628C122.247 213.264 121.081 214.897 119.916 216.53L119.906 216.544L119.901 216.551C119.569 217.017 119.237 217.482 118.905 217.947C117.73 217.566 116.521 217.292 115.293 217.132C114.309 216.975 113.311 216.923 112.316 216.978C111.769 217.02 111.227 217.092 110.684 217.164L110.524 217.185L110.346 217.208C106.842 217.821 103.475 219.051 100.402 220.842C97.3643 222.527 94.4292 224.39 91.6117 226.422C88.6819 228.468 85.8373 230.633 83.0399 232.859C80.2484 235.079 77.4539 237.314 74.7477 239.64C71.9253 242.031 69.3073 244.653 66.9209 247.479C62.2246 252.978 58.6575 259.348 56.4233 266.225C56.4034 266.289 56.3837 266.353 56.364 266.417C54.7545 268.373 53.2166 270.387 51.7533 272.456C49.8363 275.073 48.0401 277.803 46.3263 280.559C42.3952 286.881 38.6791 293.327 35.0071 299.805C31.5707 305.868 28.361 312.058 25.2986 318.321C22.1904 324.733 19.4437 331.314 17.0713 338.033C14.6684 344.779 12.7721 351.702 10.9729 358.628C9.21492 365.397 7.67197 372.223 6.52647 379.122C6.25439 380.763 6.01001 382.408 5.78872 384.056C5.24338 384.667 4.86146 385.415 4.69051 386.231C4.39015 387.797 4.10983 389.364 3.82943 390.932C3.72225 391.531 3.61507 392.131 3.50674 392.73C3.15934 394.638 2.80887 396.549 2.42902 398.452C2.30707 399.068 2.18049 399.684 2.05388 400.301C1.78918 401.589 1.52432 402.878 1.30124 404.173C0.600352 408.24 0.188043 412.351 0.067406 416.476C-0.050294 420.483 -0.0149864 424.509 0.182244 428.511C0.331584 432.638 0.68934 436.755 1.25414 440.846C1.86071 444.874 2.62922 448.858 3.53622 452.83C3.99857 454.853 4.54619 456.859 5.0939 458.861C5.61809 460.766 6.14809 462.68 6.79009 464.55C8.06695 468.409 9.59656 472.179 11.369 475.837C13.2447 479.609 15.3648 483.228 17.6028 486.791C21.869 493.521 26.7242 499.859 32.111 505.731C34.8762 508.838 37.8726 511.731 41.0745 514.385C44.4246 517.103 47.9741 519.566 51.6929 521.753C53.4142 522.792 55.1927 523.732 57.0199 524.571C59.0074 525.451 61.0157 526.232 63.077 526.921C66.6292 528.146 70.3549 528.794 74.1123 528.841C74.7568 528.841 75.3982 528.819 76.0364 528.773C80.3176 528.35 84.5134 527.301 88.4892 525.657C92.6133 524.114 96.5332 522.072 100.162 519.577C102.078 518.261 103.858 516.758 105.477 515.089C106.041 514.495 106.583 513.882 107.104 513.25C107.352 513.206 107.599 513.149 107.842 513.08C108.729 512.829 109.603 512.547 110.475 512.255C113.653 511.16 116.77 509.898 119.815 508.474C120.825 508.01 121.833 507.543 122.84 507.073C123.707 507.051 124.556 506.808 125.305 506.367C126.811 505.472 128.327 504.596 129.855 503.745C130.89 503.242 131.92 502.725 132.928 502.17C133.426 501.895 133.914 501.605 134.397 501.306C135.273 500.854 136.154 500.412 137.041 499.979C139.432 498.892 141.844 497.91 144.316 497.022C148.163 495.794 152.075 494.781 156.034 493.986C158.375 493.633 160.702 493.376 163.059 493.2C166.049 493.095 169.041 493.04 172.033 493.143C175.069 493.246 178.1 493.412 181.132 493.606L183.662 493.802C197.098 494.854 210.465 496.6 223.827 498.344C226.285 498.665 228.743 498.986 231.2 499.303C239.365 500.356 247.561 501.134 255.788 501.638C264.098 502.157 272.41 502.613 280.726 503.004C288.659 503.375 296.618 503.319 304.554 503.042C312.79 502.754 321.03 502.427 329.257 501.929C337.461 501.432 345.659 500.802 353.824 499.833C362.028 498.864 370.211 497.742 378.359 496.379C382.449 495.699 386.527 494.868 390.565 493.923C394.446 493.013 398.333 492.047 402.134 490.837C404.348 490.133 406.545 489.4 408.71 488.561C410.73 487.774 412.691 486.838 414.619 485.86C416.492 484.888 418.31 483.814 420.064 482.642C422.729 480.9 425.062 478.697 426.954 476.137C428.248 474.305 429.354 472.346 430.255 470.292C431.101 468.445 431.815 466.541 432.393 464.594C433.044 462.39 433.571 460.152 433.972 457.889C434.289 456.167 434.466 454.422 434.643 452.68L434.643 452.677V452.676C434.662 452.493 434.68 452.31 434.699 452.127C435.523 444.038 435.842 435.906 435.653 427.777C435.462 419.37 434.89 410.966 434.095 402.595C433.35 394.747 432.281 386.891 430.827 379.143C429.399 370.924 427.494 362.795 425.12 354.797C423.789 350.524 422.34 346.305 420.818 342.097C419.396 338.163 417.694 334.338 415.95 330.539C414.302 326.95 412.378 323.488 410.46 320.036L410.096 319.382C408.008 315.68 405.707 312.103 403.206 308.666C402.785 308.078 402.314 307.518 401.845 306.961C401.615 306.688 401.385 306.415 401.162 306.14C400.619 305.471 400.018 304.848 399.418 304.227C399.231 304.034 399.044 303.84 398.86 303.646C398.417 303.178 397.931 302.744 397.447 302.311C397.239 302.126 397.031 301.94 396.828 301.752C396.006 300.992 395.152 300.245 394.275 299.55C391.013 296.937 387.618 294.495 384.104 292.232C380.688 290.053 377.261 287.886 373.695 285.963C369.893 283.914 366.018 282.073 362.034 280.401C360.557 279.778 359.033 279.258 357.515 278.74C357.208 278.635 356.901 278.53 356.595 278.425C354.56 277.721 352.508 277.082 350.453 276.455C347.11 275.432 343.717 274.545 340.335 273.662L339.951 273.562C339.655 273.485 339.36 273.408 339.066 273.331C334.708 272.192 330.339 271.097 325.97 270.002L325.963 270L325.96 269.999C322.512 269.135 319.065 268.271 315.623 267.385C311.772 266.396 307.926 265.395 304.104 264.29C300.295 263.187 296.528 261.975 292.774 260.7C292.466 260.588 292.157 260.476 291.848 260.365C290.217 259.775 288.582 259.184 286.992 258.492C285.237 257.727 283.51 256.917 281.794 256.065C280.838 255.545 279.902 255.016 278.972 254.447C278.232 253.952 277.52 253.417 276.839 252.844C276.604 252.619 276.379 252.384 276.163 252.138L276.115 252.074L276.511 251.946C277.362 251.671 278.198 251.337 279.032 251.003C279.217 250.929 279.402 250.855 279.587 250.782C279.684 250.744 279.78 250.706 279.876 250.668L280.045 250.603C283.93 249.01 287.693 247.132 291.302 244.984C292.928 244.057 294.5 243.023 296.052 241.972L296.359 241.764C298.023 240.64 299.7 239.507 301.273 238.259C304.52 235.736 307.625 233.035 310.575 230.17C315.794 225.05 320.451 219.393 324.471 213.293C324.606 213.322 324.743 213.342 324.882 213.352C325.123 213.356 325.364 213.358 325.605 213.358C327.93 213.348 330.253 213.19 332.559 212.887C335.227 212.658 337.859 212.113 340.398 211.261C341.392 210.888 342.364 210.46 343.31 209.978C344.191 209.509 345.045 208.991 345.869 208.429C347.398 207.363 348.809 206.136 350.077 204.769C351.331 203.435 352.414 201.95 353.301 200.349C353.812 199.415 354.252 198.446 354.62 197.448C354.957 196.586 355.201 195.691 355.348 194.777C355.358 194.71 355.368 194.643 355.379 194.576C355.388 194.515 355.398 194.455 355.408 194.394L355.429 194.26C355.513 193.741 355.598 193.219 355.624 192.695C355.683 191.675 355.654 190.652 355.539 189.636C355.36 188.084 354.946 186.569 354.311 185.142C353.522 183.351 352.352 181.753 350.883 180.46C349.414 179.167 347.681 178.209 345.804 177.654C344.234 177.182 342.602 176.975 340.973 177.038C342.136 172.939 343.07 168.775 343.77 164.566C344.273 161.186 344.683 157.802 344.915 154.395C345.1 154.075 345.266 153.745 345.413 153.406L345.482 153.247C345.735 152.661 345.989 152.076 346.264 151.501C346.718 150.556 347.145 149.6 347.571 148.643L347.572 148.641L347.576 148.633L347.577 148.63C347.801 148.127 348.026 147.624 348.255 147.122C349.124 145.282 349.897 143.398 350.569 141.477C351.267 139.268 351.836 137.019 352.271 134.743C353.012 131.14 353.524 127.494 353.802 123.827ZM339.145 182.882C338.529 184.681 337.868 186.465 337.162 188.232C335.752 191.957 334.088 195.582 332.398 199.186C331.187 201.726 329.888 204.223 328.504 206.671C330.037 206.36 331.561 206.011 333.079 205.611C334.274 205.262 335.451 204.879 336.617 204.436C337.36 204.099 338.078 203.736 338.79 203.34C339.326 202.994 339.85 202.639 340.373 202.267C341.117 201.671 341.834 201.054 342.536 200.406C343.204 199.713 343.837 199.006 344.447 198.263C344.814 197.745 345.164 197.225 345.506 196.69C345.773 196.194 346.027 195.696 346.272 195.187C346.462 194.694 346.639 194.202 346.806 193.7C346.927 193.203 347.035 192.706 347.13 192.202C347.175 191.785 347.203 191.371 347.216 190.953C347.196 190.495 347.154 190.044 347.104 189.59C347.038 189.22 346.96 188.856 346.875 188.49C346.74 188.05 346.59 187.62 346.421 187.192C346.337 187.014 346.249 186.838 346.157 186.665C345.996 186.403 345.829 186.148 345.653 185.895C345.466 185.664 345.274 185.44 345.073 185.217C344.8 184.956 344.519 184.707 344.227 184.467C343.975 184.287 343.722 184.117 343.462 183.954C343.194 183.81 342.926 183.675 342.651 183.55C342.361 183.44 342.072 183.339 341.778 183.246C341.376 183.153 340.979 183.071 340.574 182.997C340.097 182.945 339.624 182.906 339.145 182.882ZM112.183 227.132C112.118 227.225 112.053 227.319 111.988 227.413C112.226 227.295 112.474 227.199 112.73 227.129C112.786 227.112 112.842 227.095 112.898 227.08C112.907 227.079 112.916 227.079 112.925 227.078C113.087 227.089 113.249 227.102 113.41 227.119C113.885 227.211 114.35 227.323 114.816 227.442C115.227 227.569 115.629 227.709 116.03 227.865C116.661 228.171 117.283 228.486 117.901 228.816C118.717 229.313 119.502 229.834 120.277 230.395C124.678 233.997 128.873 237.871 132.91 241.872C136.266 245.346 139.499 248.929 142.713 252.535C145.775 255.969 148.755 259.462 151.621 263.06C154.387 266.666 157.151 270.306 159.566 274.156C160.23 275.327 160.835 276.53 161.377 277.761C161.874 279.066 162.314 280.384 162.701 281.727L162.748 281.902L162.775 282.005C162.759 282.263 162.739 282.521 162.713 282.78C162.654 283.132 162.581 283.476 162.499 283.824C162.44 284.009 162.371 284.191 162.292 284.369L162.283 284.384C162.318 284.301 162.353 284.22 162.388 284.136C162.373 284.168 162.357 284.2 162.342 284.231L162.286 284.349C162.263 284.396 162.241 284.442 162.218 284.489L162.174 284.561L162.032 284.729C161.903 284.851 161.769 284.968 161.631 285.08C161.564 285.127 161.496 285.173 161.427 285.218C161.204 285.34 160.978 285.455 160.748 285.569C160.483 285.669 160.214 285.757 159.942 285.839C159.753 285.883 159.566 285.921 159.375 285.956C159.022 285.993 158.671 286.023 158.316 286.037C158.092 286.024 157.871 286.006 157.649 285.981C157.285 285.913 156.926 285.832 156.566 285.744C156.106 285.598 155.654 285.437 155.198 285.276C153.49 284.516 151.821 283.669 150.199 282.738C148.157 281.452 146.227 280.018 144.299 278.565C142.555 277.252 140.826 275.922 139.099 274.592C136.845 272.837 134.594 271.075 132.368 269.281C129.997 267.365 127.644 265.426 125.309 263.465C124.507 262.792 123.701 262.123 122.896 261.454C122.582 261.193 122.267 260.932 121.953 260.67C121.389 260.201 120.825 259.734 120.259 259.269C119.548 258.695 118.793 258.178 118.001 257.723C117.12 257.156 116.097 256.847 115.049 256.833C114.001 256.818 112.97 257.098 112.073 257.64C111.224 258.196 110.574 259.009 110.221 259.961C110.067 260.398 109.969 260.853 109.929 261.315C109.911 261.852 109.96 262.39 110.077 262.914C110.29 263.819 110.64 264.686 111.116 265.485C111.346 265.912 111.576 266.333 111.823 266.751C112.226 267.44 112.644 268.12 113.098 268.78C114.465 270.76 115.967 272.643 117.467 274.524C117.921 275.094 118.375 275.664 118.826 276.236C121.141 279.252 123.288 282.395 125.256 285.649C126.001 286.975 126.677 288.339 127.281 289.735C128.048 291.696 128.727 293.673 129.306 295.696C129.538 296.608 129.749 297.519 129.923 298.443C129.957 298.781 129.984 299.118 130 299.462C129.997 299.657 129.99 299.852 129.979 300.047C129.635 299.981 129.294 299.905 128.953 299.818C127.908 299.501 126.882 299.133 125.865 298.731C124.657 298.181 123.467 297.603 122.297 296.979C120.896 296.122 119.54 295.194 118.234 294.199C115.872 292.295 113.607 290.273 111.449 288.14C111.125 287.812 110.799 287.484 110.477 287.158C109.358 286.024 108.256 284.875 107.154 283.727L107.146 283.719C106.319 282.857 105.492 281.996 104.659 281.142C104.049 280.469 103.333 279.902 102.538 279.463C101.695 279.037 100.746 278.862 99.8058 278.96C98.7804 279.053 97.8088 279.46 97.0231 280.126C96.3673 280.738 95.8641 281.495 95.5538 282.337C95.3232 283.001 95.23 283.706 95.2798 284.407C95.2977 284.803 95.336 285.199 95.3947 285.591L95.4155 285.748C95.4553 286.049 95.4952 286.35 95.5478 286.651C95.6774 287.402 95.8335 288.147 95.9954 288.889C96.3812 290.648 96.8111 292.395 97.241 294.142C97.5394 295.355 97.8379 296.568 98.1214 297.785C98.7802 300.607 99.3266 303.443 99.737 306.308C99.8605 307.429 99.9298 308.549 99.9577 309.679C99.9401 310.116 99.9122 310.551 99.8665 310.985C99.8116 311.268 99.7452 311.546 99.6742 311.825C99.5959 312.073 99.5105 312.316 99.4174 312.558C99.2421 312.927 99.0615 313.29 98.8756 313.654C98.4194 314.379 97.929 315.074 97.4133 315.759C96.9817 316.286 96.5324 316.79 96.0635 317.284C95.6663 317.667 95.2606 318.032 94.8367 318.385C94.1432 318.879 93.4398 319.358 92.7178 319.814C92.295 320.047 91.8693 320.267 91.4283 320.473C90.5247 320.933 89.8378 321.729 89.5161 322.69C89.1943 323.652 89.2635 324.701 89.7086 325.612C90.0332 326.249 90.5277 326.784 91.1375 327.158C91.7473 327.531 92.4485 327.729 93.1637 327.729C93.5782 327.729 93.9899 327.66 94.3818 327.526C95.9139 327.055 97.4065 326.464 98.8458 325.759C100.422 324.892 101.861 323.796 103.116 322.508C105.813 319.814 108.107 316.483 108.743 312.655C109.32 309.204 108.646 305.614 107.91 302.24C107.484 300.283 107.015 298.34 106.533 296.398C108.008 297.824 109.527 299.202 111.09 300.532C113.544 302.651 116.25 304.46 119.146 305.918C120.659 306.698 122.221 307.378 123.822 307.953C126.785 308.962 130.012 309.908 133.122 309.001C134.941 308.449 136.494 307.247 137.483 305.623C138.325 304.213 138.795 302.612 138.849 300.971C138.899 298.904 138.575 296.845 137.892 294.893C136.953 291.946 135.839 289.058 134.556 286.245C133.792 284.545 132.932 282.888 132.004 281.269C133.501 282.366 135.013 283.444 136.526 284.516L136.818 284.723C137.002 284.854 137.186 284.986 137.371 285.117C138.343 285.809 139.318 286.503 140.306 287.172C141.713 288.177 143.171 289.107 144.676 289.958C147.607 291.565 150.752 292.747 154.017 293.468C155.939 293.892 157.934 293.854 159.838 293.356C160.981 293.04 162.073 292.565 163.083 291.945C164.243 291.263 165.261 290.365 166.084 289.301C166.668 288.54 167.125 287.69 167.438 286.783L167.45 286.746C167.49 286.748 167.531 286.748 167.571 286.748C168.494 286.752 169.397 286.481 170.166 285.97C170.934 285.458 171.532 284.73 171.885 283.877C172.237 283.024 172.328 282.085 172.145 281.181C171.527 278.533 170.846 275.886 170.045 273.286C169.646 271.867 169.152 270.476 168.567 269.122C167.992 267.885 167.352 266.679 166.65 265.509C163.845 260.907 160.7 256.52 157.242 252.385C155.052 249.711 152.731 247.147 150.411 244.586L149.934 244.059C149.531 243.614 149.127 243.169 148.723 242.724C151.361 242.8 153.999 242.873 156.638 242.902C157.698 242.914 158.755 242.92 159.815 242.92C165.762 242.916 171.708 242.723 177.653 242.34C179.282 242.272 180.904 242.105 182.512 241.839C183.44 241.666 184.344 241.442 185.254 241.192C185.983 241.01 186.691 240.753 187.368 240.426C188.787 239.842 190.024 238.894 190.956 237.679C191.347 237.985 191.738 238.291 192.129 238.598C192.636 238.995 193.172 239.358 193.707 239.721L193.709 239.722C193.938 239.877 194.167 240.033 194.394 240.191C195.239 240.78 196.096 241.336 196.97 241.881C197.203 242.027 197.435 242.176 197.667 242.325C198.212 242.674 198.757 243.025 199.32 243.338L202.48 245.099C203.067 245.428 203.681 245.716 204.293 246.004C204.413 246.061 204.533 246.117 204.652 246.174C204.837 246.261 205.021 246.349 205.204 246.439C209.121 248.308 213.177 249.871 217.336 251.112C221.168 252.274 225.062 253.22 228.999 253.945C233.227 254.761 237.494 255.364 241.782 255.753C242.889 255.85 243.991 255.93 245.101 255.986C245.441 256.002 245.783 256.024 246.125 256.045C246.814 256.089 247.507 256.132 248.196 256.136L251.941 256.162H252.094C252.725 256.162 253.357 256.129 253.988 256.097C254.262 256.082 254.536 256.068 254.809 256.056C255.91 256.012 257.006 255.93 258.104 255.83C258.406 255.801 258.709 255.778 259.012 255.754L259.014 255.754C259.657 255.703 260.3 255.653 260.934 255.559C262.139 255.384 263.346 255.208 264.553 255.032C265.219 254.934 265.882 254.788 266.543 254.643L266.544 254.643C266.856 254.574 267.168 254.506 267.48 254.443C268.561 254.225 269.627 253.974 270.693 253.695C270.921 253.635 271.151 253.577 271.38 253.519L271.385 253.518C271.649 253.451 271.913 253.385 272.176 253.315C272.301 253.92 272.54 254.499 272.882 255.021C273.436 255.932 274.115 256.762 274.899 257.485C275.934 258.497 277.063 259.408 278.27 260.206C280.5 261.761 282.84 263.151 285.273 264.364C290.629 266.949 296.131 269.22 301.751 271.166C308.282 273.468 314.913 275.457 321.545 277.445L321.55 277.447L324.404 278.304C332.151 280.634 339.895 282.972 347.577 285.517C349.859 286.32 352.129 287.153 354.383 288.039C356.549 288.888 358.663 289.846 360.77 290.825C363.35 292.138 365.891 293.498 368.388 294.968C370.854 296.419 373.235 298.002 375.615 299.591C377.495 300.891 379.376 302.193 381.2 303.569C383.265 305.126 385.269 306.739 387.242 308.405C388.069 309.157 388.89 309.912 389.69 310.695C390.512 311.499 391.274 312.349 392.04 313.202L392.047 313.209C392.21 313.417 392.376 313.623 392.542 313.83L392.543 313.83L392.544 313.832L392.547 313.837C393.009 314.41 393.472 314.987 393.883 315.592C394.485 316.479 395.088 317.367 395.692 318.254C397.057 320.486 398.421 322.722 399.64 325.044C400.852 327.352 402.042 329.673 403.211 332.008C404.655 335.106 406.02 338.219 407.287 341.393C408.485 344.401 409.537 347.462 410.58 350.526C412.895 357.658 414.814 364.911 416.33 372.254C416.317 372.186 416.304 372.118 416.292 372.05L416.389 372.558C416.409 372.658 416.428 372.759 416.448 372.859L416.533 373.304L416.542 373.349L416.672 374.03C416.738 374.373 416.803 374.715 416.869 375.056C416.911 375.287 416.956 375.517 417.001 375.747L417.025 375.869C417.034 375.917 417.043 375.965 417.052 376.013L417.068 376.094L417.078 376.146L417.088 376.197L417.142 376.482L417.147 376.512L417.184 376.704L417.153 376.547C418.304 383.138 419.382 389.74 420.214 396.381C421.033 402.892 421.611 409.414 422.084 415.956C422.389 421.146 422.664 426.336 422.752 431.535C422.836 436.389 422.732 441.257 422.429 446.106L422.284 448.275C422.14 450.204 421.987 452.132 421.798 454.061C421.646 455.594 421.395 457.109 421.112 458.622C420.771 460.073 420.387 461.498 419.943 462.921C419.423 464.341 418.855 465.723 418.206 467.086C417.877 467.659 417.541 468.22 417.191 468.776C416.848 469.233 416.501 469.679 416.131 470.114C415.793 470.455 415.448 470.784 415.092 471.105C414.153 471.859 413.169 472.542 412.165 473.212C410.683 474.098 409.184 474.929 407.648 475.722C405.349 476.778 403.02 477.701 400.632 478.543C393.798 480.643 386.86 482.384 379.845 483.76C365.137 486.359 350.296 488.137 335.391 489.084C324.94 489.719 314.461 490.084 303.992 490.245C295.835 490.369 287.69 490.345 279.542 489.927C271.58 489.52 263.625 489.007 255.671 488.483C248.78 487.992 241.901 487.383 235.046 486.505C232.545 486.184 230.045 485.858 227.546 485.531L227.535 485.53C223.271 484.973 219.007 484.416 214.739 483.888C206.58 482.88 198.411 481.944 190.225 481.152C182.118 480.325 173.972 479.944 165.823 480.009C161.588 480.017 157.365 480.449 153.217 481.299C151.109 481.761 149.05 482.309 146.992 482.957C145.053 483.54 143.146 484.224 141.279 485.007C137.743 486.612 134.285 488.386 130.919 490.321C130.617 490.413 130.316 490.505 130.015 490.6C128.213 491.167 126.422 491.766 124.631 492.364L124.625 492.366L124.588 492.379C124.703 492.342 124.818 492.304 124.932 492.267C125.046 492.229 125.16 492.192 125.275 492.155C121.679 493.333 118.097 494.519 114.567 495.875C115.76 491.086 116.705 486.231 117.648 481.384L117.648 481.382L117.649 481.377C117.922 479.978 118.194 478.579 118.472 477.183L118.723 475.923C120.003 469.516 121.284 463.106 122.328 456.657C125.1 454.33 127.984 452.138 130.968 450.09C135.387 447.464 139.942 445.076 144.614 442.934C147.264 441.721 149.968 440.645 152.717 439.679C155.879 438.703 159.091 437.895 162.339 437.26C166.242 436.59 170.152 436.125 174.099 435.847C178.924 435.666 183.756 435.736 188.575 436.057C195.591 436.59 202.581 437.389 209.571 438.187C212.189 438.487 214.808 438.786 217.428 439.071C221.18 439.48 224.931 439.881 228.691 440.181L229.082 440.212L229.083 440.212C232.996 440.523 236.911 440.834 240.838 440.906C244.927 441.025 249.018 440.801 253.07 440.237C257.089 439.584 261.053 438.624 264.925 437.366C268.584 436.22 272.147 434.787 275.702 433.358L276.162 433.173C279.818 431.697 283.474 430.222 287.128 428.747C290.923 427.211 294.695 425.621 298.467 424.031C301.842 422.608 305.218 421.185 308.609 419.801C316.074 416.759 323.65 414.041 331.262 411.388C333.341 410.664 335.417 409.933 337.494 409.203L337.512 409.196L337.515 409.195C342.711 407.367 347.907 405.539 353.137 403.81C356.443 402.737 359.755 401.687 363.12 400.814C366.368 399.971 369.648 399.242 372.944 398.602L373.025 398.588C373.12 398.572 373.214 398.556 373.308 398.54C373.881 398.766 374.51 398.808 375.108 398.661C375.761 398.492 376.334 398.102 376.731 397.557C377.127 397.011 377.322 396.345 377.282 395.672C377.242 394.999 376.969 394.361 376.51 393.867C376.051 393.373 375.435 393.054 374.767 392.964C374.218 392.888 373.659 392.977 373.161 393.218C370.311 393.319 367.459 393.633 364.634 393.997C361.215 394.439 357.817 395.06 354.454 395.811C353.422 396.042 352.391 396.276 351.362 396.519C351.369 396.327 351.377 396.136 351.386 395.944C351.655 394.12 351.724 392.272 351.593 390.433C351.375 388.763 351.08 387.102 350.777 385.445C350.683 384.938 350.588 384.435 350.491 383.928L350.485 383.896L350.471 383.819C350.449 383.709 350.428 383.6 350.407 383.49L350.363 383.258C350.352 383.196 350.34 383.132 350.327 383.07C350.299 382.926 350.272 382.782 350.244 382.638C350.262 382.728 350.279 382.818 350.296 382.908L350.318 383.02L350.329 383.075L350.347 383.168C349.914 380.916 349.446 378.672 348.916 376.44C348.361 374.214 347.657 372.028 346.808 369.897C346.016 367.948 345.072 366.064 343.984 364.264C343.433 363.31 342.841 362.388 342.205 361.49C341.691 360.526 340.866 359.766 339.864 359.332C339.631 359.271 339.388 359.261 339.15 359.301C338.913 359.342 338.686 359.432 338.486 359.565C338.286 359.699 338.116 359.873 337.987 360.077C337.859 360.281 337.775 360.509 337.741 360.748C337.714 361.694 337.887 362.635 338.247 363.51C338.36 363.906 338.475 364.301 338.589 364.697L338.591 364.704L338.592 364.708C338.741 365.22 338.89 365.734 339.034 366.248C339.535 368.022 339.991 369.81 340.382 371.615C340.773 373.693 341.133 375.783 341.375 377.883C341.631 380.124 341.828 382.367 342.002 384.617C342.065 385.428 342.122 386.24 342.179 387.052L342.179 387.054C342.281 388.495 342.382 389.937 342.514 391.375C342.648 392.818 343.063 394.206 343.478 395.593C343.723 396.412 343.968 397.23 344.154 398.06C344.181 398.16 344.211 398.258 344.245 398.355C343.864 398.464 343.483 398.575 343.103 398.688C339.233 399.84 335.367 401.003 331.504 402.174C329.798 402.692 328.09 403.204 326.382 403.715C320.47 405.486 314.559 407.256 308.724 409.271C303.7 411.007 298.704 412.828 293.708 414.649C291.383 415.497 289.058 416.344 286.73 417.183C285.372 417.673 284.015 418.165 282.657 418.656L282.615 418.671C276.766 420.79 270.913 422.91 265.008 424.863C261.304 426.034 257.539 427.005 253.731 427.773C251.851 428.091 249.972 428.315 248.07 428.469C244.85 428.61 241.65 428.55 238.432 428.374C232.941 427.971 227.469 427.392 222.016 426.636C219.286 426.257 216.56 425.854 213.835 425.452L213.828 425.451L213.787 425.445C210.657 424.982 207.527 424.52 204.392 424.095C196.311 422.887 188.169 422.131 180.005 421.83C175.887 421.766 171.77 421.977 167.681 422.46C163.62 422.904 159.595 423.628 155.635 424.628C151.732 425.595 147.911 426.867 144.207 428.432C140.443 430.076 136.784 431.949 133.25 434.041C131.355 435.085 129.533 436.256 127.796 437.546C126.689 438.417 125.599 439.308 124.513 440.205C124.855 436.933 125.138 433.656 125.356 430.375C125.84 423.052 126.083 415.714 126.325 408.379L126.372 406.953C126.631 399.152 126.912 391.356 127.933 383.613C129.035 376.614 130.414 369.651 132.152 362.783C132.082 363.036 132.011 363.29 131.937 363.546C131.991 363.354 132.044 363.163 132.098 362.971C132.449 361.709 132.801 360.445 133.23 359.208C133.696 357.871 134.202 356.557 134.73 355.246C135.572 353.382 136.515 351.582 137.52 349.8C138.69 347.907 139.964 346.102 141.308 344.329L141.581 343.979C144.036 340.831 146.488 337.686 148.754 334.394C151.024 331.139 152.856 327.6 154.202 323.867C154.929 321.868 155.368 319.776 155.506 317.653C155.582 315.632 155.472 313.607 155.177 311.605C154.877 309.599 154.454 307.614 153.91 305.66C153.37 303.583 152.537 301.593 151.437 299.75C150.511 298.092 149.407 296.54 148.145 295.121C147.235 294.143 146.062 292.978 144.662 292.889C144.176 292.833 143.685 292.943 143.268 293.199C142.851 293.456 142.533 293.846 142.365 294.305C142.22 294.717 142.208 295.163 142.33 295.582C142.433 296.05 142.593 296.503 142.806 296.932C143.157 297.678 143.496 298.431 143.823 299.191C144.552 301.047 145.217 302.927 145.774 304.842C145.941 305.583 146.08 306.319 146.205 307.069C146.387 308.677 146.514 310.283 146.578 311.904C146.547 313.199 146.461 314.483 146.312 315.77C146.206 316.292 146.089 316.805 145.959 317.319C145.766 317.882 145.56 318.434 145.341 318.986C144.766 320.225 144.14 321.424 143.466 322.613C142.347 324.452 141.135 326.233 139.833 327.948C138.364 329.802 136.838 331.609 135.312 333.415C133.836 335.162 132.36 336.909 130.936 338.699C127.57 342.971 124.828 347.7 122.794 352.745C121.238 356.69 120.009 360.757 119.12 364.903C118.239 368.829 117.444 372.769 116.761 376.732C116.06 380.79 115.536 384.856 115.144 388.955C114.793 392.66 114.624 396.388 114.454 400.106L114.417 400.928C114.285 403.795 114.178 406.662 114.07 409.53C113.883 414.501 113.696 419.472 113.386 424.435C113.145 428.287 112.883 432.144 112.459 435.981C112.03 439.894 111.513 443.796 110.972 447.694L110.937 447.94L110.907 448.154C109.826 455.802 108.416 463.399 106.911 470.969C105.444 478.358 103.951 485.755 102.015 493.038C101.29 495.536 100.512 498.026 99.5447 500.441C99.2206 501.145 98.872 501.835 98.5047 502.521C98.2121 502.981 97.9045 503.428 97.582 503.869C96.8928 504.692 96.1859 505.493 95.448 506.269C95.0152 506.657 94.5771 507.032 94.1299 507.402C92.979 508.237 91.806 509.028 90.5986 509.782C88.7177 510.829 86.7944 511.771 84.8291 512.649C83.0529 513.368 81.2413 513.995 79.4013 514.53C78.254 514.817 77.1088 515.072 75.9417 515.26C75.3006 515.307 74.6607 515.344 74.0184 515.371C73.0165 515.321 72.0252 515.231 71.0288 515.113C69.7792 514.867 68.5503 514.576 67.3212 514.256C65.5995 513.706 63.9113 513.093 62.2401 512.409C60.1659 511.424 58.1677 510.338 56.1848 509.188C53.6686 507.655 51.2413 506.016 48.8916 504.24C46.9736 502.666 45.1285 501.045 43.3492 499.318C39.213 495.096 35.3123 490.649 31.6647 485.997C28.7389 482.087 26.0113 478.042 23.4819 473.864C21.8656 471.006 20.3974 468.067 19.0831 465.058C18.2424 462.924 17.4074 460.783 16.7342 458.587C16.125 456.606 15.5415 454.614 14.9839 452.614C14.01 448.819 13.1901 444.991 12.5241 441.128C12.5522 438.433 12.7244 435.741 13.0399 433.064C13.3058 431.618 13.6136 430.2 13.9606 428.771C14.0299 428.527 14.0985 428.282 14.1672 428.037C14.5011 426.847 14.8366 425.652 15.2543 424.491C15.7982 422.983 16.3768 421.504 16.9876 420.023C18.5156 416.756 20.1514 413.568 21.9294 410.428C23.9007 407.212 25.9812 404.079 28.1282 400.975C28.982 399.739 29.8425 398.507 30.7033 397.275L30.7062 397.271L30.707 397.27C31.8964 395.567 33.0861 393.864 34.259 392.15L34.6135 391.632L34.615 391.63C38.4967 385.959 42.3958 380.263 45.8845 374.34C47.8368 371.025 49.7743 367.697 51.5353 364.276C53.2246 360.983 54.8598 357.662 56.441 354.311C58.1047 350.786 59.7243 347.238 61.2379 343.645C61.9465 341.953 62.6248 340.25 63.2726 338.536C63.9538 336.743 64.4682 334.888 64.9805 333.04L65.0512 332.785C66.0199 329.177 66.7207 325.502 67.1478 321.79C67.5669 318.147 67.6153 314.471 67.2921 310.818C66.9205 307.572 66.375 304.359 65.8283 301.138C65.7467 300.658 65.6652 300.177 65.5841 299.696C65.0148 296.345 64.4942 292.991 64.0427 289.621C63.8565 288.079 63.6882 286.536 63.5788 284.988C63.4857 283.663 63.4835 282.331 63.4823 281.003C63.5352 279.303 63.6491 277.616 63.8337 275.927C64.2106 273.421 64.7291 270.938 65.3867 268.49C65.7807 267.22 66.2111 265.968 66.6941 264.726C67.4458 263.043 68.2782 261.405 69.1661 259.791C70.3491 257.823 71.6377 255.921 73.0263 254.093C74.0876 252.761 75.2168 251.486 76.4094 250.271C78.4978 248.301 80.6883 246.442 82.9719 244.703L82.6248 244.97C82.7733 244.858 82.9218 244.743 83.0703 244.629L82.9719 244.703C86.1494 242.258 89.3431 239.833 92.6219 237.529C95.7298 235.348 98.8737 233.194 102.136 231.25C104.058 230.159 106.035 229.167 108.058 228.279C108.847 227.976 109.644 227.706 110.452 227.453C110.95 227.336 111.45 227.238 111.957 227.154C112.032 227.146 112.108 227.139 112.183 227.132ZM137.597 231.378C138.432 230.218 139.277 229.064 140.134 227.919C143.616 223.276 147.13 218.661 150.675 214.073C150.809 213.901 150.944 213.73 151.078 213.558L151.083 213.551C151.22 213.378 151.356 213.204 151.491 213.03C152.837 211.534 154.165 210.027 155.443 208.475C155.696 208.166 155.952 207.859 156.208 207.552C156.71 206.948 157.213 206.344 157.7 205.729C161.369 208.019 165.262 209.93 169.318 211.432C169.871 211.632 170.425 211.827 170.981 212.015C172.788 215.455 174.674 218.84 176.708 222.155C177.878 223.976 179.141 225.735 180.492 227.426C181.723 229.001 183.051 230.499 184.467 231.91C184.617 232.061 184.766 232.213 184.914 232.364C185.455 232.914 185.995 233.465 186.57 233.977C186.848 234.224 187.123 234.475 187.398 234.726L187.4 234.728L187.705 235.006C187.786 235.079 187.866 235.152 187.947 235.225C187.681 235.277 187.413 235.322 187.144 235.364C185.963 235.485 184.788 235.55 183.602 235.561C181.537 235.532 179.485 235.385 177.424 235.226C173.968 234.961 170.507 234.746 167.041 234.581C163.728 234.425 160.416 234.239 157.112 233.974C155.404 233.837 153.697 233.695 151.99 233.552L151.989 233.551L151.982 233.551C147.606 233.185 143.232 232.818 138.848 232.556C138.433 232.161 138.016 231.768 137.597 231.378ZM162.422 188.475C161.973 188.088 161.531 187.693 161.094 187.288C159.417 185.462 157.866 183.543 156.344 181.586C154.063 178.535 151.846 175.445 149.866 172.191C148.728 170.12 147.686 168.001 146.741 165.835C145.933 163.672 145.245 161.48 144.625 159.258C144.253 157.743 143.963 156.226 143.733 154.686C143.316 150.85 143.093 147.003 143.061 143.145C143.1 140.983 143.248 138.824 143.504 136.677C143.828 134.691 144.213 132.716 144.712 130.765C145.251 128.991 145.866 127.242 146.557 125.52C147.258 123.982 148.043 122.492 148.874 121.015C150.085 119.001 151.399 117.051 152.81 115.171C154.124 113.505 155.522 111.908 156.999 110.385C159.803 107.633 162.754 105.036 165.839 102.605C168.374 100.765 171.001 99.0561 173.711 97.4854C176.055 96.1372 178.471 94.9197 180.949 93.8384C183.005 93.0211 185.104 92.318 187.238 91.7324C188.854 91.3085 190.485 90.9158 192.125 90.5738C192.731 90.5247 193.337 90.4825 193.943 90.4466C193.823 91.1551 193.74 91.8696 193.693 92.5875C193.62 95.6669 194.297 98.7177 195.666 101.477C197.009 104.61 199.197 107.307 201.985 109.269C204.652 110.955 207.649 112.05 210.775 112.482C212.228 112.726 213.699 112.852 215.173 112.857C216.005 112.858 216.836 112.812 217.662 112.72C221.894 112.278 226.016 111.101 229.844 109.242C230.69 108.823 231.531 108.394 232.366 107.956C234.06 110.257 235.679 112.593 237.16 115.039C238.304 117.191 239.335 119.382 240.315 121.612C241.106 123.621 241.825 125.644 242.457 127.708C242.965 129.713 243.411 131.722 243.733 133.766C243.869 135.285 243.946 136.794 243.982 138.318C243.931 141.891 243.698 145.458 243.284 149.007C242.899 151.536 242.384 154.043 241.743 156.519C240.799 159.765 239.692 162.96 238.424 166.094C237.377 168.458 236.209 170.767 234.926 173.011C233.683 175.058 232.355 177.032 230.919 178.945C229.92 180.186 228.874 181.367 227.775 182.519C225.332 184.878 222.784 187.126 220.132 189.263C218.556 190.435 216.945 191.534 215.276 192.575C213.12 193.787 210.933 194.905 208.673 195.912C206.811 196.656 204.927 197.303 203.003 197.87C202.09 198.09 201.178 198.273 200.252 198.426C197.681 198.689 195.115 198.836 192.53 198.879C190.65 198.839 188.784 198.74 186.913 198.528C184.269 198.081 181.665 197.491 179.077 196.796C176.974 196.174 174.91 195.471 172.869 194.673L172.824 194.653C172.706 194.346 172.588 194.039 172.47 193.732L172.469 193.731L172.451 193.683C171.876 192.069 171.305 190.461 170.787 188.83C170.227 187.081 169.756 185.316 169.282 183.542L169.229 183.344C168.773 181.203 168.319 179.06 168.042 176.887C167.742 174.504 167.465 172.119 167.212 169.731C166.994 166.722 166.814 163.727 166.814 160.706C166.814 157.732 166.938 154.766 167.106 151.798C167.377 148.338 167.666 144.881 168.119 141.442C168.564 138.07 169.082 134.719 169.7 131.377C170.11 129.381 170.548 127.396 171.058 125.42C171.27 124.596 171.508 123.771 171.773 122.961C171.943 122.586 172.044 122.183 172.071 121.772C172.07 121.774 172.069 121.777 172.069 121.78L172.068 121.785C172.073 121.54 171.99 121.302 171.833 121.113C171.673 120.922 171.449 120.795 171.202 120.759C171.025 120.735 170.844 120.761 170.681 120.832C170.056 121.031 169.636 121.746 169.318 122.288C169.292 122.333 169.266 122.377 169.241 122.419C168.62 123.523 168.086 124.673 167.642 125.859C166.561 128.628 165.648 131.46 164.906 134.339C164.141 137.228 163.552 140.164 162.992 143.1C162.474 145.818 161.982 148.553 161.629 151.301C161.102 155.399 160.645 159.507 160.495 163.642C160.348 167.735 160.439 171.813 160.675 175.903L160.692 176.2C160.801 178.052 160.911 179.923 161.19 181.757C161.245 182.112 161.293 182.469 161.342 182.826C161.441 183.551 161.54 184.278 161.688 184.99C161.916 186.09 162.147 187.19 162.38 188.291L162.422 188.475ZM183.711 215.179C186.638 215.625 189.596 215.842 192.559 215.827C193.25 215.827 193.941 215.817 194.633 215.796C196.053 215.789 197.47 215.725 198.882 215.605C198.842 216.413 198.913 217.22 199.091 218.002C199.081 218.598 199.127 219.193 199.229 219.781C199.442 220.99 199.808 222.166 200.318 223.282C201.42 225.678 202.971 227.839 204.888 229.649C205.768 230.461 206.701 231.215 207.68 231.904C208.656 232.635 209.692 233.284 210.775 233.845C213.585 235.207 216.57 236.177 219.644 236.727C221.659 237.123 223.702 237.358 225.753 237.429C228.243 237.928 230.758 238.358 233.273 238.717C235.291 239.032 237.329 239.203 239.372 239.229C240.51 239.234 241.646 239.154 242.772 238.991C246.526 238.544 250.17 237.43 253.532 235.702C255.18 234.759 256.747 233.682 258.22 232.484C258.951 231.904 259.653 231.289 260.354 230.673L260.356 230.671C261.011 230.096 261.666 229.521 262.345 228.977C262.66 228.751 262.982 228.542 263.313 228.342C263.743 228.111 264.178 227.897 264.623 227.698C266.278 227.06 267.965 226.508 269.677 226.045C271.097 225.696 272.535 225.426 273.985 225.236C275.043 225.213 276.069 224.866 276.924 224.242C277.532 223.689 277.899 222.919 277.944 222.099C277.989 221.278 277.71 220.473 277.166 219.857C276.363 218.944 275.162 218.661 274.008 218.389C273.814 218.343 273.622 218.298 273.432 218.249C273.178 218.176 272.925 218.101 272.671 218.025L272.669 218.025L272.667 218.024C272.043 217.838 271.419 217.653 270.785 217.501C270.388 217.407 269.99 217.322 269.592 217.236L269.59 217.236C269.074 217.125 268.556 217.014 268.044 216.885C266.81 216.544 265.595 216.139 264.404 215.673C263.693 215.349 263.006 214.99 262.329 214.603C261.004 213.803 259.733 212.938 258.457 212.07L258.454 212.068L257.969 211.739C256.839 210.973 255.664 210.272 254.468 209.613C253.394 208.986 252.272 208.442 251.114 207.987C249.781 207.527 248.412 207.181 247.021 206.951C245.729 206.684 244.417 206.517 243.099 206.45C241.439 206.387 239.778 206.466 238.131 206.686C236.89 206.877 235.663 207.152 234.459 207.509C234.24 207.564 234.023 207.617 233.803 207.662L233.787 207.663C233.519 207.648 233.253 207.618 232.988 207.585C232.922 207.573 232.856 207.562 232.79 207.55C232.237 207.184 231.703 206.78 231.177 206.378C231.044 206.273 230.91 206.168 230.775 206.063C229.961 205.425 229.127 204.771 228.267 204.152C228.854 203.734 229.434 203.306 230.007 202.869C233.288 200.34 236.397 197.596 239.315 194.657C241.782 192.2 244.037 189.543 246.058 186.714C246.404 186.733 246.749 186.759 247.094 186.79C247.907 186.916 248.702 187.077 249.503 187.273C250.436 187.557 251.352 187.871 252.255 188.24C252.701 188.458 253.144 188.677 253.577 188.918C253.651 188.966 253.724 189.015 253.796 189.066C254.07 189.287 254.332 189.52 254.586 189.763C254.625 189.805 254.663 189.848 254.7 189.891L254.737 189.946L254.76 189.991C254.773 190.018 254.787 190.046 254.8 190.074C254.871 190.264 254.935 190.456 254.995 190.65L255.004 190.694C255.011 190.792 255.016 190.889 255.02 190.987C255.021 191.023 255.022 191.06 255.023 191.096C255.021 191.152 255.017 191.207 255.013 191.263C254.992 191.375 254.968 191.485 254.942 191.596C254.888 191.763 254.831 191.929 254.769 192.094C254.711 192.217 254.649 192.336 254.585 192.455C254.46 192.642 254.332 192.826 254.199 193.007C253.892 193.372 253.573 193.72 253.246 194.069C251.931 195.349 250.583 196.61 249.151 197.757C249.065 197.821 248.977 197.885 248.89 197.949C248.18 198.441 247.68 199.182 247.491 200.025C247.401 200.459 247.399 200.907 247.484 201.343C247.569 201.778 247.739 202.192 247.986 202.56C248.295 203.012 248.709 203.381 249.193 203.636C249.678 203.89 250.217 204.023 250.764 204.021C251.271 204.022 251.772 203.905 252.226 203.679C252.528 203.529 252.834 203.385 253.141 203.24C253.748 202.954 254.357 202.666 254.938 202.334C256.023 201.736 257.048 201.035 258.001 200.243C259.929 198.74 261.335 196.666 262.017 194.318C262.222 193.486 262.328 192.632 262.332 191.774C262.322 191.115 262.243 190.459 262.097 189.816C261.948 189.133 261.704 188.475 261.369 187.861C261.055 187.237 260.671 186.651 260.224 186.115C258.768 184.626 256.937 183.561 254.924 183.031C253.607 182.642 252.261 182.359 250.898 182.186C250.327 182.11 249.75 182.042 249.173 182.022C249.169 182.021 249.165 182.021 249.162 182.021C250.812 179.338 252.29 176.551 253.588 173.679C254.463 171.688 255.331 169.671 256.032 167.613C256.669 165.741 257.238 163.86 257.775 161.961C258.748 158.475 259.487 154.928 259.987 151.344C260.388 148.404 260.617 145.444 260.673 142.477C260.678 142.199 260.684 141.92 260.69 141.641L260.69 141.632C260.733 139.627 260.776 137.609 260.629 135.613C260.468 133.226 260.15 130.851 259.678 128.505C258.694 124.033 257.262 119.671 255.402 115.487C253.768 111.616 251.752 107.918 249.383 104.447C248.384 102.987 247.337 101.561 246.244 100.171C249.112 98.5856 252.005 97.045 254.93 95.5704C257.636 94.204 260.339 92.8377 263.013 91.4067C265.553 90.0476 268.105 88.7349 270.751 87.597C272.912 86.7152 275.103 85.9121 277.324 85.1875C277.843 85.0185 278.363 84.8586 278.883 84.6989C279.683 84.4532 280.481 84.208 281.269 83.9309L281.191 84.037C281.11 84.1475 281.029 84.2581 280.946 84.3686C279.862 85.6958 278.71 86.9729 277.559 88.2476C277.206 88.6387 276.853 89.0296 276.503 89.4216C274.791 91.1988 273.307 93.1808 272.083 95.3227C270.59 98.1702 269.515 101.295 270.31 104.531C270.661 105.913 271.287 107.211 272.151 108.346C273.015 109.481 274.1 110.43 275.339 111.135C277.391 112.299 279.738 112.837 282.091 112.682C286.289 112.324 290.416 111.385 294.356 109.893C296.186 109.244 298.001 108.559 299.804 107.838C301.663 107.132 303.471 106.295 305.213 105.335C306.95 104.33 308.629 103.285 310.263 102.119C310.562 101.907 310.86 101.692 311.158 101.478C312.231 100.706 313.306 99.9328 314.433 99.2392C314.827 99.0271 315.225 98.824 315.631 98.6296C315.79 98.5707 315.946 98.5148 316.105 98.4618C316.297 98.4176 316.485 98.3823 316.676 98.347C316.85 98.3323 317.021 98.3205 317.195 98.3116C317.466 98.3205 317.734 98.3351 318.004 98.3558L318.04 98.3646C318.199 98.4206 318.355 98.4795 318.514 98.5413C318.682 98.6208 318.85 98.7003 319.02 98.7828C319.356 99.0006 319.68 99.2333 320.001 99.4747C320.437 99.8339 320.858 100.205 321.27 100.591C322.218 101.574 323.099 102.611 323.95 103.683C325.131 105.25 326.229 106.878 327.242 108.559C328.597 110.969 329.826 113.448 330.922 115.985C331.246 116.777 331.559 117.576 331.865 118.374C331.83 118.603 331.808 118.834 331.797 119.066C331.737 119.956 331.804 120.85 331.997 121.722C332.04 121.904 332.083 122.085 332.126 122.267C332.169 122.452 332.213 122.637 332.256 122.823C332.876 126.066 333.316 129.34 333.573 132.632C334.015 137.997 334.141 143.385 333.95 148.765C333.599 153.483 332.94 158.141 332.124 162.799C331.715 164.843 331.273 166.878 330.772 168.901C330.328 170.688 329.792 172.443 329.25 174.198C328.246 177.162 327.15 180.093 325.964 182.991C324.833 185.756 323.582 188.468 322.315 191.168C321.158 193.509 319.977 195.83 318.714 198.115C317.524 200.27 316.246 202.367 314.945 204.454L314.441 205.212L314.439 205.214C313.447 206.708 312.451 208.206 311.361 209.628C310.107 211.268 308.835 212.882 307.527 214.481C307.387 214.642 307.246 214.804 307.106 214.965C305.789 216.479 304.466 218 303.04 219.407C301.57 220.859 300.086 222.278 298.576 223.68C297.183 224.873 295.796 226.053 294.365 227.193C293.098 228.197 291.803 229.154 290.504 230.111L289.797 230.595L289.796 230.596C288.185 231.699 286.568 232.807 284.883 233.783C284.534 233.985 284.187 234.193 283.84 234.4C283.127 234.827 282.412 235.254 281.679 235.638L280.523 236.247C280.035 236.503 279.547 236.76 279.058 237.016C278.684 237.19 278.311 237.371 277.938 237.553L277.936 237.554C277.204 237.91 276.471 238.266 275.722 238.568C274.614 239.02 273.505 239.469 272.395 239.917C270.796 240.464 269.206 241.003 267.58 241.466C265.94 241.931 264.291 242.314 262.63 242.688C262.282 242.749 261.934 242.815 261.586 242.88L261.582 242.881C260.729 243.042 259.876 243.203 259.02 243.303C257.777 243.453 256.529 243.601 255.283 243.745C253.531 243.863 251.785 243.971 250.027 244.007C248.06 244.045 246.108 244.004 244.141 243.96L243.603 243.928C241.355 243.795 239.102 243.662 236.874 243.368C234.306 243.032 231.759 242.652 229.206 242.234C227.292 241.854 225.383 241.463 223.481 241.009C221.558 240.55 219.668 240.014 217.766 239.472C216.028 238.886 214.303 238.294 212.595 237.62C210.896 236.951 209.238 236.209 207.574 235.456C207.388 235.361 207.201 235.267 207.014 235.173C206.9 235.117 206.786 235.06 206.672 235.003C205.914 234.626 205.155 234.249 204.426 233.827C203.33 233.195 202.233 232.561 201.134 231.925C199.792 231.059 198.458 230.191 197.162 229.251C197.079 229.191 196.996 229.131 196.912 229.071L196.786 228.98C196.182 228.545 195.579 228.11 195.006 227.638C194.678 227.367 194.349 227.097 194.02 226.827C193.717 226.579 193.415 226.331 193.113 226.083C192.861 225.85 192.603 225.619 192.345 225.388C191.741 224.848 191.134 224.305 190.584 223.721L189.688 222.772C189.314 222.376 188.94 221.98 188.567 221.583C188.374 221.356 188.178 221.129 187.982 220.902L187.975 220.895L187.975 220.894C187.485 220.329 186.993 219.761 186.549 219.166C185.976 218.393 185.401 217.623 184.824 216.854C184.45 216.298 184.079 215.74 183.711 215.179ZM11.3321 411.44C11.2246 412.247 11.1197 413.054 11.0173 413.861C10.9934 414.552 10.9741 415.243 10.9593 415.934C10.9596 415.817 10.9597 415.699 10.9596 415.581C10.9586 415.798 10.9578 416.014 10.9573 416.231L10.9572 416.272L10.9568 416.32V416.535L10.9564 416.567C10.9377 418.227 10.9428 419.886 10.9717 421.545C11.6391 419.302 12.4426 417.101 13.3784 414.953C14.0998 413.269 14.835 411.59 15.5839 409.917C16.2103 408.519 16.9365 407.162 17.661 405.808C17.7983 405.551 17.9356 405.295 18.0721 405.038C19.4519 402.441 20.9675 399.906 22.4798 397.378C22.8687 396.727 23.2574 396.077 23.6434 395.427C25.2559 392.709 26.8844 389.999 28.5124 387.291L28.513 387.29L28.5145 387.287L28.5183 387.281C30.5023 383.98 32.4862 380.68 34.4418 377.362C36.717 373.429 38.886 369.454 40.9373 365.4C42.9963 361.335 44.8153 357.152 46.611 352.968C46.7609 352.612 46.9111 352.257 47.0614 351.901L47.3308 351.264C49.9937 344.965 52.6702 338.634 54.5724 332.065C55.243 329.384 55.7921 326.698 56.2446 323.972C56.4404 322.537 56.6218 321.101 56.7354 319.655C56.8514 318.183 56.902 316.714 56.9206 315.238C56.8583 313.395 56.7343 311.572 56.5432 309.737C56.2604 307.662 55.9437 305.59 55.627 303.518C54.9277 298.944 54.2283 294.369 53.8931 289.752C52.3112 292.29 50.7589 294.847 49.2238 297.417C47.6043 300.203 45.9876 302.991 44.4093 305.807C42.6544 308.937 40.9641 312.099 39.3034 315.279C36.2556 321.116 33.4229 327.051 30.8051 333.086C29.1001 337.329 27.4982 341.599 26.0141 345.93C24.5683 350.156 23.3316 354.461 22.1243 358.763C20.3133 365.389 18.5847 372.029 17.083 378.737C16.4445 381.593 15.9313 384.482 15.4186 387.369L15.4177 387.373L15.4163 387.381C15.2961 388.058 15.1759 388.735 15.0541 389.411C14.7113 391.314 14.3786 393.22 14.046 395.125L14.0456 395.127C13.8097 396.478 13.5739 397.828 13.3345 399.178C12.6101 403.257 11.918 407.338 11.3321 411.44ZM422.275 448.409L422.284 448.288C422.289 448.206 422.296 448.123 422.302 448.039L422.231 449.094L422.246 448.858C422.256 448.708 422.265 448.558 422.275 448.409Z" fill="black"/>
</svg>
