<svg width="1200" height="1200" viewBox="0 0 1200 1200" fill="none" xmlns="http://www.w3.org/2000/svg">
<rect width="1200" height="1200" fill="white"/>
<path fill-rule="evenodd" clip-rule="evenodd" d="M1035.58 117.52L1036.03 117.722C1062.57 129.612 1085.09 148.939 1100.86 173.363C1116.63 197.772 1124.99 226.227 1124.93 255.285V575.897L1124.93 576.165C1123.36 699.298 1084.28 819.025 1012.92 919.378C941.56 1019.71 841.315 1095.91 725.545 1137.82C725.525 1137.83 725.505 1137.83 725.485 1137.84L678.615 1154.92L678.6 1154.93L678.584 1154.94C653.492 1164.06 627.011 1168.77 600.312 1168.87L599.901 1168.88L599.491 1168.87C573.458 1168.46 547.69 1163.58 523.312 1154.44L476.219 1137.43C476.211 1137.43 476.202 1137.42 476.194 1137.42C360.263 1095.72 259.795 1019.68 188.185 919.425C116.57 819.164 77.2194 699.454 75.38 576.256L75.3753 575.943V255.285C75.3161 226.226 83.676 197.772 99.4446 173.363C115.223 148.939 137.744 129.612 164.279 117.722L164.731 117.52L165.187 117.328C302.85 59.4983 450.846 30.3088 600.154 31.5372C749.463 30.3088 897.459 59.4983 1035.12 117.328L1035.58 117.52ZM600.154 73.5387C456.431 72.3093 313.965 100.384 181.453 156.05C162.327 164.62 146.096 178.55 134.723 196.154C123.351 213.758 117.325 234.281 117.375 255.239V575.629C119.087 690.288 155.71 801.701 222.362 895.013C289.013 988.325 382.526 1059.1 490.432 1097.91L537.832 1115.03C557.77 1122.53 578.853 1126.54 600.154 1126.88C622.012 1126.79 643.691 1122.93 664.232 1115.46L711.194 1098.35C818.957 1059.35 912.27 988.43 978.688 895.037C1045.11 801.644 1081.47 690.221 1082.93 575.629V255.239C1082.98 234.281 1076.96 213.758 1065.59 196.154C1054.21 178.55 1037.98 164.62 1018.86 156.05C886.344 100.384 743.878 72.3093 600.154 73.5387Z" fill="white"/>
<path fill-rule="evenodd" clip-rule="evenodd" d="M777.336 87.2241C719.008 77.8523 659.853 73.3599 600.484 73.8678C456.754 72.6383 314.282 100.715 181.765 156.383C162.638 164.953 146.406 178.883 135.033 196.488C123.66 214.093 117.634 234.617 117.684 255.576V575.979C118.439 626.587 125.996 676.561 139.933 724.627L777.336 87.2241Z" fill="#FFCD5F"/>
<path fill-rule="evenodd" clip-rule="evenodd" d="M1083.28 346.78L383.645 1046.42C417.245 1067.33 453.125 1084.75 490.756 1098.28L538.158 1115.4C558.097 1122.9 579.181 1126.91 600.483 1127.25C622.341 1127.17 644.021 1123.31 664.564 1115.84L711.527 1098.72C819.295 1059.72 912.612 988.798 979.033 895.401C1045.45 802.004 1081.82 690.577 1083.28 575.98V346.78Z" fill="#FFCD5F"/>
<path fill-rule="evenodd" clip-rule="evenodd" d="M138.926 721.107C156.505 783.238 184.722 842.242 222.676 895.378C270.541 962.389 332.259 1017.78 403.212 1058.05L1083.28 377.981V255.577C1083.33 234.618 1077.31 214.094 1065.94 196.489C1054.56 178.884 1038.33 164.954 1019.2 156.384C940.203 123.197 857.663 99.8158 773.429 86.6045L138.926 721.107Z" fill="#FFC33E"/>
<g style="mix-blend-mode:multiply" opacity="0.05" filter="url(#filter0_i_1246_11506)">
<path d="M961.92 217.726C847.705 169.747 724.909 145.548 601.03 146.608C477.151 145.548 354.356 169.747 240.141 217.726C223.656 225.113 209.665 237.119 199.863 252.293C190.061 267.466 184.867 285.156 184.91 303.22V579.372C186.386 678.2 217.952 774.229 275.401 854.657C332.85 935.086 413.451 996.09 506.458 1029.54L547.313 1044.29C564.498 1050.76 582.67 1054.22 601.03 1054.51C619.87 1054.43 638.555 1051.11 656.261 1044.67L696.738 1029.92C789.622 996.306 870.051 935.176 927.298 854.678C984.546 774.18 1015.89 678.142 1017.15 579.372V303.22C1017.19 285.156 1012 267.466 1002.2 252.293C992.395 237.119 978.405 225.113 961.92 217.726Z" fill="white"/>
</g>
<g style="mix-blend-mode:soft-light" opacity="0.3" filter="url(#filter1_i_1246_11506)">
<path d="M961.92 217.726C847.705 169.747 724.909 145.548 601.03 146.608C477.151 145.548 354.356 169.747 240.141 217.726C223.656 225.113 209.665 237.119 199.863 252.293C190.061 267.466 184.867 285.156 184.91 303.22V579.372C186.386 678.2 217.952 774.229 275.401 854.657C332.85 935.086 413.451 996.09 506.458 1029.54L547.313 1044.29C564.498 1050.76 582.67 1054.22 601.03 1054.51C619.87 1054.43 638.555 1051.11 656.261 1044.67L696.738 1029.92C789.622 996.306 870.051 935.176 927.298 854.678C984.546 774.18 1015.89 678.142 1017.15 579.372V303.22C1017.19 285.156 1012 267.466 1002.2 252.293C992.395 237.119 978.405 225.113 961.92 217.726Z" fill="black"/>
</g>
<path d="M397.347 798.588C397.896 798.917 398.335 799.137 398.664 799.466C399.432 800.234 399.871 801.331 400.201 802.539C400.53 804.185 400.201 805.831 398.884 807.367C398.445 808.025 398.006 808.684 397.677 809.452C396.25 811.537 394.933 813.732 392.848 815.378C388.897 819.987 383.63 821.743 377.265 820.645C374.961 820.316 372.107 819.658 369.583 818.451C365.852 816.475 362.67 817.024 359.158 820.536L359.048 820.645C352.684 826.791 346.209 833.265 339.954 839.521C337.43 842.264 336.881 845.227 338.308 848.409L339.625 851.482C340.503 853.238 341.271 855.104 341.71 856.64L341.819 856.75C343.246 860.59 342.258 865.529 339.405 870.138C338.527 871.455 337.43 872.771 336.332 873.869C333.808 876.393 330.846 878.039 327.773 878.478C325.029 878.807 323.164 877.6 321.957 876.393C321.518 875.954 321.079 875.515 320.859 875.076C318.445 872.223 317.238 869.04 316.47 866.297C313.836 858.176 310.763 850.714 307.581 844.239C304.398 837.326 301.765 829.864 299.46 820.536C296.278 808.355 291.778 796.613 287.608 786.736C287.169 786.078 286.95 785.2 286.621 784.432C282.56 775.543 283.877 770.275 292.327 764.459C295.071 762.374 298.143 761.935 301.216 763.032C304.728 764.13 308.349 765.337 311.751 766.325C325.139 770.714 338.966 775.104 351.806 782.017C356.744 784.541 362.67 786.078 367.828 787.285C374.741 788.931 381.325 791.565 387.69 794.198C389.336 794.747 391.202 795.515 393.068 796.283C394.494 796.613 396.14 797.6 397.347 798.588ZM342.697 803.197C342.368 802.868 342.039 802.758 341.929 802.648C340.173 801.99 338.308 801.222 336.771 800.563C330.077 797.82 323.274 794.967 316.031 793.211C315.592 793.211 315.372 792.991 315.153 792.991C315.153 793.211 315.263 793.54 315.372 793.869C318.445 801.99 321.518 810.549 324.7 818.78C325.029 819.768 325.359 820.097 325.578 820.316C325.798 820.316 326.236 820.097 327.334 819.438C329.858 817.573 332.162 815.488 333.808 814.061L334.796 813.073C336.003 811.866 336.991 810.879 338.088 810.001C339.625 808.464 340.942 807.148 342.149 805.721C342.807 805.063 343.136 804.294 343.027 803.746L342.697 803.197ZM448.763 719.298C454.25 718.64 457.872 718.749 459.847 720.944C462.042 723.139 462.042 726.651 461.054 732.247L461.164 732.357C459.298 743.88 453.921 754.744 444.703 764.181C437.131 771.753 428.681 776.911 419.792 779.655C410.794 782.508 401.137 782.727 390.821 780.313C377.653 777.24 366.24 769.778 358.778 759.243C354.827 753.756 352.303 747.72 350.876 741.246C349.34 734.442 349.23 727.309 350.767 720.066C355.485 695.594 369.422 679.024 392.028 671.123C395.76 669.806 399.491 669.147 403.112 669.257L403.332 669.257C404.868 669.257 407.392 669.367 409.148 671.123C412.769 674.305 412.33 678.475 411.891 681.767C411.781 682.755 411.672 683.743 411.781 684.73C412.001 688.242 409.696 691.205 405.636 692.193L400.149 693.729C398.393 694.168 396.637 694.826 394.991 695.375C384.017 698.667 377.433 706.568 375.129 718.749C374.36 722.59 374.36 726.541 375.129 730.382C377.214 742.343 385.554 750.244 392.687 753.866C395.43 755.292 398.064 755.951 401.027 756.5C407.831 757.816 413.647 756.609 414.964 755.951L415.183 755.951C418.695 755.073 421.109 753.756 421.329 753.537L421.438 753.427C422.975 752.768 428.133 749.806 431.973 743.989C434.936 739.271 436.363 733.893 437.68 729.065C438.448 725.663 439.216 723.139 441.082 721.493C442.838 719.957 445.252 719.518 448.763 719.298ZM518.336 649.725C523.823 649.067 527.445 649.177 529.42 651.371C531.615 653.566 531.615 657.078 530.627 662.675L530.737 662.784C528.871 674.307 523.494 685.171 514.276 694.609C506.704 702.181 498.254 707.338 489.365 710.082C480.367 712.935 470.71 713.154 460.394 710.74C447.225 707.667 435.813 700.205 428.35 689.67C424.4 684.183 421.876 678.148 420.449 671.673C418.913 664.869 418.803 657.736 420.339 650.493C425.058 626.022 438.995 609.451 461.601 601.55C465.332 600.233 469.063 599.575 472.685 599.684L472.904 599.684C474.441 599.684 476.965 599.794 478.721 601.55C482.342 604.732 481.903 608.902 481.464 612.195C481.354 613.182 481.245 614.17 481.354 615.158C481.574 618.669 479.269 621.632 475.209 622.62L469.722 624.156C467.966 624.595 466.21 625.254 464.564 625.802C453.59 629.094 447.006 636.996 444.701 649.177C443.933 653.017 443.933 656.968 444.701 660.809C446.786 672.77 455.127 680.672 462.26 684.293C465.003 685.72 467.637 686.378 470.6 686.927C477.404 688.244 483.22 687.037 484.537 686.378L484.756 686.378C488.268 685.5 490.682 684.183 490.902 683.964L491.011 683.854C492.548 683.196 497.705 680.233 501.546 674.417C504.509 669.698 505.936 664.321 507.253 659.492C508.021 656.09 508.789 653.566 510.655 651.92C512.41 650.384 514.825 649.945 518.336 649.725ZM587.141 596.723C590.872 597.601 593.616 600.783 594.932 605.392L594.823 605.502C595.81 609.343 593.945 612.306 592.299 614.391C590.653 616.257 589.006 617.903 587.251 619.659C585.166 621.744 583.081 623.829 580.886 625.804C578.362 628.108 575.838 630.413 573.533 632.937L556.085 650.385C554.439 652.032 551.585 654.885 547.306 654.336C544.782 654.446 542.697 653.239 541.16 651.044C537.758 646.545 533.369 642.813 529.199 639.302C528.87 638.973 528.431 638.534 527.992 638.314C523.383 634.144 519.103 629.864 515.152 625.694L509.775 620.317C500.557 611.099 490.9 601.442 480.584 592.882C478.28 591.236 475.975 588.932 475.756 585.859C475.756 583.006 477.731 580.153 479.926 577.738C485.523 571.264 491.558 564.35 498.582 558.644C502.313 555.352 505.605 551.62 508.897 547.889C510.214 546.353 511.531 544.817 512.848 543.5C513.396 542.732 514.055 542.073 514.603 541.524C515.152 540.756 515.701 540.208 516.25 539.659L516.359 539.549C517.347 538.561 518.774 537.354 520.749 536.915C525.797 535.599 528.979 538.781 531.174 541.195L532.71 542.732C534.795 544.597 536.551 547.889 532.93 553.266C531.613 555.681 529.967 557.766 528.101 559.192C523.492 562.924 519.322 567.313 515.262 571.593C513.287 573.568 511.531 575.543 509.555 577.519C507.69 579.384 505.715 581.36 505.824 582.567C505.824 583.664 507.58 585.42 509.336 586.956C511.97 589.371 514.603 591.785 516.798 594.419C518.115 595.735 518.664 596.065 518.664 596.065C518.883 596.065 519.322 595.845 520.639 594.748L528.211 587.176C529.528 585.859 530.845 584.542 532.052 583.335L541.051 574.336C545.55 570.057 549.171 569.727 554 573.458C554.878 574.117 555.865 574.885 556.743 575.982C558.499 577.738 559.487 578.945 559.596 581.03C559.816 583.225 558.609 585.31 557.182 586.956C555.756 589.041 554 591.236 551.805 593.431C546.976 598.479 542.038 603.417 537.21 608.246C535.344 610.111 534.466 611.428 534.466 612.306C534.466 613.184 535.344 614.501 537.1 616.037C539.953 618.671 542.916 621.195 545.66 623.499C547.086 624.487 548.952 625.036 550.598 624.707C552.024 624.158 553.122 623.28 553.232 623.17C560.584 615.818 564.315 612.306 566.729 610.111C569.692 607.368 570.79 606.27 574.082 602.539L576.057 600.564C579.459 597.162 583.52 595.735 587.141 596.723ZM632.118 525.409C640.019 529.14 646.054 537.151 648.249 546.589C650.444 556.026 648.359 565.793 642.433 574.133C641.226 575.779 639.909 577.316 638.373 578.852C637.934 579.51 637.385 580.059 636.946 580.718L636.617 581.047C631.569 585.436 626.192 588.619 620.595 590.923C614.779 593.447 608.743 594.874 602.598 595.313C602.049 595.423 601.391 595.423 600.623 595.313C594.916 594.654 593.709 589.058 592.721 582.144C592.173 576.986 594.038 574.023 598.867 572.487C600.842 571.829 603.147 571.719 605.341 571.499C607.207 571.39 609.292 571.28 610.828 570.622C616.315 568.866 620.266 564.915 623.229 558.441C624.546 555.368 624.655 552.624 623.119 550.649C621.583 548.454 618.949 547.576 615.657 548.015L615.547 547.906C610.17 548.674 604.573 550.32 598.099 553.502C594.258 555.807 590.965 557.124 587.893 558.002C583.832 559.209 580.101 559.867 576.48 559.757C570.444 559.428 564.957 557.892 560.239 554.929C555.739 552.185 552.118 548.125 548.935 542.748C545.863 537.919 544.436 533.201 544.546 528.482C544.326 523.653 545.753 518.715 548.716 513.777C552.557 506.644 557.715 500.828 563.75 496.548C569.676 492.597 576.59 489.415 584.71 487.878C588.771 486.891 591.514 488.537 592.721 492.378C592.721 492.817 592.941 493.256 593.16 493.695C593.38 494.572 593.819 495.45 593.928 496.438C595.026 500.169 595.575 503.132 594.148 505.656C592.941 507.961 590.307 509.277 586.356 510.594C582.845 511.911 579.662 513.118 577.029 514.655C572.42 517.069 570.005 520.8 569.018 527.055C568.469 530.677 569.566 531.774 572.749 533.201C576.59 534.847 580.54 534.408 585.808 532.432L585.917 532.323C590.417 530.677 594.916 528.811 599.306 527.055L604.902 524.751C614.23 520.91 623.338 521.02 632.118 525.409ZM690.138 467.389C698.039 471.12 704.075 479.131 706.269 488.569C708.464 498.006 706.379 507.773 700.453 516.113C699.246 517.759 697.929 519.295 696.393 520.832C695.954 521.49 695.405 522.039 694.966 522.697L694.637 523.027C689.589 527.416 684.212 530.599 678.615 532.903C672.799 535.427 666.763 536.854 660.618 537.293C660.069 537.402 659.411 537.402 658.643 537.293C652.936 536.634 651.729 531.037 650.742 524.124C650.193 518.966 652.058 516.003 656.887 514.467C658.862 513.808 661.167 513.699 663.361 513.479C665.227 513.37 667.312 513.26 668.848 512.601C674.335 510.846 678.286 506.895 681.249 500.42C682.566 497.348 682.676 494.604 681.139 492.629C679.603 490.434 676.969 489.556 673.677 489.995L673.567 489.885C668.19 490.654 662.593 492.3 656.119 495.482C652.278 497.787 648.986 499.103 645.913 499.981C641.853 501.188 638.122 501.847 634.5 501.737C628.464 501.408 622.978 499.872 618.259 496.909C613.759 494.165 610.138 490.105 606.956 484.728C603.883 479.899 602.456 475.18 602.566 470.462C602.347 465.633 603.773 460.695 606.736 455.757C610.577 448.624 615.735 442.807 621.77 438.528C627.696 434.577 634.61 431.394 642.731 429.858C646.791 428.871 649.534 430.517 650.742 434.357C650.742 434.796 650.961 435.235 651.18 435.674C651.4 436.552 651.839 437.43 651.949 438.418C653.046 442.149 653.595 445.112 652.168 447.636C650.961 449.94 648.327 451.257 644.377 452.574C640.865 453.891 637.683 455.098 635.049 456.634C630.44 459.049 628.026 462.78 627.038 469.035C626.489 472.656 627.587 473.754 630.769 475.18C634.61 476.826 638.56 476.387 643.828 474.412L643.938 474.302C648.437 472.656 652.936 470.791 657.326 469.035L662.923 466.73C672.25 462.89 681.359 462.999 690.138 467.389ZM671.341 393.786C673.426 394.773 675.401 396.31 677.596 398.943L677.706 399.053C685.497 408.601 694.825 417.709 703.714 426.378C711.176 433.621 718.748 440.974 725.771 449.094L729.941 453.264C732.246 455.349 734.66 457.764 736.635 460.617C738.062 462.702 738.83 464.128 738.83 465.884C738.611 467.64 737.733 469.396 736.196 471.371L734.77 472.798L733.563 474.005C731.368 476.2 728.734 478.175 725.991 478.285L725.771 478.285C722.04 478.285 719.297 475.102 717.87 473.456L717.76 473.347C714.688 469.396 710.847 465.775 707.335 462.263C704.372 459.3 701.08 456.008 698.227 452.935C695.154 449.643 692.411 446.899 687.033 441.522C680.778 435.487 664.317 420.562 660.586 417.27L660.477 417.16C659.599 416.282 658.501 415.404 657.514 414.417C657.075 414.197 656.636 413.758 655.977 413.319C654.331 411.893 653.344 409.808 653.453 407.503C653.234 403.772 657.075 399.273 658.172 397.956C659.708 396.419 663.33 392.798 666.622 392.579C668.597 392.359 670.243 393.127 671.341 393.786ZM769.927 363.896C778.158 363.566 786.169 367.188 792.314 374.211C795.058 377.394 797.362 381.454 798.569 385.295C799.996 389.575 800.215 393.745 799.557 397.695C798.24 404.06 796.484 409.986 791.766 415.144C786.937 420.631 782.218 425.569 777.609 430.178C772.451 435.336 767.403 440.164 762.355 444.334C758.624 447.626 756.43 447.846 755.003 447.736C751.93 447.517 749.626 444.993 748.419 443.347C741.834 435.006 733.823 428.093 727.788 423.155C722.959 419.204 719.009 414.595 715.168 410.315C713.851 408.998 712.863 407.791 711.656 406.584L711.546 406.474C706.059 400.329 700.024 394.293 694.098 388.367C692.123 386.612 689.928 384.417 687.952 382.442L685.758 380.247C681.807 375.638 681.917 372.236 686.416 367.736L686.526 367.627C688.611 365.761 690.696 363.676 692.781 361.591C698.158 356.214 703.755 350.617 709.791 345.459C713.741 342.167 717.911 338.656 722.849 336.351C729.982 332.73 737.225 332.51 746.004 335.583C752.15 337.778 756.539 341.07 759.502 345.789C762.136 349.959 763.453 355.446 763.343 361.92L763.233 363.127C763.233 363.786 763.233 364.225 763.343 364.774L763.233 364.883L763.343 364.993C763.233 365.103 763.343 365.212 763.343 365.432C763.453 365.322 763.782 365.212 764.002 365.212C765.977 364.774 767.842 364.005 769.927 363.896ZM742.054 366.749C740.737 363.676 738.652 361.372 735.689 359.287C731.848 356.763 728.227 356.872 724.715 359.726C721.752 362.03 713.851 369.273 712.753 370.37L712.644 370.48C711.985 371.138 711.546 371.577 711.546 372.016C711.546 372.455 711.766 372.894 712.314 373.443C716.155 377.284 720.655 381.564 725.812 384.746C727.788 386.063 728.885 385.624 729.982 384.746C735.36 380.686 738.871 377.174 741.615 373.333C742.932 370.919 743.151 368.944 742.054 366.749ZM763.892 415.583C764.66 414.814 766.745 412.729 768.611 410.644C770.805 408.45 772.89 406.145 773.768 405.267C776.512 402.524 777.28 399.122 776.073 395.061C774.756 391.55 771.354 388.806 766.965 387.709C762.465 386.721 758.076 387.38 755.113 389.684C752.259 392.318 749.516 395.281 747.211 398.244C745.895 399.78 744.687 401.426 743.261 402.853C742.054 404.28 742.273 405.377 743.59 406.694L743.7 406.804L745.346 408.45C748.199 411.303 751.052 414.156 754.125 416.57C756.649 418.436 758.076 418.546 758.954 418.546C760.27 418.326 761.807 417.448 763.892 415.583ZM863.962 327.365C865.059 328.242 865.937 329.12 866.705 330.108C869.339 332.961 869.229 336.363 866.705 339.546C864.181 342.509 861.767 345.581 859.024 348.325L857.707 349.642C849.257 357.433 840.587 365.444 832.137 373.455C829.613 375.759 827.967 377.405 825.773 377.625C823.468 377.735 821.603 376.089 819.408 374.113C814.031 368.956 808.763 363.469 803.605 358.311L795.594 350.3C794.716 349.422 793.839 348.544 792.851 347.556C783.962 338.668 774.854 329.559 764.648 321.109L761.356 318.476C760.149 317.707 758.942 316.72 757.734 315.732C756.088 314.306 753.455 311.891 753.455 308.819C753.564 305.856 755.759 303.441 757.295 301.905L758.173 301.027C758.612 300.588 759.051 300.369 759.271 299.93L759.49 299.71C763.88 295.101 766.075 294.004 767.94 293.894C770.464 293.565 772.33 295.211 774.634 297.077C775.183 297.625 775.841 298.284 776.5 298.723L776.61 298.832C783.962 305.088 791.205 312.55 799.874 322.755C804.703 328.242 808.544 332.083 812.714 335.595C816.445 338.668 819.956 342.179 823.358 345.581C825.443 347.666 826.87 348.434 828.077 348.544C829.065 348.434 830.491 347.447 832.247 345.471C835.32 342.179 838.502 339.216 841.575 336.363C843.441 334.498 845.635 332.522 847.611 330.547C849.257 328.901 851.013 327.145 853.317 325.718C856.719 323.633 860.011 323.633 862.645 326.048L862.755 326.157L863.962 327.365ZM918.497 265.367C922.228 266.245 924.972 269.427 926.288 274.037L926.179 274.146C927.166 277.987 925.301 280.95 923.655 283.035C922.009 284.901 920.362 286.547 918.607 288.303C916.522 290.388 914.437 292.473 912.242 294.448C909.718 296.752 907.194 299.057 904.889 301.581L887.441 319.03C885.795 320.676 882.941 323.529 878.662 322.98C876.138 323.09 874.053 321.883 872.516 319.688C869.114 315.189 864.725 311.458 860.555 307.946C860.226 307.617 859.787 307.178 859.348 306.958C854.739 302.788 850.459 298.508 846.508 294.338L841.131 288.961C831.913 279.743 822.256 270.086 811.94 261.526C809.636 259.88 807.331 257.576 807.112 254.503C807.112 251.65 809.087 248.797 811.282 246.382C816.879 239.908 822.914 232.994 829.938 227.288C833.669 223.996 836.961 220.264 840.253 216.533C841.57 214.997 842.887 213.461 844.204 212.144C844.752 211.376 845.411 210.717 845.959 210.168C846.508 209.4 847.057 208.852 847.606 208.303L847.715 208.193C848.703 207.205 850.13 205.998 852.105 205.559C857.153 204.243 860.335 207.425 862.53 209.839L864.066 211.376C866.151 213.241 867.907 216.533 864.286 221.911C862.969 224.325 861.323 226.41 859.457 227.836C854.848 231.568 850.678 235.957 846.618 240.237C844.643 242.212 842.887 244.188 840.911 246.163C839.046 248.028 837.071 250.004 837.18 251.211C837.18 252.308 838.936 254.064 840.692 255.6C843.326 258.015 845.959 260.429 848.154 263.063C849.471 264.379 850.02 264.709 850.02 264.709C850.239 264.709 850.678 264.489 851.995 263.392L859.567 255.82C860.884 254.503 862.201 253.186 863.408 251.979L872.407 242.98C876.906 238.701 880.527 238.371 885.356 242.102C886.234 242.761 887.221 243.529 888.099 244.626C889.855 246.382 890.843 247.589 890.952 249.674C891.172 251.869 889.965 253.954 888.538 255.6C887.112 257.685 885.356 259.88 883.161 262.075C878.332 267.123 873.394 272.061 868.566 276.89C866.7 278.755 865.822 280.072 865.822 280.95C865.822 281.828 866.7 283.145 868.456 284.681C871.309 287.315 874.272 289.839 877.016 292.143C878.442 293.131 880.308 293.68 881.954 293.351C883.38 292.802 884.478 291.924 884.588 291.814C891.94 284.462 895.671 280.95 898.085 278.755C901.048 276.012 902.146 274.914 905.438 271.183L907.413 269.208C910.815 265.806 914.876 264.379 918.497 265.367Z" fill="#4D5749"/>
<defs>
<filter id="filter0_i_1246_11506" x="184.91" y="146.574" width="832.24" height="907.931" filterUnits="userSpaceOnUse" color-interpolation-filters="sRGB">
<feFlood flood-opacity="0" result="BackgroundImageFix"/>
<feBlend mode="normal" in="SourceGraphic" in2="BackgroundImageFix" result="shape"/>
<feColorMatrix in="SourceAlpha" type="matrix" values="0 0 0 0 0 0 0 0 0 0 0 0 0 0 0 0 0 0 127 0" result="hardAlpha"/>
<feOffset/>
<feGaussianBlur stdDeviation="65.4699"/>
<feComposite in2="hardAlpha" operator="arithmetic" k2="-1" k3="1"/>
<feColorMatrix type="matrix" values="0 0 0 0 0 0 0 0 0 0 0 0 0 0 0 0 0 0 1 0"/>
<feBlend mode="normal" in2="shape" result="effect1_innerShadow_1246_11506"/>
</filter>
<filter id="filter1_i_1246_11506" x="184.91" y="146.574" width="832.24" height="907.931" filterUnits="userSpaceOnUse" color-interpolation-filters="sRGB">
<feFlood flood-opacity="0" result="BackgroundImageFix"/>
<feBlend mode="normal" in="SourceGraphic" in2="BackgroundImageFix" result="shape"/>
<feColorMatrix in="SourceAlpha" type="matrix" values="0 0 0 0 0 0 0 0 0 0 0 0 0 0 0 0 0 0 127 0" result="hardAlpha"/>
<feOffset/>
<feGaussianBlur stdDeviation="65.4699"/>
<feComposite in2="hardAlpha" operator="arithmetic" k2="-1" k3="1"/>
<feColorMatrix type="matrix" values="0 0 0 0 0 0 0 0 0 0 0 0 0 0 0 0 0 0 1 0"/>
<feBlend mode="normal" in2="shape" result="effect1_innerShadow_1246_11506"/>
</filter>
</defs>
</svg>
