<svg width="1200" height="1200" viewBox="0 0 1200 1200" fill="none" xmlns="http://www.w3.org/2000/svg">
<path fill-rule="evenodd" clip-rule="evenodd" d="M1035.58 117.52L1036.03 117.722C1062.57 129.612 1085.09 148.939 1100.86 173.363C1116.63 197.772 1124.99 226.227 1124.93 255.285V575.897L1124.93 576.165C1123.36 699.298 1084.28 819.025 1012.92 919.378C941.56 1019.71 841.315 1095.91 725.545 1137.82C725.525 1137.83 725.505 1137.83 725.485 1137.84L678.615 1154.92L678.6 1154.93L678.584 1154.94C653.492 1164.06 627.011 1168.77 600.312 1168.87L599.901 1168.88L599.491 1168.87C573.458 1168.46 547.69 1163.58 523.312 1154.44L476.219 1137.43C476.211 1137.43 476.202 1137.42 476.194 1137.42C360.263 1095.72 259.795 1019.68 188.185 919.425C116.57 819.164 77.2194 699.454 75.38 576.256L75.3753 575.943V255.285C75.3161 226.226 83.676 197.772 99.4446 173.363C115.223 148.939 137.744 129.612 164.279 117.722L164.731 117.52L165.187 117.328C302.85 59.4983 450.846 30.3088 600.154 31.5372C749.463 30.3088 897.459 59.4983 1035.12 117.328L1035.58 117.52ZM600.154 73.5387C456.431 72.3093 313.965 100.384 181.453 156.05C162.327 164.62 146.096 178.55 134.723 196.154C123.351 213.758 117.325 234.281 117.375 255.239V575.629C119.087 690.288 155.71 801.701 222.362 895.013C289.013 988.325 382.526 1059.1 490.432 1097.91L537.832 1115.03C557.77 1122.53 578.853 1126.54 600.154 1126.88C622.012 1126.79 643.691 1122.93 664.232 1115.46L711.194 1098.35C818.957 1059.35 912.27 988.43 978.688 895.037C1045.11 801.644 1081.47 690.221 1082.93 575.629V255.239C1082.98 234.281 1076.96 213.758 1065.59 196.154C1054.21 178.55 1037.98 164.62 1018.86 156.05C886.344 100.384 743.878 72.3093 600.154 73.5387Z" fill="white"/>
<path fill-rule="evenodd" clip-rule="evenodd" d="M750.208 82.9408C700.592 76.267 650.45 73.1085 600.154 73.5387C456.431 72.3093 313.965 100.384 181.453 156.05C162.327 164.62 146.096 178.55 134.723 196.154C123.351 213.758 117.325 234.281 117.375 255.239V575.629C118.004 617.765 123.348 659.462 133.164 699.984L750.208 82.9408Z" fill="#A55E43"/>
<path fill-rule="evenodd" clip-rule="evenodd" d="M1082.94 344.783L382.309 1045.41C416.202 1066.6 452.426 1084.24 490.435 1097.91L537.835 1115.03C557.773 1122.53 578.857 1126.54 600.158 1126.88C622.015 1126.79 643.694 1122.93 664.236 1115.46L711.197 1098.35C818.961 1059.35 912.274 988.43 978.692 895.037C1045.11 801.644 1081.47 690.221 1082.94 575.629V344.783Z" fill="#A55E43"/>
<path fill-rule="evenodd" clip-rule="evenodd" d="M132.293 696.324C149.012 767.411 179.47 834.96 222.364 895.013C265.837 955.875 320.737 1007.15 383.604 1046.22L1082.94 346.889V255.239C1082.99 234.281 1076.96 213.758 1065.59 196.154C1054.22 178.55 1037.98 164.62 1018.86 156.05C931.472 119.341 839.757 94.6303 746.207 82.4102L132.293 696.324Z" fill="#703535"/>
<g style="mix-blend-mode:soft-light" filter="url(#filter0_di_1246_11500)">
<path d="M961.176 217.39C846.965 169.413 724.175 145.215 600.302 146.275C476.428 145.215 353.638 169.413 239.428 217.39C222.943 224.776 208.953 236.783 199.152 251.955C189.35 267.128 184.156 284.817 184.199 302.88V579.021C185.675 677.844 217.24 773.87 274.686 854.294C332.133 934.719 412.73 995.721 505.733 1029.17L546.587 1043.92C563.771 1050.39 581.942 1053.84 600.302 1054.13C619.14 1054.06 637.825 1050.74 655.53 1044.3L696.005 1029.55C788.885 995.937 869.311 934.809 926.556 854.315C983.801 773.821 1015.14 677.787 1016.4 579.021V302.88C1016.45 284.817 1011.25 267.128 1001.45 251.955C991.65 236.783 977.66 224.776 961.176 217.39Z" fill="#434040"/>
</g>
<path fill-rule="evenodd" clip-rule="evenodd" d="M742.723 280.492C715.8 316.672 723.702 366.931 759.647 388.124C801.729 412.935 854.721 393.367 871.528 346.811C879.889 323.651 876.251 313.344 860.005 314.168C848.176 314.768 845.684 316.87 841.348 329.899C833.053 354.823 823.101 363.562 802.999 363.578C754.861 363.613 746.722 298.451 793.058 283.986C809.716 278.786 814.53 271.385 810.168 257.679C804.203 238.937 763.37 252.748 742.723 280.492ZM310.566 714.806C309.421 721.477 309.098 721.099 356.761 768.762C404.196 816.197 403.462 815.571 409.323 813.58C416.084 811.284 444.588 784.557 456.017 769.797C477.402 742.18 459.75 701.776 426.431 702.076C418.581 702.148 418.482 702.056 417.729 694.096C415.102 666.321 382.924 652.993 356.994 668.941C349.778 673.379 311.124 711.565 310.566 714.806ZM417.159 608.438C411.021 620.061 410.339 618.847 437.607 644.847C449.996 656.659 469.628 676.121 481.236 688.097C507.39 715.08 507.28 715.02 518.278 708.491C535.315 698.378 533.63 694.65 493.662 654.038C476.06 636.151 457.771 617.156 453.019 611.826C439.63 596.806 435.016 594.839 425.475 600.082C419.734 603.236 420.099 602.87 417.159 608.438ZM610.735 418.275C610.079 419.603 608.19 422.106 606.537 423.838C586.41 444.929 591.467 494.22 616.306 519.06C647.996 550.75 703.116 544.138 728.987 505.544C751.388 472.126 752.445 446.194 732.637 415.977C716.668 391.617 670.489 380.886 640.186 394.495C631.336 398.468 613.336 413.003 610.735 418.275ZM474.584 556.944C463.652 571.227 461.651 568.004 514.373 621.017C563.163 670.077 561.533 668.928 571.675 661.432C586.417 650.534 586.581 643.703 572.441 629.535C557.599 614.662 557.464 613.214 569.628 599.35C585.089 581.726 590.584 555.757 581.961 541.065C575.061 529.311 574.946 529.17 568.704 524.837C540.409 505.202 504.915 517.31 474.584 556.944ZM370.232 697.089C377.305 694.839 387.814 703.501 387.38 711.225C386.372 729.138 354.541 732.073 352.898 714.403C352.638 711.602 365.735 698.521 370.232 697.089ZM650.469 429.183C683.024 412.165 719.745 440.243 708.431 473.501C699.084 500.973 655.226 513.61 641.143 492.888C640.098 491.352 638.002 488.208 636.484 485.901C623.708 466.489 630.307 439.722 650.469 429.183ZM532.399 551.893C550.46 548.374 556.734 566.033 542.5 580.324C535.412 587.44 534.389 587.519 527.057 581.504C524.182 579.144 520.256 576.105 518.331 574.749C511.261 569.765 520.879 554.137 532.399 551.893ZM413.595 735.664C433.62 732.974 438.172 748.152 422.148 764.176C411.077 775.246 391.812 769.841 392.563 755.875C392.881 749.981 406.833 736.572 413.595 735.664Z" fill="#C49464"/>
<defs>
<filter id="filter0_di_1246_11500" x="177.199" y="139.241" width="846.205" height="921.893" filterUnits="userSpaceOnUse" color-interpolation-filters="sRGB">
<feFlood flood-opacity="0" result="BackgroundImageFix"/>
<feColorMatrix in="SourceAlpha" type="matrix" values="0 0 0 0 0 0 0 0 0 0 0 0 0 0 0 0 0 0 127 0" result="hardAlpha"/>
<feOffset/>
<feGaussianBlur stdDeviation="3.5"/>
<feComposite in2="hardAlpha" operator="out"/>
<feColorMatrix type="matrix" values="0 0 0 0 0 0 0 0 0 0 0 0 0 0 0 0 0 0 0.25 0"/>
<feBlend mode="normal" in2="BackgroundImageFix" result="effect1_dropShadow_1246_11500"/>
<feBlend mode="normal" in="SourceGraphic" in2="effect1_dropShadow_1246_11500" result="shape"/>
<feColorMatrix in="SourceAlpha" type="matrix" values="0 0 0 0 0 0 0 0 0 0 0 0 0 0 0 0 0 0 127 0" result="hardAlpha"/>
<feOffset/>
<feGaussianBlur stdDeviation="29.0965"/>
<feComposite in2="hardAlpha" operator="arithmetic" k2="-1" k3="1"/>
<feColorMatrix type="matrix" values="0 0 0 0 0 0 0 0 0 0 0 0 0 0 0 0 0 0 0.25 0"/>
<feBlend mode="normal" in2="shape" result="effect2_innerShadow_1246_11500"/>
</filter>
</defs>
</svg>
