<svg width="1200" height="1200" viewBox="0 0 1200 1200" fill="none" xmlns="http://www.w3.org/2000/svg">
<path fill-rule="evenodd" clip-rule="evenodd" d="M1035.2 117.52L1035.65 117.722C1062.19 129.612 1084.71 148.939 1100.49 173.363C1116.26 197.772 1124.62 226.227 1124.56 255.285V575.897L1124.56 576.165C1122.98 699.298 1083.91 819.025 1012.54 919.378C941.185 1019.71 840.94 1095.91 725.17 1137.82C725.15 1137.83 725.13 1137.83 725.11 1137.84L678.24 1154.92L678.225 1154.93L678.209 1154.94C653.117 1164.06 626.636 1168.77 599.937 1168.87L599.526 1168.88L599.116 1168.87C573.083 1168.46 547.315 1163.58 522.937 1154.44L475.844 1137.43C475.836 1137.43 475.827 1137.42 475.819 1137.42C359.888 1095.72 259.42 1019.68 187.81 919.425C116.195 819.164 76.8444 699.454 75.005 576.256L75.0003 575.943V255.285C74.9411 226.226 83.301 197.772 99.0696 173.363C114.848 148.939 137.369 129.612 163.904 117.722L164.356 117.52L164.812 117.328C302.475 59.4983 450.471 30.3088 599.779 31.5372C749.088 30.3088 897.084 59.4983 1034.75 117.328L1035.2 117.52ZM599.779 73.5387C456.056 72.3093 313.59 100.384 181.078 156.05C161.952 164.62 145.721 178.55 134.348 196.154C122.976 213.758 116.95 234.281 117 255.239V575.629C118.712 690.288 155.335 801.701 221.987 895.013C288.638 988.325 382.151 1059.1 490.057 1097.91L537.457 1115.03C557.395 1122.53 578.478 1126.54 599.779 1126.88C621.637 1126.79 643.316 1122.93 663.857 1115.46L710.819 1098.35C818.582 1059.35 911.895 988.43 978.313 895.037C1044.73 801.644 1081.1 690.221 1082.56 575.629V255.239C1082.61 234.281 1076.58 213.758 1065.21 196.154C1053.84 178.55 1037.61 164.62 1018.48 156.05C885.969 100.384 743.503 72.3093 599.779 73.5387Z" fill="white"/>
<path fill-rule="evenodd" clip-rule="evenodd" d="M599.8 73.5387C743.53 72.3092 886.002 100.386 1018.52 156.054C1037.65 164.624 1053.88 178.554 1065.25 196.159C1076.62 213.764 1082.65 234.288 1082.6 255.247V575.65C1081.14 690.247 1044.77 801.675 978.35 895.072C911.929 988.468 818.612 1059.39 710.844 1098.39L663.881 1115.51C643.338 1122.98 621.658 1126.84 599.8 1126.92C578.498 1126.58 557.414 1122.57 537.475 1115.07L490.073 1097.95C382.162 1059.14 288.646 988.364 221.991 895.048C155.337 801.732 118.712 690.314 117 575.65V255.247C116.95 234.288 122.976 213.764 134.349 196.159C145.722 178.554 161.954 164.624 181.081 156.054C313.598 100.386 456.07 72.3092 599.8 73.5387Z" fill="#FF6196"/>
<path fill-rule="evenodd" clip-rule="evenodd" d="M117 541.618V575.651C118.712 690.315 155.337 801.733 221.991 895.049C231.069 907.758 240.645 920.049 250.688 931.898L1023.93 158.66C1022.15 157.743 1020.35 156.874 1018.52 156.055C886.002 100.386 743.529 72.3102 599.8 73.5397C594.899 73.4978 589.999 73.4899 585.102 73.5161L117 541.618Z" fill="#FF76A4"/>
<g filter="url(#filter0_i_1246_11494)">
<path d="M960.701 217.397C846.486 169.417 723.69 145.219 599.811 146.278C475.932 145.219 353.137 169.417 238.922 217.397C222.437 224.784 208.447 236.79 198.644 251.964C188.842 267.137 183.648 284.827 183.692 302.891V579.043C185.167 677.871 216.734 773.9 274.182 854.328C331.631 934.756 412.232 995.761 505.239 1029.21L546.094 1043.96C563.279 1050.43 581.452 1053.89 599.811 1054.18C618.651 1054.11 637.336 1050.78 655.042 1044.34L695.519 1029.59C788.403 995.977 868.832 934.847 926.08 854.349C983.327 773.851 1014.67 677.813 1015.93 579.043V302.891C1015.97 284.827 1010.78 267.137 1000.98 251.964C991.176 236.79 977.186 224.784 960.701 217.397Z" fill="#E65384"/>
</g>
<path d="M290.899 693.502C292.555 691.176 294.923 687.842 296.161 686.094C299.615 681.212 300.111 680.753 305.459 677.491C324.339 665.973 342.02 663.006 346.146 670.663C352.035 681.591 348.328 688.593 333.942 693.71C301.834 705.13 297.702 745.773 327.497 757.101C343.001 762.996 368.198 755.08 374.325 742.389C377.172 736.49 374.431 730.458 370.178 733.264C357.959 741.32 349.842 740.16 345.369 729.72C342.899 723.955 344.36 721.105 355.489 709.976C370.901 694.564 372.285 694.414 385.81 706.683C391.065 711.45 397.078 716.736 399.175 718.431C406.981 724.741 407.963 734.359 401.995 746.077C400.763 748.495 398.981 752.06 398.033 753.999C395.406 759.381 379.16 775.435 373.178 778.56C359.398 785.759 350.383 788.033 335.287 788.119C290.117 788.377 263.596 731.844 290.899 693.502Z" fill="#F7E9E1"/>
<path d="M375.586 608.739C384.431 599.954 392.944 591.057 394.505 588.967C404.275 575.885 411.783 573.683 419.692 581.581C427.891 589.768 426.633 592.981 407.894 611.72C397.454 622.159 393.683 625.558 394.075 628.378C394.319 630.134 396.179 631.666 399.048 634.536C401.872 637.359 403.394 639.12 405.114 639.341C407.732 639.677 410.808 636.445 419.62 627.959C435.296 612.862 439.9 611.437 447.725 619.262C454.658 626.195 452.947 630.555 437.044 646.494C421.817 661.754 421.651 663.86 435.1 671.149C440.723 674.198 440.759 674.177 456.76 658.175C476.639 638.297 488.882 636.979 490.026 654.595C490.621 663.749 443.582 709.884 435.815 707.766C432.113 706.756 361.701 640.047 358.246 634.277C355.569 629.805 358.036 626.171 375.586 608.739Z" fill="#F7E9E1"/>
<path d="M651.899 332.426C660.744 323.641 669.257 314.744 670.818 312.655C680.588 299.573 688.096 297.37 696.005 305.268C704.204 313.455 702.946 316.668 684.207 335.407C673.767 345.846 669.996 349.245 670.388 352.065C670.632 353.821 672.492 355.353 675.361 358.223C678.184 361.045 679.706 362.806 681.427 363.028C684.045 363.364 687.122 360.134 695.938 351.651C711.775 336.411 716.061 335.09 724.048 342.986C730.983 349.841 729.248 354.254 713.357 370.181C704.048 379.51 700.836 382.726 701.257 385.364C701.478 386.755 702.711 387.985 704.592 389.866C714.368 399.642 715.643 399.292 732.812 382.124C750.965 363.971 757.187 361.865 764.067 371.543C770.12 380.057 768.342 382.971 740.988 409.37C727.998 421.906 722.113 429.592 715.524 430.252C706.527 431.153 696.218 418.955 664.718 388.119C643.117 366.974 634.072 359.618 634.573 352.984C634.967 347.785 641.225 343.029 651.899 332.426Z" fill="#F7E9E1"/>
<path fill-rule="evenodd" clip-rule="evenodd" d="M536.102 450.297C536.203 449.703 536.453 449.134 536.723 448.443C538.208 444.654 572.348 411.683 577.515 409.049C579.398 408.088 581.395 406.847 581.952 406.29C587.56 400.682 612.117 398.236 624.191 402.084C633.684 405.109 636.098 406.457 649.566 416.254C650.641 417.036 652.402 419.075 653.482 420.785C654.562 422.496 656.849 426.095 658.564 428.783C670.451 447.408 668.486 481.441 654.729 495.198C653.691 496.236 652.095 498.647 651.182 500.555C648.673 505.8 632.548 521.629 624.421 526.826C621.437 528.734 619.687 530.367 617.707 530.725C612.694 531.629 606.205 524.355 574.489 492.639C539.941 458.091 535.508 453.763 536.102 450.297ZM586.707 436.527C585.608 437.626 582.972 439.453 580.849 440.588C568.887 446.981 569.782 449.146 594.92 474.649C610.018 489.966 614.604 495.112 618.374 494.571C620.522 494.263 622.406 492.107 625.819 488.934C647.804 468.501 642.269 437.892 615.016 429.19C607.073 426.654 592.909 430.324 586.707 436.527Z" fill="#F7E9E1"/>
<path fill-rule="evenodd" clip-rule="evenodd" d="M715.867 274.375C715.96 273.136 716.444 271.927 716.979 270.31C721.304 257.235 760.188 224.941 773.108 223.691C801.609 220.936 819.326 239.366 814.037 266.269C812.711 273.015 811.918 276.521 813.315 278.403C814.903 280.543 819.325 280.58 829.018 280.894C858.918 281.861 867.111 289.936 852.803 304.337C845.557 311.631 841.227 312.338 826.872 308.576C786.911 298.102 779.794 301.452 800.159 321.151C816.136 336.605 816.305 337.242 806.914 346.633C803.234 350.313 800.792 352.935 797.921 353.549C791.39 354.945 782.639 345.952 752.041 315.398C721.002 284.405 715.508 279.17 715.867 274.375ZM788.225 267.138C790.013 257.766 783.36 250.761 775.068 253.287C769.336 255.034 754.502 270.131 755.203 273.503C755.932 277.002 765.641 287.952 768.227 288.193C771.338 288.482 787.374 271.599 788.225 267.138Z" fill="#F7E9E1"/>
<path d="M440.988 551.704C441.298 550.309 442.307 549.07 443.531 547.326C449.343 539.039 464.99 537.608 507.178 541.507C523.375 543.004 531.286 544.058 532.279 541.912C533.264 539.784 527.449 534.51 516.172 523.4C492.703 500.282 492.026 498.629 501.954 488.701C505.835 484.82 508.321 482.144 511.215 481.586C517.171 480.439 524.858 488.269 550.004 513.047C589.886 552.345 594.401 558.081 591.625 565.922C588.806 573.877 584.168 574.735 554.334 572.82C540.847 571.955 524.43 570.928 517.85 570.54C511.27 570.152 504.168 569.702 502.068 569.539C495.46 569.029 495.977 569.779 516.137 589.939C539.201 613.003 539.95 614.66 531.912 624.857C522.013 637.416 520.537 636.57 477.814 593.847C446.504 562.537 439.972 556.283 440.988 551.704Z" fill="#F7E9E1"/>
<path d="M428.852 805.024C437.696 796.239 446.209 787.342 447.77 785.252C457.664 772.005 467.503 769.643 474.584 778.815C480.745 786.796 479.363 789.801 461.159 808.005C450.72 818.444 446.949 821.843 447.341 824.663C447.585 826.419 449.444 827.951 452.313 830.821C455.114 833.621 456.627 835.382 458.344 835.609C460.993 835.96 464.126 832.659 473.221 823.889C488.875 808.796 492.912 807.589 501 815.583C507.935 822.439 506.201 826.852 490.309 842.779C476.25 856.869 476.151 857.076 481.171 862.084C491.348 872.239 492.563 871.922 509.869 854.617C528.347 836.139 534.265 834.229 541.278 844.482C547.007 852.856 545.203 855.767 518.116 881.847C505.057 894.422 499.185 902.128 492.603 902.792C483.64 903.697 473.359 891.542 441.815 860.835C420.117 839.712 411.028 832.328 411.522 825.653C411.909 820.426 418.169 815.635 428.852 805.024Z" fill="#F7E9E1"/>
<path d="M690.231 545.975C690.457 544.569 691.333 543.268 692.319 541.365C699.413 527.665 709.437 527.276 721.072 540.249C724.523 544.098 740.18 560.476 755.865 576.646C779.989 601.516 787.097 608.839 785.869 614.283C785.356 616.56 783.384 618.509 780.589 621.275C777.966 623.871 776.154 625.81 773.99 626.357C768.286 627.8 760.137 619.576 728.243 588.245C695.767 556.341 689.489 550.594 690.231 545.975Z" fill="#F7E9E1"/>
<path fill-rule="evenodd" clip-rule="evenodd" d="M546.995 802.367C513.319 788.489 500.406 739.86 522.805 711.272C558.21 666.086 621.923 679.537 632.973 734.53C634.683 743.039 634.683 743.039 638.723 744.601C654.055 750.529 650.219 770.042 633.631 770.505C627.598 770.672 627.322 770.777 625.29 773.671C622.265 777.978 610.106 789.798 606.02 792.404C604.105 793.625 600.228 796.092 597.403 797.886C585.45 805.478 560.027 807.738 546.995 802.367ZM604.882 732.728C598.372 712.454 571.657 705.8 552.143 719.593C549.583 721.401 547.413 723.031 547.319 723.215C547.225 723.398 545.673 725.677 543.87 728.279C535.505 740.352 539.328 762.53 551.229 770.958C562.725 779.102 568.175 779.904 580.812 775.311C595.611 769.933 599.228 765.978 593.499 761.441C584.568 754.367 588.795 739.885 600.026 739.075C606.02 738.643 606.555 737.942 604.882 732.728Z" fill="#F7E9E1"/>
<path d="M679.02 623.149C649.915 594.044 649.891 594.007 654.481 585.215C658.374 577.761 665.961 573.72 672.012 575.876C676.952 577.637 722.403 623.399 726.879 631.119C739.291 652.532 731.691 683.824 710.893 696.934C681.948 715.181 665.92 710.165 626.15 670.416C597.669 641.95 597.622 641.841 608.886 630.824C612.335 627.45 614.564 625.198 617.094 624.784C622.022 623.978 628.089 630.144 646.527 648.579C679.139 681.19 687.193 684.533 700.675 671.051C712.313 659.412 709.862 653.991 679.02 623.149Z" fill="#F7E9E1"/>
<path d="M740.067 517.031C735.304 512.269 734.089 508.721 735.744 504.411C738.095 498.289 784.89 451.793 790.59 449.917C797.126 447.765 804.708 452.623 807.303 460.623C809.215 466.518 808.637 467.767 800.01 476.393C795.332 481.072 792.84 483.252 792.841 485.432C792.842 487.843 795.895 490.254 802.413 496.047C825.372 516.45 850.276 543.073 851.68 548.713C853.893 557.607 845.486 567.958 836.711 567.143C831.246 566.635 801.198 538.539 781.948 515.938C776.484 509.523 774.182 506.495 771.834 506.46C769.685 506.428 767.499 508.905 762.814 513.589C752.126 524.278 747.946 524.91 740.067 517.031Z" fill="#F7E9E1"/>
<path d="M858.807 438.253C821.532 432.858 817.057 431.045 819.807 422.453C823.888 409.703 833.545 406.604 857.868 410.238C868.706 411.857 874.174 412.958 876.338 410.778C878.702 408.396 877.119 402.098 874.283 388.279C870.613 370.399 870.779 369.427 878.871 361.334C884.48 355.726 887.355 354.324 892.091 354.89C898.212 355.621 898.674 357.002 902.647 386.455C905.615 408.456 906.152 416.119 909.564 422.158C912.121 426.683 916.294 430.296 924.316 438.346C945.673 459.777 947.141 463.268 938.419 471.88C929.95 480.243 921.579 480.121 914.076 471.525C899.703 455.058 893.839 448.002 886.325 444.242C880.149 441.15 872.857 440.287 858.807 438.253Z" fill="#F7E9E1"/>
<defs>
<filter id="filter0_i_1246_11494" x="183.691" y="146.245" width="832.24" height="907.931" filterUnits="userSpaceOnUse" color-interpolation-filters="sRGB">
<feFlood flood-opacity="0" result="BackgroundImageFix"/>
<feBlend mode="normal" in="SourceGraphic" in2="BackgroundImageFix" result="shape"/>
<feColorMatrix in="SourceAlpha" type="matrix" values="0 0 0 0 0 0 0 0 0 0 0 0 0 0 0 0 0 0 127 0" result="hardAlpha"/>
<feOffset/>
<feGaussianBlur stdDeviation="72.7443"/>
<feComposite in2="hardAlpha" operator="arithmetic" k2="-1" k3="1"/>
<feColorMatrix type="matrix" values="0 0 0 0 0.857446 0 0 0 0 0.111352 0 0 0 0 0.464556 0 0 0 0.3 0"/>
<feBlend mode="normal" in2="shape" result="effect1_innerShadow_1246_11494"/>
</filter>
</defs>
</svg>
