<svg width="1200" height="1200" viewBox="0 0 1200 1200" fill="none" xmlns="http://www.w3.org/2000/svg">
<rect width="1200" height="1200" fill="white"/>
<path fill-rule="evenodd" clip-rule="evenodd" d="M1036.2 117.52L1036.65 117.722C1063.19 129.612 1085.71 148.939 1101.49 173.363C1117.26 197.772 1125.62 226.227 1125.56 255.285V575.897L1125.56 576.165C1123.98 699.298 1084.91 819.025 1013.54 919.378C942.185 1019.71 841.94 1095.91 726.17 1137.82C726.15 1137.83 726.13 1137.83 726.11 1137.84L679.24 1154.92L679.225 1154.93L679.209 1154.94C654.117 1164.06 627.636 1168.77 600.937 1168.87L600.526 1168.88L600.116 1168.87C574.083 1168.46 548.315 1163.58 523.937 1154.44L476.844 1137.43C476.836 1137.43 476.827 1137.42 476.819 1137.42C360.888 1095.72 260.42 1019.68 188.81 919.425C117.195 819.164 77.8444 699.454 76.005 576.256L76.0003 575.943V255.285C75.9411 226.226 84.301 197.772 100.07 173.363C115.848 148.939 138.369 129.612 164.904 117.722L165.356 117.52L165.812 117.328C303.475 59.4983 451.471 30.3088 600.779 31.5372C750.088 30.3088 898.084 59.4983 1035.75 117.328L1036.2 117.52ZM600.779 73.5387C457.056 72.3093 314.59 100.384 182.078 156.05C162.952 164.62 146.721 178.55 135.348 196.154C123.976 213.758 117.95 234.281 118 255.239V575.629C119.712 690.288 156.335 801.701 222.987 895.013C289.638 988.325 383.151 1059.1 491.057 1097.91L538.457 1115.03C558.395 1122.53 579.478 1126.54 600.779 1126.88C622.637 1126.79 644.316 1122.93 664.857 1115.46L711.819 1098.35C819.582 1059.35 912.895 988.43 979.313 895.037C1045.73 801.644 1082.1 690.221 1083.56 575.629V255.239C1083.61 234.281 1077.58 213.758 1066.21 196.154C1054.84 178.55 1038.61 164.62 1019.48 156.05C886.969 100.384 744.503 72.3093 600.779 73.5387Z" fill="white"/>
<path fill-rule="evenodd" clip-rule="evenodd" d="M600.8 73.5387C744.53 72.3092 887.002 100.386 1019.52 156.054C1038.65 164.624 1054.88 178.554 1066.25 196.159C1077.62 213.764 1083.65 234.288 1083.6 255.247V575.65C1082.14 690.247 1045.77 801.675 979.35 895.072C912.929 988.468 819.612 1059.39 711.844 1098.39L664.881 1115.51C644.338 1122.98 622.658 1126.84 600.8 1126.92C579.498 1126.58 558.414 1122.57 538.475 1115.07L491.073 1097.95C383.162 1059.14 289.646 988.364 222.991 895.048C156.337 801.732 119.712 690.314 118 575.65V255.247C117.95 234.288 123.976 213.764 135.349 196.159C146.722 178.554 162.954 164.624 182.081 156.054C314.598 100.386 457.07 72.3092 600.8 73.5387Z" fill="#FF6196"/>
<path fill-rule="evenodd" clip-rule="evenodd" d="M118 541.618V575.651C119.712 690.315 156.337 801.733 222.991 895.049C232.069 907.758 241.645 920.049 251.688 931.898L1024.93 158.66C1023.15 157.743 1021.35 156.874 1019.52 156.055C887.002 100.386 744.529 72.3102 600.8 73.5397C595.899 73.4978 590.999 73.4899 586.102 73.5161L118 541.618Z" fill="#FF76A4"/>
<g filter="url(#filter0_i_1246_11501)">
<path d="M961.701 217.397C847.486 169.417 724.69 145.219 600.811 146.278C476.932 145.219 354.137 169.417 239.922 217.397C223.437 224.784 209.447 236.79 199.644 251.964C189.842 267.137 184.648 284.827 184.692 302.891V579.043C186.167 677.871 217.734 773.9 275.182 854.328C332.631 934.756 413.232 995.761 506.239 1029.21L547.094 1043.96C564.279 1050.43 582.452 1053.89 600.811 1054.18C619.651 1054.11 638.336 1050.78 656.042 1044.34L696.519 1029.59C789.403 995.977 869.832 934.847 927.08 854.349C984.327 773.851 1015.67 677.813 1016.93 579.043V302.891C1016.97 284.827 1011.78 267.137 1001.98 251.964C992.176 236.79 978.186 224.784 961.701 217.397Z" fill="#E65384"/>
</g>
<path d="M291.899 693.502C293.555 691.176 295.923 687.842 297.161 686.094C300.615 681.212 301.111 680.753 306.459 677.491C325.339 665.973 343.02 663.006 347.146 670.663C353.035 681.591 349.328 688.593 334.942 693.71C302.834 705.13 298.702 745.773 328.497 757.101C344.001 762.996 369.198 755.08 375.325 742.389C378.172 736.49 375.431 730.458 371.178 733.264C358.959 741.32 350.842 740.16 346.369 729.72C343.899 723.955 345.36 721.105 356.489 709.976C371.901 694.564 373.285 694.414 386.81 706.683C392.065 711.45 398.078 716.736 400.175 718.431C407.981 724.741 408.963 734.359 402.995 746.077C401.763 748.495 399.981 752.06 399.033 753.999C396.406 759.381 380.16 775.435 374.178 778.56C360.398 785.759 351.383 788.033 336.287 788.119C291.117 788.377 264.596 731.844 291.899 693.502Z" fill="#F7E9E1"/>
<path d="M376.586 608.739C385.431 599.954 393.944 591.057 395.505 588.967C405.275 575.885 412.783 573.683 420.692 581.581C428.891 589.768 427.633 592.981 408.894 611.72C398.454 622.159 394.683 625.558 395.075 628.378C395.319 630.134 397.179 631.666 400.048 634.536C402.872 637.359 404.394 639.12 406.114 639.341C408.732 639.677 411.808 636.445 420.62 627.959C436.296 612.862 440.9 611.437 448.725 619.262C455.658 626.195 453.947 630.555 438.044 646.494C422.817 661.754 422.651 663.86 436.1 671.149C441.723 674.198 441.759 674.177 457.76 658.175C477.639 638.297 489.882 636.979 491.026 654.595C491.621 663.749 444.582 709.884 436.815 707.766C433.113 706.756 362.701 640.047 359.246 634.277C356.569 629.805 359.036 626.171 376.586 608.739Z" fill="#F7E9E1"/>
<path d="M652.899 332.426C661.744 323.641 670.257 314.744 671.818 312.655C681.588 299.573 689.096 297.37 697.005 305.268C705.204 313.455 703.946 316.668 685.207 335.407C674.767 345.846 670.996 349.245 671.388 352.065C671.632 353.821 673.492 355.353 676.361 358.223C679.184 361.045 680.706 362.806 682.427 363.028C685.045 363.364 688.122 360.134 696.938 351.651C712.775 336.411 717.061 335.09 725.048 342.986C731.983 349.841 730.248 354.254 714.357 370.181C705.048 379.51 701.836 382.726 702.257 385.364C702.478 386.755 703.711 387.985 705.592 389.866C715.368 399.642 716.643 399.292 733.812 382.124C751.965 363.971 758.187 361.865 765.067 371.543C771.12 380.057 769.342 382.971 741.988 409.37C728.998 421.906 723.113 429.592 716.524 430.252C707.527 431.153 697.218 418.955 665.718 388.119C644.117 366.974 635.072 359.618 635.573 352.984C635.967 347.785 642.225 343.029 652.899 332.426Z" fill="#F7E9E1"/>
<path fill-rule="evenodd" clip-rule="evenodd" d="M537.102 450.297C537.203 449.703 537.453 449.134 537.723 448.443C539.208 444.654 573.348 411.683 578.515 409.049C580.398 408.088 582.395 406.847 582.952 406.29C588.56 400.682 613.117 398.236 625.191 402.084C634.684 405.109 637.098 406.457 650.566 416.254C651.641 417.036 653.402 419.075 654.482 420.785C655.562 422.496 657.849 426.095 659.564 428.783C671.451 447.408 669.486 481.441 655.729 495.198C654.691 496.236 653.095 498.647 652.182 500.555C649.673 505.8 633.548 521.629 625.421 526.826C622.437 528.734 620.687 530.367 618.707 530.725C613.694 531.629 607.205 524.355 575.489 492.639C540.941 458.091 536.508 453.763 537.102 450.297ZM587.707 436.527C586.608 437.626 583.972 439.453 581.849 440.588C569.887 446.981 570.782 449.146 595.92 474.649C611.018 489.966 615.604 495.112 619.374 494.571C621.522 494.263 623.406 492.107 626.819 488.934C648.804 468.501 643.269 437.892 616.016 429.19C608.073 426.654 593.909 430.324 587.707 436.527Z" fill="#F7E9E1"/>
<path fill-rule="evenodd" clip-rule="evenodd" d="M716.867 274.375C716.96 273.136 717.444 271.927 717.979 270.31C722.304 257.235 761.188 224.941 774.108 223.691C802.609 220.936 820.326 239.366 815.037 266.269C813.711 273.015 812.918 276.521 814.315 278.403C815.903 280.543 820.325 280.58 830.018 280.894C859.918 281.861 868.111 289.936 853.803 304.337C846.557 311.631 842.227 312.338 827.872 308.576C787.911 298.102 780.794 301.452 801.159 321.151C817.136 336.605 817.305 337.242 807.914 346.633C804.234 350.313 801.792 352.935 798.921 353.549C792.39 354.945 783.639 345.952 753.041 315.398C722.002 284.405 716.508 279.17 716.867 274.375ZM789.225 267.138C791.013 257.766 784.36 250.761 776.068 253.287C770.336 255.034 755.502 270.131 756.203 273.503C756.932 277.002 766.641 287.952 769.227 288.193C772.338 288.482 788.374 271.599 789.225 267.138Z" fill="#F7E9E1"/>
<path d="M441.988 551.704C442.298 550.309 443.307 549.07 444.531 547.326C450.343 539.039 465.99 537.608 508.178 541.507C524.375 543.004 532.286 544.058 533.279 541.912C534.264 539.784 528.449 534.51 517.172 523.4C493.703 500.282 493.026 498.629 502.954 488.701C506.835 484.82 509.321 482.144 512.215 481.586C518.171 480.439 525.858 488.269 551.004 513.047C590.886 552.345 595.401 558.081 592.625 565.922C589.806 573.877 585.168 574.735 555.334 572.82C541.847 571.955 525.43 570.928 518.85 570.54C512.27 570.152 505.168 569.702 503.068 569.539C496.46 569.029 496.977 569.779 517.137 589.939C540.201 613.003 540.95 614.66 532.912 624.857C523.013 637.416 521.537 636.57 478.814 593.847C447.504 562.537 440.972 556.283 441.988 551.704Z" fill="#F7E9E1"/>
<path d="M429.852 805.024C438.696 796.239 447.209 787.342 448.77 785.252C458.664 772.005 468.503 769.643 475.584 778.815C481.745 786.796 480.363 789.801 462.159 808.005C451.72 818.444 447.949 821.843 448.341 824.663C448.585 826.419 450.444 827.951 453.313 830.821C456.114 833.621 457.627 835.382 459.344 835.609C461.993 835.96 465.126 832.659 474.221 823.889C489.875 808.796 493.912 807.589 502 815.583C508.935 822.439 507.201 826.852 491.309 842.779C477.25 856.869 477.151 857.076 482.171 862.084C492.348 872.239 493.563 871.922 510.869 854.617C529.347 836.139 535.265 834.229 542.278 844.482C548.007 852.856 546.203 855.767 519.116 881.847C506.057 894.422 500.185 902.128 493.603 902.792C484.64 903.697 474.359 891.542 442.815 860.835C421.117 839.712 412.028 832.328 412.522 825.653C412.909 820.426 419.169 815.635 429.852 805.024Z" fill="#F7E9E1"/>
<path d="M691.231 545.975C691.457 544.569 692.333 543.268 693.319 541.365C700.413 527.665 710.437 527.276 722.072 540.249C725.523 544.098 741.18 560.476 756.865 576.646C780.989 601.516 788.097 608.839 786.869 614.283C786.356 616.56 784.384 618.509 781.589 621.275C778.966 623.871 777.154 625.81 774.99 626.357C769.286 627.8 761.137 619.576 729.243 588.245C696.767 556.341 690.489 550.594 691.231 545.975Z" fill="#F7E9E1"/>
<path fill-rule="evenodd" clip-rule="evenodd" d="M547.995 802.367C514.319 788.489 501.406 739.86 523.805 711.272C559.21 666.086 622.923 679.537 633.973 734.53C635.683 743.039 635.683 743.039 639.723 744.601C655.055 750.529 651.219 770.042 634.631 770.505C628.598 770.672 628.322 770.777 626.29 773.671C623.265 777.978 611.106 789.798 607.02 792.404C605.105 793.625 601.228 796.092 598.403 797.886C586.45 805.478 561.027 807.738 547.995 802.367ZM605.882 732.728C599.372 712.454 572.657 705.8 553.143 719.593C550.583 721.401 548.413 723.031 548.319 723.215C548.225 723.398 546.673 725.677 544.87 728.279C536.505 740.352 540.328 762.53 552.229 770.958C563.725 779.102 569.175 779.904 581.812 775.311C596.611 769.933 600.228 765.978 594.499 761.441C585.568 754.367 589.795 739.885 601.026 739.075C607.02 738.643 607.555 737.942 605.882 732.728Z" fill="#F7E9E1"/>
<path d="M680.02 623.149C650.915 594.044 650.891 594.007 655.481 585.215C659.374 577.761 666.961 573.72 673.012 575.876C677.952 577.637 723.403 623.399 727.879 631.119C740.291 652.532 732.691 683.824 711.893 696.934C682.948 715.181 666.92 710.165 627.15 670.416C598.669 641.95 598.622 641.841 609.886 630.824C613.335 627.45 615.564 625.198 618.094 624.784C623.022 623.978 629.089 630.144 647.527 648.579C680.139 681.19 688.193 684.533 701.675 671.051C713.313 659.412 710.862 653.991 680.02 623.149Z" fill="#F7E9E1"/>
<path d="M741.067 517.031C736.304 512.269 735.089 508.721 736.744 504.411C739.095 498.289 785.89 451.793 791.59 449.917C798.126 447.765 805.708 452.623 808.303 460.623C810.215 466.518 809.637 467.767 801.01 476.393C796.332 481.072 793.84 483.252 793.841 485.432C793.842 487.843 796.895 490.254 803.413 496.047C826.372 516.45 851.276 543.073 852.68 548.713C854.893 557.607 846.486 567.958 837.711 567.143C832.246 566.635 802.198 538.539 782.948 515.938C777.484 509.523 775.182 506.495 772.834 506.46C770.685 506.428 768.499 508.905 763.814 513.589C753.126 524.278 748.946 524.91 741.067 517.031Z" fill="#F7E9E1"/>
<path d="M859.807 438.253C822.532 432.858 818.057 431.045 820.807 422.453C824.888 409.703 834.545 406.604 858.868 410.238C869.706 411.857 875.174 412.958 877.338 410.778C879.702 408.396 878.119 402.098 875.283 388.279C871.613 370.399 871.779 369.427 879.871 361.334C885.48 355.726 888.355 354.324 893.091 354.89C899.212 355.621 899.674 357.002 903.647 386.455C906.615 408.456 907.152 416.119 910.564 422.158C913.121 426.683 917.294 430.296 925.316 438.346C946.673 459.777 948.141 463.268 939.419 471.88C930.95 480.243 922.579 480.121 915.076 471.525C900.703 455.058 894.839 448.002 887.325 444.242C881.149 441.15 873.857 440.287 859.807 438.253Z" fill="#F7E9E1"/>
<defs>
<filter id="filter0_i_1246_11501" x="184.691" y="146.245" width="832.24" height="907.931" filterUnits="userSpaceOnUse" color-interpolation-filters="sRGB">
<feFlood flood-opacity="0" result="BackgroundImageFix"/>
<feBlend mode="normal" in="SourceGraphic" in2="BackgroundImageFix" result="shape"/>
<feColorMatrix in="SourceAlpha" type="matrix" values="0 0 0 0 0 0 0 0 0 0 0 0 0 0 0 0 0 0 127 0" result="hardAlpha"/>
<feOffset/>
<feGaussianBlur stdDeviation="72.7443"/>
<feComposite in2="hardAlpha" operator="arithmetic" k2="-1" k3="1"/>
<feColorMatrix type="matrix" values="0 0 0 0 0.857446 0 0 0 0 0.111352 0 0 0 0 0.464556 0 0 0 0.3 0"/>
<feBlend mode="normal" in2="shape" result="effect1_innerShadow_1246_11501"/>
</filter>
</defs>
</svg>
