<svg width="1200" height="1200" viewBox="0 0 1200 1200" fill="none" xmlns="http://www.w3.org/2000/svg">
<path fill-rule="evenodd" clip-rule="evenodd" d="M1035.03 118.915L1035.48 119.117C1061.9 130.993 1084.32 150.297 1100.03 174.692C1115.74 199.071 1124.06 227.491 1124 256.514V576.738L1124 577.006C1122.43 699.99 1083.53 819.572 1012.47 919.804C941.423 1020.02 841.612 1096.13 726.346 1137.98C726.326 1137.99 726.306 1138 726.286 1138L679.62 1155.07L679.604 1155.07L679.589 1155.08C654.605 1164.19 628.24 1168.9 601.656 1169L601.248 1169L600.84 1168.99C574.92 1168.58 549.263 1163.71 524.991 1154.58L478.103 1137.59C478.094 1137.59 478.086 1137.59 478.078 1137.58C362.65 1095.94 262.619 1019.98 191.32 919.85C120.016 819.71 80.8364 700.145 79.005 577.097L79.0003 576.784V256.514C78.9414 227.491 87.2649 199.071 102.965 174.692C118.675 150.297 141.098 130.993 167.518 119.117L167.968 118.915L168.422 118.724C305.487 60.9644 452.84 31.8102 601.5 33.0372C750.16 31.8102 897.514 60.9644 1034.58 118.724L1035.03 118.915ZM601.5 74.9878C458.401 73.7599 316.553 101.801 184.618 157.399C165.575 165.959 149.414 179.872 138.091 197.455C126.767 215.038 120.768 235.536 120.818 256.468V576.471C122.522 690.991 158.986 802.269 225.348 895.468C291.71 988.667 384.817 1059.36 492.254 1098.12L539.448 1115.21C559.3 1122.71 580.291 1126.71 601.5 1127.05C623.262 1126.97 644.847 1123.11 665.3 1115.65L712.057 1098.56C819.352 1059.61 912.26 988.772 978.39 895.492C1044.52 802.212 1080.73 690.924 1082.18 576.471V256.468C1082.23 235.536 1076.23 215.038 1064.91 197.455C1053.59 179.872 1037.43 165.959 1018.38 157.399C886.447 101.801 744.599 73.7599 601.5 74.9878Z" fill="white"/>
<path fill-rule="evenodd" clip-rule="evenodd" d="M447.716 84.8447L117.942 414.619V256.747C117.891 235.788 123.917 215.264 135.29 197.659C146.663 180.055 162.896 166.124 182.022 157.554C267.241 121.755 356.576 97.3667 447.716 84.8447Z" fill="#FD5563"/>
<path fill-rule="evenodd" clip-rule="evenodd" d="M895.4 114.289L181.237 828.453C149.923 768.091 129.751 702.497 121.766 634.846L679.324 77.2881C752.483 82.1078 824.897 94.5181 895.4 114.289Z" fill="#FFE480"/>
<path fill-rule="evenodd" clip-rule="evenodd" d="M681.142 77.4092L121.974 636.577C119.592 616.918 118.239 597.083 117.941 577.15V407.678L439.633 85.9867C492.85 78.2562 546.707 74.5765 600.741 75.0387C627.604 74.8089 654.423 75.6028 681.142 77.4092Z" fill="#FFBD93"/>
<path fill-rule="evenodd" clip-rule="evenodd" d="M1083.54 271.546L338.745 1016.34C294.673 982.556 255.58 942.255 222.932 896.548C206.884 874.08 192.577 850.563 180.078 826.205L892.737 113.546C935.771 125.493 978.101 140.179 1019.46 157.554C1038.59 166.124 1054.82 180.054 1066.19 197.659C1077.56 215.264 1083.59 235.788 1083.54 256.747V271.546Z" fill="#6ACE86"/>
<path fill-rule="evenodd" clip-rule="evenodd" d="M1083.54 271.54L338.742 1016.34C384.649 1051.53 435.958 1079.65 491.014 1099.45L510.923 1106.64L1083.54 534.024V271.54Z" fill="#629EDE"/>
<path fill-rule="evenodd" clip-rule="evenodd" d="M1083.54 534.038L510.934 1106.64L538.415 1116.57C558.354 1124.07 579.438 1128.08 600.74 1128.42C622.599 1128.34 644.278 1124.48 664.821 1117.01L711.784 1099.89C819.552 1060.89 912.869 989.967 979.29 896.571C1045.71 803.174 1082.08 691.747 1083.54 577.149V534.038Z" fill="#7B49E4"/>
<g style="mix-blend-mode:soft-light" filter="url(#filter0_i_1246_11495)">
<path d="M962.179 218.896C847.964 170.916 725.169 146.718 601.29 147.777C477.411 146.718 354.616 170.916 240.401 218.896C223.916 226.283 209.925 238.289 200.123 253.463C190.321 268.636 185.127 286.326 185.17 304.39V580.542C186.646 679.37 218.212 775.399 275.661 855.827C333.11 936.255 413.71 997.26 506.717 1030.71L547.573 1045.46C564.758 1051.93 582.93 1055.39 601.29 1055.68C620.129 1055.6 638.815 1052.28 656.52 1045.84L696.998 1031.09C789.882 997.476 870.311 936.346 927.558 855.848C984.805 775.35 1016.15 679.312 1017.41 580.542V304.39C1017.45 286.326 1012.26 268.636 1002.46 253.463C992.655 238.289 978.664 226.283 962.179 218.896Z" fill="#444444"/>
</g>
<g style="mix-blend-mode:multiply" opacity="0.04" filter="url(#filter1_i_1246_11495)">
<path d="M962.179 218.896C847.964 170.916 725.169 146.718 601.29 147.777C477.411 146.718 354.616 170.916 240.401 218.896C223.916 226.283 209.925 238.289 200.123 253.463C190.321 268.636 185.127 286.326 185.17 304.39V580.542C186.646 679.37 218.212 775.399 275.661 855.827C333.11 936.255 413.71 997.26 506.717 1030.71L547.573 1045.46C564.758 1051.93 582.93 1055.39 601.29 1055.68C620.129 1055.6 638.815 1052.28 656.52 1045.84L696.998 1031.09C789.882 997.476 870.311 936.346 927.558 855.848C984.805 775.35 1016.15 679.312 1017.41 580.542V304.39C1017.45 286.326 1012.26 268.636 1002.46 253.463C992.655 238.289 978.664 226.283 962.179 218.896Z" fill="white"/>
</g>
<path fill-rule="evenodd" clip-rule="evenodd" d="M588.007 492.664C586.31 495.045 575.463 506.396 563.903 517.887C532.79 548.816 531.008 541.5 581.398 589.766C602.31 609.799 623.297 629.942 628.033 634.527C643.422 649.429 641.772 650.056 677.161 615.843C712.124 582.042 713.321 580.221 707.524 569.629C699.503 554.972 691.816 557.068 667.325 580.588C643.733 603.247 643.841 603.216 631.522 590.918C624.27 583.68 624.227 583.783 641.995 565.974C664.452 543.467 666.09 533.877 648.662 526.933C640.147 523.541 638.681 524.32 620.228 542.026C601.623 559.881 603.08 559.415 594.043 550.378C584.533 540.868 583.743 542.906 605.296 521.353C628.94 497.709 630.689 493.39 620.68 483.38C610.686 473.387 599.471 476.573 588.007 492.664ZM690.112 390.55C688.43 392.912 677.774 404.061 666.433 415.325C634.374 447.167 627.701 434.896 730.101 532.395C745.696 547.242 743.76 547.977 779.218 513.746C814.518 479.669 816.018 477.29 809.206 466.178C800.863 452.57 792.797 455.117 769.06 478.853C746.951 500.963 746.001 501.218 733.216 488.457C726.423 481.678 726.496 481.51 743.701 464.293C763.477 444.507 765.96 438.983 759.003 430.259C749.674 418.56 742.668 420.409 722.306 439.949C703.7 457.804 705.158 457.338 696.12 448.301C686.61 438.791 685.82 440.829 707.373 419.276C731.213 395.436 732.813 391.35 722.382 380.935C712.36 370.926 701.86 374.054 690.112 390.55ZM327.601 754.412C299.106 790.782 315.532 852.644 358.373 870.301C374.953 877.133 407.295 874.258 422.501 864.6C426.094 862.317 431.027 859.179 433.463 857.625C438.661 854.31 454.13 839.274 457.978 833.794C460.563 830.113 460.914 829.979 468.589 829.766C489.692 829.177 494.571 804.353 475.066 796.812C469.927 794.826 469.927 794.826 467.752 784.001C453.694 714.04 372.64 696.928 327.601 754.412ZM748.855 336.386C745.16 345.99 742.978 343.193 793.577 393.704C850.286 450.313 848.516 449.325 863.803 432.968C875.2 420.773 875.204 420.786 855.007 401.271C837.575 384.425 836.899 383.385 840.828 379.456C843.829 376.455 861.13 378.527 887.435 385.038C907.914 390.108 913.163 389.154 922.788 378.614C938.657 361.235 928.103 350.811 893.948 350.128C869.603 349.641 868.355 348.872 871.59 336.342C880.689 301.1 861.766 277.329 824.62 277.341C806.183 277.347 756.745 315.875 748.855 336.386ZM495.113 594.048C489.274 605.232 489.305 605.28 526.331 642.306C565.567 681.542 568.685 688.439 553.879 703.245C536.728 720.396 526.482 716.144 484.994 674.658C449.495 639.162 450.041 639.419 437.109 652.069C422.779 666.085 422.839 666.224 459.071 702.437C509.665 753.005 530.056 759.386 566.878 736.173C593.336 719.494 603.005 679.685 587.215 652.445C581.521 642.625 523.7 584.408 517.415 582.167C509.717 579.424 500.066 584.566 495.113 594.048ZM364.922 764.998C389.748 747.451 423.734 755.916 432.015 781.708C434.144 788.341 433.462 789.233 425.838 789.782C411.55 790.812 406.172 809.236 417.534 818.235C424.823 824.007 420.221 829.038 401.394 835.881C385.319 841.724 378.385 840.703 363.76 830.343C348.62 819.621 343.756 791.407 354.399 776.048C356.692 772.739 358.666 769.839 358.786 769.606C358.905 769.372 361.667 767.298 364.922 764.998ZM823.117 314.758C833.048 311.726 842.245 321.838 839.63 332.914C838.447 337.93 818.208 359.288 814.639 359.288C810.52 359.288 796.243 342.488 796.992 338.522C797.573 335.437 818.888 316.049 823.117 314.758Z" fill="#255933"/>
<defs>
<filter id="filter0_i_1246_11495" x="185.17" y="147.744" width="832.24" height="966.127" filterUnits="userSpaceOnUse" color-interpolation-filters="sRGB">
<feFlood flood-opacity="0" result="BackgroundImageFix"/>
<feBlend mode="normal" in="SourceGraphic" in2="BackgroundImageFix" result="shape"/>
<feColorMatrix in="SourceAlpha" type="matrix" values="0 0 0 0 0 0 0 0 0 0 0 0 0 0 0 0 0 0 127 0" result="hardAlpha"/>
<feOffset dy="58.1954"/>
<feGaussianBlur stdDeviation="80.0187"/>
<feComposite in2="hardAlpha" operator="arithmetic" k2="-1" k3="1"/>
<feColorMatrix type="matrix" values="0 0 0 0 0 0 0 0 0 0 0 0 0 0 0 0 0 0 0.8 0"/>
<feBlend mode="normal" in2="shape" result="effect1_innerShadow_1246_11495"/>
</filter>
<filter id="filter1_i_1246_11495" x="185.17" y="147.744" width="832.24" height="966.127" filterUnits="userSpaceOnUse" color-interpolation-filters="sRGB">
<feFlood flood-opacity="0" result="BackgroundImageFix"/>
<feBlend mode="normal" in="SourceGraphic" in2="BackgroundImageFix" result="shape"/>
<feColorMatrix in="SourceAlpha" type="matrix" values="0 0 0 0 0 0 0 0 0 0 0 0 0 0 0 0 0 0 127 0" result="hardAlpha"/>
<feOffset dy="58.1954"/>
<feGaussianBlur stdDeviation="65.4699"/>
<feComposite in2="hardAlpha" operator="arithmetic" k2="-1" k3="1"/>
<feColorMatrix type="matrix" values="0 0 0 0 0 0 0 0 0 0 0 0 0 0 0 0 0 0 0.8 0"/>
<feBlend mode="normal" in2="shape" result="effect1_innerShadow_1246_11495"/>
</filter>
</defs>
</svg>
