<svg width="1200" height="1200" viewBox="0 0 1200 1200" fill="none" xmlns="http://www.w3.org/2000/svg">
<path fill-rule="evenodd" clip-rule="evenodd" d="M1035.58 117.52L1036.03 117.722C1062.57 129.612 1085.09 148.939 1100.86 173.363C1116.63 197.772 1124.99 226.227 1124.93 255.285V575.897L1124.93 576.165C1123.36 699.298 1084.28 819.025 1012.92 919.378C941.56 1019.71 841.315 1095.91 725.545 1137.82C725.525 1137.83 725.505 1137.83 725.485 1137.84L678.615 1154.92L678.6 1154.93L678.584 1154.94C653.492 1164.06 627.011 1168.77 600.312 1168.87L599.901 1168.88L599.491 1168.87C573.458 1168.46 547.69 1163.58 523.312 1154.44L476.219 1137.43C476.211 1137.43 476.202 1137.42 476.194 1137.42C360.263 1095.72 259.795 1019.68 188.185 919.425C116.57 819.164 77.2194 699.454 75.38 576.256L75.3753 575.943V255.285C75.3161 226.226 83.676 197.772 99.4446 173.363C115.223 148.939 137.744 129.612 164.279 117.722L164.731 117.52L165.187 117.328C302.85 59.4983 450.846 30.3088 600.154 31.5372C749.463 30.3088 897.459 59.4983 1035.12 117.328L1035.58 117.52ZM600.154 73.5387C456.431 72.3093 313.965 100.384 181.453 156.05C162.327 164.62 146.096 178.55 134.723 196.154C123.351 213.758 117.325 234.281 117.375 255.239V575.629C119.087 690.288 155.71 801.701 222.362 895.013C289.013 988.325 382.526 1059.1 490.432 1097.91L537.832 1115.03C557.77 1122.53 578.853 1126.54 600.154 1126.88C622.012 1126.79 643.691 1122.93 664.232 1115.46L711.194 1098.35C818.957 1059.35 912.27 988.43 978.688 895.037C1045.11 801.644 1081.47 690.221 1082.93 575.629V255.239C1082.98 234.281 1076.96 213.758 1065.59 196.154C1054.21 178.55 1037.98 164.62 1018.86 156.05C886.344 100.384 743.878 72.3093 600.154 73.5387Z" fill="white"/>
<path fill-rule="evenodd" clip-rule="evenodd" d="M755.082 83.9405C703.919 76.8226 652.184 73.4453 600.284 73.8893C456.56 72.6598 314.094 100.735 181.582 156.401C162.456 164.971 146.225 178.901 134.852 196.505C123.48 214.109 117.454 234.632 117.504 255.59V575.98C118.156 619.618 123.864 662.785 134.36 704.663L755.082 83.9405Z" fill="#A8E8FF"/>
<path fill-rule="evenodd" clip-rule="evenodd" d="M1083.06 350.537L385.77 1047.83C418.701 1068.1 453.796 1085.04 490.562 1098.26L537.962 1115.38C557.9 1122.88 578.983 1126.89 600.284 1127.23C622.142 1127.15 643.821 1123.28 664.363 1115.82L711.324 1098.7C819.087 1059.7 912.401 988.781 978.819 895.388C1045.24 801.995 1081.6 690.573 1083.06 575.98V350.537Z" fill="#A8E8FF"/>
<path fill-rule="evenodd" clip-rule="evenodd" d="M133.461 701.031C150.388 770.522 180.472 836.54 222.49 895.365C266.73 957.302 322.805 1009.31 387.069 1048.63L1083.06 352.638V255.591C1083.11 234.633 1077.09 214.109 1065.71 196.505C1054.34 178.901 1038.11 164.971 1018.98 156.401C933.082 120.315 842.997 95.8241 751.097 83.3945L133.461 701.031Z" fill="#FFB9DA"/>
<path fill-rule="evenodd" clip-rule="evenodd" d="M119.227 612.395C123.799 669.738 137.104 725.856 158.516 778.849L838.41 98.9548C778.734 85.7163 717.94 77.6574 656.709 74.9121L119.227 612.395ZM1083.06 455.508V255.59C1083.07 253.689 1083.02 251.792 1082.93 249.9L326.762 1006.07C365.609 1037.49 408.591 1063.71 454.64 1083.93L1083.06 455.508Z" fill="#E6F8FF"/>
<g style="mix-blend-mode:soft-light" filter="url(#filter0_i_1246_11497)">
<path d="M960.385 217.743C846.175 169.765 723.385 145.567 599.511 146.627C475.637 145.567 352.847 169.765 238.637 217.743C222.152 225.129 208.162 237.135 198.361 252.308C188.559 267.481 183.365 285.17 183.408 303.233V579.374C184.884 678.197 216.449 774.223 273.895 854.648C331.342 935.073 411.939 996.075 504.942 1029.52L545.796 1044.27C562.98 1050.74 581.152 1054.2 599.511 1054.49C618.35 1054.42 637.034 1051.09 654.739 1044.65L695.215 1029.9C788.095 996.291 868.521 935.163 925.766 854.669C983.01 774.174 1014.35 678.14 1015.61 579.374V303.233C1015.66 285.17 1010.46 267.481 1000.66 252.308C990.86 237.135 976.87 225.129 960.385 217.743Z" fill="#5E5E5E"/>
</g>
<g style="mix-blend-mode:multiply" opacity="0.05" filter="url(#filter1_i_1246_11497)">
<path d="M960.385 217.743C846.175 169.765 723.385 145.567 599.511 146.627C475.637 145.567 352.847 169.765 238.637 217.743C222.152 225.129 208.162 237.135 198.361 252.308C188.559 267.481 183.365 285.17 183.408 303.233V579.374C184.884 678.197 216.449 774.223 273.895 854.648C331.342 935.073 411.939 996.075 504.942 1029.52L545.796 1044.27C562.98 1050.74 581.152 1054.2 599.511 1054.49C618.35 1054.42 637.034 1051.09 654.739 1044.65L695.215 1029.9C788.095 996.291 868.521 935.163 925.766 854.669C983.01 774.174 1014.35 678.14 1015.61 579.374V303.233C1015.66 285.17 1010.46 267.481 1000.66 252.308C990.86 237.135 976.87 225.129 960.385 217.743Z" fill="white"/>
</g>
<path fill-rule="evenodd" clip-rule="evenodd" d="M536.683 504.824C533.204 511.353 533.809 515.784 540.269 531.134C541.964 535.157 545.313 544.964 547.714 552.926C555.494 578.734 558.237 587.058 561.242 593.975C562.865 597.712 565.639 604.586 567.406 609.251C574.001 626.665 574.652 628.048 577.746 631.173C584.002 637.493 594.555 633.708 601.529 622.645C605.203 616.817 605.434 611.485 602.413 602.32C598.469 590.354 598.622 589.998 613.89 575.57C629.207 561.095 629.525 560.948 639.753 563.582C651.657 566.648 659.067 565.02 666.347 557.74C682.016 542.071 674.483 533.422 636.102 523.013C626.863 520.507 619.444 517.889 612.365 514.635C595.34 506.81 560.681 495.015 553.146 494.482C547.175 494.059 540.026 498.551 536.683 504.824ZM404.083 641.403C401.23 650.162 399.194 647.553 442.214 690.263C489.837 737.543 487.748 736.345 500.448 723.633C510.502 713.572 510.402 708.498 500.002 700.902C482.602 688.192 476.288 677.616 485.114 675.962C487.871 675.445 516.843 679.592 522.048 681.248C536.531 685.859 543.284 684.704 551.824 676.156C566.94 661.026 558.156 651.969 527.917 651.508C506.797 651.185 506.035 650.697 509.119 639.475C511.54 630.668 512.012 617.655 510.128 611.654C505.336 596.386 476.304 584.94 458.638 591.356C445.868 595.992 407.371 631.309 404.083 641.403ZM752.331 292.362C751.722 293.582 750.038 295.824 748.589 297.345C717.268 330.206 760.789 373.738 803.839 352.61C820.956 344.21 832.207 343.282 833.344 350.179C834.712 358.474 823.764 369.579 812.915 370.902C798.84 372.618 794.073 379.137 797.438 392.069C800.285 403.014 807.552 404.443 826.407 397.765C861.698 385.264 876.614 352.449 858.694 326.735C846.472 309.198 829.049 307.724 796.606 321.483C775.568 330.405 767.595 327.489 773.349 312.978C775.36 307.904 774.886 308.228 791.515 300.59C801.69 295.916 803.542 291.959 800.579 281.22C797.357 269.543 790.285 268.453 772.152 276.84C765.848 279.756 753.986 289.046 752.331 292.362ZM312.653 735.415C305.539 753.181 326.268 761.378 341.016 746.63C352.391 735.256 351.145 735.218 361.42 747.262C403.325 796.379 422.059 809.825 433.143 798.74C445.341 786.543 436.196 772.275 389.116 730.051C371.095 713.889 371.633 716.013 382.743 704.903C397.642 690.004 388.947 669.41 370.944 676.956C366.381 678.869 314.435 730.964 312.653 735.415ZM620.833 429.864C618.998 435.84 618.266 434.965 659.659 476.326C705.837 522.469 705.677 522.372 717.076 510.881C728.029 499.838 726.962 497.115 701.831 471.979C678.959 449.102 678.874 448.961 688.071 449.676C691.308 449.928 701.515 450.488 710.752 450.921C719.989 451.355 731.65 451.991 736.666 452.337C773.473 454.867 781.372 453.38 784.247 443.384C786.628 435.101 786.961 435.523 744.265 392.76C698.401 346.824 701.175 348.356 687.902 361.61C676.602 372.895 676.58 372.833 700.059 396.627C710.191 406.895 718.982 415.836 719.595 416.495C723.926 421.156 717.168 421.591 686.77 418.61C646.277 414.638 624.36 418.379 620.833 429.864ZM468.827 621.692C482.395 619.183 486.624 634.558 475.562 646.177C466.526 655.668 461.506 660.111 459.595 660.311C456.418 660.643 444.585 645.48 445.309 642.005C445.886 639.233 465.477 622.312 468.827 621.692ZM589.426 538.737C604.82 544.303 604.876 544.456 594.867 553.515C585.745 561.77 584.475 562.022 582.195 556.032C573.33 532.743 573.267 532.895 589.426 538.737Z" fill="#B22869"/>
<defs>
<filter id="filter0_i_1246_11497" x="183.408" y="146.594" width="832.205" height="907.894" filterUnits="userSpaceOnUse" color-interpolation-filters="sRGB">
<feFlood flood-opacity="0" result="BackgroundImageFix"/>
<feBlend mode="normal" in="SourceGraphic" in2="BackgroundImageFix" result="shape"/>
<feColorMatrix in="SourceAlpha" type="matrix" values="0 0 0 0 0 0 0 0 0 0 0 0 0 0 0 0 0 0 127 0" result="hardAlpha"/>
<feOffset/>
<feGaussianBlur stdDeviation="101.838"/>
<feComposite in2="hardAlpha" operator="arithmetic" k2="-1" k3="1"/>
<feColorMatrix type="matrix" values="0 0 0 0 0 0 0 0 0 0 0 0 0 0 0 0 0 0 1 0"/>
<feBlend mode="normal" in2="shape" result="effect1_innerShadow_1246_11497"/>
</filter>
<filter id="filter1_i_1246_11497" x="183.408" y="146.594" width="832.205" height="907.894" filterUnits="userSpaceOnUse" color-interpolation-filters="sRGB">
<feFlood flood-opacity="0" result="BackgroundImageFix"/>
<feBlend mode="normal" in="SourceGraphic" in2="BackgroundImageFix" result="shape"/>
<feColorMatrix in="SourceAlpha" type="matrix" values="0 0 0 0 0 0 0 0 0 0 0 0 0 0 0 0 0 0 127 0" result="hardAlpha"/>
<feOffset/>
<feGaussianBlur stdDeviation="65.4672"/>
<feComposite in2="hardAlpha" operator="arithmetic" k2="-1" k3="1"/>
<feColorMatrix type="matrix" values="0 0 0 0 0 0 0 0 0 0 0 0 0 0 0 0 0 0 1 0"/>
<feBlend mode="normal" in2="shape" result="effect1_innerShadow_1246_11497"/>
</filter>
</defs>
</svg>
