<svg width="512" height="512" viewBox="0 0 512 512" fill="none" xmlns="http://www.w3.org/2000/svg">
<rect width="512" height="512" rx="138.229" fill="white"/>
<path d="M67.5576 337C65.6827 337 64.0891 336.344 62.7767 335.031C61.4643 333.719 60.8081 332.125 60.8081 330.251L60.8081 197.511C60.8081 195.636 61.4643 194.043 62.7767 192.73C64.0891 191.418 65.6827 190.762 67.5576 190.762L90.6182 190.762C92.4931 190.762 94.0867 191.418 95.3991 192.73C96.7115 194.043 97.3677 195.636 97.3677 197.511L97.3677 209.042C102.242 203.042 108.429 198.074 115.929 194.136C123.616 190.012 133.084 187.949 144.333 187.949C155.769 187.949 165.706 190.574 174.143 195.824C182.58 200.886 189.048 208.104 193.547 217.478C198.235 226.853 200.578 238.102 200.578 251.226L200.578 330.251C200.578 332.125 199.922 333.719 198.61 335.031C197.297 336.344 195.704 337 193.829 337H169.081C167.206 337 165.612 336.344 164.3 335.031C162.987 333.719 162.331 332.125 162.331 330.251L162.331 252.913C162.331 242.039 159.613 233.508 154.176 227.321C148.926 221.134 141.239 218.041 131.115 218.041C121.366 218.041 113.585 221.134 107.773 227.321C101.961 233.508 99.055 242.039 99.055 252.913L99.055 330.251C99.055 332.125 98.3988 333.719 97.0865 335.031C95.7741 336.344 94.1804 337 92.3056 337L67.5576 337ZM277.922 339.812C266.486 339.812 256.549 337.281 248.112 332.219C239.863 326.97 233.488 319.658 228.989 310.283C224.489 300.722 222.239 289.473 222.239 276.536L222.239 197.511C222.239 195.636 222.895 194.043 224.208 192.73C225.52 191.418 227.114 190.762 228.989 190.762L253.737 190.762C255.799 190.762 257.393 191.418 258.518 192.73C259.83 194.043 260.486 195.636 260.486 197.511L260.486 274.849C260.486 298.097 270.704 309.721 291.14 309.721C300.889 309.721 308.576 306.627 314.201 300.44C320.013 294.253 322.919 285.723 322.919 274.849L322.919 197.511C322.919 195.636 323.575 194.043 324.887 192.73C326.2 191.418 327.793 190.762 329.668 190.762L354.416 190.762C356.291 190.762 357.885 191.418 359.197 192.73C360.509 194.043 361.166 195.636 361.166 197.511L361.166 330.251C361.166 332.125 360.509 333.719 359.197 335.031C357.885 336.344 356.291 337 354.416 337L331.637 337C329.574 337 327.887 336.344 326.575 335.031C325.45 333.719 324.887 332.125 324.887 330.251L324.887 318.72C319.825 325.282 313.544 330.438 306.045 334.188C298.546 337.937 289.171 339.812 277.922 339.812Z" fill="black"/>
<ellipse cx="423.303" cy="332.434" rx="24.6076" ry="6.30965" fill="#636366"/>
<path fill-rule="evenodd" clip-rule="evenodd" d="M442.318 197.692C456.175 206.609 463.496 230.392 459.256 245.986C455.381 260.232 434.444 305.277 425.233 315.994C423.665 317.819 421.503 316.951 420.449 314.788C414.299 302.174 393.509 259.195 389.218 245.986C384.813 232.427 390.479 212.292 401.523 203.538C413.308 194.197 429.417 189.391 442.318 197.692Z" fill="#92C341"/>
<path fill-rule="evenodd" clip-rule="evenodd" d="M431.182 220.563C436.955 224.278 439.204 231.464 437.438 237.961C435.601 244.716 430.164 250.338 423.076 250.368C416.259 250.398 411.182 244.56 409.078 238.084C407.243 232.434 409.584 226.646 414.185 222.999C419.095 219.107 425.807 217.105 431.182 220.563Z" fill="white"/>
</svg>
