<svg width="508" height="237" viewBox="0 0 508 237" fill="none" xmlns="http://www.w3.org/2000/svg">
<g clip-path="url(#clip0_2_1733)">
<rect width="508" height="237" fill="white"/>
<path d="M9.58808 130C8.05826 130 6.75791 129.465 5.68703 128.394C4.61616 127.323 4.08072 126.022 4.08072 124.493L4.08072 16.1813C4.08072 14.6514 4.61616 13.3511 5.68703 12.2802C6.75791 11.2093 8.05826 10.6739 9.58808 10.6739L28.4049 10.6739C29.9347 10.6739 31.2351 11.2093 32.3059 12.2802C33.3768 13.3511 33.9122 14.6514 33.9122 16.1813L33.9122 25.5897C37.8898 20.6942 42.9382 16.6402 49.0575 13.4276C55.3297 10.062 63.0553 8.37918 72.2343 8.37918C81.5662 8.37918 89.6742 10.5209 96.5584 14.8044C103.443 18.9349 108.721 24.8248 112.392 32.4739C116.217 40.123 118.129 49.3019 118.129 60.0107L118.129 124.493C118.129 126.022 117.593 127.323 116.523 128.394C115.452 129.465 114.151 130 112.622 130L92.4279 130C90.8981 130 89.5977 129.465 88.5269 128.394C87.456 127.323 86.9206 126.022 86.9206 124.493L86.9206 61.3875C86.9206 52.5145 84.7023 45.5538 80.2658 40.5054C75.9823 35.457 69.7101 32.9328 61.449 32.9328C53.494 32.9328 47.1452 35.457 42.4028 40.5054C37.6603 45.5538 35.2891 52.5145 35.2891 61.3875L35.2891 124.493C35.2891 126.022 34.7536 127.323 33.6828 128.394C32.6119 129.465 31.3115 130 29.7817 130L9.58808 130ZM181.239 132.295C171.908 132.295 163.799 130.229 156.915 126.099C150.184 121.815 144.983 115.849 141.311 108.2C137.64 100.398 135.804 91.219 135.804 80.6633L135.804 16.1813C135.804 14.6514 136.339 13.3511 137.41 12.2802C138.481 11.2093 139.781 10.6739 141.311 10.6739L161.505 10.6739C163.188 10.6739 164.488 11.2093 165.406 12.2802C166.477 13.3511 167.012 14.6514 167.012 16.1813L167.012 79.2864C167.012 98.2562 175.35 107.741 192.025 107.741C199.98 107.741 206.252 105.217 210.841 100.168C215.584 95.1201 217.955 88.1594 217.955 79.2864L217.955 16.1813C217.955 14.6514 218.491 13.3511 219.561 12.2802C220.632 11.2093 221.933 10.6739 223.463 10.6739L243.656 10.6739C245.186 10.6739 246.486 11.2093 247.557 12.2802C248.628 13.3511 249.164 14.6514 249.164 16.1813L249.164 124.493C249.164 126.022 248.628 127.323 247.557 128.394C246.486 129.465 245.186 130 243.656 130L225.069 130C223.386 130 222.009 129.465 220.938 128.394C220.02 127.323 219.561 126.022 219.561 124.493V115.084C215.431 120.439 210.306 124.646 204.187 127.705C198.067 130.765 190.418 132.295 181.239 132.295Z" fill="black"/>
<ellipse cx="299.108" cy="124.98" rx="20.0791" ry="5.14849" fill="#D1D1D6"/>
<path fill-rule="evenodd" clip-rule="evenodd" d="M314.633 15.0402C325.941 22.3163 331.914 41.7222 328.454 54.4464C325.293 66.0709 308.209 102.826 300.693 111.571C299.414 113.06 297.649 112.351 296.789 110.587C291.771 100.294 274.807 65.2244 271.306 54.4464C267.712 43.3823 272.335 26.9529 281.346 19.8102C290.962 12.1877 304.107 8.26663 314.633 15.0402Z" fill="#92C341"/>
<path fill-rule="evenodd" clip-rule="evenodd" d="M305.545 33.7043C310.256 36.7357 312.091 42.5993 310.65 47.9006C309.151 53.4122 304.715 57.9994 298.931 58.0243C293.369 58.0483 289.226 53.2847 287.509 48.0004C286.012 43.3908 287.922 38.6675 291.676 35.6916C295.683 32.5158 301.159 30.8822 305.545 33.7043Z" fill="white"/>
<path d="M26.3659 229.819C21.0339 229.819 16.5046 228.902 12.7779 227.067C9.10856 225.175 6.29923 222.509 4.3499 219.069C2.40056 215.572 1.31123 211.387 1.0819 206.513C1.02456 204.163 0.995897 201.64 0.995897 198.945C0.995897 196.251 1.02456 193.671 1.0819 191.205C1.31123 186.389 2.40056 182.233 4.3499 178.735C6.35656 175.238 9.19456 172.572 12.8639 170.737C16.5906 168.845 21.0912 167.899 26.3659 167.899C30.2646 167.899 33.7619 168.415 36.8579 169.447C39.9539 170.479 42.5912 171.913 44.7699 173.747C46.9486 175.525 48.6399 177.617 49.8439 180.025C51.0479 182.433 51.6786 185.042 51.7359 187.851C51.7932 188.367 51.6212 188.797 51.2199 189.141C50.8759 189.485 50.4459 189.657 49.9299 189.657H41.7599C41.1292 189.657 40.6132 189.514 40.2119 189.227C39.8106 188.883 39.5239 188.339 39.3519 187.593C38.4346 183.809 36.8579 181.229 34.6219 179.853C32.3859 178.477 29.6052 177.789 26.2799 177.789C22.4386 177.789 19.3712 178.879 17.0779 181.057C14.7846 183.179 13.5519 186.705 13.3799 191.635C13.2079 196.337 13.2079 201.153 13.3799 206.083C13.5519 211.014 14.7846 214.569 17.0779 216.747C19.3712 218.869 22.4386 219.929 26.2799 219.929C29.6052 219.929 32.3859 219.241 34.6219 217.865C36.8579 216.432 38.4346 213.852 39.3519 210.125C39.5239 209.323 39.8106 208.778 40.2119 208.491C40.6132 208.205 41.1292 208.061 41.7599 208.061H49.9299C50.4459 208.061 50.8759 208.233 51.2199 208.577C51.6212 208.921 51.7932 209.351 51.7359 209.867C51.6786 212.677 51.0479 215.285 49.8439 217.693C48.6399 220.101 46.9486 222.223 44.7699 224.057C42.5912 225.835 39.9539 227.239 36.8579 228.271C33.7619 229.303 30.2646 229.819 26.3659 229.819ZM76.813 229.819C72.2263 229.819 68.3563 229.017 65.203 227.411C62.107 225.806 59.7276 223.541 58.065 220.617C56.4596 217.693 55.5423 214.282 55.313 210.383C55.2556 209.351 55.227 208.09 55.227 206.599C55.227 205.109 55.2556 203.847 55.313 202.815C55.5423 198.859 56.4883 195.448 58.151 192.581C59.871 189.657 62.279 187.393 65.375 185.787C68.5283 184.182 72.341 183.379 76.813 183.379C81.285 183.379 85.069 184.182 88.165 185.787C91.3183 187.393 93.7263 189.657 95.389 192.581C97.109 195.448 98.0836 198.859 98.313 202.815C98.3703 203.847 98.399 205.109 98.399 206.599C98.399 208.09 98.3703 209.351 98.313 210.383C98.0836 214.282 97.1376 217.693 95.475 220.617C93.8696 223.541 91.4903 225.806 88.337 227.411C85.241 229.017 81.3996 229.819 76.813 229.819ZM76.813 221.305C79.8516 221.305 82.2023 220.359 83.865 218.467C85.5276 216.518 86.445 213.68 86.617 209.953C86.6743 209.093 86.703 207.975 86.703 206.599C86.703 205.223 86.6743 204.105 86.617 203.245C86.445 199.576 85.5276 196.767 83.865 194.817C82.2023 192.868 79.8516 191.893 76.813 191.893C73.7743 191.893 71.4236 192.868 69.761 194.817C68.0983 196.767 67.181 199.576 67.009 203.245C66.9516 204.105 66.923 205.223 66.923 206.599C66.923 207.975 66.9516 209.093 67.009 209.953C67.181 213.68 68.0983 216.518 69.761 218.467C71.4236 220.359 73.7743 221.305 76.813 221.305ZM106.121 228.959C105.548 228.959 105.061 228.759 104.659 228.357C104.258 227.956 104.057 227.469 104.057 226.895V186.303C104.057 185.73 104.258 185.243 104.659 184.841C105.061 184.44 105.548 184.239 106.121 184.239H112.829C113.403 184.239 113.89 184.44 114.291 184.841C114.693 185.243 114.893 185.73 114.893 186.303V189.227C116.097 187.622 117.703 186.275 119.709 185.185C121.773 184.039 124.21 183.437 127.019 183.379C133.555 183.265 138.113 185.816 140.693 191.033C142.012 188.74 143.904 186.905 146.369 185.529C148.892 184.096 151.673 183.379 154.711 183.379C157.693 183.379 160.387 184.067 162.795 185.443C165.261 186.819 167.181 188.912 168.557 191.721C169.991 194.473 170.707 197.971 170.707 202.213V226.895C170.707 227.469 170.507 227.956 170.105 228.357C169.704 228.759 169.217 228.959 168.643 228.959H161.591C161.018 228.959 160.531 228.759 160.129 228.357C159.728 227.956 159.527 227.469 159.527 226.895V202.901C159.527 200.321 159.155 198.286 158.409 196.795C157.664 195.247 156.661 194.158 155.399 193.527C154.138 192.897 152.733 192.581 151.185 192.581C149.924 192.581 148.663 192.897 147.401 193.527C146.14 194.158 145.108 195.247 144.305 196.795C143.503 198.286 143.101 200.321 143.101 202.901V226.895C143.101 227.469 142.901 227.956 142.499 228.357C142.098 228.759 141.611 228.959 141.037 228.959H133.985C133.355 228.959 132.839 228.759 132.437 228.357C132.093 227.956 131.921 227.469 131.921 226.895V202.901C131.921 200.321 131.52 198.286 130.717 196.795C129.915 195.247 128.883 194.158 127.621 193.527C126.36 192.897 125.013 192.581 123.579 192.581C122.261 192.581 120.971 192.925 119.709 193.613C118.448 194.244 117.416 195.305 116.613 196.795C115.811 198.286 115.409 200.321 115.409 202.901V226.895C115.409 227.469 115.209 227.956 114.807 228.357C114.406 228.759 113.919 228.959 113.345 228.959H106.121ZM179.853 228.959C179.28 228.959 178.792 228.759 178.391 228.357C177.99 227.956 177.789 227.469 177.789 226.895V186.303C177.789 185.73 177.99 185.243 178.391 184.841C178.792 184.44 179.28 184.239 179.853 184.239H186.561C187.134 184.239 187.622 184.44 188.023 184.841C188.424 185.243 188.625 185.73 188.625 186.303V189.227C189.829 187.622 191.434 186.275 193.441 185.185C195.505 184.039 197.942 183.437 200.751 183.379C207.287 183.265 211.845 185.816 214.425 191.033C215.744 188.74 217.636 186.905 220.101 185.529C222.624 184.096 225.404 183.379 228.443 183.379C231.424 183.379 234.119 184.067 236.527 185.443C238.992 186.819 240.913 188.912 242.289 191.721C243.722 194.473 244.439 197.971 244.439 202.213V226.895C244.439 227.469 244.238 227.956 243.837 228.357C243.436 228.759 242.948 228.959 242.375 228.959H235.323C234.75 228.959 234.262 228.759 233.861 228.357C233.46 227.956 233.259 227.469 233.259 226.895V202.901C233.259 200.321 232.886 198.286 232.141 196.795C231.396 195.247 230.392 194.158 229.131 193.527C227.87 192.897 226.465 192.581 224.917 192.581C223.656 192.581 222.394 192.897 221.133 193.527C219.872 194.158 218.84 195.247 218.037 196.795C217.234 198.286 216.833 200.321 216.833 202.901V226.895C216.833 227.469 216.632 227.956 216.231 228.357C215.83 228.759 215.342 228.959 214.769 228.959H207.717C207.086 228.959 206.57 228.759 206.169 228.357C205.825 227.956 205.653 227.469 205.653 226.895V202.901C205.653 200.321 205.252 198.286 204.449 196.795C203.646 195.247 202.614 194.158 201.353 193.527C200.092 192.897 198.744 192.581 197.311 192.581C195.992 192.581 194.702 192.925 193.441 193.613C192.18 194.244 191.148 195.305 190.345 196.795C189.542 198.286 189.141 200.321 189.141 202.901V226.895C189.141 227.469 188.94 227.956 188.539 228.357C188.138 228.759 187.65 228.959 187.077 228.959H179.853ZM268.119 229.819C264.621 229.819 261.583 229.045 259.003 227.497C256.48 225.892 254.531 223.656 253.155 220.789C251.779 217.865 251.091 214.425 251.091 210.469V186.303C251.091 185.73 251.291 185.243 251.693 184.841C252.094 184.44 252.581 184.239 253.155 184.239H260.723C261.353 184.239 261.841 184.44 262.185 184.841C262.586 185.243 262.787 185.73 262.787 186.303V209.953C262.787 217.063 265.911 220.617 272.161 220.617C275.142 220.617 277.493 219.671 279.213 217.779C280.99 215.887 281.879 213.279 281.879 209.953V186.303C281.879 185.73 282.079 185.243 282.481 184.841C282.882 184.44 283.369 184.239 283.943 184.239H291.511C292.084 184.239 292.571 184.44 292.973 184.841C293.374 185.243 293.575 185.73 293.575 186.303V226.895C293.575 227.469 293.374 227.956 292.973 228.357C292.571 228.759 292.084 228.959 291.511 228.959H284.545C283.914 228.959 283.398 228.759 282.997 228.357C282.653 227.956 282.481 227.469 282.481 226.895V223.369C280.933 225.376 279.012 226.953 276.719 228.099C274.425 229.246 271.559 229.819 268.119 229.819ZM303.129 228.959C302.555 228.959 302.068 228.759 301.667 228.357C301.265 227.956 301.065 227.469 301.065 226.895V186.303C301.065 185.73 301.265 185.243 301.667 184.841C302.068 184.44 302.555 184.239 303.129 184.239H310.181C310.754 184.239 311.241 184.44 311.643 184.841C312.044 185.243 312.245 185.73 312.245 186.303V189.829C313.735 187.995 315.627 186.475 317.921 185.271C320.271 184.01 323.167 183.379 326.607 183.379C330.104 183.379 333.143 184.182 335.723 185.787C338.303 187.335 340.281 189.543 341.657 192.409C343.09 195.276 343.807 198.716 343.807 202.729V226.895C343.807 227.469 343.606 227.956 343.205 228.357C342.803 228.759 342.316 228.959 341.743 228.959H334.175C333.601 228.959 333.114 228.759 332.713 228.357C332.311 227.956 332.111 227.469 332.111 226.895V203.245C332.111 199.92 331.279 197.311 329.617 195.419C328.011 193.527 325.661 192.581 322.565 192.581C319.583 192.581 317.204 193.527 315.427 195.419C313.649 197.311 312.761 199.92 312.761 203.245V226.895C312.761 227.469 312.56 227.956 312.159 228.357C311.757 228.759 311.27 228.959 310.697 228.959H303.129ZM352.925 228.959C352.351 228.959 351.864 228.759 351.463 228.357C351.061 227.956 350.861 227.469 350.861 226.895V186.303C350.861 185.73 351.061 185.243 351.463 184.841C351.864 184.44 352.351 184.239 352.925 184.239H360.063C360.693 184.239 361.181 184.44 361.525 184.841C361.926 185.243 362.127 185.73 362.127 186.303V226.895C362.127 227.469 361.926 227.956 361.525 228.357C361.181 228.759 360.693 228.959 360.063 228.959H352.925ZM352.581 176.843C351.95 176.843 351.434 176.671 351.033 176.327C350.689 175.926 350.517 175.41 350.517 174.779V168.587C350.517 168.014 350.689 167.527 351.033 167.125C351.434 166.724 351.95 166.523 352.581 166.523H360.407C361.037 166.523 361.553 166.724 361.955 167.125C362.356 167.527 362.557 168.014 362.557 168.587V174.779C362.557 175.41 362.356 175.926 361.955 176.327C361.553 176.671 361.037 176.843 360.407 176.843H352.581ZM389.876 228.959C386.436 228.959 383.541 228.357 381.19 227.153C378.84 225.949 377.091 224.172 375.944 221.821C374.798 219.413 374.224 216.432 374.224 212.877V193.355H367.43C366.857 193.355 366.37 193.155 365.968 192.753C365.567 192.352 365.366 191.865 365.366 191.291V186.303C365.366 185.73 365.567 185.243 365.968 184.841C366.37 184.44 366.857 184.239 367.43 184.239H374.224V169.963C374.224 169.39 374.396 168.903 374.74 168.501C375.142 168.1 375.658 167.899 376.288 167.899H383.254C383.828 167.899 384.315 168.1 384.716 168.501C385.118 168.903 385.318 169.39 385.318 169.963V184.239H396.068C396.642 184.239 397.129 184.44 397.53 184.841C397.932 185.243 398.132 185.73 398.132 186.303V191.291C398.132 191.865 397.932 192.352 397.53 192.753C397.129 193.155 396.642 193.355 396.068 193.355H385.318V212.017C385.318 214.368 385.72 216.203 386.522 217.521C387.382 218.84 388.844 219.499 390.908 219.499H396.842C397.416 219.499 397.903 219.7 398.304 220.101C398.706 220.503 398.906 220.99 398.906 221.563V226.895C398.906 227.469 398.706 227.956 398.304 228.357C397.903 228.759 397.416 228.959 396.842 228.959H389.876ZM404.73 228.959C404.156 228.959 403.669 228.759 403.268 228.357C402.866 227.956 402.666 227.469 402.666 226.895V186.303C402.666 185.73 402.866 185.243 403.268 184.841C403.669 184.44 404.156 184.239 404.73 184.239H411.868C412.498 184.239 412.986 184.44 413.33 184.841C413.731 185.243 413.932 185.73 413.932 186.303V226.895C413.932 227.469 413.731 227.956 413.33 228.357C412.986 228.759 412.498 228.959 411.868 228.959H404.73ZM404.386 176.843C403.755 176.843 403.239 176.671 402.838 176.327C402.494 175.926 402.322 175.41 402.322 174.779V168.587C402.322 168.014 402.494 167.527 402.838 167.125C403.239 166.724 403.755 166.523 404.386 166.523H412.212C412.842 166.523 413.358 166.724 413.76 167.125C414.161 167.527 414.362 168.014 414.362 168.587V174.779C414.362 175.41 414.161 175.926 413.76 176.327C413.358 176.671 412.842 176.843 412.212 176.843H404.386ZM440.987 229.819C434.623 229.819 429.578 227.985 425.851 224.315C422.125 220.646 420.118 215.429 419.831 208.663C419.774 208.09 419.745 207.373 419.745 206.513C419.745 205.596 419.774 204.879 419.831 204.363C420.061 200.063 421.035 196.337 422.755 193.183C424.533 190.03 426.969 187.622 430.065 185.959C433.161 184.239 436.802 183.379 440.987 183.379C445.631 183.379 449.53 184.354 452.683 186.303C455.837 188.195 458.216 190.861 459.821 194.301C461.427 197.684 462.229 201.611 462.229 206.083V207.889C462.229 208.463 462.029 208.95 461.627 209.351C461.226 209.753 460.71 209.953 460.079 209.953H431.527C431.527 209.953 431.527 210.039 431.527 210.211C431.527 210.383 431.527 210.527 431.527 210.641C431.585 212.648 431.957 214.511 432.645 216.231C433.391 217.894 434.451 219.241 435.827 220.273C437.261 221.305 438.952 221.821 440.901 221.821C442.507 221.821 443.854 221.592 444.943 221.133C446.033 220.617 446.921 220.044 447.609 219.413C448.297 218.783 448.785 218.267 449.071 217.865C449.587 217.177 449.989 216.776 450.275 216.661C450.619 216.489 451.107 216.403 451.737 216.403H459.133C459.707 216.403 460.165 216.575 460.509 216.919C460.911 217.263 461.083 217.693 461.025 218.209C460.968 219.127 460.481 220.245 459.563 221.563C458.703 222.882 457.442 224.172 455.779 225.433C454.117 226.695 452.024 227.755 449.501 228.615C447.036 229.418 444.198 229.819 440.987 229.819ZM431.527 202.729H450.533V202.471C450.533 200.235 450.161 198.286 449.415 196.623C448.67 194.961 447.581 193.642 446.147 192.667C444.714 191.693 442.994 191.205 440.987 191.205C438.981 191.205 437.261 191.693 435.827 192.667C434.394 193.642 433.305 194.961 432.559 196.623C431.871 198.286 431.527 200.235 431.527 202.471V202.729ZM484.43 229.819C480.99 229.819 478.037 229.418 475.572 228.615C473.164 227.813 471.186 226.809 469.638 225.605C468.09 224.401 466.943 223.197 466.198 221.993C465.453 220.789 465.051 219.786 464.994 218.983C464.937 218.353 465.109 217.865 465.51 217.521C465.969 217.12 466.456 216.919 466.972 216.919H473.766C473.995 216.919 474.196 216.948 474.368 217.005C474.54 217.063 474.769 217.235 475.056 217.521C475.801 218.152 476.575 218.811 477.378 219.499C478.238 220.187 479.241 220.789 480.388 221.305C481.535 221.764 482.968 221.993 484.688 221.993C486.924 221.993 488.787 221.563 490.278 220.703C491.826 219.786 492.6 218.496 492.6 216.833C492.6 215.629 492.256 214.655 491.568 213.909C490.937 213.164 489.733 212.505 487.956 211.931C486.179 211.301 483.656 210.641 480.388 209.953C477.177 209.208 474.511 208.262 472.39 207.115C470.269 205.969 468.692 204.535 467.66 202.815C466.628 201.095 466.112 199.089 466.112 196.795C466.112 194.559 466.771 192.438 468.09 190.431C469.466 188.367 471.473 186.676 474.11 185.357C476.805 184.039 480.13 183.379 484.086 183.379C487.182 183.379 489.877 183.781 492.17 184.583C494.463 185.329 496.355 186.275 497.846 187.421C499.394 188.568 500.569 189.743 501.372 190.947C502.175 192.094 502.605 193.097 502.662 193.957C502.719 194.588 502.547 195.104 502.146 195.505C501.745 195.849 501.286 196.021 500.77 196.021H494.406C494.119 196.021 493.861 195.964 493.632 195.849C493.403 195.735 493.173 195.591 492.944 195.419C492.313 194.846 491.625 194.244 490.88 193.613C490.135 192.983 489.217 192.438 488.128 191.979C487.096 191.463 485.72 191.205 484 191.205C481.821 191.205 480.159 191.693 479.012 192.667C477.865 193.585 477.292 194.76 477.292 196.193C477.292 197.168 477.55 198.028 478.066 198.773C478.639 199.461 479.757 200.121 481.42 200.751C483.083 201.382 485.605 202.041 488.988 202.729C492.829 203.417 495.868 204.449 498.104 205.825C500.397 207.144 502.003 208.692 502.92 210.469C503.895 212.189 504.382 214.11 504.382 216.231C504.382 218.811 503.608 221.133 502.06 223.197C500.569 225.261 498.333 226.895 495.352 228.099C492.428 229.246 488.787 229.819 484.43 229.819Z" fill="black"/>
</g>
<defs>
<clipPath id="clip0_2_1733">
<rect width="508" height="237" fill="white"/>
</clipPath>
</defs>
</svg>
