<svg width="512" height="512" viewBox="0 0 512 512" fill="none" xmlns="http://www.w3.org/2000/svg">
<rect width="512" height="512" rx="138.229" fill="white"/>
<ellipse cx="252.69" cy="434.474" rx="63.4533" ry="16.2701" fill="#636366"/>
<path fill-rule="evenodd" clip-rule="evenodd" d="M301.721 87.0296C337.455 110.023 356.332 171.349 345.397 211.56C334.69 250.934 273.435 381.541 253.046 396.606C251.243 397.938 249.157 396.807 248.172 394.794C237.543 373.068 176.674 248.111 164.799 211.56C153.441 176.596 168.05 124.676 196.527 102.104C226.916 78.0154 268.456 65.6241 301.721 87.0296Z" fill="#92C341"/>
<path fill-rule="evenodd" clip-rule="evenodd" d="M273.004 146.004C287.892 155.584 293.692 174.114 289.136 190.867C284.399 208.285 270.38 222.781 252.104 222.86C234.525 222.936 221.433 207.882 216.008 191.183C211.275 176.615 217.312 161.689 229.176 152.285C241.838 142.249 259.144 137.086 273.004 146.004Z" fill="white"/>
</svg>
